<svg xmlns="http://www.w3.org/2000/svg" width="500" height="350" viewBox="0 0 500 350"><path d="M217.66,210c-1.88,1.24-1.76,2.75-1.32,4.43,1.55,6,3,12.08,4.52,18.13a9.65,9.65,0,0,1,.35,2,.73.73,0,0,1-1.38.34,6.51,6.51,0,0,1-.49-1.53q-2.24-9-4.46-17.94c-.09-.39-.24-.76-.37-1.16-1.42,1.09-3.52,4.17-4.68,6.84,3.3,2.95,5.08,6.94,6.48,11a105.81,105.81,0,0,1,2.6,10.64c.29,1.25.47,2.52.7,3.79.07.33.14.66.2,1,.1.6.3,1.33-.57,1.45s-.93-.63-1.06-1.22c-.3-1.46-.59-2.92-.85-4.38-.84-4.67-1.6-9.37-3.77-13.66-1-2-2.18-3.88-3.35-5.78a9.37,9.37,0,0,0-1.45-1.4c-.45.92-.85,1.61-1.12,2.34-.5,1.33-.88,2.71-1.39,4a4,4,0,0,0,.23,3.77c.9,1.66,1,3.74,1.45,5.66,1,4.69,2,9.39,3,14.09a4,4,0,0,0,1.91,2.65,14.07,14.07,0,0,1,2.81,3.16,13.25,13.25,0,0,1,.92,1.48c1-.62,1.81-1.27,2.75-1.75,2.21-1.12,3.32-.8,5,1.11a23.4,23.4,0,0,1,5.28,9.95c.4,1.71.9,3.4,1.37,5.1,1.21,4.31.76,8.6-.21,12.86a4.32,4.32,0,0,1-4,3.5,3.32,3.32,0,0,1-3.1-1.15,29,29,0,0,1-7.7-17.32,22.77,22.77,0,0,1,.17-3.58,2.1,2.1,0,0,0-.13-1.13c-1.24-2-2.54-4-3.73-5.83a31.3,31.3,0,0,1-5,.32c-4.52-.43-8.46-2.05-11.3-5.87a16.34,16.34,0,0,1-3.12-8.43,48.88,48.88,0,0,0-1.42-9,27.42,27.42,0,0,1-.69-7.65c0-2.16,1.31-3.95,2.41-5.73.46-.76.89-.73,2.73-.36,2.64-3,2.43-7,3.47-10.54a2.38,2.38,0,0,0-2.8.3,9.32,9.32,0,0,0-2.3,2.26c-2.1,3.24-4.07,6.58-4.91,10.42-.17.79-.15,1.62-.36,2.39a1.33,1.33,0,0,1-.82.71c-.14,0-.61-.39-.64-.64a7.06,7.06,0,0,1,0-2.2,33.4,33.4,0,0,1,5.78-12.22c1.6-2.28,3-2.85,6.19-3.1a4.75,4.75,0,0,0,.27-.88c.21-1.79-.54-2.49-2.36-2.2a9.13,9.13,0,0,0-4.87,2.74,17,17,0,0,0-4.76,8.35,50.05,50.05,0,0,0-2,13.81,30.05,30.05,0,0,1-.53,5.25c-.05.35-.54.64-.83.95-.26-.34-.53-.67-.76-1-.07-.1,0-.27,0-.4.49-7.22.74-14.48,3.25-21.4a18.18,18.18,0,0,1,6.35-8.24A8.08,8.08,0,0,1,200,207.6c.83-5.68,2.95-10.68,7.89-14a26.9,26.9,0,0,0-5.79-8.5c-2.2-2.21-4.67-4.13-6.85-6.35-4.28-4.35-8.39-8.89-11.18-14.39a29.72,29.72,0,0,1-2.39-21.5c.63-2.42,1.53-4.76,2.28-7.14a2.66,2.66,0,0,0,.21-1.36,4.1,4.1,0,0,1,.55-3.32,48.61,48.61,0,0,1,3.28-5.1c2.18-2.85,4.6-5.52,6.73-8.4a25.65,25.65,0,0,0,2.36-4.68c1.56-3.45,3.17-6.89,4.56-10.41a19.45,19.45,0,0,1,4.94-6.86c3.51-3.4,7.48-6.06,12.34-7.1a24.48,24.48,0,0,1,3.82-.48c3.52-.19,7-.31,10.64-.46l.88-1.94c-2-.51-2.81-1.91-3.12-3.82a19,19,0,0,1,.14-7.66,17.48,17.48,0,0,0,.26-4.23,10.21,10.21,0,0,1,4-8.5,11.36,11.36,0,0,1,5.62-2.19,44.78,44.78,0,0,1,12.77,0,20,20,0,0,1,6.57,2.63,27.35,27.35,0,0,1,9.14,7.63,14.7,14.7,0,0,1,2.93,7c.35,2.89.43,5.81.49,8.72a5.11,5.11,0,0,1-3,4.54c-2.44,1.35-3.24,3.41-3.47,5.93-.07.88-.15,1.75-.23,2.68a5.89,5.89,0,0,1,2.24,3.5,5.65,5.65,0,0,0,1.19,2.08,12.9,12.9,0,0,1,2.45,6.36c.31,2.14.69,4.28,1,6.42a32.22,32.22,0,0,1,.61,4A40,40,0,0,0,278,136.26c1.61,3.36,3.4,6.64,5.2,9.89,2.21,4,3.45,8.39,4.94,12.66,1,3,1.8,6.09,2.71,9.21,3.22.83,6.2,2.62,9.92,2.64.14-.65.28-1.34.44-2a2.75,2.75,0,0,1,2.16-2.4,3.55,3.55,0,0,1,2.16.72c.38.24.53.9.68,1.41a39.14,39.14,0,0,1,1,10.68,3.53,3.53,0,0,0,1.29,3.15c2,1.61,2.19,3,1.28,5.4-.21.57-.51,1.1-.73,1.67-.35.9-.66,1.81-1,2.85-1.16.39-1.16.39-2.29-.83-.28.85-.62,1.65-.82,2.48a3.25,3.25,0,0,1-3.39,2.65,12.33,12.33,0,0,1-4.21-.41,8,8,0,0,0-5.15.12,41.73,41.73,0,0,1-4.32,1,1.9,1.9,0,0,1-1.32-.27c-1.09-.76-1.6-3.88-.74-4.88a3,3,0,0,1,1.71-.79c.76-.14,1.55,0,2.47-.24-2.32-2.13-3-4.86-3.46-7.67A3.12,3.12,0,0,0,286,182c-2.37-3.14-4.78-6.23-7.12-9.39a1.49,1.49,0,0,0-1.6-.53,165.91,165.91,0,0,0-17.48,2.46c-1.19.23-2.32.74-3.49,1.07a1.71,1.71,0,0,0-1.36,2.14,25.24,25.24,0,0,0,.78,4,212,212,0,0,1,5.59,23.71c.7,3.65,1.61,7.27,2.44,10.9a8.33,8.33,0,0,0,.45,1.2c3.37-.86,6.07-.07,7.77,3.08.14.06.26.16.38.15,5.41-.37,10,2,14.57,4.39,5.48,2.85,9.17,7.47,12.68,12.36A89.23,89.23,0,0,1,313,267.14c1.05,4,2.4,7.9,3.51,11.88.94,3.32,1.74,6.68,2.55,10,.16.66.66,1.69-.32,1.95-1.14.3-1.13-.87-1.28-1.62-1.28-6.32-3.31-12.42-5.17-18.58-1.23-4.08-2.23-8.25-3.75-12.22a129.44,129.44,0,0,0-5.83-12.95,63.18,63.18,0,0,0-10.16-14.16,28.66,28.66,0,0,0-7-5.11,46.59,46.59,0,0,0-7.85-3.27,23.73,23.73,0,0,0-4.59-.64c-1.2-.14-2.41-.21-3.61-.4a3.51,3.51,0,0,0-3.82,2.4,3.52,3.52,0,0,1,4.11,2.57,22.18,22.18,0,0,1,8.25,1.15,22.74,22.74,0,0,1,10.7,5.95c3.17,3.34,6.39,6.62,8.72,10.68,1.13,2,2.73,3.69,4.07,5.57a37.36,37.36,0,0,1,5.91,13.27c1.51,6.45,3.31,12.85,4.88,19.29.55,2.3.79,4.67,1.17,7,.09.54.2,1.16-.53,1.32s-.95-.41-1.06-.95c-.28-1.47-.46-2.95-.78-4.4-1-4.56-2-9.12-3.12-13.66-.69-2.89-1.63-5.73-2.27-8.64-1.29-5.91-4.36-10.89-8-15.6a22.07,22.07,0,0,1-1.83-2.43c-2.46-4.38-6-7.85-9.51-11.33A18.92,18.92,0,0,0,279,230.2a51.27,51.27,0,0,0-6.51-1.52,8.28,8.28,0,0,0-1.81.06c.55,1.6,1,3,1.51,4.36,3.9,10.33,7.83,20.64,11.7,31,1.68,4.5,3.25,9,4.86,13.57.34.95.14,1.24-.78,1.33-.62.06-1.23.18-2.18.32-.42-.76-1-1.65-1.43-2.6C280.66,269,277.53,261,274.55,253c-2.49-6.72-5-13.44-8.12-19.93a9.3,9.3,0,0,0-3.62-4.06c.17,1.69.19,3,.45,4.32,1.38,7,2.84,14.07,4.24,21.11,1.07,5.38,2,10.78,3.16,16.14.67,3.18,1.6,6.3,2.4,9.44a19.72,19.72,0,0,1,.53,2.37c0,.25-.27.78-.43.78a1.41,1.41,0,0,1-1-.41,3.47,3.47,0,0,1-.38-1.11c-2.76-8.26-3.77-16.9-5.55-25.38-1.59-7.55-3.1-15.12-4.62-22.69a24.1,24.1,0,0,1-.33-2.82,11.64,11.64,0,0,0-.95-4.92,7.47,7.47,0,0,1-.38-2.17c-.08-.5-.2-1-.32-1.59a2.75,2.75,0,0,0-1.12,2.85c.46,3.82.87,7.66,1.43,11.47,1.46,10.08,4.71,19.75,6.92,29.66,1.05,4.68,2.51,9.27,3.81,13.89.19.64.63,1.21.81,1.85a1.17,1.17,0,0,1-.3,1,1.11,1.11,0,0,1-1.05-.22,3.64,3.64,0,0,1-.74-1.42c-1.27-4.28-2.6-8.54-3.71-12.86-2-7.73-3.88-15.5-5.77-23.26-.46-1.87-.79-3.77-1.18-5.65l-.41-.07-.78,2c-2.71,7-3.48,14.32-3.63,21.74-.09,4.74-.1,9.48.08,14.22a55,55,0,0,0,1,6.81,9.6,9.6,0,0,1,.31,1.17.69.69,0,0,1-1.12.6,2.29,2.29,0,0,1-.72-1.16,41.12,41.12,0,0,1-1.12-6.18,150.13,150.13,0,0,1,.42-24.36,49.38,49.38,0,0,1,4.86-17.31,3.32,3.32,0,0,0,.33-1.72c-.09-1.13-.34-2.25-.57-3.67a9.49,9.49,0,0,0-.94,1.19,36.29,36.29,0,0,0-4.69,12.48c-.53,3.6-1.66,7.14-2,10.76-.73,7.34-1.37,14.71-.29,22.09.43,2.93,1,5.84,1.52,8.77a1.15,1.15,0,0,1-.42,1,1.12,1.12,0,0,1-1-.33,4.56,4.56,0,0,1-.63-1.68,83.37,83.37,0,0,1-1.6-14.51c0-3.79.47-7.57.45-11.36,0-6,1.62-11.79,2.89-17.59a34.66,34.66,0,0,1,2.48-6.85c1-2.27,2.41-4.39,3.56-6.61a3.71,3.71,0,0,0,.36-1.71,15.59,15.59,0,0,0-.43-2.35c-1.41,2.71-2.65,5.16-3.95,7.59-2.33,4.36-4.72,8.69-7,13.06-1.35,2.58-2.7,5.17-3.83,7.85-1.61,3.8-3,7.68-4.51,11.53-.07.19,0,.46-.16.58a8.26,8.26,0,0,1-.91.64,3.39,3.39,0,0,1-.65-1.08,2.45,2.45,0,0,1,.28-1.17c2.79-7.12,5.31-14.35,9.39-20.9,1.71-2.75,3.13-5.7,4.61-8.59,2.12-4.17,4.21-8.34,6.22-12.56,1.83-3.83,1.77-3.85.05-8.26-.83,1.8-1.57,3.42-2.33,5-3.31,7.12-6.54,14.28-10,21.35-2.32,4.81-5,9.48-7.34,14.27-1,2.11-1.82,4.37-2.68,6.57-.19.51-.21,1.21-.94,1.07s-1-.85-.73-1.58c.94-2.32,1.77-4.7,2.91-6.92,4.88-9.45,9.89-18.83,14.12-28.59.95-2.17,2-4.29,3-6.52a3,3,0,0,1-1-3.09c1.23-.15,1.23-.15,2,.8.8-1.9,1.59-3.68,2.27-5.5a3,3,0,0,0-.08-1.58Q253,198.4,250.59,188q-1.17-4.94-2.45-9.85c-.2-.77-.21-1.79-1.58-2.09.18,1.25.38,2.35.5,3.46.26,2.42.45,4.84.71,7.25a11.28,11.28,0,0,0,.43,2q1.26,4.17,2.55,8.34a15.26,15.26,0,0,0,1,2.88c2,3.62,1.77,7.43,1.19,11.29-.09.61-.17,1.21-.28,1.95l-1.53.07c0-.81.06-1.52.12-2.23.14-1.55.41-3.1.42-4.65a11.47,11.47,0,0,0-.53-3.38c-1.15-3.75-2.41-7.46-3.59-11.2-.54-1.67-1-3.36-1.5-5.05a1.34,1.34,0,0,0-1.74-1.11,4.36,4.36,0,0,0-.18,1.08c.24,3.38.46,6.76-.57,10.08-.14.45.13,1,.22,1.55.13.78-.13,1.43-.91,1.56a3.15,3.15,0,0,0-1.93,1.32,3.06,3.06,0,0,1-1.66,1.09,5.18,5.18,0,0,0-2.87,1.71c-1.08,1-2.32,1.82-3.61,2.8.47.84.9,1.75,1.45,2.58a14.21,14.21,0,0,1,2.15,10.06c-.71,5.79-1,11.61.34,17.38a3,3,0,0,1,.18,1.2,3.88,3.88,0,0,1-.59,1.09c-.33-.28-.9-.52-.95-.85a69.06,69.06,0,0,1-1.17-9.24c0-4,.44-8,.7-12a10.63,10.63,0,0,0-1.58-6c-.8-1.41-1.62-2.81-2.55-4.43a10.48,10.48,0,0,0-2.16,0,3.57,3.57,0,0,1-4.32-2.16,8,8,0,0,0-.59-.89c-1.84.87-2.93,2.47-4.05,3.93a3.4,3.4,0,0,0-.14,2.34c.62,3.39,1.25,6.79,2,10.16,1.9,8.38,3.91,16.75,5.81,25.13.93,4.09,1.7,8.22,2.55,12.33a1.3,1.3,0,0,1,.07.6c-.15.33-.36.84-.59.87a1.33,1.33,0,0,1-.92-.56,2.4,2.4,0,0,1-.29-1c-.36-1.52-.75-3-1.08-4.55-1.52-7-3-14-4.53-21s-3-13.89-4.57-20.83C217.9,210.76,217.79,210.44,217.66,210Zm3.45-61.55c3.3.47,6.18-.57,9-1.68a3,3,0,0,0,1.89-2.23,5.55,5.55,0,0,1,2.2-3.32,16.62,16.62,0,0,0,4.21-4.63,3.18,3.18,0,0,1,2.82-1.64c1.8-.12,3.62-.33,5.11-1.65,2.12-1.88,4.41-3.58,6.5-5.5s4.17-4,6.17-6.16a32.75,32.75,0,0,0,4-4.79c2.53-4.06,3.18-8.73,3.89-13.35a4,4,0,0,0-.1-1.61,12.27,12.27,0,0,0-.94-1.9c-1.34,3.24-2.38,6-3.62,8.71a29.93,29.93,0,0,1-2.77,4.69,4.58,4.58,0,0,1-3.3,1.76A9.44,9.44,0,0,1,250,114c-5.07-2.92-9.37-6.65-12-12a12.71,12.71,0,0,0-2-2.74,5.73,5.73,0,0,1-1.56-3c-.32-2.33-.65-4.66-1-7.15-.52,0-1,0-1.57,0-2.9.17-5.81.33-8.71.54a18.64,18.64,0,0,0-3.82.45c-7.17,2.05-12.72,6.14-16,13-.29.61-.66,1.19-.93,1.81-1.21,2.79-2.52,5.55-3.53,8.42a17.55,17.55,0,0,1-2.67,5.2c-2.31,2.93-4.76,5.74-7,8.7a32.11,32.11,0,0,0-3,4.82c-.73,1.45-.57,1.75.79,2.68s2.87,1.8,4.23,2.8c2.18,1.6,4.29,3.3,6.46,4.93,1.15.87,2.2,1.94,3.81,2.23-.23-3.71-.43-7.28-.69-10.86-.07-1-.47-2-.45-3,.06-3.51.21-7,.38-10.54a55.8,55.8,0,0,1,2.1-13.41c.64-2.13,1.2-4.33,2.66-6.11a3.26,3.26,0,0,1,4.14-1.18,10.21,10.21,0,0,1,2.34,1.16,40.5,40.5,0,0,1,3.56,2.69,32.18,32.18,0,0,1,7.5,8.49,18.83,18.83,0,0,1,2.67,9.88c0,2-.41,3.85-3,4.06-.1,1.85-.2,3.53-.29,5.22,0,1,0,2-.93,2.76-.27.21-.27.85-.27,1.3,0,3.31-.06,6.63-.08,10ZM202.4,132.15a4,4,0,0,0-.05.71c.5,5.87.76,11.77,1.61,17.58.71,4.91.77,10,3.15,14.59,1.81,3.53,3.07,7.36,5,10.82,2.89,5.21,6.13,10.22,9.23,15.31a6.58,6.58,0,0,0,.58.7c1.89-3.38,5.21-4.16,8.8-5-.68-1.23-1.27-2.27-1.83-3.32a64,64,0,0,1-5.88-14,54,54,0,0,0-4.19-11.84,6.36,6.36,0,0,1-.61-4.89,35.78,35.78,0,0,0,1.34-10c0-3.29-.08-6.59-.12-9.76C214.47,131,205.77,130.54,202.4,132.15Zm5.71,39.42c-1.21-2.84-2.38-5.5-3.46-8.19a16.4,16.4,0,0,1-1.1-3.66c-.61-3.88-1.12-7.76-1.61-11.65a2.06,2.06,0,0,0-1.15-1.71c-1.73-1-3.41-2.19-5-3.37-1.92-1.38-3.75-2.9-5.67-4.27-1.36-1-2.81-1.78-4.3-2.72a13.5,13.5,0,0,0-.89,1.82c-1.34,4.33-2.72,8.61-2.48,13.27.31,5.83,1.73,11.25,5.29,15.92,2.62,3.44,5.41,6.75,8.24,10,1.26,1.46,2.79,2.68,4.33,4.14A20.78,20.78,0,0,1,208.11,171.57Zm.56,1.78a20.6,20.6,0,0,0-5.94,6.42c-.86,1.88-.73,2.64.69,4.17a31.86,31.86,0,0,1,5.58,7.95,22.3,22.3,0,0,1,.79,2.47c-5.36,3.29-7.52,8.2-8.08,14a54.57,54.57,0,0,1-.65,5.44c-.94,4.53-1.14,9.3-4.57,13-1.14,1.23-.41,3.23,1.07,4.13a7.43,7.43,0,0,0,4.31.88c1.59-.07,1.75-.27,2.27-1.74a60.4,60.4,0,0,1,3.26-8.5,71.11,71.11,0,0,1,9.31-13.3c2-2.22,4-4.39,6-6.64-.39-1.69-.88-3.46-1.18-5.26a12.12,12.12,0,0,0-1.76-4.49c-1.67-2.63-3.27-5.3-4.87-8C212.86,180.44,210.8,177,208.67,173.35ZM269,87.23c2.42-1,2.49-1,2.43-3A55.17,55.17,0,0,0,271,77a14.19,14.19,0,0,0-1.78-5.13c-3.74-6-9.35-9.47-16.11-11.13a22.54,22.54,0,0,0-5.46-.3c-2.84,0-5.7,0-8.45.92a8.2,8.2,0,0,0-5.46,5.33,11.11,11.11,0,0,0,3.48,11.95,67.2,67.2,0,0,0,11.46,7.67,12.55,12.55,0,0,0,7,1.69C255,85.5,254.53,83.2,254,80.9c-.39-1.64-.84-3.27-1.27-4.91-.15-.56-.23-1.22.44-1.33.35-.06.85.44,1.2.78a2.41,2.41,0,0,1,.44.91c1,2.67,2,5.31,2.86,8a18,18,0,0,1,.29,3.84h2c0-.43,0-.76,0-1.09,0-2.5,0-5,.11-7.51.06-1.68.84-2.8,1.82-2.8,1.37,0,1.72,1.11,2.16,2.11a19.64,19.64,0,0,1,1.46,8.33,2.33,2.33,0,0,0,.21.64l1.46-.22c-.07-3.52-.18-6.9-.17-10.27a20.21,20.21,0,0,1,.45-4c.06-.32.76-.53,1.17-.79a6.31,6.31,0,0,1,.57,1.17c.07.22-.12.51-.16.78C268.28,78.71,268.61,82.87,269,87.23Zm-2.81,80.11,8.6-1-3.53-7c-1.51.38-1.51.37-2.49-.85-2.29-2.86-5.47-4.16-8.92-4.77-2.62-.46-4.72.89-6.54,2.63a10.9,10.9,0,0,0-3.56,5.56c-.11.55-.37,1.19-1,.92a1.49,1.49,0,0,1-.54-1.29,7.89,7.89,0,0,1,.75-2.29,15.45,15.45,0,0,1,4.19-4.91,9.18,9.18,0,0,1,9.88-1.56,23,23,0,0,1,6.77,3.84c-1.24-2.87-2.58-5.66-4-8.42a1.87,1.87,0,0,0-1.09-.77c-4.39-1.17-8.63-.94-12.44,1.74a25.19,25.19,0,0,0-4.07,3.66,15.45,15.45,0,0,0-4.22,8c-.09.61-.2,1.34-1.05,1.15s-.73-.89-.56-1.51a22.15,22.15,0,0,1,.9-3.11,22.58,22.58,0,0,1,6.09-8,15.71,15.71,0,0,1,14.15-3.83,6.68,6.68,0,0,0,1.12,0c-.59-1.56-1.1-2.94-1.68-4.48-2.09,0-4.11-.11-6.12,0-8.93.56-14.37,5.86-18.11,13.43a2.45,2.45,0,0,0,0,2.32c2,4.25,4,8.54,6.11,13l10.63-.5c1.23-1.62,1.88-3,1.32-4.89-.38-1.28.43-2.34,1.54-3.06,2.61-1.68,5.17-.77,6.09,2.14.17.55.37,1.42.73,1.52C266.29,165.32,266.38,166.07,266.19,167.34ZM236.8,186.83c.49-1.33.79-2.31,1.22-3.22a.86.86,0,0,1,1.65.29,11,11,0,0,1,0,2.63,16.92,16.92,0,0,0,.18,7.18,3.57,3.57,0,0,0,2.3,2.46c.18-2,.46-3.74.48-5.47a54.6,54.6,0,0,0-2.15-14,10.16,10.16,0,0,0-1.06-1.91,13.87,13.87,0,0,0-1,1.39c-.36.72-.6,1.51-1,2.21a1.89,1.89,0,0,1-3.32-.06,2.25,2.25,0,0,1,1.44-3.36,4.48,4.48,0,0,0,1.84-.59c1.16-.87,2.24-1.58,3.6-.38a1,1,0,0,0,.57.18c1.54.07,3.09.15,4.64.17,1.89,0,2.57.44,3.21,2.18.16.44.29.9.41,1.36,1,4.07,2,8.15,3,12.23,1.48,6.26,2.92,12.53,4.39,18.79.1.44.19,1.06.5,1.26,1.12.7,1.54,1.84,2.16,2.88a18.05,18.05,0,0,0,1.42,1.87c-.32-3.15-1-6.1-1.6-9.08a209.59,209.59,0,0,0-5.58-23.7,26,26,0,0,1-.85-5,2.55,2.55,0,0,1,1.86-2.82,36.08,36.08,0,0,1,3.86-1.24c2.05-.45,4.12-.78,6.19-1.09,2.68-.4,5.36-.73,8-1.08,1.08-.14,2.15-.31,3.23-.36a25.09,25.09,0,0,1,5.87-.05,111.45,111.45,0,0,1,11.15,3.05,6,6,0,0,1,4.08,4.21A28,28,0,0,1,298,181c.16,1,.05,2.21.59,2.92a13,13,0,0,1,2.47,5,9.46,9.46,0,0,0,.52-6.68c-.39-1.74-.77-3.27,1-4.72,1.39-1.13,1.18-1.39,2.95-1-.28-2.95-.08-5.9-1.37-8.63-1.35.28-1.28,1.13-1.4,1.94-.33,2.21-1.3,2.93-3.51,2.49-1.71-.35-3.4-.84-5.09-1.3s-3.1-.94-4.66-1.35c-1.18-.3-2.39-.47-3.57-.75a37,37,0,0,0-13.1-.62c-2.35.31-4.73.33-7.09.54-1.28.11-2.22-.19-2.33-1.78-1.24.26-2.29.55-3.35.69a2.9,2.9,0,0,0-2.79,2.19,1.63,1.63,0,0,1-2.09,1.15,4.27,4.27,0,0,0-1-.09c-4.39.22-8.79.42-13.18.69a23.91,23.91,0,0,0-8.65,2,4.53,4.53,0,0,0-1.45,7.46c.27.29.38.72.63,1a49.9,49.9,0,0,0,3.24,3.87C235.2,186.49,236.05,186.56,236.8,186.83Zm-16.15-55.26c.12-2.1.23-3.78.31-5.46,0-.86.22-1.79,1.19-1.86,1.65-.13,1.76-1.21,1.81-2.41a16.64,16.64,0,0,0-2.67-9.43,34.82,34.82,0,0,0-10.08-10.15c-3-2.11-4.42-1.75-5.6,1.64a51.9,51.9,0,0,0-2.37,8.79c-.68,4.2-1,8.46-1.35,12.7a16.88,16.88,0,0,0,.09,4.71C208.34,129.3,214.45,128.83,220.65,131.57Zm44.62,10.13c.49,3.43.92,4.14,3.54,5.52a22.92,22.92,0,0,1,7.64,6.88c.36.5.84,1.08.14,1.58s-1.09-.14-1.48-.61c-.69-.84-1.35-1.71-2.08-2.51a9.92,9.92,0,0,0-4.86-3.26c2.81,5.66,5.63,11.31,8.38,16.86,2.22.17,4.25.27,6.26.51s3.91.62,6.19,1c-.88-3-1.55-5.71-2.47-8.32-1.64-4.65-3-9.42-5.59-13.7a72.81,72.81,0,0,1-6.44-13.55c-.35-1-.8-2-1.28-3.16l-12,3.05c.95,2.42,1.82,4.76,2.8,7a1.92,1.92,0,0,0,1.21.85c6.66,1.8,11.65,5.9,15.69,11.3.41.55,1.31,1.24.5,1.89s-1.42-.36-1.83-1a29.23,29.23,0,0,0-6.57-6.61A20.83,20.83,0,0,0,265.27,141.7Zm.19-49.78c-7.17,1.78-14.18.5-21.29-1.34-1.46,3.12-3,6.17-3.51,9.64a5.79,5.79,0,0,0,1.48,5.25c2.13,2.07,4.32,4.09,6.65,5.94a10.08,10.08,0,0,0,3.8,1.83c4,1,5.41.12,7.1-2.87A20.73,20.73,0,0,0,260.8,108c.83-2,1.57-4,2.49-6a18.13,18.13,0,0,0,1.63-6C265,94.65,265.26,93.35,265.46,91.92Zm-22.66,77.6-10.27-22.18a22.49,22.49,0,0,1-11.91,3c-.71,2.41-1.69,4.73,0,7.17a9.74,9.74,0,0,1,1.12,2.6q1.56,4.83,3,9.69a36.3,36.3,0,0,0,3.1,7.69c.45-3.89,2.83-5.31,5.76-6S239.55,170.2,242.8,169.52Zm15.35-44.24-1.15,1c-2.8,2.35-5.23,5.08-8.21,7.25-2.25,1.65-4.46,3-7.31,3.08a2,2,0,0,0-1.51.74,23.51,23.51,0,0,1-5.23,5.62,2.23,2.23,0,0,0-.83,2.54c1,2.56,2,5.09,3.21,8.05,2.78-4.82,5.67-9,10.27-11.52s9.52-3.18,14.88-2.82C260.56,134.71,258.52,130.49,258.15,125.28ZM194.3,227a4.56,4.56,0,0,0-.58.53c-2.24,3.55-1.32,7.3-.65,11,.25,1.39.71,2.75.92,4.14.29,1.87.39,3.77.63,5.65a12.82,12.82,0,0,0,.59,3,13.84,13.84,0,0,0,12.64,8.93,4.41,4.41,0,0,0,3.38-.9c-.9-3-1.82-6.11-2.85-9.56a28.09,28.09,0,0,1-1.92,2.36,10.74,10.74,0,0,1-2.18,1.75,1.68,1.68,0,0,1-2.19-.53,3.28,3.28,0,0,1,.64-4.52c1.53-1,3.15-1.78,4.87-2.74-.11-.5-.24-1.05-.39-1.74-1.06.37-1.92.77-2.82,1a49.32,49.32,0,0,1-5,1,1.85,1.85,0,0,1-1.57-.58c-.19-.31.19-1.09.49-1.55a7.63,7.63,0,0,1,6.11-3.48,3,3,0,0,0,2.2-.94c-.7-.08-1.12-.16-1.54-.17-2.16,0-4.33,0-6.48-.1-1.19-.05-1.51-.77-.89-1.79a4.17,4.17,0,0,1,3.19-2.27c1.51-.15,3-.34,4.75-.54l-.79-1.64c-1.93.06-3.54.23-5.14.14-3.29-.19-5.16-2.14-5.36-5.37C194.39,227.78,194.36,227.54,194.3,227Zm23.27,43.85a9.69,9.69,0,0,0,0,1.22,31,31,0,0,0,2.78,9.5,52.94,52.94,0,0,0,3.1,5.21,10.32,10.32,0,0,0,.93,1.07,2.65,2.65,0,0,0,4.68-1.25c.85-3.93,1.38-7.87.31-11.85-.45-1.7-1-3.37-1.38-5.09a21.07,21.07,0,0,0-5-9.39,3.23,3.23,0,0,0-1.74-1.19,3,3,0,0,0-2.88,4.41,69.68,69.68,0,0,0,4.33,6.35,3.29,3.29,0,0,1,.85,2.6,3.11,3.11,0,0,1-.7,1.73,1.56,1.56,0,0,1-2.19-.32Zm51-165.56c-.3,1.27-.55,2.18-.73,3.09a33.86,33.86,0,0,1-2.53,8.1c-1.16,2.53-3.19,4.34-5,6.33-.35.37-.83.92-.77,1.31.3,2,.76,4,1.21,6.12,4.35-.64,8.29-2.2,12.39-3-.28-1.92-.54-3.58-.76-5.24s-.34-3.09-.57-4.62c-.35-2.34-.75-4.67-1.16-7C270.29,108.7,270.06,106.94,268.54,105.31Zm-35.1,92.5a4.48,4.48,0,0,1-1.57-4.25c.3-1.67,1.7-2.43,3.17-3.56-1.46-.59-2.66-1.55-3.78-1.46a11,11,0,0,0-6.53,2.45,4.62,4.62,0,0,0-1.66,4.16c.47,2.91.88,5.89,2.6,8.46,1,1.57,1,1.64,2.84,1.28l1.58-2.45c.18-.28.5-.53.53-.82C230.82,199.89,232.05,198.93,233.44,197.81Zm52.39,78.11.38-.14a17.43,17.43,0,0,0-.48-1.89q-1.64-4.49-3.32-8.94l-10.89-28.88c-.74-2-1.42-3.95-2.23-5.88a1.57,1.57,0,0,0-1.15-.84c-.71,0-1,.72-.82,1.38a11,11,0,0,0,.66,1.9c1.7,4,3.5,7.93,5.11,12,3.29,8.22,6.46,16.5,9.74,24.74C283.72,271.56,284.82,273.72,285.83,275.92Zm-53.08-200a13,13,0,0,0,.41,6.8,1,1,0,0,0,1.44.66c1.27-.78,2.15-.14,3.06.6.68.56,1.36,1.13,2.05,1.67a19.06,19.06,0,0,0,5.9,3.46A41.76,41.76,0,0,0,261.42,91a11.13,11.13,0,0,0,5-1.42c-1.84.13-3.31.31-4.79.34-4.4.08-8.87.29-12.93-1.74a71.12,71.12,0,0,1-8.34-5C237.63,81.27,234.8,79.37,232.75,75.91Zm48.32,96-.17.42,7.19,9.59,3.94-2.69-1.53-4.72Zm-12,48c-1.35-1.27-2.94-1.05-4.55-.65-1,.24-1.88.38-2.12-1-.07-.35-.58-.65-.92-.94-.55-.47-1.14-.9-1.7-1.37s-.81-.73-1.59-1.43c.67,1.61,1.11,2.8,1.64,4a1.16,1.16,0,0,0,1.25.75c1.28-.05,1.48.43.85,1.59a5.12,5.12,0,0,0,.18,5c.76,1.37,2.34,2.28,3.5,3.34l2.19-1.79c-.74-1.1-.74-1.1-1.62-.93-1.59.31-2.54-.39-2.35-2a3.56,3.56,0,0,1,1.13-2.24A32.43,32.43,0,0,1,269.1,219.84ZM235.58,86.74a7.18,7.18,0,0,0-.32,1.73c.17,2.28.41,4.55.63,6.83.19,1.89,1.33,3.09,3.06,4.08a25.54,25.54,0,0,0-.13-9.75,1.26,1.26,0,0,0-.37-.7C237.6,88.24,236.71,87.6,235.58,86.74Zm61,95.19c-.34-.42-.5-.8-.78-1-.93-.51-1.81.1-2.73.21a5.16,5.16,0,0,0-4.3,3.38c-.53,1.33.47,2.7,1.38,3.82,0,.06.07.14.12.16a3.79,3.79,0,0,0,1.41.45,6.2,6.2,0,0,0,1.64-.62C291.67,184.62,292.38,183.13,296.54,181.93ZM235.47,192.1c-2.18,1-2.74,3-1.09,4a14.7,14.7,0,0,0,6.19,2.36,7.67,7.67,0,0,0,1.43-.15C238.94,196.71,237.44,194.14,235.47,192.1Zm10.61-8.23c-.47-2.71-.57-5.31-1.52-7.74h-2.51c.33,1.38.63,2.6.91,3.83s.58,2.59.87,3.91Zm49.67,0c-1.7,1-1.93,1.49-1.26,2.85,1.26,2.57,1.81,2.78,4.5,1.7C298.66,186.41,298.47,186.14,295.75,183.89Zm-74.08,88.52c.11-.31.23-.49.19-.54-3.27-4.15-5.53-8.92-8.18-13.44a12.19,12.19,0,0,0-1.24-1.47,7.25,7.25,0,0,0,1.12,3.57c1.62,2.48,3.08,5.07,4.66,7.58C219.18,269.63,219.88,271.38,221.67,272.41ZM261.73,88.26l2-.12c.18-3.2.07-6.23-1.82-9.4A47,47,0,0,0,261.73,88.26ZM263,165.37c-.07-1.3-.13-2.56-1.51-3.07a2.31,2.31,0,0,0-2.56.76c-.93,1-.41,2.09.05,3.21Zm28.79,29.24,1.24-3.89c-1.46,2.2-3.71,2.15-6.1,2.26.2.88.37,1.63.58,2.6Zm3.66-4.07a10.29,10.29,0,0,0,8.05,1.24l1.46-3.49c-1.29-.17-1.86.74-2.57,1.41a4.67,4.67,0,0,1-4.81,1.24A21.61,21.61,0,0,0,295.42,190.54Zm-60.09,8-1.76,1.53c1.51,1.63,3.91,1.63,5.82,0ZM302.94,194c-.27-.14-.44-.31-.58-.29a13.78,13.78,0,0,1-6.72-.88,1.47,1.47,0,0,0-1.81.4c.8.59,5.29,1.6,6.91,1.61A2.47,2.47,0,0,0,302.94,194Zm3.9-10.84c-.79,2.06-.25,3.83.21,5.68C309.16,186.28,309.12,184.86,306.84,183.15Zm-100,59.14c-2.19.17-4.53-.09-6.56,2.16A12.92,12.92,0,0,0,206.87,242.29ZM292.44,175l1.16,3.58,2.44.35C295.62,176.9,294.53,175.82,292.44,175Zm-85.36,73.79-.27-.2c-.89.47-1.78.92-2.66,1.41-1.14.64-1.19,1-.31,2.6Zm-7.21-10.87a15.74,15.74,0,0,0,5.87-.31,2.51,2.51,0,0,0-1.69-.77C202.74,236.92,201.29,236.65,199.87,237.89ZM242.62,89.62l-2.24-1.26c.24,1.68.43,3,.61,4.23h.36C241.74,91.68,242.13,90.78,242.62,89.62Zm-5,99.16-2-.56,1.75,2.37.29-.18Zm65.86-6.54a3.59,3.59,0,0,0-.12-3C302.42,180.4,303.35,181.28,303.45,182.24Zm-69,21c-.82-.61-1.19-1.19-2-1.22v1.22Z"/><path d="M243.48,69.06c0,1-.09,1.79-.14,2.69-.29.1-.59.21-.9.29-1.47.34-1.62.23-1.9-1.17-.21-1-.47-2-.68-3a15.1,15.1,0,0,1-.4-2.39c-.05-1,0-2.08,1.09-2.64.85-.44,1.6-.26,2.58,1A35.47,35.47,0,0,1,245.76,68c.28.48.76,1.18,0,1.6-.33.19-.95-.1-1.43-.19A9.08,9.08,0,0,1,243.48,69.06Zm-1.82-4.41-.53.19a6.48,6.48,0,0,0,.79,3.45L243.35,67C242.74,66.16,242.2,65.4,241.66,64.65Z"/><path d="M253.57,70.1l-2.22,1.12c-.27-.24-.56-.37-.65-.59-.88-2.26-1.76-4.53-2.55-6.82a1.55,1.55,0,0,1,.31-1.39,1.76,1.76,0,0,1,1.45.21A5.93,5.93,0,0,1,251.38,64c1.34,1.7,2.64,3.43,4,5.15.36.47.93.93.33,1.56s-1.1.18-1.59-.21C253.87,70.32,253.65,70.16,253.57,70.1Z"/><path d="M250.52,85.65c-.22-.15-.5-.23-.53-.37-.36-1.73-1.57-2.94-2.56-4.28a8.32,8.32,0,0,1-1.61-5.31,2,2,0,0,1,.68-1.52c.72-.44,1.26.23,1.62.8a19.29,19.29,0,0,1,1.77,3.16c.65,1.69,1.12,3.45,1.6,5.2A1.73,1.73,0,0,1,250.52,85.65Z"/><path d="M260.88,72.18A16.51,16.51,0,0,1,259,74.25a.75.75,0,0,1-1.23-.53c-.15-2.13-.8-4.26-.14-6.41a2.62,2.62,0,0,1,.45-.88c.59-.73,1.39-.83,1.84,0,1.27,2.21,2.41,4.49,3.54,6.77a1.08,1.08,0,0,1-.36,1,1.12,1.12,0,0,1-1-.24A12.26,12.26,0,0,1,260.88,72.18ZM259.44,69l-.53.16a17,17,0,0,0,.58,1.7,5.37,5.37,0,0,0,1-.22Z"/><path d="M267,161.06c-.11.18-.2.53-.39.59a1.2,1.2,0,0,1-.91-.05c-.28-.15-.44-.5-.65-.76-2.54-3-7.27-3.64-9.85,1.49a4,4,0,0,0-.23.77c-.17.57-.48,1.1-1.12.76a1.37,1.37,0,0,1-.49-1.14c.22-2.23,3.39-5.37,5.71-5.74,3-.48,6.55,1.09,7.67,3.43C266.86,160.59,266.92,160.78,267,161.06Z"/></svg>