<svg xmlns="http://www.w3.org/2000/svg" width="500" height="500" viewBox="0 0 500 500"><path d="M219.36,277.11c-1.7,1.12-1.59,2.47-1.2,4,1.4,5.44,2.73,10.89,4.08,16.34a8.48,8.48,0,0,1,.31,1.8.85.85,0,0,1-.51.64.82.82,0,0,1-.73-.34,5.85,5.85,0,0,1-.44-1.38l-4-16.17c-.09-.34-.22-.68-.34-1.05a18.87,18.87,0,0,0-4.21,6.17c3,2.66,4.58,6.25,5.84,9.94a95.59,95.59,0,0,1,2.34,9.58c.26,1.13.42,2.28.63,3.42l.18.9c.09.54.27,1.2-.52,1.31s-.84-.57-1-1.1c-.27-1.32-.53-2.63-.76-4-.76-4.21-1.45-8.44-3.4-12.31-.9-1.79-2-3.5-3-5.21a8.45,8.45,0,0,0-1.31-1.26c-.4.82-.76,1.45-1,2.11-.45,1.2-.79,2.44-1.25,3.63a3.6,3.6,0,0,0,.21,3.39c.81,1.5.93,3.38,1.3,5.11.91,4.23,1.78,8.46,2.7,12.69a3.61,3.61,0,0,0,1.72,2.39,12.66,12.66,0,0,1,2.53,2.85,10.83,10.83,0,0,1,.83,1.34,29.15,29.15,0,0,1,2.48-1.58c2-1,3-.72,4.47,1a21.06,21.06,0,0,1,4.75,9c.37,1.54.82,3.07,1.24,4.59,1.09,3.89.69,7.75-.19,11.6a3.87,3.87,0,0,1-3.59,3.14,3,3,0,0,1-2.8-1,26.26,26.26,0,0,1-6.94-15.6,21.91,21.91,0,0,1,.16-3.23,1.89,1.89,0,0,0-.12-1c-1.12-1.81-2.29-3.59-3.37-5.26a27.19,27.19,0,0,1-4.48.29c-4.07-.39-7.62-1.84-10.18-5.29a14.79,14.79,0,0,1-2.82-7.59,42.64,42.64,0,0,0-1.28-8.11,25,25,0,0,1-.62-6.89c0-1.95,1.18-3.56,2.17-5.17.42-.68.81-.66,2.46-.32,2.38-2.71,2.2-6.27,3.13-9.5a2.13,2.13,0,0,0-2.52.27,8.73,8.73,0,0,0-2.08,2,29,29,0,0,0-4.42,9.4c-.15.7-.14,1.45-.32,2.15a1.19,1.19,0,0,1-.74.64c-.13,0-.56-.35-.58-.57a6.32,6.32,0,0,1,0-2,30,30,0,0,1,5.21-11c1.44-2.06,2.71-2.57,5.57-2.8a3.84,3.84,0,0,0,.25-.79c.19-1.61-.48-2.24-2.12-2a8.28,8.28,0,0,0-4.4,2.48,15.36,15.36,0,0,0-4.28,7.52,44.87,44.87,0,0,0-1.83,12.45,28.11,28.11,0,0,1-.48,4.74c0,.31-.49.57-.75.85-.23-.31-.48-.61-.69-.93a.72.72,0,0,1,0-.36c.45-6.51.67-13,2.94-19.29a16.37,16.37,0,0,1,5.72-7.43,7.33,7.33,0,0,1,6.13-1.38c.75-5.12,2.66-9.62,7.11-12.66a24.08,24.08,0,0,0-5.22-7.66c-2-2-4.2-3.72-6.17-5.72-3.86-3.92-7.55-8-10.07-13a26.75,26.75,0,0,1-2.15-19.37c.56-2.18,1.37-4.3,2-6.44a2.44,2.44,0,0,0,.19-1.22,3.7,3.7,0,0,1,.49-3,44,44,0,0,1,3-4.6c2-2.57,4.15-5,6.07-7.58a23.05,23.05,0,0,0,2.12-4.21c1.41-3.11,2.86-6.21,4.11-9.38a17.77,17.77,0,0,1,4.45-6.19,22.92,22.92,0,0,1,11.13-6.4,22,22,0,0,1,3.44-.43c3.17-.17,6.34-.28,9.59-.41l.79-1.75c-1.8-.47-2.53-1.72-2.81-3.44a17.06,17.06,0,0,1,.13-6.9,16.16,16.16,0,0,0,.23-3.82,9.24,9.24,0,0,1,3.59-7.66,10.26,10.26,0,0,1,5.07-2,40,40,0,0,1,11.51,0,17.65,17.65,0,0,1,5.92,2.37,24.48,24.48,0,0,1,8.24,6.87,13.29,13.29,0,0,1,2.64,6.35c.32,2.6.38,5.23.44,7.85a4.57,4.57,0,0,1-2.68,4.09c-2.21,1.22-2.93,3.08-3.13,5.35-.07.79-.13,1.58-.21,2.41a5.32,5.32,0,0,1,2,3.16,5.11,5.11,0,0,0,1.07,1.87,11.53,11.53,0,0,1,2.21,5.74c.28,1.93.63,3.85.94,5.78a31.8,31.8,0,0,1,.55,3.61,36.17,36.17,0,0,0,3.66,14c1.45,3,3.06,6,4.68,8.91,2,3.61,3.11,7.55,4.45,11.41.94,2.7,1.63,5.48,2.45,8.3,2.9.74,5.58,2.35,8.94,2.38.13-.59.25-1.21.39-1.83a2.48,2.48,0,0,1,1.95-2.17,3.2,3.2,0,0,1,1.95.65c.34.22.48.81.61,1.27a35,35,0,0,1,.93,9.63,3.15,3.15,0,0,0,1.16,2.83c1.79,1.46,2,2.68,1.16,4.87-.2.51-.47,1-.66,1.51-.32.8-.6,1.63-.93,2.57-1.05.34-1.05.34-2.06-.75-.26.77-.56,1.49-.74,2.23a2.94,2.94,0,0,1-3.06,2.39,11.4,11.4,0,0,1-3.79-.36,7.22,7.22,0,0,0-4.64.1,37.42,37.42,0,0,1-3.9.92,1.72,1.72,0,0,1-1.19-.25c-1-.68-1.44-3.49-.67-4.39a2.77,2.77,0,0,1,1.55-.72c.68-.12,1.4,0,2.22-.21-2.09-1.92-2.69-4.38-3.12-6.92a2.73,2.73,0,0,0-.49-1.15c-2.13-2.82-4.31-5.62-6.42-8.46a1.33,1.33,0,0,0-1.44-.48,151.84,151.84,0,0,0-15.75,2.22c-1.07.21-2.09.67-3.15,1a1.55,1.55,0,0,0-1.23,1.94,25.17,25.17,0,0,0,.7,3.58,188.89,188.89,0,0,1,5,21.37c.64,3.29,1.46,6.55,2.2,9.82a9.64,9.64,0,0,0,.41,1.09c3-.78,5.47-.07,7,2.77.13.05.24.14.35.13,4.87-.33,9,1.81,13.13,4,4.93,2.57,8.27,6.73,11.42,11.14a80,80,0,0,1,12.11,26.69c1,3.6,2.17,7.12,3.17,10.7.84,3,1.57,6,2.3,9.05.14.6.59,1.53-.29,1.76s-1-.79-1.15-1.46c-1.15-5.69-3-11.2-4.66-16.75-1.11-3.67-2-7.43-3.38-11A116.2,116.2,0,0,0,296,309.22a57.18,57.18,0,0,0-9.17-12.76,26,26,0,0,0-6.34-4.61,41.33,41.33,0,0,0-7.07-2.94,20.86,20.86,0,0,0-4.14-.58c-1.08-.13-2.17-.19-3.25-.36a3.15,3.15,0,0,0-3.44,2.16,3.16,3.16,0,0,1,3.69,2.32,20,20,0,0,1,7.45,1,20.49,20.49,0,0,1,9.63,5.37c2.86,3,5.77,6,7.86,9.62,1,1.79,2.47,3.33,3.67,5a33.69,33.69,0,0,1,5.33,12c1.36,5.82,3,11.58,4.39,17.39.51,2.07.72,4.2,1.06,6.31.08.49.18,1.05-.47,1.2s-.87-.37-1-.87c-.25-1.31-.42-2.65-.71-4-.9-4.11-1.82-8.22-2.8-12.31-.63-2.61-1.48-5.16-2.05-7.78-1.16-5.34-3.93-9.82-7.18-14.07a19,19,0,0,1-1.65-2.19c-2.22-3.94-5.41-7.07-8.57-10.21a17.18,17.18,0,0,0-6.7-3.66,48.41,48.41,0,0,0-5.86-1.37,8,8,0,0,0-1.64.06c.49,1.44.9,2.7,1.36,3.93,3.51,9.31,7.06,18.6,10.54,27.91,1.52,4.06,2.93,8.15,4.38,12.23.31.85.13,1.12-.7,1.2-.55.05-1.1.16-2,.29-.38-.69-.89-1.49-1.29-2.35-3.28-6.95-6.11-14.1-8.79-21.31-2.25-6.06-4.52-12.11-7.33-18a8.33,8.33,0,0,0-3.26-3.66c.16,1.52.18,2.73.41,3.89,1.24,6.35,2.56,12.68,3.82,19,1,4.84,1.83,9.71,2.85,14.55.61,2.86,1.44,5.67,2.17,8.5a20,20,0,0,1,.47,2.14c0,.23-.25.7-.39.7a1.26,1.26,0,0,1-.9-.37,3,3,0,0,1-.34-1c-2.49-7.45-3.4-15.23-5-22.87-1.43-6.81-2.79-13.63-4.17-20.45a19.75,19.75,0,0,1-.29-2.54,10.65,10.65,0,0,0-.86-4.44,6.44,6.44,0,0,1-.34-2c-.08-.44-.18-.89-.29-1.43a2.47,2.47,0,0,0-1,2.57c.41,3.45.79,6.9,1.28,10.34,1.32,9.08,4.25,17.8,6.25,26.73.94,4.21,2.25,8.35,3.43,12.52.16.57.57,1.09.73,1.66a1.05,1.05,0,0,1-.27.93,1,1,0,0,1-.95-.19,3.34,3.34,0,0,1-.67-1.28c-1.14-3.86-2.34-7.7-3.34-11.59-1.8-7-3.5-14-5.2-21-.42-1.68-.71-3.39-1.06-5.09l-.38-.06-.69,1.79c-2.44,6.31-3.15,12.91-3.28,19.59-.08,4.27-.08,8.55.07,12.82a51.61,51.61,0,0,0,.94,6.13,10.37,10.37,0,0,1,.28,1.06.62.62,0,0,1-1,.54,2,2,0,0,1-.64-1,38.36,38.36,0,0,1-1-5.57,136.47,136.47,0,0,1,.38-22,44.33,44.33,0,0,1,4.39-15.6,3.07,3.07,0,0,0,.29-1.55c-.08-1-.31-2-.52-3.31a9.61,9.61,0,0,0-.84,1.08,32.45,32.45,0,0,0-4.23,11.24c-.48,3.25-1.5,6.44-1.82,9.7-.65,6.61-1.24,13.26-.26,19.91.39,2.64.94,5.26,1.37,7.9a1,1,0,0,1-.38.87,1,1,0,0,1-.91-.3,4.07,4.07,0,0,1-.57-1.51,74.71,74.71,0,0,1-1.44-13.08c0-3.41.42-6.82.41-10.23,0-5.45,1.45-10.63,2.6-15.86a30.82,30.82,0,0,1,2.24-6.17c.94-2.05,2.16-4,3.21-6a3.38,3.38,0,0,0,.32-1.54,14.21,14.21,0,0,0-.39-2.12c-1.27,2.44-2.39,4.65-3.56,6.84-2.1,3.93-4.25,7.83-6.32,11.77-1.22,2.32-2.43,4.66-3.46,7.08-1.45,3.42-2.72,6.92-4.06,10.39-.07.17,0,.41-.15.52a6,6,0,0,1-.82.58,3.21,3.21,0,0,1-.58-1,2.08,2.08,0,0,1,.25-1.05c2.51-6.42,4.78-12.93,8.46-18.84,1.55-2.48,2.83-5.13,4.16-7.74,1.91-3.75,3.79-7.52,5.61-11.32,1.64-3.45,1.59-3.47,0-7.44-.75,1.62-1.42,3.08-2.1,4.54-3,6.42-5.9,12.87-9,19.24-2.1,4.34-4.48,8.54-6.62,12.86-1,1.9-1.64,3.94-2.41,5.93-.18.45-.2,1.08-.85,1s-.93-.77-.66-1.43c.84-2.09,1.59-4.23,2.62-6.23,4.4-8.52,8.91-17,12.73-25.77.85-2,1.8-3.87,2.73-5.88a2.69,2.69,0,0,1-.91-2.78c1.11-.14,1.11-.14,1.77.72.72-1.72,1.44-3.32,2.05-5a2.67,2.67,0,0,0-.08-1.42q-2.15-9.37-4.33-18.73c-.7-3-1.43-5.93-2.21-8.88-.18-.69-.19-1.61-1.42-1.88.16,1.13.34,2.12.45,3.12.23,2.17.41,4.36.64,6.53a9.39,9.39,0,0,0,.39,1.79c.75,2.51,1.52,5,2.29,7.52a14.11,14.11,0,0,0,.88,2.59c1.8,3.26,1.6,6.69,1.08,10.18-.08.54-.15,1.08-.25,1.75l-1.38.07c0-.73.05-1.37.11-2,.12-1.4.37-2.8.38-4.2a10.55,10.55,0,0,0-.48-3c-1-3.38-2.17-6.73-3.24-10.1-.48-1.5-.93-3-1.35-4.55a1.21,1.21,0,0,0-1.57-1,4.57,4.57,0,0,0-.16,1c.21,3.05.41,6.09-.52,9.09a3.55,3.55,0,0,0,.2,1.4c.12.7-.11,1.29-.82,1.41a2.81,2.81,0,0,0-1.74,1.18,2.66,2.66,0,0,1-1.49,1,4.63,4.63,0,0,0-2.58,1.55c-1,.89-2.1,1.63-3.26,2.52.42.75.81,1.57,1.31,2.32a12.84,12.84,0,0,1,1.93,9.07c-.63,5.22-.9,10.47.31,15.66a2.76,2.76,0,0,1,.16,1.08,3.67,3.67,0,0,1-.53,1c-.3-.25-.81-.47-.86-.76a62.13,62.13,0,0,1-1.05-8.34c0-3.59.39-7.18.63-10.77a9.58,9.58,0,0,0-1.42-5.4l-2.3-4a9.21,9.21,0,0,0-1.95,0,3.23,3.23,0,0,1-3.89-1.95,8.5,8.5,0,0,0-.53-.81,10.64,10.64,0,0,0-3.66,3.55A3.07,3.07,0,0,0,221,277c.56,3.06,1.13,6.13,1.82,9.16,1.71,7.56,3.53,15.09,5.24,22.65.83,3.69,1.53,7.41,2.29,11.11,0,.18.13.4.06.54-.12.3-.31.76-.52.78s-.63-.25-.84-.5a2.28,2.28,0,0,1-.25-.86c-.33-1.37-.68-2.73-1-4.1-1.37-6.32-2.71-12.65-4.08-19s-2.74-12.51-4.12-18.77C219.57,277.79,219.47,277.5,219.36,277.11Zm3.1-55.48c3,.43,5.57-.51,8.13-1.51a2.64,2.64,0,0,0,1.7-2,5.1,5.1,0,0,1,2-3,14.83,14.83,0,0,0,3.8-4.17,2.87,2.87,0,0,1,2.54-1.48,7.25,7.25,0,0,0,4.6-1.48c1.92-1.7,4-3.23,5.86-5s3.77-3.65,5.57-5.56a29.23,29.23,0,0,0,3.64-4.32c2.28-3.65,2.86-7.86,3.5-12a3.73,3.73,0,0,0-.08-1.45,11.62,11.62,0,0,0-.86-1.71c-1.2,2.92-2.14,5.43-3.26,7.85a27.27,27.27,0,0,1-2.49,4.23,4.19,4.19,0,0,1-3,1.59,8.56,8.56,0,0,1-5.66-1c-4.57-2.64-8.44-6-10.8-10.87a11.64,11.64,0,0,0-1.81-2.46,5.15,5.15,0,0,1-1.41-2.72c-.29-2.1-.58-4.2-.9-6.44-.47,0-.94,0-1.41,0-2.62.15-5.24.3-7.85.48a17.13,17.13,0,0,0-3.45.41c-6.46,1.85-11.47,5.54-14.45,11.7-.27.54-.6,1.06-.84,1.62-1.09,2.52-2.28,5-3.19,7.59a15.65,15.65,0,0,1-2.4,4.69c-2.08,2.64-4.29,5.17-6.33,7.84A28,28,0,0,0,191,206.8c-.67,1.3-.52,1.57.7,2.4s2.59,1.63,3.82,2.53c2,1.44,3.87,3,5.82,4.45a8.17,8.17,0,0,0,3.44,2c-.21-3.34-.39-6.57-.63-9.79-.06-.9-.42-1.78-.41-2.67.06-3.17.2-6.33.35-9.5a50.45,50.45,0,0,1,1.89-12.09,15,15,0,0,1,2.4-5.5,2.93,2.93,0,0,1,3.73-1.07,9.66,9.66,0,0,1,2.11,1.05,38,38,0,0,1,3.21,2.42,28.88,28.88,0,0,1,6.75,7.66,17,17,0,0,1,2.42,8.9c-.05,1.81-.38,3.47-2.68,3.65-.09,1.67-.17,3.19-.25,4.71-.05.91,0,1.82-.85,2.49-.24.19-.23.77-.24,1.17,0,3-.05,6-.07,9Zm-16.87-14.69a5.71,5.71,0,0,0,0,.64c.46,5.28.69,10.6,1.45,15.84.65,4.43.7,9,2.84,13.15,1.64,3.18,2.77,6.63,4.5,9.75,2.6,4.7,5.52,9.21,8.32,13.8a4.1,4.1,0,0,0,.53.63c1.7-3.05,4.69-3.75,7.93-4.52-.62-1.11-1.15-2.05-1.65-3a57.53,57.53,0,0,1-5.31-12.61,49.32,49.32,0,0,0-3.77-10.68,5.67,5.67,0,0,1-.55-4.4,32.46,32.46,0,0,0,1.21-9c0-3-.07-5.94-.11-8.8C216.48,205.85,208.63,205.48,205.59,206.94Zm5.15,35.52c-1.09-2.56-2.14-5-3.12-7.37a16.15,16.15,0,0,1-1-3.31c-.54-3.49-1-7-1.44-10.5a1.87,1.87,0,0,0-1-1.54c-1.57-.93-3.07-2-4.55-3-1.73-1.25-3.38-2.61-5.12-3.85-1.22-.87-2.52-1.61-3.87-2.45a11.49,11.49,0,0,0-.8,1.64c-1.21,3.9-2.45,7.76-2.23,12,.27,5.25,1.55,10.13,4.76,14.34,2.37,3.1,4.88,6.09,7.43,9a51.93,51.93,0,0,0,3.9,3.73A18.8,18.8,0,0,1,210.74,242.46Zm.51,1.61a18.55,18.55,0,0,0-5.35,5.78c-.78,1.7-.66,2.38.61,3.77a28.14,28.14,0,0,1,5,7.16,17,17,0,0,1,.72,2.22c-4.84,3-6.78,7.39-7.29,12.62a46.8,46.8,0,0,1-.58,4.9c-.84,4.08-1,8.38-4.12,11.73-1,1.1-.37,2.91,1,3.72a6.65,6.65,0,0,0,3.88.79c1.44-.06,1.58-.24,2-1.56a53.27,53.27,0,0,1,2.94-7.67,64,64,0,0,1,8.38-12c1.77-2,3.6-4,5.45-6-.35-1.52-.79-3.11-1.07-4.74a10.93,10.93,0,0,0-1.58-4c-1.5-2.37-2.95-4.78-4.39-7.19C215,250.46,213.17,247.32,211.25,244.07Zm54.37-77.62c2.19-.85,2.25-.85,2.2-2.66a49.55,49.55,0,0,0-.44-6.57,12.73,12.73,0,0,0-1.61-4.62c-3.36-5.4-8.42-8.54-14.51-10a20.2,20.2,0,0,0-4.93-.27,23.58,23.58,0,0,0-7.61.83,7.43,7.43,0,0,0-4.92,4.8,10,10,0,0,0,3.13,10.77,61.36,61.36,0,0,0,10.34,6.92,11.39,11.39,0,0,0,6.27,1.52c-.51-2.25-1-4.32-1.45-6.39-.35-1.48-.77-2.95-1.15-4.43-.14-.5-.21-1.1.39-1.2.33-.05.77.4,1.09.71a2.18,2.18,0,0,1,.39.81c.88,2.41,1.84,4.79,2.58,7.24a15.85,15.85,0,0,1,.26,3.46h1.81v-1c0-2.25,0-4.51.1-6.77.06-1.51.76-2.52,1.65-2.52,1.23,0,1.55,1,1.94,1.9a17.72,17.72,0,0,1,1.32,7.51,2.14,2.14,0,0,0,.18.58l1.32-.2c-.06-3.17-.16-6.21-.15-9.26a19.2,19.2,0,0,1,.4-3.62c.06-.29.69-.47,1.06-.71a6.4,6.4,0,0,1,.52,1.05c.05.2-.11.46-.15.7A42.53,42.53,0,0,0,265.62,166.45Zm-2.53,72.2,7.75-.91-3.18-6.26c-1.37.34-1.36.33-2.24-.77a12.52,12.52,0,0,0-8-4.29c-2.36-.42-4.25.8-5.9,2.36a9.75,9.75,0,0,0-3.2,5c-.11.5-.34,1.08-.93.83a1.34,1.34,0,0,1-.49-1.16,7,7,0,0,1,.68-2.06,13.85,13.85,0,0,1,3.77-4.43,8.3,8.3,0,0,1,8.9-1.41,20.45,20.45,0,0,1,6.1,3.47c-1.11-2.59-2.32-5.11-3.58-7.59a1.7,1.7,0,0,0-1-.69c-3.95-1.06-7.77-.86-11.21,1.56a22.9,22.9,0,0,0-3.66,3.3,13.88,13.88,0,0,0-3.8,7.18c-.09.54-.19,1.21-.95,1s-.66-.8-.51-1.36a16.44,16.44,0,0,1,6.31-10A14.12,14.12,0,0,1,260.67,219a6.35,6.35,0,0,0,1,0l-1.51-4c-1.88,0-3.71-.1-5.51,0-8.05.5-13,5.28-16.33,12.1a2.21,2.21,0,0,0,0,2.09c1.84,3.83,3.63,7.7,5.51,11.7l9.58-.45c1.11-1.46,1.7-2.73,1.19-4.41-.35-1.15.38-2.1,1.38-2.75,2.36-1.52,4.67-.7,5.5,1.93.15.49.33,1.27.65,1.36C263.18,236.83,263.26,237.51,263.09,238.65Zm-26.48,17.57c.44-1.21.71-2.08,1.09-2.9a1,1,0,0,1,.85-.47,1,1,0,0,1,.64.72,9.89,9.89,0,0,1,0,2.37,15.26,15.26,0,0,0,.16,6.48,3.25,3.25,0,0,0,2.07,2.22c.17-1.81.42-3.37.43-4.93a48.67,48.67,0,0,0-1.93-12.63,9.66,9.66,0,0,0-1-1.73,13.62,13.62,0,0,0-.88,1.26c-.32.65-.54,1.36-.91,2a1.71,1.71,0,0,1-3,0,2,2,0,0,1,1.29-3,4.1,4.1,0,0,0,1.67-.53c1-.79,2-1.43,3.24-.34a.81.81,0,0,0,.51.15c1.39.07,2.79.14,4.18.16,1.71,0,2.33.4,2.9,2,.14.4.26.82.36,1.23.9,3.67,1.82,7.34,2.69,11,1.33,5.64,2.63,11.29,4,16.94.09.4.17,1,.45,1.13a6.55,6.55,0,0,1,2,2.6,16.94,16.94,0,0,0,1.28,1.68c-.29-2.83-.93-5.49-1.44-8.18a188.18,188.18,0,0,0-5-21.36,23.4,23.4,0,0,1-.77-4.5,2.3,2.3,0,0,1,1.68-2.54,31.08,31.08,0,0,1,3.47-1.11c1.85-.41,3.72-.7,5.59-1,2.41-.36,4.83-.67,7.24-1,1-.13,1.94-.28,2.91-.32a21.81,21.81,0,0,1,5.29-.05,98.31,98.31,0,0,1,10.05,2.75,5.39,5.39,0,0,1,3.68,3.79,24.84,24.84,0,0,1,.44,2.89c.15.89,0,2,.53,2.63A11.49,11.49,0,0,1,294.5,258a8.51,8.51,0,0,0,.48-6c-.36-1.57-.7-3,.91-4.26,1.25-1,1.06-1.25,2.66-.88-.26-2.66-.07-5.32-1.24-7.77-1.22.24-1.15,1-1.26,1.74-.3,2-1.18,2.65-3.16,2.25-1.55-.32-3.07-.76-4.6-1.18s-2.78-.84-4.19-1.21c-1.06-.28-2.15-.43-3.22-.67a33,33,0,0,0-11.81-.57c-2.11.28-4.26.3-6.39.49-1.15.1-2-.17-2.09-1.61-1.13.24-2.07.5-3,.63a2.6,2.6,0,0,0-2.51,2,1.47,1.47,0,0,1-1.88,1,4.68,4.68,0,0,0-.91-.09c-4,.2-7.93.38-11.89.63a21.45,21.45,0,0,0-7.79,1.84,4.08,4.08,0,0,0-1.3,6.72c.23.26.34.65.56.93a44.42,44.42,0,0,0,2.92,3.48C235.16,255.91,235.93,256,236.61,256.22ZM222,206.42c.11-1.9.21-3.41.29-4.92,0-.78.19-1.62,1.07-1.69,1.48-.11,1.59-1.08,1.63-2.17a15,15,0,0,0-2.41-8.49,31.3,31.3,0,0,0-9.08-9.15c-2.68-1.9-4-1.58-5,1.48a46.56,46.56,0,0,0-2.13,7.92c-.61,3.78-.88,7.62-1.22,11.45a15.05,15.05,0,0,0,.08,4.24C211,204.37,216.46,203.94,222,206.42Zm40.22,9.12c.44,3.09.83,3.74,3.19,5a20.6,20.6,0,0,1,6.89,6.2c.32.45.76,1,.13,1.42s-1-.12-1.34-.55c-.62-.75-1.22-1.53-1.88-2.25a9,9,0,0,0-4.37-3c2.53,5.1,5.06,10.2,7.55,15.2,2,.15,3.82.24,5.63.46s3.53.56,5.59.89c-.8-2.71-1.4-5.14-2.23-7.49-1.48-4.19-2.69-8.49-5-12.34a66.06,66.06,0,0,1-5.8-12.22c-.32-.91-.72-1.79-1.15-2.84l-10.79,2.74c.85,2.19,1.64,4.29,2.52,6.36a1.76,1.76,0,0,0,1.1.76c6,1.63,10.49,5.32,14.13,10.19.37.49,1.18,1.12.45,1.7s-1.27-.32-1.65-.86a26.57,26.57,0,0,0-5.92-6A18.93,18.93,0,0,0,262.26,215.54Zm.17-44.86c-6.46,1.6-12.77.45-19.18-1.21-1.32,2.82-2.72,5.56-3.17,8.69a5.22,5.22,0,0,0,1.34,4.73,77.66,77.66,0,0,0,6,5.35,9,9,0,0,0,3.44,1.65c3.6.88,4.87.11,6.4-2.58a23.45,23.45,0,0,0,1-2.16c.75-1.8,1.41-3.64,2.24-5.4a15.89,15.89,0,0,0,1.47-5.43C262.05,173.14,262.25,172,262.43,170.68ZM242,240.61q-4.6-10-9.26-20A20.12,20.12,0,0,1,222,223.34c-.64,2.17-1.52,4.26,0,6.46a8.79,8.79,0,0,1,1,2.35c.94,2.9,1.84,5.81,2.73,8.72a32.37,32.37,0,0,0,2.8,6.93c.4-3.5,2.55-4.78,5.18-5.43S239.08,241.23,242,240.61Zm13.84-39.86c-.61.55-.82.75-1,.94-2.51,2.12-4.7,4.58-7.39,6.54-2,1.48-4,2.68-6.59,2.78a1.84,1.84,0,0,0-1.37.66,21,21,0,0,1-4.71,5.07A2,2,0,0,0,234,219c.87,2.31,1.82,4.59,2.89,7.26,2.51-4.35,5.11-8.09,9.26-10.39s8.58-2.86,13.4-2.54C258,209.25,256.18,205.44,255.85,200.75ZM198.3,292.44a4.07,4.07,0,0,0-.52.48c-2,3.2-1.19,6.58-.59,9.93.23,1.25.64,2.47.83,3.73.26,1.69.35,3.4.56,5.09a12,12,0,0,0,.54,2.68,12.49,12.49,0,0,0,11.39,8,4,4,0,0,0,3.05-.82L211,313a26.92,26.92,0,0,1-1.73,2.13,10.27,10.27,0,0,1-2,1.58,1.52,1.52,0,0,1-2-.48,3,3,0,0,1,.57-4.08c1.39-.86,2.85-1.6,4.4-2.46-.11-.46-.22-1-.36-1.58-1,.34-1.72.69-2.54.89a42.46,42.46,0,0,1-4.47.86,1.65,1.65,0,0,1-1.41-.52c-.17-.28.17-1,.44-1.4a6.89,6.89,0,0,1,5.51-3.14,2.6,2.6,0,0,0,2-.84c-.63-.07-1-.14-1.39-.15-2,0-3.9,0-5.84-.09-1.08-.05-1.36-.7-.8-1.62a3.75,3.75,0,0,1,2.87-2c1.36-.14,2.72-.31,4.28-.49-.33-.7-.58-1.21-.71-1.48-1.74.06-3.19.21-4.63.13a4.72,4.72,0,0,1-4.83-4.84C198.38,293.13,198.35,292.91,198.3,292.44Zm21,39.52a9.82,9.82,0,0,0,0,1.1,28,28,0,0,0,2.51,8.56,47.61,47.61,0,0,0,2.79,4.7,10.69,10.69,0,0,0,.84,1,2.39,2.39,0,0,0,4.22-1.13c.76-3.54,1.24-7.09.28-10.68-.41-1.53-.9-3-1.25-4.58a18.91,18.91,0,0,0-4.49-8.47,2.86,2.86,0,0,0-1.57-1.06,2.67,2.67,0,0,0-2.59,4,63.5,63.5,0,0,0,3.9,5.73,3,3,0,0,1,.77,2.34,2.82,2.82,0,0,1-.63,1.56,1.41,1.41,0,0,1-2-.28Zm45.94-149.22c-.28,1.15-.5,2-.66,2.79a30.63,30.63,0,0,1-2.28,7.3c-1,2.28-2.88,3.91-4.53,5.7-.31.34-.75.84-.69,1.19.27,1.79.69,3.56,1.09,5.51,3.92-.58,7.47-2,11.17-2.69-.26-1.73-.49-3.23-.69-4.73s-.3-2.78-.51-4.16q-.48-3.17-1.05-6.31A8,8,0,0,0,265.21,182.74Zm-31.63,83.38a4,4,0,0,1-1.42-3.84c.27-1.5,1.53-2.19,2.85-3.2-1.31-.54-2.39-1.4-3.4-1.32a9.92,9.92,0,0,0-5.89,2.21,4.16,4.16,0,0,0-1.49,3.75c.42,2.62.79,5.3,2.34,7.62.94,1.41.94,1.48,2.56,1.16l1.42-2.21c.16-.25.46-.48.49-.74C231.21,268,232.32,267.12,233.58,266.12Zm47.21,70.39.34-.12a16.44,16.44,0,0,0-.43-1.71q-1.47-4-3-8.06-4.9-13-9.82-26c-.66-1.76-1.28-3.55-2-5.3a1.39,1.39,0,0,0-1-.75c-.63,0-.86.64-.73,1.24a9.75,9.75,0,0,0,.6,1.72c1.53,3.59,3.15,7.14,4.6,10.76,3,7.42,5.82,14.88,8.78,22.3C278.89,332.58,279.88,334.53,280.79,336.51ZM233,156.25a11.71,11.71,0,0,0,.36,6.13.86.86,0,0,0,1.3.59c1.15-.7,1.94-.12,2.76.55.61.5,1.22,1,1.84,1.5a17.22,17.22,0,0,0,5.33,3.12,37.58,37.58,0,0,0,14.24,1.72,10,10,0,0,0,4.54-1.28c-1.66.12-3,.28-4.31.3-4,.08-8,.27-11.66-1.56a65,65,0,0,1-7.51-4.52C237.35,161.08,234.8,159.37,233,156.25Zm43.54,86.5-.16.38,6.49,8.65,3.55-2.43L285,245.09ZM265.71,286c-1.22-1.14-2.64-.94-4.1-.58-.89.22-1.69.34-1.91-.93-.06-.33-.52-.59-.83-.85-.5-.43-1-.82-1.53-1.24s-.73-.66-1.43-1.29c.6,1.46,1,2.53,1.48,3.56a1,1,0,0,0,1.12.68c1.16,0,1.34.39.77,1.44a4.6,4.6,0,0,0,.16,4.5c.69,1.23,2.11,2.05,3.16,3l2-1.61c-.67-1-.67-1-1.46-.84-1.43.28-2.29-.35-2.12-1.77a3.23,3.23,0,0,1,1-2A29.86,29.86,0,0,1,265.71,286ZM235.51,166a6.84,6.84,0,0,0-.3,1.56c.16,2.05.37,4.1.57,6.15a4.69,4.69,0,0,0,2.76,3.68,22.71,22.71,0,0,0-.12-8.78,1.13,1.13,0,0,0-.33-.64C237.32,167.36,236.52,166.78,235.51,166Zm54.93,85.79c-.3-.38-.45-.72-.7-.85-.84-.46-1.64.09-2.46.18a4.65,4.65,0,0,0-3.88,3.05c-.48,1.2.42,2.43,1.25,3.45,0,0,.06.12.1.14a3.67,3.67,0,0,0,1.28.41,6,6,0,0,0,1.48-.57C286.06,254.23,286.69,252.88,290.44,251.8Zm-55,9.17c-2,.9-2.47,2.65-1,3.58a13.16,13.16,0,0,0,5.58,2.13,6.82,6.82,0,0,0,1.29-.14C238.53,265.12,237.18,262.81,235.4,261Zm9.56-7.42c-.42-2.44-.51-4.79-1.37-7h-2.26c.3,1.24.57,2.34.83,3.45s.52,2.33.78,3.52Zm44.77,0c-1.53.85-1.74,1.34-1.14,2.57,1.14,2.31,1.63,2.5,4.06,1.53C292.35,255.84,292.18,255.59,289.73,253.57ZM223,333.35c.1-.28.2-.44.17-.49-2.95-3.74-5-8-7.38-12.12a10.83,10.83,0,0,0-1.11-1.32,6.52,6.52,0,0,0,1,3.22c1.47,2.24,2.78,4.57,4.21,6.83C220.72,330.84,221.35,332.41,223,333.35Zm36.1-166,1.8-.11c.16-2.88.06-5.62-1.65-8.47A42.79,42.79,0,0,0,259.07,167.38Zm1.12,69.5c-.06-1.18-.12-2.31-1.36-2.77a2.1,2.1,0,0,0-2.31.68c-.84.93-.37,1.89.05,2.89Zm25.95,26.35,1.12-3.5c-1.32,2-3.35,1.93-5.5,2,.17.79.33,1.47.52,2.34Zm3.3-3.67a9.31,9.31,0,0,0,7.25,1.12l1.32-3.15c-1.16-.15-1.68.67-2.32,1.27a4.18,4.18,0,0,1-4.33,1.12C290.73,259.74,290.08,259.68,289.44,259.56Zm-54.17,7.24-1.58,1.38c1.36,1.48,3.52,1.47,5.24,0Zm60.94-4.13c-.24-.13-.39-.28-.53-.26a12.51,12.51,0,0,1-6.05-.79A1.31,1.31,0,0,0,288,262a20.26,20.26,0,0,0,6.23,1.45A2.23,2.23,0,0,0,296.21,262.67Zm3.51-9.77c-.71,1.86-.22,3.45.19,5.12C301.81,255.73,301.78,254.44,299.72,252.9Zm-90.09,53.3c-2,.15-4.08-.08-5.92,1.94A11.63,11.63,0,0,0,209.63,306.2Zm77.12-60.67,1.05,3.23,2.19.31A4.59,4.59,0,0,0,286.75,245.53ZM209.81,312l-.24-.17c-.8.42-1.6.82-2.39,1.26-1,.58-1.07.87-.28,2.34Zm-6.49-9.79a14.17,14.17,0,0,0,5.29-.29,2.34,2.34,0,0,0-1.52-.69C205.9,301.36,204.6,301.12,203.32,302.24Zm38.53-133.63-2-1.14c.21,1.51.38,2.67.55,3.82h.33C241.05,170.47,241.4,169.65,241.85,168.61ZM237.32,258l-1.85-.51,1.59,2.13.26-.16Zm59.35-5.9a3.23,3.23,0,0,0-.1-2.71C295.74,250.42,296.58,251.22,296.67,252.08ZM234.48,271c-.73-.55-1.07-1.08-1.78-1.11V271Z"/><path d="M242.62,150.08l-.12,2.43c-.27.08-.54.18-.82.25-1.32.31-1.45.21-1.71-1-.19-.9-.42-1.78-.61-2.67a14.66,14.66,0,0,1-.36-2.17c0-.91,0-1.86,1-2.37.77-.4,1.44-.24,2.33.9a30.68,30.68,0,0,1,2.36,3.68c.26.43.69,1.06,0,1.44-.3.17-.85-.09-1.29-.17C243.24,150.31,243.08,150.24,242.62,150.08Zm-1.63-4-.48.17a5.75,5.75,0,0,0,.7,3.11l1.3-1.13Z"/><path d="M251.71,151l-2,1c-.25-.21-.51-.33-.59-.53-.79-2-1.59-4.08-2.3-6.15a1.4,1.4,0,0,1,.28-1.25,1.55,1.55,0,0,1,1.3.19,5,5,0,0,1,1.33,1.23c1.21,1.53,2.38,3.09,3.56,4.64.33.42.84.84.3,1.41s-1,.16-1.43-.2Z"/><path d="M249,165c-.2-.12-.45-.2-.48-.32-.32-1.56-1.41-2.65-2.3-3.86a7.53,7.53,0,0,1-1.46-4.79,1.87,1.87,0,0,1,.61-1.37c.65-.39,1.14.21,1.46.72a17.85,17.85,0,0,1,1.6,2.85c.58,1.52,1,3.11,1.44,4.69A1.54,1.54,0,0,1,249,165Z"/><path d="M258.3,152.89a14.34,14.34,0,0,1-1.72,1.86.66.66,0,0,1-1.1-.47c-.14-1.92-.73-3.84-.13-5.78a2.27,2.27,0,0,1,.4-.79c.53-.66,1.25-.75,1.66,0,1.15,2,2.18,4.05,3.19,6.11a1,1,0,0,1-.32.87,1,1,0,0,1-.94-.21A12.3,12.3,0,0,1,258.3,152.89ZM257,150l-.48.14a13.27,13.27,0,0,0,.52,1.54,4.35,4.35,0,0,0,.89-.2Z"/><path d="M263.85,233c-.1.17-.18.48-.35.54a1.19,1.19,0,0,1-.83-.05c-.24-.14-.39-.45-.58-.68-2.29-2.74-6.55-3.29-8.88,1.34a5,5,0,0,0-.21.69c-.15.52-.42,1-1,.69a1.27,1.27,0,0,1-.44-1c.2-2,3.06-4.84,5.15-5.17,2.72-.44,5.9,1,6.92,3.09C263.69,232.57,263.75,232.74,263.85,233Z"/></svg>