<svg xmlns="http://www.w3.org/2000/svg" width="500" height="350" viewBox="0 0 500 350"><path d="M334.2,179.48c.48,2.12-.33,3.88-1,5.63-.61,1.52-1.4,3-2.13,4.46a3,3,0,0,1-3.22,1.87c-2.31-.15-4.65,0-6.88-.8-1.26-.45-2.51-.94-3.72-1.5a16.93,16.93,0,0,1-3.4-1.79c-1.88-1.45-3.57-1.11-5.3.14a43.08,43.08,0,0,0-4.82,3.63,95.11,95.11,0,0,0-13.77,17.07,12.67,12.67,0,0,0-.77,1.46c-.13.27-.22.56-.4,1,.41.38.83.79,1.27,1.19,1.68,1.56,1.89,2.56,1.13,4.73a13.43,13.43,0,0,1-2.84,4.45,3.77,3.77,0,0,0-1.22,2.93,3.11,3.11,0,0,1-1.3,2.7,1.86,1.86,0,0,0-.71,1.92c.3,2.3.55,4.6.77,6.91.1,1,.05,2.07.1,3.11a9.33,9.33,0,0,0,1.16,4.3c1.12,2,1.31,4.4,1.55,6.79l-2.17,1.06c.35.56.68,1.11,1,1.64a4.32,4.32,0,0,1,.64,4c-.23.69-.39,1.41-.57,2.12a2,2,0,0,0,.09,1.9c.25.33.14.93.16,1.41.09,2.5.13,5,.3,7.49a1.27,1.27,0,0,1-1.18,1.53c-3.8.64-7.6,1.3-11.45.37-3.42-.83-3.41-.86-3.2-4.43.11-1.81,0-3.64.06-5.46a17.07,17.07,0,0,1,.27-2.12c0-.17.14-.36.08-.49-.91-2.34.2-4.42.9-6.6-2.05-2.49-1.6-5.34-.88-8.11a8.67,8.67,0,0,0,.39-3.22c-.54-4.36-1-8.72-1.7-13.07a16.28,16.28,0,0,1-.5-3.16c0-.68-.63-1.41-1.06-2.06-.64-1-1.33-1.9-2-2.82a4.9,4.9,0,0,1-.06-6.45c-1.43-2.61-2.71-5.39-4.39-7.92a210.77,210.77,0,0,1-11.8-19.82c-.79-1.52-1.62-3-2.31-4.58a56.88,56.88,0,0,0-6.1-10.2,2.18,2.18,0,0,0-2.28-1,96,96,0,0,1-11,.69c-5.18-.14-10.35-.73-15.53-1.15-3.53-.29-7.05-.65-10.59-.93-8.52-.7-17.06-1.23-25.45-3a31.25,31.25,0,0,1-6.2-2.17c-2.42-1.1-3.32-2.63-4.14-6.15-.64,0-1.3,0-2,0-4.33.18-8.66.42-13,.54-1.7.05-3.41-.19-5.12-.3a.85.85,0,0,1-.36,0c-.51-.29-1.3-.5-1.43-.92a2,2,0,0,1,.66-1.55,26.09,26.09,0,0,1,2.73-2.15c2.82-2,5.75-3.93,8.47-6.09a38,38,0,0,0,8.06-8.93c1.78-2.69,3.81-5.22,5.83-7.75a8.32,8.32,0,0,1,2.24-1.84c1.06-.65,1.19-.55,2,.91.55-.71,1.1-1.33,1.55-2,2.47-3.72,5.11-7.33,7.31-11.2a60.56,60.56,0,0,1,13.47-15.83c3.09-2.67,6-5.53,9.55-7.68a76.7,76.7,0,0,1,12.78-5.92,126.62,126.62,0,0,1,25.26-6.69,99,99,0,0,1,22.48-1,201.65,201.65,0,0,1,32,4.79c7.43,1.71,14.89,3.28,22.31,5a59.3,59.3,0,0,1,14.54,5.91,2.1,2.1,0,0,1,.76.5c.73,1.16,1.93,1.39,3.11,1.69,2,.52,3.87,1.24,5.12,3,1.1,1.52,2.33,3,2.35,5,0,1.31-.16,2.45-1.63,3.1l2.16,8.4c1.29,5,2.65,10,3.85,15.06a29.09,29.09,0,0,1-.1,13.06c-.38,1.78-.78,3.57-1.06,5.38-.2,1.32-.13,2.67-.32,4-.4,2.78-.8,5.57-1.38,8.31a11.55,11.55,0,0,1-1.5,3.08c-.61,1.05-1.4,2-2,3.07-2.4,4.62-6.24,7.75-10.56,10.4C335.65,178.74,335,179.06,334.2,179.48ZM173,156.59l0,.19c1.44.26,2.89.45,4.3.8A85.7,85.7,0,0,0,197,159.84c4.52.06,9,.41,13.53.85a152.32,152.32,0,0,0,18.11,1,20.07,20.07,0,0,0,4.9-.55c6-1.65,12-3.37,17.91-5.24,5.23-1.66,10.32-3.79,15.59-5.28a26.91,26.91,0,0,1,21.12,2.22c3.68,2,7.39,4,11.07,6.09A227.75,227.75,0,0,0,322,170.26a24.26,24.26,0,0,0,11.61,2c3.92-.36,7.53-1.41,10.43-4.31,1.48-1.49,2.53-3.33,4.1-4.74a2.7,2.7,0,0,0,.67-1.47c.43-2.28.85-4.56,1.16-6.86.28-2,.34-4.13.63-6.18.24-1.68.73-3.33,1-5a34.66,34.66,0,0,0,.79-6.53,48.58,48.58,0,0,0-1.9-11.51q-2-7.23-4-14.47c-.28-1.06-.46-2.15-.66-3.22a1.64,1.64,0,0,1,.82-2,1.48,1.48,0,0,0,.58-1.16,5.41,5.41,0,0,0-.48-2.1,8.15,8.15,0,0,0-5.84-4.82c-1.51-.31-3.15-.56-4-2.17-.1-.18-.41-.25-.62-.37A60.23,60.23,0,0,0,321,89.43c-2.08-.47-4.18-.85-6.26-1.32-9.82-2.21-19.58-4.74-29.57-6.12-6.11-.84-12.24-1.56-18.39-2a89.6,89.6,0,0,0-20.29,1,123.25,123.25,0,0,0-25.6,6.83c-5.35,2.09-10.73,4.19-15.22,7.89-3.72,3.07-7.25,6.36-10.8,9.64a38.47,38.47,0,0,0-6.64,8,185,185,0,0,1-12.89,19.13,11.54,11.54,0,0,0-.86,1.45c4.14-1.57,8.07-3.25,11.94-5.06a261.84,261.84,0,0,1,31.45-12.5,19.32,19.32,0,0,1,4.65-.83c1.23-.08,1.72.47,1.57,1.71a29.51,29.51,0,0,1-1,4.61,4.06,4.06,0,0,1-2.73,2.93,8.8,8.8,0,0,0-3,2c-3.32,3.16-6.57,6.39-9.79,9.64a39.44,39.44,0,0,0-3.13,3.59,22.3,22.3,0,0,0-2.79,4.74,5,5,0,0,0,1.2.74,30.67,30.67,0,0,0,3.78.71,43,43,0,0,0,12.74-.86c6.77-1.31,13.57-2.45,20.36-3.64a4.37,4.37,0,0,1,1.8.08c1.25.32,1.52,1,1.05,2.2-.55,1.35-1.11,2.7-1.59,4.08a20.89,20.89,0,0,1-5,7.78,5.61,5.61,0,0,1-4,1.66,16.7,16.7,0,0,1-2.74-.1c-3-.39-5.92-.89-8.89-1.25-4.06-.49-8.12-1-12.2-1.26s-7.94-.21-11.91-.12c-3,.07-6.09.42-9.14.63-4.14.29-8.29.55-12.43.84A11.81,11.81,0,0,0,173,156.59ZM222.6,117.1a7.52,7.52,0,0,0-3.81.54c-4.33,1.49-8.75,2.76-13,4.54-10.35,4.36-20.6,9-30.88,13.48a4.38,4.38,0,0,0-1,.75,13.61,13.61,0,0,1-1.46,1.29c-2,1.36-4.2,2.52-6.11,4-5.6,4.35-10.92,9-17,12.79a14.23,14.23,0,0,0-1.45,1.31c4.55,0,8.62,0,12.7,0a3.12,3.12,0,0,0,1.21-.39c2.33-1.06,4.64-2.18,7-3.21A93,93,0,0,0,190.53,139c3.64-3,7.46-5.74,11.19-8.6.43-.32.82-.67,1.23-1a6,6,0,0,0-2.84.32c-6.16,2.34-12.37,4.57-18.44,7.13a142.83,142.83,0,0,0-17,9c-.54.32-1.21,1-1.71.17s.43-1.16,1-1.48c2.8-1.63,5.59-3.27,8.42-4.82a133.42,133.42,0,0,1,15.47-7.11c4.31-1.7,8.7-3.19,13.1-4.65a7.23,7.23,0,0,1,3.24-.18c1.31.2,1.54,1.15.63,2.11a13.71,13.71,0,0,1-1.56,1.27c-3.55,2.7-7.09,5.42-10.65,8.1-3.22,2.42-6.43,4.87-9.73,7.18a86.39,86.39,0,0,1-13.56,7.23c-1.09.5-2.16,1-3.24,1.56a1.51,1.51,0,0,0,1,.24c4.75-.36,9.5-.75,14.25-1.1,3.9-.29,7.81-.47,11.7-.81A116.65,116.65,0,0,1,222,155c3,.48,5.94.73,8.92,1a5.35,5.35,0,0,0,4.65-2c2.86-3,4-6.77,5.29-10.62a8.75,8.75,0,0,0-1.31-.06c-1.58.18-3.16.33-4.72.62-5.76,1.07-11.53,2.13-17.27,3.3a33.77,33.77,0,0,1-15.07-.19c-2.3-.57-2.89-2.05-1.79-4.11a31.68,31.68,0,0,1,5.21-7.06c2.72-2.8,5.43-5.63,8.22-8.37a18.6,18.6,0,0,1,6.07-4.34,2,2,0,0,0,.91-.82A14.22,14.22,0,0,0,222.6,117.1Zm119.62,54.79-.2-.3-.78.3a24,24,0,0,1-8.14,1.93,24.8,24.8,0,0,1-12.28-2.44q-10.1-4.77-20-9.88c-5-2.57-9.86-5.39-14.81-8.05a20.19,20.19,0,0,0-6.41-2.09,32.08,32.08,0,0,0-16,1.77c-7.47,2.68-14.87,5.53-22.54,7.63-4.41,1.2-8.78,2.5-13.45,2.47a157.83,157.83,0,0,1-16.28-.92,172,172,0,0,0-18.84-1.1,64,64,0,0,1-6.76-.49c-4.78-.54-9.37-2.31-14.24-2.4-.24,0-.67-.28-.69-.45a1.66,1.66,0,0,1,.36-.91c.09-.13.36-.13.55-.19l-.06-.24-1.79.15a5.34,5.34,0,0,0,3.39,5.31,22.1,22.1,0,0,0,5,1.75c4.27.77,8.55,1.44,12.86,1.92,5,.55,10.1.83,15.15,1.26,7.37.63,14.72,1.36,22.09,1.92a49.91,49.91,0,0,0,15.65-1.26c5.93-1.47,11.74-3.36,17.87-3.86,4.77-.39,9.57-.62,14.24.44,5.77,1.31,11.49,2.84,17.16,4.53,7.3,2.18,14.53,4.63,21.79,6.94,3.31,1.06,6.62,2.13,10,3.09a11.6,11.6,0,0,0,7.89-.4,24.34,24.34,0,0,0,6-3.51C340,173.87,341.09,172.87,342.22,171.89ZM255,166.26c.6.91,1,1.56,1.45,2.22a49.34,49.34,0,0,1,3.44,5.61,284.45,284.45,0,0,0,14,26.54c.08.14.24.23.52.49a66.56,66.56,0,0,1,22-23.05l-4.21-5.29a36.19,36.19,0,0,1-2.36-3,1.55,1.55,0,0,0-1-.84c-5.5-1.4-10.87-3.25-16.58-3.75A61.83,61.83,0,0,0,255,166.26Zm-11,2.91c.46.67.81,1.15,1.12,1.66,1.73,2.87,3.63,5.66,5.15,8.64a193.13,193.13,0,0,0,11.56,20.58,78.89,78.89,0,0,1,6.5,11c.2.43.45.83.74,1.38l7.26-2.78c-.16-.41-.26-.68-.38-.95a128.54,128.54,0,0,0-7-13.66c-4-6.54-7.14-13.48-10.47-20.35a96.1,96.1,0,0,0-5-8.2ZM287.21,210c.63-1.14,1.12-2.19,1.75-3.15a101.93,101.93,0,0,1,13-16.23,33.19,33.19,0,0,1,4.11-3.35c1.18-.85,2.48-1.53,3.88-2.39l-5-4.54c-1.23.93-2.52,1.75-3.63,2.77-3.37,3.1-6.66,6.27-10,9.43a94.36,94.36,0,0,0-9.84,10.82,19.16,19.16,0,0,0-3.18,6.05A16.26,16.26,0,0,1,287.21,210ZM303,173.39l-.31.38c.74,1.25,1.4,2.56,2.26,3.73A28.72,28.72,0,0,0,316.33,187a7.53,7.53,0,0,1,1,.5c3.28,2.07,6.92,2.56,10.71,2.5a1.58,1.58,0,0,0,1.6-1c1-2.28,2-4.56,3-6.86a2,2,0,0,0-.15-2.15c-3.22,1.32-6.4.7-9.51-.25-4-1.23-8-2.61-12-3.89C308.32,175,305.65,174.21,303,173.39Zm-25.9,34.08c7.1-11.44,17.14-19.85,27-28.6-.48-.62-1-1.28-1.6-2.07-2.37,1.28-4.72,2.34-6.86,3.74A61.41,61.41,0,0,0,275.67,202a2.35,2.35,0,0,0-.27,1.7A40.47,40.47,0,0,0,277.09,207.47Zm7.77,35.06c-.44-4.74-.87-9.37-1.32-14.11-3.52,1.37-6.84,2.05-10.4.41.6,4.66,1.17,9,1.77,13.7Zm-.14-22.76c.2-.25.37-.42.51-.62.57-.79,1.13-1.59,1.69-2.4,1.58-2.27,1.47-2.82-1.15-3.75-5.11-1.82-10-.74-14.69,1.48a1.29,1.29,0,0,0-.82,1.64c.67,2.11,1.47,4.13,3.38,5.48A22.14,22.14,0,0,1,284.72,219.77Zm1.6,49.67c0-2.42,0-4.66,0-6.91a3.08,3.08,0,0,0-.56-1.82,13.51,13.51,0,0,1-2.24-5.74,38.15,38.15,0,0,1,0-3.86,13.7,13.7,0,0,0-5.85.21c.48,3.86-.05,7.2-3.95,9.31v7.77c0,.92.5,1.1,1.19,1-.13-.88-.26-1.67-.34-2.47s-.11-1.92-.25-2.86c-.11-.7.12-1.08.79-1.13a8.16,8.16,0,0,1,1.64.06c1.81.21,3.63.37,5.42.69,2.77.5,2.18.06,2.7,2.57.11.54.19,1.08.3,1.62a1.16,1.16,0,0,1-.84,1.42,10,10,0,0,1-1.14.3l.06.28Zm-8.41-41.11a11.52,11.52,0,0,0,6.65-2.54,2.29,2.29,0,0,0,.73-3,2.37,2.37,0,0,0-2.52-1.63,21.84,21.84,0,0,0-4.49.59,14.39,14.39,0,0,0-4.53,1.81c-1.6,1.11-1.92,2.61-.05,3.72A7.38,7.38,0,0,0,277.91,228.33ZM274,249.92a4.13,4.13,0,0,0,1.11.12,68.23,68.23,0,0,1,10-.74,9.15,9.15,0,0,0,2.07-.53c-.39-1.69-.73-3.14-1.06-4.51-2.17,0-4.12.09-6.05,0a37.75,37.75,0,0,0-5.83-.06A12.07,12.07,0,0,0,274,249.92Zm17.93-79.84c1.22,1.43,2.24,2.53,3.17,3.71s1.74,2.43,2.61,3.67l4.1-2c-.66-1.87-1.6-3.17-3.59-3.62-1.66-.37-3.24-1.05-4.86-1.57A11.37,11.37,0,0,0,291.93,170.08Zm-8.78,95.34-7-.91v3.41c2.49.48,4.87.83,7.37-.11C283.43,267,283.3,266.26,283.15,265.42Zm-7.09-14.14c-2,2.87-2.53,5.4-1.49,6.88C276.47,256.25,276.5,254,276.06,251.28Zm10,6.56c1.15-3.41,1-4.31-1-5.66A8.46,8.46,0,0,0,286.07,257.84ZM172.2,132.25c-2.52,2.5-3.85,4.36-4,5.38C170.63,136.73,171.39,134.47,172.2,132.25Zm117.37,83.4-3.42,4.92A6.79,6.79,0,0,0,289.57,215.65Zm-21.17-.26c-.38,1.86-.12,2.54,1.34,3.9Zm13,54.72.07-.18h-2.54v.18Z"/><path d="M271.76,87.07l8.93.82,4.55.44c.49,0,1.07.08,1.08.73s-.64.76-1.19.81c-1,.09-1.95.19-2.92.25-4.63.25-9.28.41-13.9.76-4,.3-8,.72-12,1.23-3.44.45-6.87,1.08-10.29,1.68a73.57,73.57,0,0,0-13.47,4c-6.61,2.51-13.29,4.89-19.52,8.29-1,.53-1.9,1.11-2.86,1.63-1.17.63-2.06.59-2.49-.07a1.92,1.92,0,0,1,.7-2.42,56.29,56.29,0,0,1,5.4-4.09c5.75-3.59,11.69-6.88,18.35-8.52,3.61-.89,7.25-1.68,10.91-2.32,4.5-.79,9-1.52,13.57-2C261.56,87.76,266.56,87.48,271.76,87.07Zm-60.53,17.84a193.27,193.27,0,0,1,30.56-11.67c10.62-2.95,21.63-3.61,32.6-4.37-2-.06-4-.18-6,0-8.22.6-16.46,1.13-24.55,2.87-3.75.8-7.55,1.46-11.28,2.38-6.72,1.67-12.67,5.07-18.48,8.7C213.07,103.41,212.17,104.2,211.23,104.91Z"/><path d="M305.13,101.78c1.75.16,3.51.31,5.26.48a1.83,1.83,0,0,1,.88.23c.31.22.79.61.75.86a1.46,1.46,0,0,1-.77,1.05c-1.16.37-2.4.47-3.55.85-3.41,1.12-6.8,2.33-10.19,3.5-6,2.06-11.78,4.74-18,6.13-3.27.73-6.57,1.31-9.87,1.94a4.22,4.22,0,0,1-2.82-.5,36.39,36.39,0,0,1-8.43-5.44c-1.17-1.07-2.47-2-3.72-3-.42-.34-1-.55-.82-1.27a1.43,1.43,0,0,1,1.41-1.19l4.73-.51c4.43-.46,8.86-1,13.29-1.38,2.13-.21,4.26-.31,6.4-.41l25.43-1.21Zm2.4,1.82c-17.12.78-34.27.8-51.51,3.39,1.26,1,2.34,1.82,3.31,2.72a33.93,33.93,0,0,0,7.62,5,4.34,4.34,0,0,0,2.81.5A74.27,74.27,0,0,0,283,112.37c6.62-2.31,13.18-4.81,19.77-7.2C304.32,104.59,305.93,104.12,307.53,103.6Z"/><path d="M309.31,126.2c1.62-2,3.94-3,6.09-4.06a97.17,97.17,0,0,1,16.79-6.74c2.57-.76,5.14-1.54,7.72-2.29,2.95-.86,4.72.75,4.11,3.75-.47,2.33-1,4.64-1.47,7a3.11,3.11,0,0,1-2.74,2.7,94.14,94.14,0,0,1-18.55,2c-2.93,0-5.86-.09-8.79-.22C311.09,128.28,309.76,128,309.31,126.2Zm2.08,0,.06.38a8.68,8.68,0,0,0,1.49.28c8.92.27,17.81.18,26.57-1.81.82-.18,1.34-.49,1.51-1.32.51-2.44,1.08-4.87,1.53-7.32.32-1.74-.47-2.4-2.2-1.9-2.35.67-4.68,1.37-7,2.07a99,99,0,0,0-20.49,8.65C312.34,125.53,311.88,125.89,311.39,126.22Z"/><path d="M333.12,161a13.5,13.5,0,0,1-8.7-3.31c-1.83-1.61-3.75-3.11-5.52-4.78a23.53,23.53,0,0,1-2.61-3.17.92.92,0,0,1,.24-.88,3.4,3.4,0,0,1,1.39-.35c7.24-.51,14.43-1.44,21.59-2.59,1.2-.19,2.36-.59,3.56-.79a11.78,11.78,0,0,1,3.07-.19A2,2,0,0,1,347.8,148a9.08,9.08,0,0,1-1.54,2.25,42,42,0,0,0-4.53,6.39A8.6,8.6,0,0,1,333.12,161Zm13.42-14.12c-1.25-.69-1.46-.62-3.14-.33-5.46.93-10.93,1.83-16.4,2.65-2,.3-4,.31-6,.5-.62.06-1.37,0-1.65.86s.38,1.1.79,1.46c1.79,1.57,3.64,3.05,5.4,4.64,2.22,2,4.91,2.54,7.74,2.86,3.42.39,5.64-1.26,7.42-3.95,1.41-2.12,2.94-4.17,4.45-6.23A5.22,5.22,0,0,0,346.54,146.87Z"/></svg>