<svg xmlns="http://www.w3.org/2000/svg" width="500" height="500" viewBox="0 0 500 500"><path d="M318.22,257.15c.49,2.13-.32,3.88-1,5.63-.61,1.53-1.4,3-2.12,4.46a3,3,0,0,1-3.22,1.88c-2.32-.15-4.66,0-6.89-.8-1.26-.46-2.51-.95-3.72-1.5a16.93,16.93,0,0,1-3.4-1.79c-1.87-1.45-3.57-1.12-5.29.13a43.38,43.38,0,0,0-4.82,3.63A95.23,95.23,0,0,0,274,285.87c-.29.46-.52,1-.77,1.45-.13.28-.22.57-.39,1l1.26,1.2c1.68,1.55,1.89,2.55,1.14,4.73a13.38,13.38,0,0,1-2.84,4.44,3.79,3.79,0,0,0-1.23,2.93,3.08,3.08,0,0,1-1.3,2.7,1.9,1.9,0,0,0-.71,1.93c.31,2.29.55,4.6.77,6.9.1,1,.06,2.08.11,3.11a9.14,9.14,0,0,0,1.15,4.3c1.12,2,1.32,4.41,1.55,6.79l-2.17,1.06c.36.57.68,1.12,1,1.65a4.32,4.32,0,0,1,.63,4c-.23.69-.38,1.41-.57,2.12s-.4,1.23.1,1.9c.24.33.13.93.15,1.41.1,2.49.14,5,.3,7.49A1.26,1.26,0,0,1,271,348.5c-3.79.65-7.59,1.31-11.45.37-3.42-.83-3.41-.85-3.2-4.42.11-1.82,0-3.64.06-5.47a19,19,0,0,1,.27-2.11c0-.17.14-.36.09-.49-.91-2.35.19-4.42.89-6.6-2-2.49-1.6-5.34-.88-8.12a8.41,8.41,0,0,0,.39-3.21c-.53-4.36-1-8.73-1.7-13.07a17.21,17.21,0,0,1-.5-3.16c0-.68-.63-1.41-1.06-2.06-.64-1-1.33-1.9-2-2.82a4.9,4.9,0,0,1-.06-6.45c-1.43-2.61-2.71-5.4-4.38-7.93a207.49,207.49,0,0,1-11.81-19.82c-.78-1.52-1.62-3-2.3-4.58a57.8,57.8,0,0,0-6.11-10.19,2.2,2.2,0,0,0-2.28-1A91.46,91.46,0,0,1,214,248c-5.19-.14-10.36-.72-15.54-1.15-3.53-.28-7-.64-10.58-.93-8.52-.69-17.07-1.22-25.46-3a30.79,30.79,0,0,1-6.19-2.18c-2.42-1.09-3.33-2.62-4.15-6.14-.64,0-1.3,0-1.95,0-4.34.19-8.67.43-13,.55-1.71,0-3.42-.19-5.13-.3a1,1,0,0,1-.36,0c-.51-.29-1.29-.51-1.43-.93a2,2,0,0,1,.67-1.54,24.71,24.71,0,0,1,2.72-2.15c2.83-2,5.75-3.94,8.48-6.09a38.1,38.1,0,0,0,8.05-8.93c1.78-2.69,3.82-5.22,5.83-7.76a8.64,8.64,0,0,1,2.24-1.83c1.06-.66,1.19-.55,2,.9.56-.71,1.1-1.32,1.55-2,2.47-3.71,5.12-7.32,7.32-11.19a60.55,60.55,0,0,1,13.46-15.83c3.1-2.67,6-5.53,9.56-7.69a76.23,76.23,0,0,1,12.77-5.92,127.28,127.28,0,0,1,25.26-6.68,98.43,98.43,0,0,1,22.48-1,201.46,201.46,0,0,1,32,4.78c7.43,1.72,14.89,3.29,22.32,5A59.23,59.23,0,0,1,321.46,172a2,2,0,0,1,.76.5c.72,1.16,1.93,1.39,3.11,1.69a8.45,8.45,0,0,1,5.12,3c1.09,1.52,2.33,3,2.35,5,0,1.3-.16,2.44-1.64,3.09.74,2.88,1.46,5.64,2.17,8.41,1.29,5,2.65,10,3.84,15.06a29.19,29.19,0,0,1-.09,13.05c-.39,1.79-.79,3.58-1.06,5.38-.21,1.32-.14,2.68-.33,4-.4,2.78-.79,5.57-1.38,8.31a11.34,11.34,0,0,1-1.5,3.07c-.6,1.06-1.4,2-1.95,3.08-2.4,4.62-6.25,7.75-10.57,10.4C319.67,256.42,319,256.73,318.22,257.15ZM157,234.26l0,.19c1.43.27,2.89.46,4.3.81A85.63,85.63,0,0,0,181,237.52c4.51.06,9,.41,13.53.84a150,150,0,0,0,18.1,1,20.51,20.51,0,0,0,4.9-.54c6-1.66,12-3.37,17.91-5.25,5.23-1.65,10.32-3.79,15.6-5.28a27,27,0,0,1,21.11,2.22c3.68,2.05,7.39,4,11.07,6.1A227.84,227.84,0,0,0,306,247.93a24,24,0,0,0,11.61,2c3.91-.35,7.52-1.41,10.42-4.31,1.49-1.49,2.54-3.33,4.11-4.74a2.71,2.71,0,0,0,.67-1.46c.43-2.28.85-4.57,1.16-6.86.27-2,.34-4.13.62-6.18.24-1.68.74-3.33,1-5a35.49,35.49,0,0,0,.78-6.53,48.48,48.48,0,0,0-1.89-11.51q-2-7.23-4-14.48c-.29-1-.46-2.14-.67-3.22a1.66,1.66,0,0,1,.82-2,1.5,1.5,0,0,0,.59-1.15,5.38,5.38,0,0,0-.49-2.1,8.16,8.16,0,0,0-5.84-4.83c-1.5-.31-3.14-.55-4-2.16-.1-.18-.4-.26-.62-.37A59.36,59.36,0,0,0,305,167.11c-2.08-.48-4.18-.85-6.26-1.32-9.82-2.22-19.58-4.75-29.57-6.12-6.1-.85-12.24-1.56-18.39-2a89.52,89.52,0,0,0-20.28,1,123.85,123.85,0,0,0-25.6,6.82c-5.36,2.1-10.74,4.2-15.22,7.9-3.72,3.07-7.26,6.36-10.8,9.63a38.27,38.27,0,0,0-6.65,8,186.1,186.1,0,0,1-12.89,19.13,11.48,11.48,0,0,0-.85,1.45c4.14-1.57,8.07-3.25,11.93-5.06a261.38,261.38,0,0,1,31.46-12.51,19.72,19.72,0,0,1,4.65-.82c1.23-.09,1.72.47,1.56,1.7a29.23,29.23,0,0,1-1,4.61,4.13,4.13,0,0,1-2.73,2.94,8.83,8.83,0,0,0-3,2c-3.31,3.16-6.56,6.39-9.79,9.64a41,41,0,0,0-3.13,3.59,22.23,22.23,0,0,0-2.79,4.73,4.68,4.68,0,0,0,1.21.74,32.13,32.13,0,0,0,3.77.72,43,43,0,0,0,12.75-.86c6.76-1.31,13.57-2.46,20.36-3.64a4.55,4.55,0,0,1,1.8.07c1.24.32,1.52,1,1,2.21-.55,1.35-1.11,2.7-1.59,4.08a20.77,20.77,0,0,1-5,7.78,5.61,5.61,0,0,1-4,1.66,16.83,16.83,0,0,1-2.75-.1c-3-.39-5.91-.9-8.88-1.25-4.06-.49-8.12-1-12.2-1.27s-7.94-.2-11.91-.11c-3,.07-6.1.42-9.14.63-4.15.28-8.29.54-12.44.83A14.17,14.17,0,0,0,157,234.26Zm49.59-39.49a7.57,7.57,0,0,0-3.82.55c-4.33,1.48-8.75,2.76-12.95,4.54-10.35,4.36-20.61,9-30.89,13.48a4.12,4.12,0,0,0-1,.75c-.5.42-.93.93-1.46,1.29-2,1.35-4.2,2.52-6.12,4-5.59,4.34-10.92,9-17,12.79a13.85,13.85,0,0,0-1.45,1.3c4.55,0,8.63,0,12.71,0a3.38,3.38,0,0,0,1.2-.39c2.33-1.06,4.64-2.18,7-3.21a92.92,92.92,0,0,0,21.66-13.25c3.63-3,7.45-5.73,11.19-8.59.42-.32.82-.68,1.23-1a6,6,0,0,0-2.85.32c-6.16,2.33-12.37,4.57-18.43,7.13a139.23,139.23,0,0,0-17,9c-.55.32-1.21,1-1.71.16s.42-1.16,1-1.47c2.79-1.63,5.58-3.27,8.42-4.83a133.21,133.21,0,0,1,15.46-7.1c4.31-1.7,8.71-3.19,13.1-4.65a7.09,7.09,0,0,1,3.24-.18c1.31.2,1.54,1.15.63,2.1a12.72,12.72,0,0,1-1.56,1.27c-3.55,2.71-7.08,5.43-10.65,8.11-3.22,2.42-6.43,4.86-9.73,7.17a86.45,86.45,0,0,1-13.56,7.24c-1.08.5-2.15,1-3.23,1.55a1.44,1.44,0,0,0,1,.25c4.75-.37,9.49-.75,14.24-1.1,3.9-.29,7.81-.48,11.71-.81a116.22,116.22,0,0,1,29,1.43c3,.48,5.94.73,8.91,1a5.37,5.37,0,0,0,4.65-2c2.86-3,4-6.77,5.29-10.62a7.56,7.56,0,0,0-1.31-.06c-1.58.18-3.16.33-4.72.62-5.76,1.07-11.52,2.12-17.27,3.3a33.73,33.73,0,0,1-15.06-.19c-2.3-.57-2.89-2-1.79-4.11a31.33,31.33,0,0,1,5.2-7.06c2.72-2.81,5.43-5.63,8.22-8.37a18.78,18.78,0,0,1,6.07-4.35,1.86,1.86,0,0,0,.91-.82A14.12,14.12,0,0,0,206.63,194.77Zm119.61,54.8-.2-.3c-.26.1-.52.18-.77.29a23.82,23.82,0,0,1-8.15,1.93,24.75,24.75,0,0,1-12.27-2.43q-10.1-4.77-20-9.89c-5-2.56-9.86-5.38-14.81-8A19.78,19.78,0,0,0,263.6,229a32.07,32.07,0,0,0-16,1.77c-7.47,2.67-14.88,5.53-22.54,7.62-4.41,1.21-8.78,2.51-13.46,2.47a155.08,155.08,0,0,1-16.28-.92,174.25,174.25,0,0,0-18.84-1.09,63.65,63.65,0,0,1-6.75-.5c-4.79-.53-9.37-2.31-14.24-2.4-.25,0-.68-.27-.69-.45a1.57,1.57,0,0,1,.35-.9c.09-.13.36-.13.55-.19l0-.24-1.79.14a5.32,5.32,0,0,0,3.39,5.31,21,21,0,0,0,5,1.75c4.26.78,8.55,1.45,12.85,1.92,5,.56,10.11.83,15.16,1.26,7.36.64,14.72,1.37,22.08,1.92A49.39,49.39,0,0,0,228,245.25c5.92-1.46,11.74-3.35,17.87-3.85,4.76-.39,9.56-.62,14.24.44,5.76,1.3,11.48,2.84,17.15,4.53,7.3,2.18,14.53,4.62,21.79,6.94,3.31,1.05,6.62,2.13,10,3.09a11.59,11.59,0,0,0,7.89-.4,24.59,24.59,0,0,0,6-3.51C324,251.55,325.11,250.55,326.24,249.57ZM239,243.94c.59.91,1,1.55,1.45,2.21a50.26,50.26,0,0,1,3.43,5.62,284.45,284.45,0,0,0,14,26.54c.08.14.24.23.53.49a66.45,66.45,0,0,1,22-23.05l-4.21-5.3a37.63,37.63,0,0,1-2.35-3,1.57,1.57,0,0,0-1-.84c-5.49-1.4-10.87-3.25-16.57-3.76A62.22,62.22,0,0,0,239,243.94Zm-11,2.91c.45.67.8,1.15,1.11,1.66,1.74,2.87,3.63,5.66,5.15,8.64a195,195,0,0,0,11.57,20.58,80.89,80.89,0,0,1,6.5,11c.2.42.44.83.73,1.38l7.26-2.78c-.16-.41-.26-.69-.38-.95a129.65,129.65,0,0,0-7-13.67c-4-6.53-7.13-13.47-10.46-20.34a92.3,92.3,0,0,0-5-8.2Zm43.18,40.85c.63-1.15,1.12-2.2,1.75-3.16a101.36,101.36,0,0,1,13-16.22,32.21,32.21,0,0,1,4.1-3.35c1.18-.85,2.48-1.54,3.88-2.39l-5-4.54c-1.23.93-2.52,1.75-3.63,2.77-3.36,3.1-6.66,6.27-10,9.43a94.27,94.27,0,0,0-9.85,10.81,19.46,19.46,0,0,0-3.17,6.05A16.23,16.23,0,0,1,271.23,287.7ZM287,251.06l-.31.39c.75,1.24,1.4,2.56,2.26,3.72a28.78,28.78,0,0,0,11.4,9.48,8,8,0,0,1,1,.49c3.29,2.08,6.93,2.57,10.71,2.51a1.61,1.61,0,0,0,1.61-1c1-2.27,2-4.55,3-6.86a2,2,0,0,0-.14-2.15c-3.23,1.33-6.4.71-9.51-.24-4-1.23-8-2.61-12-3.9C292.34,252.68,289.67,251.89,287,251.06Zm-25.89,34.08c7.1-11.44,17.13-19.84,27-28.6l-1.61-2.07c-2.37,1.28-4.72,2.35-6.86,3.75a61.32,61.32,0,0,0-19.93,21.5,2.35,2.35,0,0,0-.27,1.7C259.88,282.71,260.55,283.92,261.12,285.14Zm7.77,35.07c-.45-4.75-.88-9.38-1.32-14.11-3.53,1.37-6.84,2-10.41.41.6,4.65,1.17,9,1.77,13.7Zm-.15-22.77c.21-.24.38-.42.52-.61l1.68-2.4c1.59-2.27,1.47-2.82-1.14-3.75-5.11-1.83-10-.74-14.7,1.47a1.29,1.29,0,0,0-.81,1.65c.66,2.11,1.47,4.13,3.37,5.47A22.38,22.38,0,0,1,268.74,297.44Zm1.61,49.68c0-2.42,0-4.67,0-6.91a3.07,3.07,0,0,0-.57-1.83,13.52,13.52,0,0,1-2.23-5.74,35.38,35.38,0,0,1,0-3.86,13.7,13.7,0,0,0-5.85.22c.49,3.85,0,7.19-3.95,9.3,0,2.55,0,5.16,0,7.77,0,.92.51,1.11,1.19,1-.12-.87-.26-1.66-.34-2.46-.1-1-.1-1.92-.25-2.86-.11-.71.12-1.08.8-1.13a9,9,0,0,1,1.64.05c1.81.21,3.63.37,5.42.69,2.77.5,2.17.06,2.69,2.58.11.53.2,1.07.3,1.61a1.17,1.17,0,0,1-.83,1.43,9.07,9.07,0,0,1-1.14.29l0,.28ZM261.94,306a11.56,11.56,0,0,0,6.64-2.54,2.31,2.31,0,0,0,.74-3.05,2.41,2.41,0,0,0-2.52-1.63,22.56,22.56,0,0,0-4.5.6,14.32,14.32,0,0,0-4.52,1.8c-1.61,1.12-1.93,2.61-.06,3.73A7.42,7.42,0,0,0,261.94,306ZM258,327.59a4.57,4.57,0,0,0,1.11.13,66.78,66.78,0,0,1,10-.74,9.15,9.15,0,0,0,2.07-.53c-.4-1.69-.74-3.15-1.06-4.51-2.18,0-4.12.09-6.05,0a37.88,37.88,0,0,0-5.84-.06A12,12,0,0,0,258,327.59ZM276,247.76c1.22,1.42,2.24,2.53,3.16,3.7s1.74,2.44,2.61,3.67l4.11-2c-.66-1.86-1.6-3.17-3.6-3.62-1.65-.37-3.23-1-4.85-1.56A11.66,11.66,0,0,0,276,247.76Zm-8.78,95.33-7-.9v3.41c2.49.47,4.87.83,7.38-.12C267.45,344.69,267.32,343.94,267.18,343.09ZM260.08,329c-2,2.87-2.52,5.4-1.49,6.87C260.5,333.93,260.52,331.68,260.08,329Zm10,6.56c1.16-3.42,1-4.32-1-5.66A8.52,8.52,0,0,0,270.09,335.52ZM156.23,209.93c-2.53,2.5-3.85,4.35-4,5.38C154.65,214.4,155.42,212.15,156.23,209.93Zm117.36,83.39-3.41,4.92A6.77,6.77,0,0,0,273.59,293.32Zm-21.16-.25c-.39,1.85-.13,2.53,1.34,3.89Zm12.95,54.72.06-.19H262.9v.19Z"/><path d="M255.78,164.75l8.94.81c1.52.14,3,.3,4.55.45.49.05,1.07.07,1.07.73s-.63.76-1.19.81c-1,.08-1.94.19-2.92.24-4.63.26-9.27.42-13.9.77-4,.29-8,.71-12,1.23-3.44.45-6.86,1.07-10.28,1.67a74.36,74.36,0,0,0-13.47,4c-6.62,2.52-13.29,4.9-19.53,8.3-1,.52-1.89,1.11-2.86,1.63-1.16.63-2.06.59-2.48-.07a1.93,1.93,0,0,1,.69-2.43,58.79,58.79,0,0,1,5.4-4.08c5.76-3.6,11.69-6.89,18.35-8.52,3.61-.89,7.25-1.68,10.91-2.33,4.51-.79,9-1.51,13.57-2C245.58,165.44,250.59,165.16,255.78,164.75Zm-60.53,17.84a194.06,194.06,0,0,1,30.56-11.68c10.63-2.94,21.64-3.6,32.6-4.37-2,0-4-.18-6,0-8.22.6-16.45,1.13-24.54,2.86-3.76.81-7.55,1.46-11.28,2.39-6.73,1.66-12.67,5.07-18.49,8.7C197.09,181.08,196.2,181.87,195.25,182.59Z"/><path d="M289.15,179.46c1.75.16,3.51.31,5.26.48a1.94,1.94,0,0,1,.88.22c.32.23.79.61.76.87a1.49,1.49,0,0,1-.77,1.05c-1.16.36-2.4.46-3.56.84-3.41,1.13-6.79,2.34-10.19,3.51-6,2-11.78,4.73-18,6.13-3.27.73-6.58,1.3-9.87,1.94a4.32,4.32,0,0,1-2.83-.5,36.64,36.64,0,0,1-8.43-5.45c-1.16-1.06-2.46-2-3.71-3-.43-.33-1-.54-.83-1.26a1.44,1.44,0,0,1,1.42-1.19c1.57-.18,3.15-.34,4.73-.51,4.43-.47,8.85-1,13.28-1.39,2.13-.2,4.27-.3,6.4-.41l25.44-1.2Zm2.4,1.82c-17.12.78-34.27.8-51.5,3.39,1.25,1,2.33,1.82,3.31,2.72a33.83,33.83,0,0,0,7.61,5,4.36,4.36,0,0,0,2.81.51A75.29,75.29,0,0,0,267,190c6.62-2.31,13.17-4.8,19.77-7.2C288.34,182.27,290,181.8,291.55,181.28Z"/><path d="M293.33,203.88c1.63-2,3.95-3,6.09-4.06a98.34,98.34,0,0,1,16.79-6.75c2.58-.75,5.14-1.54,7.72-2.28,3-.86,4.72.74,4.12,3.74-.47,2.33-1,4.65-1.48,7a3.1,3.1,0,0,1-2.74,2.71,94.13,94.13,0,0,1-18.55,2c-2.93.05-5.86-.09-8.79-.21C295.11,206,293.79,205.65,293.33,203.88Zm2.09,0,.06.38a10.86,10.86,0,0,0,1.49.28c8.91.27,17.8.18,26.56-1.81.82-.19,1.34-.5,1.52-1.32.51-2.44,1.07-4.87,1.53-7.32.32-1.75-.47-2.4-2.21-1.9-2.34.66-4.67,1.37-7,2.07a99,99,0,0,0-20.5,8.64C296.37,203.21,295.9,203.57,295.42,203.9Z"/><path d="M317.15,238.66a13.51,13.51,0,0,1-8.71-3.3c-1.82-1.61-3.75-3.12-5.52-4.78a23.62,23.62,0,0,1-2.61-3.18,1,1,0,0,1,.24-.88,3.47,3.47,0,0,1,1.39-.34c7.24-.51,14.43-1.45,21.59-2.59,1.2-.19,2.37-.6,3.57-.79a11.34,11.34,0,0,1,3.07-.19,2,2,0,0,1,1.66,3.07,8.72,8.72,0,0,1-1.54,2.25,41.44,41.44,0,0,0-4.54,6.4A8.61,8.61,0,0,1,317.15,238.66Zm13.41-14.12c-1.24-.68-1.46-.61-3.14-.32-5.46.93-10.92,1.83-16.4,2.65-2,.3-4,.3-6,.5-.63.06-1.37,0-1.66.85s.38,1.1.8,1.47c1.78,1.57,3.63,3.05,5.4,4.64,2.21,2,4.9,2.54,7.73,2.86,3.42.39,5.65-1.26,7.42-3.95,1.41-2.13,2.95-4.17,4.45-6.23A5.17,5.17,0,0,0,330.56,224.54Z"/></svg>