<svg xmlns="http://www.w3.org/2000/svg" width="500" height="350" viewBox="0 0 500 350"><path d="M203.34,253.88c1-1.63.6-3.19.53-4.67,0-.34-.71-.79-1.17-.94a2,2,0,0,1-1.43-2.06c-.07-1.74-.52-3.46-.12-5.22.07-.31-.17-.7-.28-1-3.4-10.74-7.87-21.07-12.23-31.43a10.66,10.66,0,0,1-.44-1.19c0-.16,0-.35.11-.78,2.58-.46,5.25,0,7.88-.18s5.32,0,8.24,0a5.41,5.41,0,0,0-1.38-.64c-2.88-.34-5.78-.68-8.68-.91-1.87-.15-3.76-.11-5.65-.18a6.24,6.24,0,0,1-1.62-.17c-2.18-.69-2.91.38-3.54,1.85a88.1,88.1,0,0,1-4.94,9.92c-4.38,7.44-8.59,15-12.9,22.46-2.7,4.69-5.51,9.31-8.18,14-2.1,3.7-4,7.49-6.1,11.22-.34.62-.5,1.86-1.56,1.25-.86-.5-.07-1.33.25-1.91q4-7.35,8.11-14.69c1.8-3.24,3.63-6.47,5.55-9.9-.73-.38-1.43-.82-2.18-1.12a35.19,35.19,0,0,0-15-2.31c-.48,0-1,0-1.45,0-.1,0-.2-.12-.31-.19-.28-.67,0-1.07.66-1.18a12.83,12.83,0,0,1,2.53-.29c6.06.18,10.07.57,16.56,3.57l.74-1a17.28,17.28,0,0,0-7.51-3.68,39.57,39.57,0,0,0-9.93-1.25c-1,0-1.92.27-2.88.28-.4,0-1.05-.26-1.15-.56-.21-.59.35-.81.87-.85a41.4,41.4,0,0,1,5.08-.28c4.44.25,8.83.86,12.89,2.87,1.13.56,2.21,1.24,3.45,1.94l1.84-3c-.87-.65-1.64-1.31-2.49-1.85a26.45,26.45,0,0,0-10.42-3.65,18.23,18.23,0,0,0-8.31.29c-.46.14-1.07.21-1.19-.42-.05-.29.28-.75.56-1a10.58,10.58,0,0,1,6.1-2.13,24.38,24.38,0,0,1,10.17,1.72c2.51.9,5,2,7.47,3,1.51-1.56,9.87-16,10.86-18.92-.69-.29-1.41-.57-2.1-.9-1.43-.69-2.29-1.9-2.11-2.89s1.75-2.12,3.27-2.18c.59,0,1.19,0,2,0-.75-2-1.45-3.88-2.12-5.75a1.51,1.51,0,0,0-1.34-1.06,13.72,13.72,0,0,0-3.06-.15,12.17,12.17,0,0,0-4,.87c-1.24.6-7,.28-8.23-.25a4.76,4.76,0,0,1-2.58-2.45c-1.68-3.63-.92-6.74,2.25-9.19a.26.26,0,0,0,.1-.19l-4.2-.87c-.87,1.33-1.9,2.87-2.9,4.44s-1.95,1.89-3.39,1.06a2.62,2.62,0,0,1-.68-3.67,4.63,4.63,0,0,1,1.07-1.22,4.34,4.34,0,0,0,1.66-3.51,17.92,17.92,0,0,1,1.84-7.18c1.32-2.86,2.48-5.8,3.88-8.62a84.62,84.62,0,0,1,5.2-9.61,27.42,27.42,0,0,0,2.75-4.93c.34-.84.87-1.62,1.12-2.48a4.24,4.24,0,0,0,.11-2.28,10.12,10.12,0,0,1-.32-5.05c.64-3.51-.06-6.9-.58-10.32-.4-2.65-.66-5.32-.9-8a15.5,15.5,0,0,1,.2-2.53c.16-1.76.23-3.52.49-5.26a14.15,14.15,0,0,1,.92-3.1c.27-.66.81-1.21,1.15-1.85,1.33-2.54,3.72-3.37,6.27-3.88.75-.15,1.35-.25,1.74-1a3.66,3.66,0,0,1,1.22-1.32c2-1.36,4-2.67,6-4a3.51,3.51,0,0,0,.4-.37,4.21,4.21,0,0,0-1.56-3.86,21.21,21.21,0,0,1-5.43-7c-.57,0-1.25.13-1.67-.13a3.51,3.51,0,0,1-1.2-1.55c-1.64-3.89-3-7.91-3-12.15a13.8,13.8,0,0,1,5.68-11.5,23.51,23.51,0,0,1,19.52-4.2c3.81.76,7,2.93,10,5.46,3.5,3,4,7,3.7,11.32a1.29,1.29,0,0,1-1.29,1.28c-.72.08-1.44.13-2.34.2,0,1.3-.06,2.56,0,3.81.1,1.86-.54,3.75.3,5.58.11.25,0,.6,0,.9a16.47,16.47,0,0,0,.16,3.23,11.1,11.1,0,0,1-1.35,7.9,4.9,4.9,0,0,1-3.5,2.4l.18,2.61c2.18.82,3.92,2.49,6.34,3,1.22.24,2.31,1.25,3.4,2,.69.48,1.24,1.18,1.93,1.67a4.9,4.9,0,0,1,2.37,3.7,2.1,2.1,0,0,0,1.3,1.64,47.55,47.55,0,0,1,8.84,7,5.83,5.83,0,0,1,1,1,3.56,3.56,0,0,0,2,1.68,3.79,3.79,0,0,1,1.67,2,3.17,3.17,0,0,0,1.38,1.57c3.29,1.85,6.63,3.6,9.81,5.61,3,1.9,5.91,4.07,8.84,6.13a3.59,3.59,0,0,0,2.44,1,2.36,2.36,0,0,1,1.46.63c2,1.68,3.95,3.41,5.91,5.13a1.14,1.14,0,0,1,.43.58c.27,1.91,1.89,2.72,3.17,3.73,2,1.54,4,2.92,6.09,4.34a11,11,0,0,0,1.5.7,7.87,7.87,0,0,0,.72-.92c5.86-10,12.8-19.25,19.15-28.91,3.07-4.67,6.06-9.41,9-14.16.77-1.23,1.25-2.63,1.93-3.92.19-.37.67-.9.92-.85.7.13.65.81.47,1.34a21.32,21.32,0,0,1-1.08,2.51,158.63,158.63,0,0,1-9.53,15.34q-8.28,12.13-16.46,24.34c-1.18,1.76-2.21,3.62-3.35,5.49a11.67,11.67,0,0,0,5.79,2.61c1.31.26,2.65.39,3.93.76a20.56,20.56,0,0,1,3.88,1.52c.62.33,1,1.08,1.6,1.73,1.1-.78,2.27-1.63,3.46-2.46,8.23-5.75,16.48-11.48,24.69-17.26,3.68-2.59,7.29-5.29,10.9-8a21.92,21.92,0,0,0,2-1.82c.4-.39.8-.57,1.26-.15s.23.92-.14,1.26a19.56,19.56,0,0,1-2.09,1.77c-5.67,4.1-11.32,8.23-17,12.27-7.55,5.34-15.16,10.6-22.76,15.9.09,1.6.23,3.1.23,4.6a19.73,19.73,0,0,1-.33,3.43,3.94,3.94,0,0,1-3.41,3.54,4.28,4.28,0,0,0-2.81,1.81c-.94,1.19-2,2.3-3,3.42a14,14,0,0,1-7.13,4.18c-.36.08-.84.06-1,.29-1.57,1.84-3.76,1.76-5.86,2a2.1,2.1,0,0,0-.53.24c.72,1.52,1,3.23,2.64,4.28a5.34,5.34,0,0,1,1.4,2,18.57,18.57,0,0,1,.85,2.06l.39-.11c-.09-.89-.22-1.78-.24-2.67a14.53,14.53,0,0,1,.2-2.72c0-.28.57-.47.88-.7.18.28.5.56.52.85.18,3.09.36,6.19.45,9.28.07,2.27,1.1,4.22,2,6.22,1.55,3.57,3.21,7.09,4.84,10.62a6.56,6.56,0,0,1,.86,3.11,8.57,8.57,0,0,0,.53,2.1c1.17-.76,2.14-1.34,3.07-2a31,31,0,0,1,8.51-4.1,8.51,8.51,0,0,1,2-.29c.57,0,1.21.06,1.27.73a1.59,1.59,0,0,1-.57,1.18c-1.32,1-2.71,1.84-4.09,2.73-2.4,1.54-4.9,3-7.19,4.65a41.12,41.12,0,0,0-4,3.9l.23.31a8.26,8.26,0,0,0,.87-.34c5.24-2.71,10.48-5.42,16.21-6.95a50.18,50.18,0,0,1,25.61.14c9.8,2.45,18.37,7.31,26.2,13.54a65,65,0,0,1,6.12,5.48,63.19,63.19,0,0,1,4.18,5.27c.11.15.27.32.26.47,0,.32,0,.82-.22.92s-.67,0-1-.17-.32-.36-.45-.57c-2.68-4.49-6.67-7.72-10.7-10.86A66.47,66.47,0,0,0,327.23,225a51.3,51.3,0,0,0-21.43-2.22,46.64,46.64,0,0,0-15.95,4.84c-1.78.92-3.63,1.69-5.42,2.59a24.69,24.69,0,0,0-2.23,1.42l.92,2.31c.68-.34,1.25-.61,1.81-.9a82,82,0,0,1,16.49-6.78,35.78,35.78,0,0,1,14.13-.61c2.82.37,5.65.85,8.43,1.49,5.51,1.26,10.42,4,15.33,6.67,5.46,3,9.9,7.26,14.38,11.47a24.07,24.07,0,0,1,2.71,3.64c.31.45.35,1-.25,1.2-.26.09-.79-.2-1-.47-5.45-7.24-12.49-12.51-20.5-16.62a48.31,48.31,0,0,0-14.51-5.22c-6-.93-12.08-1.69-18.12-.14a64.23,64.23,0,0,0-13.08,5l-5.18,2.65,1.41,3.3c1.94-1.21,3.76-2.39,5.63-3.51a41.22,41.22,0,0,1,16-5.25c12-1.6,22.71,2.12,32.68,8.38a66,66,0,0,1,11.66,9.63c1.92,1.94,3.58,4.14,5.35,6.23.34.41.83.89.27,1.41s-1,0-1.36-.4-.93-1.12-1.41-1.67a63.72,63.72,0,0,0-4.34-4.93c-5.24-4.93-10.71-9.57-17.33-12.62A54.66,54.66,0,0,0,314.66,231a44.41,44.41,0,0,0-26.85,7.74,7,7,0,0,0-1,.79,1.52,1.52,0,0,0-.39,1.95c.73,1.53,1.32,3.13,2,4.71.11.28.34.56.33.83a1.37,1.37,0,0,1-.43.87c-.1.09-.6-.07-.74-.26a5.22,5.22,0,0,1-.7-1.27q-3.72-8.7-7.41-17.42a23,23,0,0,1-1.32-3.55c-.38-1.55-.95-2.84-2.79-3.38a6.09,6.09,0,0,0,.34,3.62c.95,2,1.81,4.12,2.74,6.16.3.66.76,1.24,1.06,1.89s.46,1.33.73,2q4.73,11.48,9.46,22.93c.09.23.3.47.26.67a4.7,4.7,0,0,1-.44,1c-.29-.16-.67-.25-.85-.49a6.12,6.12,0,0,1-.64-1.31l-4.77-11.84c-.24-.62-.51-1.22-.86-2a10.84,10.84,0,0,0-1,1.22c-3.37,6-5.9,12.27-5.74,19.34a43.61,43.61,0,0,1-.13,6.57c-.61,4.67.19,9.19,1.12,13.71a19.16,19.16,0,0,0,.6,1.91c.16.48.32,1.08-.32,1.19-.31.05-.85-.37-1.05-.71a5.48,5.48,0,0,1-.66-1.88c-.51-3.18-1.15-6.35-1.37-9.56-.31-4.23-.85-8.5-.09-12.74a66.67,66.67,0,0,0,.66-11.47c0-.34,0-.68-.07-1.4a6.28,6.28,0,0,0-.54.89A51.94,51.94,0,0,0,271,270.49a108.85,108.85,0,0,0,1.32,15.08c.14.77.28,1.55.4,2.33,0,.16-.11.34-.19.59l-1.21.1a1.79,1.79,0,0,0,0,.52c.23.69.53,1.36.72,2.06a.87.87,0,0,1-.31.74.81.81,0,0,1-.79-.06,5.34,5.34,0,0,1-.84-1.58c-.51-1.74-.95-3.5-1.41-5.23-.77.21-1.59.7-2.17.51a4.36,4.36,0,0,1-1.84-1.64c-1.28-1.76-1.7-3.88-2.22-5.94a34.69,34.69,0,0,1-.39-14.31,101.11,101.11,0,0,1,5.82-22.36,40.43,40.43,0,0,1,5.16-9.21,3.36,3.36,0,0,0,.77-2.35c-.07-1.21,0-2.43-.06-3.65a16.51,16.51,0,0,0-.39-2.11c-.54.46-.88.69-1.16,1-2.34,2.31-4.73,4.57-7,6.95-4,4.24-8,8.55-11.93,12.83a8.36,8.36,0,0,1-1.13,1.17,1.07,1.07,0,0,1-.94,0c-.15-.08-.17-.54-.12-.81s.26-.4.42-.58a186.78,186.78,0,0,1,15-15.95c2.35-2.19,4.5-4.61,6.73-6.94a1.6,1.6,0,0,0,.47-.93c.05-1.5,0-3,0-4.86-.62.47-1,.68-1.23.94-5.36,5.08-9.82,11-14.68,16.49-2.61,3-5.31,5.86-8,8.79-.16.17-.34.42-.54.46a1,1,0,0,1-.81-.16.83.83,0,0,1-.09-.78,6.45,6.45,0,0,1,.89-1.15q8.17-9.33,16.36-18.66c1.61-1.82,3.31-3.56,5-5.32.55-.57,1.17-1.06,1.57-1.42,0-.44.09-.58.05-.67-1.22-2.91-2.46-5.82-3.69-8.73a2.2,2.2,0,0,0-2.1-1.47c-1.15,0-2.29,0-3.44,0-2.31,0-4.63.18-6.94.13a2.81,2.81,0,0,0-3,1.93c-3.21,7.29-6.46,14.57-9.85,21.77-2.2,4.68-4.68,9.22-7,13.83-1,1.95-1.94,3.93-2.91,5.89a3.08,3.08,0,0,1-.51,1,1,1,0,0,1-.89.25,1,1,0,0,1-.33-.88,21.89,21.89,0,0,1,1.16-2.68c2.07-4.06,4.29-8.05,6.24-12.17,3.78-8,7.41-16,11.09-24,.66-1.43,1.3-2.85,2-4.47l-19.6,1c1.3,2.05,2.39,3.78,3.5,5.5.66,1,1.32,2.05,2,3,2.1,3,1.59,6-.14,8.89-.8,1.36-1.74,2.64-2.49,4-3.45,6.44-6.81,12.91-10.29,19.33-1.36,2.51-2.94,4.9-4.4,7.35a2.26,2.26,0,0,0-.49,1.12c.19,2.44-1.21,3.67-3.26,4.45a3,3,0,0,0-.44.32,14,14,0,0,1,.88,1.67,1,1,0,0,1-.13.93c-.19.15-.64,0-1-.05a.63.63,0,0,1-.39-.36c-.7-1.87-1.89-3.59-1.76-5.72a10.69,10.69,0,0,0-.1-1.26c-.06-.79-.15-1.57-.16-2.36s.08-1.44.13-2.32l-8.52-.46c.55,2.31-1.06,4.58,0,6.94-.34,1.34-.65,2.69-1.06,4-.07.22-.57.3-.87.45-.15-.35-.52-.85-.41-1,.79-1.13.1-2.07-.26-3.08-1.49-4.25-3-8.5-4.45-12.75-2.67-7.57-5.55-15.05-8.81-22.39-1.24-2.78-2.38-5.6-3.58-8.39a9,9,0,0,0-.55-.94l-8.86,19.53c1,1.3,2,2.57,2.93,3.91a88.29,88.29,0,0,1,10.92,22c.86,2.53,1.64,5.09,2.44,7.64a4.24,4.24,0,0,1,.29,1.43,1.13,1.13,0,0,1-.57.76c-.14.07-.58-.17-.7-.37a5.35,5.35,0,0,1-.39-1.21,102,102,0,0,0-9.95-24.23c-1.25-2.15-2.66-4.22-4.07-6.27a11.46,11.46,0,0,0-4.86-4.16c-.69.49-.43.85,0,1.23a60.26,60.26,0,0,1,9.49,12,59.54,59.54,0,0,1,7.61,19.43,18.74,18.74,0,0,1,.44,2.33,1.29,1.29,0,0,1-.43,1c-.59.24-.84-.3-1-.78s-.27-1.06-.37-1.6a59.88,59.88,0,0,0-10.68-24.35c-1.83-2.55-4.33-4.4-6.7-6.75-.65,1.12-1.22,2.08-1.8,3.06a10,10,0,0,0,.86.8c5.1,3.81,8.11,9.13,10.63,14.79A86.84,86.84,0,0,1,185.42,266c.18.67.74,1.62-.15,1.93-1.18.41-1.09-.89-1.26-1.53a98,98,0,0,0-5.74-15.16,40.13,40.13,0,0,0-6.34-9.54,29.33,29.33,0,0,0-3.42-2.95c-.47.38-.72.64-.19,1.07,6,4.77,9,11.51,12.14,18.18a92.54,92.54,0,0,1,3.14,8.74,2.93,2.93,0,0,1,.21,1.05.69.69,0,0,1-.39.53,1,1,0,0,1-.78-.2,4.75,4.75,0,0,1-.56-1.33c-1.89-7-5.23-13.35-9-19.47a24.56,24.56,0,0,0-6-6.53c-1.43,2.47-2.81,4.82-4.17,7.18q-3.59,6.25-7.16,12.51c-.06.11-.08.27-.17.32-.29.15-.61.27-.91.4-.14-.36-.47-.8-.37-1.06a27.68,27.68,0,0,1,1.51-2.91q6.85-11.85,13.73-23.68l11.71-20.21c.53-.9,1-2,2.4-1.15a21.34,21.34,0,0,1,.44-2.27,1.48,1.48,0,0,1,.78-.81c.17-.06.63.31.77.58,1,2,2,4,2.87,6.11,3.63,8.49,7.36,17,10.38,25.7,1.29,3.73,2.61,7.46,3.92,11.19C203,253,203.1,253.31,203.34,253.88Zm66.52,8-.55,1.71.13.05c.14-.59.29-1.18.43-1.76L270,260h-.29Zm-45.34-65c-.34-1.07-.51-1.77-.79-2.41-.63-1.51-1-3.24-2-4.43a29.76,29.76,0,0,1-3.37-4.71,18.65,18.65,0,0,0-1.21-1.6c-.81-1.13-1.68-2.24-2.38-3.43-.49-.82-.9-1.47-2-1.63a2.22,2.22,0,0,1-1.83-2.22,10,10,0,0,1,.06-1.81c.14-1.65-.25-2-1.8-1.55a23.53,23.53,0,0,1-9.21.85,46.28,46.28,0,0,1-10.19-2.69,37.1,37.1,0,0,0-6.45-1.88c-4.9-.71-9.28.15-12.32,4.7-1.64,2.46-2.46,5.4-4.66,7.51a13.09,13.09,0,0,0-1.61,2.46c1.68.93,3.07,2.38,5.19,2.55a4.22,4.22,0,0,0-1-1.06,5.51,5.51,0,0,1-1.63-3.76,1.35,1.35,0,0,1,.58-1.11c.62-.2.82.41.85.9.14,2,1.4,3.12,2.85,4.22a58.47,58.47,0,0,0,9.91,5.77,113.37,113.37,0,0,1,14.28,8.08c1.75,1.2,3.58,2.29,5.43,3.34,1.41.8,2.91,1.44,4.46,2.2a6.31,6.31,0,0,1,4.09-3.64c.27-.09.69.24,1,.37-.15.31-.22.7-.46.89-.42.32-1,.49-1.43.78-1.49.93-1.66,1.42-1.07,3.09a2,2,0,0,1-.38,2.2c-.29.31-.54.66-.8,1a1.39,1.39,0,0,0,0,2.09c.43.42.86.92.41,1.71l-1.69.67c-1.43,9.15-.92,18.44-2.22,27.65a60.7,60.7,0,0,0,13.64,2.69,10,10,0,0,0-.19-4.45,22.43,22.43,0,0,1-.12-7.08c.67-4.08,1.31-8.16,2.1-12.21.49-2.45.57-5.1,2.64-7,0,0,.06-.1.1-.15a18.91,18.91,0,0,0,2.84-12.9,6.74,6.74,0,0,0-1.89-4c-2.19-2.12-4.38-4.23-6.65-6.24-3.14-2.78-6.38-5.46-9.55-8.2-.46-.4-1.39-.81-.83-1.56s1.28,0,1.8.43c5.24,4.43,10.67,8.66,15.41,13.67C223,195.53,223.61,196,224.52,196.85ZM224,141.32c.25.69.38,1.12.57,1.54.64,1.45,1.3,2.88,2,4.32a11.17,11.17,0,0,1-1.3,11.88c-.14.2-.27.41-.42.6-1,1.37-1,1.41-.05,2.89a12.44,12.44,0,0,1,1.39,2.55,3.39,3.39,0,0,0,3,2.46c1.25.21,2.75.48,3.34,1.65,1.11,2.23,3.69,2.5,5.12,4.24.12.14.46.11.7.14,1.08.14,2.16.28,3.25.39a31.27,31.27,0,0,1,14.38,4.82c1.31.87,2.7,1.64,4.09,2.4a3,3,0,0,0,3.57-.16,13.1,13.1,0,0,1-.71-2.26c-.24-1.88,0-3,1.91-3.76a19.31,19.31,0,0,1,10-1.06,1.75,1.75,0,0,1,1.44,1.24c.63,1.74,1.06,3.47-.8,4.88,4.05-1.18,5.95-4.31,7.7-7.67-.92-.41-2-.55-2.25-1.09a3.72,3.72,0,0,0-2.91-1.89,4.91,4.91,0,0,1-3.41-2.5,4.6,4.6,0,0,0-3.07-2.45c-.71,1.41-1.38,2.77-2.07,4.12-.29.55-.47,1.49-1.35,1.07s-.25-1.16,0-1.71c.74-1.59,1.53-3.16,2.33-4.81-2.43-1.28-4.75-2.6-7.16-3.75-1.52-.73-3.16-1.19-4.75-1.77-1.84-.67-4-.17-5.65-1.56,0,0-.12,0-.18,0-2.2-.17-4-1.29-5.88-2.33-2.44-1.35-4.91-2.67-7.37-4-2.74-1.46-5.52-2.84-8.24-4.32C228.85,144.16,226.57,142.8,224,141.32Zm-33.43,12.24c1.09-1.07,1.89-2.28,3-2.84A30.58,30.58,0,0,0,198,147.9a15.87,15.87,0,0,1,2.89-1.51c.27-.12.65,0,1,.07a5.07,5.07,0,0,1-.21,1.11c-.07.19-.36.3-.57.42-2.29,1.35-4.59,2.67-6.87,4a6.15,6.15,0,0,0-1.11.94,1.77,1.77,0,0,0-.3,2.3c.65,1.37,1.17,2.8,1.75,4.19.2.47.41.94.56,1.27,2.56-1.07,5-1.84,7.32-2.93s4.75-2.06,7.38-3.19a24.84,24.84,0,0,1-2.87-2.5c-2.52-3-5-6-7.4-9q-3.06-3.84-6-7.78c-1.67-2.23-3.3-4.49-4.84-6.81a13.94,13.94,0,0,1-1.18-2.83c-.41-1.13-.78-2.28-1.17-3.41s-.79-2-1.05-3c-.33-1.35-.38-2.79-.83-4.09a1.69,1.69,0,0,1,.41-2,15.13,15.13,0,0,0-4.49-5.37,3.34,3.34,0,0,0-1.93-.86,10.81,10.81,0,0,0-5.19,1.53c-1.65,1-2.35,2.88-3.29,4.5a.67.67,0,0,0-.06.53c.69,1.22.08,2.4-.14,3.55a14.8,14.8,0,0,0,.83,8.42,72.19,72.19,0,0,0,4.12,7.89c1.2,2.11,2.48,4.19,3.85,6.19a46.51,46.51,0,0,0,5.31,7.15C186.2,149,188.77,150.91,190.57,153.56Zm74.5,44.81a6.88,6.88,0,0,0-.5-1.43,2.81,2.81,0,0,1-.25-3.08,1.7,1.7,0,0,0-.09-1.32q-1.23-2.64-2.59-5.22a2.27,2.27,0,0,0-1-.95c-3.06-1.49-6.23-2.76-9.19-4.41-5.48-3-11.36-3.61-17.44-3.31a5.58,5.58,0,0,1-.74,1.62c-.76.81-.45,1.52-.12,2.34.58,1.46,1.09,2.95,1.61,4.44a4,4,0,0,1-.52,3.66c-1.75,2.67-3.28,5.55-6.17,7.28-.07,0-.07.21-.12.38.44.6.89,1.23,1.34,1.86L255,198.16c.26-.6.58-1.25.84-1.93.59-1.53,1.18-3.06,1.72-4.61.17-.5.38-1,.94-.77.29.14.46.77.48,1.19a3.32,3.32,0,0,1-.35,1.21c-.48,1.25-1,2.49-1.45,3.74-.15.42-.26.86-.41,1.38Zm-39.24,7.76a21,21,0,0,1-3.31,8.46c-1.52,2.18-2,4.65-2.51,7.12-.65,3.09-1.12,6.21-1.68,9.32a26.26,26.26,0,0,0-.14,9.6,25.63,25.63,0,0,1,.26,4.72,5.32,5.32,0,0,1-1.74,4.27,3.52,3.52,0,0,0-1.37,3.08c-.1,1.88.55,2.49,2.58,2.48.3-.52.58-1,.9-1.54,1.32-2,2.82-4,4-6.1,4.53-8.47,8.69-17.13,13.79-25.28,1.53-2.43,1.78-4.93,0-7.48s-3.53-5.39-5.25-8.1a1.64,1.64,0,0,0-1.8-.9C228.4,206,227.24,206,225.83,206.13Zm-15.25-131c-.1-1.5-.1-2.77-.27-4a8.17,8.17,0,0,0-1.77-4.53,20.26,20.26,0,0,0-11.79-6.8,22.25,22.25,0,0,0-15.58,3.09A13,13,0,0,0,174.61,73c-.28,3,.53,5.78,1.28,8.59a20.93,20.93,0,0,0,.78,2.13,19,19,0,0,0,.7-3.07,1.56,1.56,0,0,1,1.51-1.35,1.19,1.19,0,0,1,1.41,1.08c0,.2.23.38.52.82.52-2.69,2.39-3.26,4.49-3.52,1.92-.24,3.85-.53,5.78-.72,5.68-.58,11.36-1.12,17-1.67Zm-56.76,113c2-2.18,2.77-5.33,5.38-6.86a9,9,0,0,0,1.64,1.42c.75.35,3.43-.7,3.9-1.42s1-1.64,1.59-2.53c-.1-.29-.21-.64-.35-1a7.38,7.38,0,0,1,.38-6.67,61.88,61.88,0,0,1,5.2-7.9c3.19-4.06,6.62-7.94,9.93-11.91.72-.87,1.38-1.78,2-2.54-5.53-6.51-9.48-13.75-13.8-20.81a7.46,7.46,0,0,0,.12,1.89,33.09,33.09,0,0,1,.66,11.4,11.8,11.8,0,0,0,.33,3.95,6.1,6.1,0,0,1-.18,3.56c-.66,1.68-1.9,3.12-2,5a1.32,1.32,0,0,1-.59.89c-1.29.7-1.7,2-2.32,3.18-.72,1.4-1.39,2.84-2.22,4.19a86.25,86.25,0,0,0-6.6,14.19,19.11,19.11,0,0,0-.87,4.43c-.25,1.85-.65,3.58-2.23,4.8a3.13,3.13,0,0,0-.83.95C152.51,187.14,152.75,187.57,153.82,188.12ZM252.89,142c-3.28-2.27-6.26-4.48-9.39-6.44-3.28-2.06-6.72-3.88-10.1-5.78a2.92,2.92,0,0,1-1.82-2.09c-.08-.46-.68-1.24-.91-1.19-1.51.31-1.87-.66-2.29-1.72a3.18,3.18,0,0,0-.86-1.17c-2.14-1.87-4.3-3.74-6.5-5.55a3.47,3.47,0,0,0-2.13-1.06c.07.42.11.71.18,1,.61,2.59,1.28,5.17,1.82,7.78.42,2,.73,4,1,6.09a10.68,10.68,0,0,1,0,2.88,5,5,0,0,0,2.25,4.76c5,2.81,9.92,5.61,14.92,8.36,1.83,1,3.76,1.85,5.59,2.75C245.69,146.17,249.34,144.39,252.89,142Zm-56.1,20-1.25.36c-1.4.37-1.49.32-1.92-1a5.13,5.13,0,0,0-.53-1.35c-1.67-2.46-3.32-4.94-5.11-7.31a31.64,31.64,0,0,0-3-3.1l-3.74,4.34c-4.67,5.44-9.49,10.75-13.07,17a9.53,9.53,0,0,0-1.14,5c0,.28.26.55.51,1a20.58,20.58,0,0,1,1.12-1.93c1.19-1.6,2.39-3.21,3.68-4.73a5.34,5.34,0,0,1,1.91-1.36,14.72,14.72,0,0,1,9.94-1c3.63,1,7.18,2.18,10.76,3.31a23.84,23.84,0,0,0,13.82.34c1.63-.45,2.9-1.11,3.33-2.85a1.59,1.59,0,0,0,0-.43l-7.93-4.89C200.89,165.33,200.53,165.25,196.79,162Zm9.82-85.31-18.06,2c0,1.39,0,2.53,0,3.68,0,2.68-.07,5.35,0,8,.1,4,1.6,5.91,5.36,7a27.37,27.37,0,0,0,3,.74c2,.35,3.94.69,5.93.92a3,3,0,0,0,3-1.31,8.83,8.83,0,0,0,1.58-6c-.22-1.68-.8-3.3-.36-5,.06-.27-.13-.59-.16-.89a14.78,14.78,0,0,1-.22-2.28A50.27,50.27,0,0,0,206.61,76.69Zm-2.47,28.51a3.94,3.94,0,0,0,.82,3.68,18.55,18.55,0,0,1,3.39,6c.48,1.38,1,2.76,1.53,4.1a172.72,172.72,0,0,1,6.66,18.89c.91,3.07,1.12,6.08-.39,9-.05.09,0,.23,0-.07a28.61,28.61,0,0,0,7.6,11.68c1.88-2.66,3.14-5.41,2.06-8.69-.53-1.61-1.24-3.16-1.87-4.74-1.09-2.7-2.34-5.35-3.22-8.11-1.24-3.88-2.18-7.84-3.31-11.75a32.39,32.39,0,0,0-2.92-7.65,7.84,7.84,0,0,1-1-2.13c-.31-1.35-.85-2.38-2.33-2.69-.68-.15-1.17-.65-.95-1.31.3-.91-.22-1.34-.71-1.88a20.55,20.55,0,0,0-1.45-1.63C206.93,106.92,206.05,105.49,204.14,105.2Zm6.49,50.73-8.87,3.75c.71.6,1.13,1,1.62,1.37,2.07,1.38,4.16,2.73,6.25,4.1,1.93,1.26,3.87,2.51,5.78,3.79a3.35,3.35,0,0,1,1.46,2.2,5.7,5.7,0,0,0,1.16,2.44,8.7,8.7,0,0,1,2.24,4.88,1.81,1.81,0,0,0,1.58,1.69c0-1.35,0-2.54,0-3.73,0-.32.41-.62.63-.94.26.28.72.53.75.83.14,1.14.13,2.29.19,3.44,0,.1.09.2.18.39l1.23-.07c0-1.26,0-2.4,0-3.55,0-.62-.35-1.53.66-1.59s.83.9.86,1.51c.06,1.31,0,2.63,0,4.15l2.44-.47c0-1.51,0-2.91,0-4.3,0-.27.38-.53.58-.79.28.24.74.44.81.74a6.25,6.25,0,0,1,0,1.62c0,.87,0,1.74,0,2.62,1.29.05,1.93-.41,2-1.44.09-1.87.19-3.75.14-5.62a3.59,3.59,0,0,0-3-3.79c-.35-.1-.7-.22-1.05-.29a14.64,14.64,0,0,1-6.7-3.13c-1.69-1.38-3.28-2.88-4.91-4.34ZM197,111.48c-.26,1-.53,1.92-.75,2.85a3.86,3.86,0,0,0,.8,3.34c2.44,3.48,4.7,7.08,7,10.67,3.39,5.32,6.74,10.68,10.12,16a8,8,0,0,0,.86,1,6.49,6.49,0,0,0,.6-4.39c-.5-2-.85-4-1.54-6-2.44-6.8-5-13.56-7.52-20.32a17.3,17.3,0,0,0-1.21-2.44,5.86,5.86,0,0,0-.81-.92c-.66,2.19-.89,2.35-2.87,1.77C200.15,112.56,198.63,112,197,111.48Zm8.76,96.84a118.67,118.67,0,0,0-15.59-.39c.06.15,11.73,29.89,11.89,30.31.15-2.5.26-4.59.41-6.68.37-5.28.71-10.56,1.17-15.83a19.64,19.64,0,0,1,1.12-3.68C204.25,211,204.79,209.72,205.8,208.32Zm67.88,25.53a8.12,8.12,0,0,0-.69.9c-1.34,2.58-2.79,5.12-4,7.77a67.58,67.58,0,0,0-3.77,12.54,67.6,67.6,0,0,0-2.21,15.3,32.58,32.58,0,0,0,2.18,11.56A3.1,3.1,0,0,0,267,284c.31-1.63,1.17-2.92.91-4.63a65.21,65.21,0,0,1,.18-18.35,54.54,54.54,0,0,1,3.66-13.5c.79-2,1.89-3.87,2.25-5.91s0-4.24-.07-6.37A13.86,13.86,0,0,0,273.68,233.85ZM178.47,84a6.27,6.27,0,0,1,1.17,1.66c.94,3.52,3.24,6.09,5.79,8.47a5.41,5.41,0,0,1,2,4.29,4.33,4.33,0,0,0,.78,2.37,27,27,0,0,0,6.8,7.55,19.12,19.12,0,0,0,7.85,3.41c-.19-3.84-.37-7.44-.54-11-2.43-.48-4.65-.84-6.83-1.35-2.61-.61-5.25-1.22-7.09-3.43a46.44,46.44,0,0,1-3.27-4.14c-2.15-3.32-4.17-6.72-6.4-10.33ZM195,124.94c-.42,2.7-.81,5.08-1.14,7.46a2,2,0,0,0,.28,1.32c1.92,2.49,3.9,4.94,5.84,7.42s3.89,5,5.81,7.46a26.22,26.22,0,0,0,5.5,5.09c.39-1.14.73-2.15,1.07-3.17C206.25,142.31,202,132.92,195,124.94Zm20.9,27.42c.86-.32.76-.85.47-1.37-.69-1.28-1.36-2.58-2.14-3.8-1.81-2.81-3.76-5.54-5.52-8.38-3.22-5.15-6.3-10.39-9.53-15.53-1.71-2.73-3.38-5.53-5.91-7.61-2.9-2.4-5.89-4.7-8.84-7a4.57,4.57,0,0,0-.72-.4,24.08,24.08,0,0,0,3.63,5.17,139.28,139.28,0,0,1,12.61,15.34c1.3,1.75,2.48,3.6,3.67,5.43C207.58,140.27,211,146.79,215.88,152.36Zm57.33,60c.17-.16.25-.2.25-.24,0-5.17,0-10.33-2.69-15-.91-1.57-1-3.67-3.57-4.32-.16.12-.88.36-1,.79-.27.83-1.09,1.61-.32,2.7a14.87,14.87,0,0,1,1.29,2.93c-.38.23-.58.46-.79.47-3.45.16-6.9.29-10.48.43-.35.77-.73,1.64-1.14,2.56,2.71,0,5.24,0,7.77,0,1.09,0,2.19-.2,3.27-.14,1.83.11,3.41.65,4.2,2.6C271,207.5,272.1,209.85,273.21,212.33Zm-21.92-58.4a13.7,13.7,0,0,0,2.5-.84c2.2-1.26,4.38-2.58,6.52-4,.9-.57,1-1.3.2-2.1a28.43,28.43,0,0,0-2.79-2.59c-3-2.32-2.35-1.83-5.22-.36a17.57,17.57,0,0,0-5.11,4c-1.21,1.36-1.23,2.89.2,4A20.83,20.83,0,0,0,251.29,153.93Zm-52.85,49.5.16-.28c-3.64-2.28-7.23-4.65-10.95-6.79-2.94-1.7-6.07-3.06-9.07-4.67a7.82,7.82,0,0,0-4.42-1.34c-.27,1-.54,2-.82,3,.36.52.67,1.2,1.51,1,1.93-.55,3.71.16,5.63.57l3.18,8.44,1.73-.71c-.7-1.79-1.34-3.43-2-5.07a4.25,4.25,0,0,1-.37-1.2.85.85,0,0,1,.42-.7.83.83,0,0,1,.75.26,5.42,5.42,0,0,1,.66,1.29c.65,1.57,1.28,3.15,1.92,4.72a1.67,1.67,0,0,0,1.63,1.21C191.77,203.22,195.1,203.33,198.44,203.43Zm74.89-45.56c-4.37-2-7.67-5.25-11.31-8l-7.85,4.88c3.14,1,6.05,1.68,8.77,2.81s5.39,2.73,8.24,4.21C271.93,160.43,272.58,159.24,273.33,157.87ZM287.19,166l1.89-1.37a1.69,1.69,0,0,0-1.25-2.19c-1.5-.45-3-.95-4.53-1.29-2.59-.57-5.28-.85-7.51-2.52a3.66,3.66,0,0,0-.88-.35,32.35,32.35,0,0,0-2.52,4.78,8.39,8.39,0,0,1,3.8,3.49,3.57,3.57,0,0,0,1.54,1.16c1.13.49,2.33.82,3.66,1.27-.17-.35-.3-.6-.41-.86-.87-1.94-.16-3.14,2-3A27.16,27.16,0,0,1,287.19,166Zm-32.91,33.79c-9.7.45-19,1.47-28.48,2.28l.15,2.31c.66,0,1.14.09,1.62.06,3.94-.19,7.88-.38,11.83-.6s8.12-.48,12.18-.78a2.31,2.31,0,0,0,1.53-.72A14.09,14.09,0,0,0,254.28,199.82Zm-38.41-20.4c2.15,3.05,4,5.91,6.09,8.53a14.76,14.76,0,0,1,2.51,4.15c.32.85.62,1.71.92,2.57a4.35,4.35,0,0,0,1.36,2.22c2.43-1.4,2.71-2.09,2-4.61a12.1,12.1,0,0,0-.41-1.2L225,182.85c-.44-1.08-.69-1.27-2-1a2.75,2.75,0,0,1-3.09-.94C219,179.56,217.65,179.48,215.87,179.42Zm18.23-2.48c1.68.1,3.31.3,4.92.25a23.12,23.12,0,0,1,10.91,2.44c2.78,1.34,5.52,2.79,8.33,4.08a29.36,29.36,0,0,0,4.78,1.73,9,9,0,0,0,5.56-.2c.57-.21,1.13-.49.8-1.4a6.31,6.31,0,0,0-1.23,0c-3.39.72-6.5-.18-9.48-1.69-1.46-.73-2.83-1.65-4.23-2.5a24,24,0,0,0-8.21-3.37c-2.8-.51-5.63-.88-8.46-1.22a32.28,32.28,0,0,0-3.69,0Zm-42-46.14.5-.14c.25-2.22.49-4.44.74-6.66a3.21,3.21,0,0,0-.9-2.66c-1.94-2.1-3.84-4.23-5.76-6.34a1.77,1.77,0,0,0-.49-.27c.19,1.51.35,2.89.55,4.27a4,4,0,0,0,.44,1.73c1.15,1.46,1.34,3.22,1.86,4.89A12.57,12.57,0,0,0,192.13,130.8Zm2.16-20.9c-1.49-1.45-3-2.76-4.32-4.25s-2.48-3.23-3.72-4.88c-.47.22-.86.39-1.23.58s-.52.3-.73.42c.11,4.33,3.1,8.2,7.77,10.56Zm32,72.17,4.46,11.12c.74-1.06,1.41-2,2-2.92a3.44,3.44,0,0,0,.44-3.28c-.69-1.79-1.36-3.59-2.09-5.53ZM187,91.64c0-4.41.15-8.47-.05-12.74-.94.22-1.64.36-2.33.54a3.41,3.41,0,0,0-2.21,5.16c1.2,2.1,2.54,4.13,3.83,6.19A8.56,8.56,0,0,0,187,91.64Zm29.78,154.83-14.14-2.8.28,2.93c1.6.85,3.15,1.8,5.06,1.87q3.27.1,6.54.32a1.42,1.42,0,0,0,1.61-.87C216.33,247.43,216.55,247,216.77,246.47Zm57.35-64.36.38,2.08c4.95-.84,11.21-7.49,12.89-13.6L285.34,169a16,16,0,0,1-3.47,8.37A12.15,12.15,0,0,1,274.12,182.11Zm6,57c-3.63,3.34-5.38,9.8-3.87,14.07,1.45-3.67,2.87-7.28,5.4-10.36C281.15,241.6,280.67,240.43,280.12,239.11Zm0-20.47c-1.65-3.62-3.24-7.13-4.83-10.63l-.37.12c.1,3.77.2,7.55.29,11.23l1.66,1.06ZM170.23,188.81a12.19,12.19,0,0,1,.38,1.59,4.72,4.72,0,0,1-1.08,4.24c-.39.38-.88.79-1.42.28s-.08-.83.22-1.24a4.36,4.36,0,0,0-2-6.62,7.53,7.53,0,0,0-.59,5.27c.77,3.27,3.72,4.23,6.47,2-.84-.86-.29-1.73,0-2.64C172.84,190,172.24,189.08,170.23,188.81ZM274.39,175.5a27.43,27.43,0,0,0-2.8-.35c-1.59,0-3.18.06-4.21,1.58-.41.61-1,1.24-.51,2a2.32,2.32,0,0,0,2.14,1.45,15.32,15.32,0,0,0,3.39-.49C274.51,179,275,177.89,274.39,175.5Zm-62-64.2c.64.65,1.68,1.26,2,2.12.58,1.87,1.63,3.49,2.35,5.28.88,2.17,1.61,4.4,2.41,6.6a12.48,12.48,0,0,0-.46-3.35c-.65-2.71-1.32-5.4-2-8.1a3.18,3.18,0,0,0-.56-1.5c-1.66-1.57-3.18-3.32-5.28-4.36a1,1,0,0,0-.44,0Zm-47.09,84c-1.74-3.14-1.52-6.19-.42-9.27a3.8,3.8,0,0,0-3.73,3.77C160.91,192.92,162.3,194.89,165.32,195.31Zm52.07-41.76a1.16,1.16,0,0,0-.6,1.81c1,2.1,1.92,4.2,2.91,6.29a4.42,4.42,0,0,0,.76.9c2.51-.66,2.35-1.65,1.39-3.69a.4.4,0,0,0-.1-.15Zm1.14,24.59c-.41-2.77-1.77-4.22-4-4.49-.68-.09-1.5-.22-1.77.51a7.42,7.42,0,0,0-.26,2.46c0,.19.37.52.61.57C214.91,177.53,216.69,177.82,218.53,178.14ZM281,228c3.28-4.25,8-6.57,12.41-9.4a33.13,33.13,0,0,0-11.92,7.09c-.28.24-.49.54-.75.8C280.19,227.05,280.37,227.49,281,228Zm-4.78,2.51c-.39.66-.79,1-.8,1.41,0,2.19.08,4.38.13,6.57l.33,0,2.16-4Zm11.67-63c2.06,2.46.9,4.81,0,7.25a2.56,2.56,0,0,0,1.42-1.05c1.06-2.4.85-4.88.47-7.57-.47.29-.74.44-1,.61S288.29,167.15,287.86,167.52Zm-18.74,98.07c-.39,6.55-.38,12.67,1.14,18.77C269.88,278.19,269.51,272.09,269.12,265.59ZM216.38,158.45c-1.07-2-1.18-4.47-2.77-6.47C212.42,154.57,213.34,156.68,216.38,158.45Zm61.93,62.84c.54,1.46,1,2.64,1.38,3.77l1.76-1.38-1.19-3.31ZM178,205.13a3.86,3.86,0,0,0,2.28,1.76c.64.15,1.2.11,1.51-.57a1.36,1.36,0,0,0-.73-1.77A2.52,2.52,0,0,0,178,205.13Zm88.91-13.91c-.47-1.08-.83-2-1.23-2.82-.58-1.25-.63-1.26-2.4-1,.76,1.47,1.48,2.88,2.23,4.32Zm3.31-8.82c1.34,1.29.88,2.52.24,3.8,2.12-.57,2.71-1.84,1.84-3.8Zm-67.56-19.91-2.53-2.08-1.66.8C200.14,163.26,200.59,163.42,202.67,162.49Zm12.77,9.58c-.07-.4,0-.71-.16-.85-.46-.49-.92-1.16-1.5-1.32s-.88.65-1.13,1.17-.31.76-.47,1.17Zm-46.69,58.05.42-.86a14.46,14.46,0,0,0-5.28-2.19Zm96.36-53.46c-.5,0-.83.41-.79,1a4,4,0,0,0,1.55,3.31Zm-43.48-12.74,2.84,1.91.28-.26c-.49-.86-1-1.72-1.51-2.65Zm-39-60.6-2.19,1.2,3.23,1.47Zm10.29,10.17,1.74,1.17c.26-1.16.47-2.07.68-3l-.32-.16Zm32.77,87.08,1.89-.21-2.48-2.75Zm51.61,38.71c2-1.71,2-1.71,1.32-2.71Zm-61.43,17.3c.53,1.53.78,1.57,2,.33Zm54.88-1.08.3.08c.29-1,.58-2,.86-3l-.35-.09Zm-4.42-72.88,3.23-.47C267.59,181.81,267.59,181.81,266.32,182.62ZM174.3,229l-.26-.19-.53,1.1.26.12Z"/><path d="M290.19,187.2c1.51.46,2.9.86,4.29,1.3a295.6,295.6,0,0,1,44.78,18.37c3.35,1.71,6.75,3.35,10.11,5A6.85,6.85,0,0,1,351,213c.23.22.2.72.28,1.1-.43.06-.93.29-1.28.14-.54-.22-.92-.79-1.45-1-12.73-6.32-25.37-12.87-38.72-17.82-6-2.22-12.06-4.13-18.1-6.17-.57-.19-1.21-.21-1.75-.45-.32-.14-.51-.56-.77-.85Z"/><path d="M293.71,175.4l-.73-.68c.26-.27.48-.73.77-.79,2.69-.51,5.38-1,8.08-1.4,9.7-1.35,19.4-2.58,29.09-4,5.95-.87,11.86-2,17.79-3,.83-.15,1.63-.49,2.46-.61.4,0,1.08.11,1.22.39.36.69-.29,1-.82,1.09-1.3.32-2.6.65-3.91.86-10.32,1.65-20.64,3.32-31,4.88-6.25.94-12.53,1.68-18.8,2.53C296.57,174.84,295.26,175.12,293.71,175.4Z"/><path d="M140.16,198.65c4.32,1,8.72.38,13.07.62,3.39.19,6.76.72,10.13,1.11,1.69.19,3.37.4,5.06.61a4.7,4.7,0,0,1,1.42.24c.31.13.5.54.75.83-.34.19-.69.57-1,.54-2.17-.2-4.34-.49-6.51-.75-4.82-.58-9.61-1.3-14.51-1.06a59.12,59.12,0,0,1-7.25-.49c-.48,0-1-.1-1.44-.1s-1,.1-1.12-.59.44-1,1.23-1Z"/><path d="M157.87,218.55c-.09-.16-.29-.37-.29-.59s0-.78.24-1a6.36,6.36,0,0,1,1.45-.73c5-2.2,10-4.27,14.66-7.25.2-.13.43-.34.63-.33a6.7,6.7,0,0,1,1.13.29c-.16.35-.22.84-.48,1a46.15,46.15,0,0,1-4.55,2.66c-3.94,1.89-7.92,3.68-11.88,5.5Z"/><path d="M164,207.12c.16-.15.38-.49.67-.59,1.6-.54,3.21-1.07,4.85-1.49a1.33,1.33,0,0,1,1.18.45c.28.54-.19.8-.72,1-1.62.48-3.23,1-4.85,1.5C164.39,208.16,163.91,207.83,164,207.12Z"/><path d="M189.63,61.47c.21.17.69.39.82.74.21.57-.29.77-.77,1-1.08.51-2.14,1.07-3.18,1.66-.46.26-.89.42-1.29,0s-.2-.93.22-1.23C186.65,62.75,187.76,61.67,189.63,61.47Z"/><path d="M192.4,68.39a6.08,6.08,0,0,1,1.19,0c.19,0,.48.27.49.43s-.11.74-.25.77c-1.36.25-2.32,1.61-3.84,1.35-.33,0-.88-.19-.9-.35a1.54,1.54,0,0,1,.3-1.09A3.5,3.5,0,0,1,192.4,68.39Z"/><path d="M205.87,69.07c-.42-.06-1.26.42-1.46-.58-.14-.67.55-1.1,1.72-1.15a5.93,5.93,0,0,1,.73,0c.61,0,1.36.13,1.28.9,0,.31-.75.61-1.2.81A3.29,3.29,0,0,1,205.87,69.07Z"/></svg>