<svg xmlns="http://www.w3.org/2000/svg" width="500" height="500" viewBox="0 0 500 500"><path d="M228.07,369.89c1-1.63.61-3.19.54-4.67,0-.34-.72-.79-1.18-.94a2,2,0,0,1-1.43-2.07c-.06-1.73-.52-3.45-.12-5.21.07-.31-.17-.7-.28-1-3.4-10.74-7.86-21.07-12.23-31.43-.16-.39-.32-.79-.44-1.19-.05-.16,0-.35.11-.78,2.58-.46,5.25,0,7.88-.18s5.32,0,8.25,0a5.57,5.57,0,0,0-1.38-.64c-2.89-.34-5.78-.68-8.68-.91-1.88-.15-3.77-.11-5.65-.18a6.27,6.27,0,0,1-1.63-.17c-2.18-.69-2.91.37-3.54,1.85a88.1,88.1,0,0,1-4.94,9.92c-4.38,7.44-8.58,15-12.89,22.46-2.7,4.69-5.52,9.31-8.19,14-2.1,3.7-4.05,7.49-6.1,11.22-.34.61-.49,1.86-1.56,1.25-.86-.5-.07-1.33.25-1.91q4-7.37,8.11-14.69c1.8-3.24,3.63-6.47,5.55-9.9-.73-.38-1.43-.82-2.18-1.12a35.19,35.19,0,0,0-15-2.31c-.48,0-1,0-1.45,0-.1,0-.2-.12-.31-.19-.28-.67,0-1.07.67-1.18a12.75,12.75,0,0,1,2.53-.29c6.06.18,10.07.57,16.55,3.57l.74-1a17.28,17.28,0,0,0-7.51-3.68,40,40,0,0,0-9.92-1.26c-1,0-1.93.28-2.89.29-.4,0-1-.26-1.15-.56-.21-.6.36-.81.88-.85a41.14,41.14,0,0,1,5.07-.28c4.44.25,8.84.85,12.89,2.87,1.14.56,2.21,1.24,3.45,1.94l1.84-3c-.87-.65-1.64-1.31-2.49-1.85a26.46,26.46,0,0,0-10.41-3.65,18.23,18.23,0,0,0-8.31.29c-.47.14-1.08.21-1.2-.42,0-.29.28-.75.56-1a10.61,10.61,0,0,1,6.1-2.13,24.35,24.35,0,0,1,10.17,1.72c2.51.89,4.95,2,7.47,3,1.51-1.56,9.87-16,10.86-18.92-.69-.29-1.4-.57-2.1-.9-1.43-.69-2.29-1.9-2.11-2.89s1.75-2.12,3.28-2.18c.59,0,1.18,0,2,0-.74-2-1.45-3.88-2.11-5.75a1.53,1.53,0,0,0-1.35-1.06,13.72,13.72,0,0,0-3.06-.15,12.17,12.17,0,0,0-4,.87c-1.24.6-7,.28-8.23-.25A4.76,4.76,0,0,1,185.2,310c-1.68-3.63-.92-6.74,2.26-9.19a.32.32,0,0,0,.1-.19l-4.21-.87c-.86,1.33-1.9,2.87-2.9,4.44s-1.94,1.89-3.39,1.06a2.63,2.63,0,0,1-.68-3.67,4.63,4.63,0,0,1,1.07-1.22,4.34,4.34,0,0,0,1.66-3.51,17.92,17.92,0,0,1,1.84-7.18c1.32-2.86,2.48-5.8,3.88-8.62a87.27,87.27,0,0,1,5.2-9.62,26.41,26.41,0,0,0,2.75-4.92c.34-.84.87-1.62,1.12-2.48a4.24,4.24,0,0,0,.11-2.28,10.23,10.23,0,0,1-.32-5.05c.64-3.51-.06-6.9-.58-10.33-.39-2.64-.66-5.31-.9-8a14.48,14.48,0,0,1,.21-2.53c.15-1.76.23-3.52.48-5.26a14.15,14.15,0,0,1,.92-3.1c.27-.66.82-1.21,1.15-1.85,1.33-2.54,3.72-3.37,6.27-3.88.76-.15,1.36-.25,1.74-1a3.75,3.75,0,0,1,1.22-1.32c2-1.36,4-2.67,6-4a3.51,3.51,0,0,0,.4-.37,4.21,4.21,0,0,0-1.56-3.86,21.18,21.18,0,0,1-5.42-7c-.57,0-1.26.13-1.68-.13a3.56,3.56,0,0,1-1.2-1.55c-1.64-3.89-3-7.91-3-12.15a13.81,13.81,0,0,1,5.69-11.5,23.49,23.49,0,0,1,19.51-4.2c3.81.76,7,2.92,10,5.46,3.5,3,4,7,3.7,11.32a1.29,1.29,0,0,1-1.29,1.28c-.72.08-1.44.13-2.34.2,0,1.3-.06,2.56,0,3.81.11,1.86-.54,3.75.3,5.58.11.25,0,.6,0,.9a17.28,17.28,0,0,0,.16,3.23,11.05,11.05,0,0,1-1.35,7.9,4.88,4.88,0,0,1-3.5,2.4l.19,2.61c2.17.82,3.91,2.49,6.34,3,1.21.24,2.3,1.25,3.39,2,.7.48,1.24,1.18,1.93,1.66a4.91,4.91,0,0,1,2.37,3.71,2.13,2.13,0,0,0,1.3,1.64,47.55,47.55,0,0,1,8.84,7,5.89,5.89,0,0,1,1,1.05,3.54,3.54,0,0,0,2,1.68c.72.24,1.31,1.22,1.67,2a3.14,3.14,0,0,0,1.39,1.57c3.28,1.85,6.62,3.6,9.8,5.61s5.91,4.07,8.84,6.13a3.59,3.59,0,0,0,2.44,1,2.36,2.36,0,0,1,1.46.63c2,1.68,4,3.41,5.92,5.13a1.14,1.14,0,0,1,.43.58c.27,1.91,1.88,2.72,3.17,3.73,1.95,1.54,4,2.92,6.08,4.33a10,10,0,0,0,1.5.71,10.72,10.72,0,0,0,.73-.92c5.85-10,12.79-19.25,19.14-28.91,3.07-4.67,6.06-9.41,9-14.16.77-1.23,1.25-2.63,1.93-3.92.19-.37.67-.9.92-.85.71.13.65.81.47,1.34a21.32,21.32,0,0,1-1.08,2.51,157.28,157.28,0,0,1-9.53,15.33Q312,255,303.81,267.22c-1.18,1.76-2.21,3.62-3.35,5.49a11.67,11.67,0,0,0,5.79,2.61c1.31.26,2.66.39,3.93.76a20.3,20.3,0,0,1,3.88,1.52c.63.33,1,1.08,1.6,1.73,1.1-.78,2.28-1.63,3.47-2.46,8.23-5.75,16.48-11.48,24.68-17.26,3.68-2.59,7.29-5.29,10.91-8a21.81,21.81,0,0,0,2-1.82c.41-.39.81-.57,1.26-.15s.23.92-.14,1.26a20.79,20.79,0,0,1-2.09,1.77c-5.66,4.1-11.31,8.23-17,12.27-7.55,5.34-15.16,10.6-22.75,15.9.08,1.6.22,3.1.22,4.6a19.73,19.73,0,0,1-.33,3.43,3.94,3.94,0,0,1-3.41,3.54,4.26,4.26,0,0,0-2.8,1.81c-.95,1.19-2,2.3-3,3.42a14,14,0,0,1-7.13,4.18c-.35.08-.84.06-1,.29-1.58,1.84-3.76,1.76-5.87,1.95a2.28,2.28,0,0,0-.53.24c.72,1.52,1,3.23,2.64,4.28a5.51,5.51,0,0,1,1.41,2,21.93,21.93,0,0,1,.85,2.07l.38-.11c-.08-.89-.22-1.78-.23-2.68a13.69,13.69,0,0,1,.2-2.71c.05-.28.57-.47.87-.7.18.28.5.56.52.85.18,3.09.36,6.19.45,9.28.07,2.27,1.1,4.22,2,6.22,1.55,3.57,3.22,7.08,4.84,10.62a6.57,6.57,0,0,1,.87,3.11,8.13,8.13,0,0,0,.53,2.1c1.16-.76,2.14-1.34,3.06-2a31,31,0,0,1,8.51-4.1,8.51,8.51,0,0,1,2-.29c.57-.05,1.21.06,1.27.73a1.55,1.55,0,0,1-.56,1.18c-1.33,1-2.72,1.84-4.1,2.73-2.4,1.54-4.9,3-7.19,4.65a39.94,39.94,0,0,0-4,3.9l.22.31a9.4,9.4,0,0,0,.88-.34c5.23-2.71,10.47-5.42,16.2-6.95a50.18,50.18,0,0,1,25.61.14c9.81,2.45,18.37,7.31,26.2,13.54a65,65,0,0,1,6.12,5.48,63.19,63.19,0,0,1,4.18,5.27c.11.15.28.32.27.47,0,.32,0,.81-.23.92s-.67,0-1-.17a1.35,1.35,0,0,1-.44-.57c-2.69-4.49-6.68-7.72-10.7-10.86A66.52,66.52,0,0,0,352,341a51.45,51.45,0,0,0-21.43-2.23,46.89,46.89,0,0,0-15.94,4.85c-1.78.92-3.64,1.69-5.43,2.59a22.66,22.66,0,0,0-2.23,1.42l.92,2.31c.68-.34,1.26-.61,1.82-.9a81.91,81.91,0,0,1,16.48-6.78,35.79,35.79,0,0,1,14.13-.61c2.83.37,5.65.85,8.43,1.49,5.52,1.26,10.42,4,15.33,6.67,5.46,3,9.9,7.26,14.38,11.47a23.41,23.41,0,0,1,2.71,3.64c.32.45.35,1-.24,1.2a1.21,1.21,0,0,1-1-.47c-5.46-7.24-12.5-12.51-20.5-16.62a48.46,48.46,0,0,0-14.52-5.22c-6-.93-12.08-1.69-18.11-.14a64.09,64.09,0,0,0-13.09,5l-5.17,2.65,1.4,3.3c1.94-1.21,3.77-2.39,5.63-3.51a41.21,41.21,0,0,1,16-5.25c12-1.6,22.7,2.12,32.67,8.38a65.57,65.57,0,0,1,11.66,9.63c1.92,1.94,3.58,4.14,5.35,6.23.35.41.83.89.27,1.41s-1,0-1.36-.4-.93-1.12-1.4-1.67c-1.44-1.66-2.76-3.43-4.35-4.93-5.23-4.93-10.71-9.57-17.33-12.62A54.59,54.59,0,0,0,339.39,347a44.41,44.41,0,0,0-26.85,7.74,7,7,0,0,0-1,.79,1.53,1.53,0,0,0-.39,1.95c.73,1.53,1.32,3.13,2,4.71.11.28.35.56.33.83a1.41,1.41,0,0,1-.42.87c-.11.09-.6-.07-.75-.26a5.22,5.22,0,0,1-.7-1.27q-3.72-8.7-7.41-17.42a24.07,24.07,0,0,1-1.32-3.55c-.37-1.55-1-2.84-2.79-3.38a6.17,6.17,0,0,0,.34,3.62c1,2,1.81,4.12,2.74,6.16.3.66.76,1.24,1.06,1.89s.46,1.33.73,2q4.72,11.47,9.46,22.93c.1.22.3.47.26.67a4.91,4.91,0,0,1-.44,1c-.29-.16-.67-.25-.85-.49a6.12,6.12,0,0,1-.64-1.31q-2.39-5.93-4.76-11.84c-.25-.62-.52-1.22-.86-2a11.08,11.08,0,0,0-1,1.22c-3.37,6-5.89,12.27-5.73,19.34a43.61,43.61,0,0,1-.14,6.57c-.6,4.67.19,9.19,1.12,13.71a19.23,19.23,0,0,0,.61,1.91c.15.48.31,1.07-.33,1.19-.31,0-.85-.37-1-.71a5.7,5.7,0,0,1-.66-1.88c-.5-3.18-1.14-6.35-1.37-9.56-.31-4.23-.85-8.5-.08-12.74a67.74,67.74,0,0,0,.65-11.47c0-.34,0-.68-.07-1.4a7.51,7.51,0,0,0-.54.89,51.94,51.94,0,0,0-2.85,18.83A112,112,0,0,0,297,401.58c.14.77.29,1.55.4,2.33,0,.16-.11.34-.19.59l-1.21.1a1.79,1.79,0,0,0,0,.52c.23.69.54,1.36.72,2.06a.84.84,0,0,1-.3.74.83.83,0,0,1-.8-.06,5.47,5.47,0,0,1-.84-1.58c-.51-1.74-1-3.5-1.41-5.23-.77.21-1.59.7-2.17.51a4.36,4.36,0,0,1-1.84-1.64c-1.28-1.76-1.69-3.88-2.22-5.94a34.69,34.69,0,0,1-.39-14.31,101.13,101.13,0,0,1,5.83-22.36,40.06,40.06,0,0,1,5.16-9.21,3.4,3.4,0,0,0,.76-2.35c-.07-1.21,0-2.43-.06-3.65a18.17,18.17,0,0,0-.38-2.11c-.55.46-.88.69-1.17,1-2.34,2.31-4.73,4.57-7,6.95-4,4.23-8,8.55-11.94,12.83a7.83,7.83,0,0,1-1.13,1.17,1.07,1.07,0,0,1-.94,0c-.15-.08-.17-.54-.12-.81s.26-.4.42-.58a188.38,188.38,0,0,1,15-15.95c2.35-2.19,4.51-4.61,6.73-6.94a1.65,1.65,0,0,0,.48-.93c.05-1.5,0-3,0-4.86-.62.47-.95.68-1.23.94-5.36,5.08-9.81,11-14.68,16.49-2.61,3-5.3,5.86-8,8.79-.17.17-.34.42-.55.46a1,1,0,0,1-.81-.16.83.83,0,0,1-.09-.78,6.94,6.94,0,0,1,.89-1.15c5.45-6.22,10.89-12.46,16.37-18.66,1.6-1.82,3.3-3.56,5-5.32.54-.57,1.16-1.06,1.56-1.42,0-.44.1-.58.06-.67l-3.7-8.73a2.16,2.16,0,0,0-2.1-1.47c-1.14,0-2.29,0-3.44,0-2.31,0-4.62.18-6.93.13a2.82,2.82,0,0,0-3.05,1.93c-3.21,7.29-6.46,14.56-9.85,21.77-2.2,4.68-4.68,9.22-7,13.83-1,2-1.94,3.92-2.91,5.89a3.18,3.18,0,0,1-.5.95,1,1,0,0,1-.9.25,1,1,0,0,1-.33-.88,21.89,21.89,0,0,1,1.16-2.68c2.08-4.06,4.29-8.05,6.24-12.17,3.78-8,7.41-16,11.1-24l2-4.48-19.6,1.05,3.5,5.5c.66,1,1.32,2,2,3,2.09,3,1.58,6-.14,8.89-.81,1.36-1.75,2.64-2.49,4-3.45,6.43-6.82,12.91-10.3,19.33-1.36,2.5-2.93,4.9-4.4,7.35-.21.35-.52.76-.49,1.11.19,2.45-1.21,3.68-3.26,4.46a2.74,2.74,0,0,0-.44.32,14,14,0,0,1,.89,1.67,1,1,0,0,1-.14.93c-.19.15-.64,0-1-.05a.66.66,0,0,1-.39-.36c-.69-1.87-1.89-3.59-1.76-5.72a11,11,0,0,0-.1-1.27c-.06-.78-.15-1.56-.16-2.35s.08-1.44.14-2.32l-8.53-.46c.56,2.3-1.05,4.58,0,6.94-.35,1.34-.66,2.69-1.07,4-.07.22-.56.3-.86.45-.15-.35-.53-.85-.42-1,.79-1.13.1-2.07-.25-3.08-1.5-4.25-3-8.5-4.46-12.75-2.66-7.57-5.55-15.05-8.81-22.39-1.24-2.78-2.38-5.6-3.58-8.39a9,9,0,0,0-.55-.94c-3,6.59-5.91,13-8.86,19.53,1,1.3,2,2.57,2.93,3.91a88.67,88.67,0,0,1,10.93,22c.86,2.53,1.63,5.09,2.43,7.64a4.51,4.51,0,0,1,.3,1.42,1.14,1.14,0,0,1-.58.77c-.14.07-.58-.17-.7-.37a5.91,5.91,0,0,1-.39-1.21,102,102,0,0,0-9.95-24.23c-1.25-2.15-2.66-4.22-4.07-6.27a11.46,11.46,0,0,0-4.86-4.16c-.69.49-.43.85,0,1.23a61.08,61.08,0,0,1,17.11,31.39,18.7,18.7,0,0,1,.43,2.33,1.25,1.25,0,0,1-.42,1c-.6.24-.85-.3-1-.78s-.27-1.06-.37-1.6a59.75,59.75,0,0,0-10.68-24.35c-1.83-2.55-4.33-4.4-6.69-6.75-.66,1.12-1.23,2.08-1.8,3.06.33.31.57.59.85.8,5.11,3.81,8.11,9.13,10.63,14.78A87,87,0,0,1,210.15,382c.18.67.74,1.62-.14,1.93-1.19.41-1.1-.89-1.27-1.53A98,98,0,0,0,203,367.21a40.13,40.13,0,0,0-6.34-9.54,30.07,30.07,0,0,0-3.41-2.95c-.48.38-.73.64-.2,1.07,6,4.77,9,11.51,12.15,18.18a92.49,92.49,0,0,1,3.13,8.74,2.93,2.93,0,0,1,.21,1.05.68.68,0,0,1-.38.53.94.94,0,0,1-.78-.2,4.33,4.33,0,0,1-.56-1.33c-1.9-7-5.23-13.35-9-19.47a24.6,24.6,0,0,0-6-6.53c-1.43,2.46-2.81,4.82-4.17,7.18l-7.16,12.51c-.06.1-.08.27-.17.32-.29.15-.6.27-.91.4-.13-.36-.47-.8-.36-1.06a25,25,0,0,1,1.5-2.91q6.85-11.85,13.73-23.68,5.85-10.11,11.72-20.21c.52-.9,1-2,2.4-1.15a17.28,17.28,0,0,1,.44-2.27,1.43,1.43,0,0,1,.77-.81c.17-.06.63.31.77.58,1,2,2,4,2.87,6.1,3.64,8.5,7.36,17,10.38,25.71,1.29,3.73,2.61,7.46,3.92,11.18C227.68,369,227.83,369.31,228.07,369.89Zm66.53,8L294,379.6l.14,0,.42-1.76.11-1.91h-.29Zm-45.35-65c-.34-1.07-.51-1.77-.78-2.41-.64-1.51-1-3.25-2.06-4.43a30.41,30.41,0,0,1-3.37-4.71,18.65,18.65,0,0,0-1.21-1.6c-.81-1.13-1.68-2.24-2.38-3.43-.49-.82-.9-1.47-2-1.63a2.22,2.22,0,0,1-1.84-2.22,11.11,11.11,0,0,1,.06-1.82c.14-1.64-.24-2-1.8-1.55a23.31,23.31,0,0,1-9.2.86,46.13,46.13,0,0,1-10.19-2.69,37.35,37.35,0,0,0-6.45-1.88c-4.91-.71-9.29.15-12.33,4.7-1.64,2.46-2.46,5.4-4.66,7.51a14.16,14.16,0,0,0-1.61,2.46c1.68.93,3.07,2.38,5.19,2.55a4.05,4.05,0,0,0-1-1.06,5.5,5.5,0,0,1-1.62-3.76,1.34,1.34,0,0,1,.57-1.11c.62-.2.82.41.86.89.13,2,1.39,3.13,2.84,4.23a58.17,58.17,0,0,0,9.92,5.77,114,114,0,0,1,14.27,8.08c1.75,1.19,3.58,2.29,5.43,3.34,1.41.8,2.91,1.44,4.47,2.2a6.27,6.27,0,0,1,4.08-3.64c.28-.09.69.24,1,.37-.14.3-.22.7-.45.88-.43.33-1,.5-1.44.79-1.49.93-1.65,1.42-1.07,3.09a2,2,0,0,1-.37,2.2,10.5,10.5,0,0,0-.8,1c-.54.71-.72,1.38,0,2.1.42.42.85.92.4,1.71l-1.68.67c-1.44,9.15-.93,18.44-2.23,27.65a60.7,60.7,0,0,0,13.64,2.69,10.18,10.18,0,0,0-.18-4.45,22.14,22.14,0,0,1-.13-7.08c.67-4.08,1.31-8.16,2.11-12.21.48-2.45.56-5.1,2.63-7a.78.78,0,0,0,.1-.15,18.86,18.86,0,0,0,2.84-12.9,6.63,6.63,0,0,0-1.89-4c-2.18-2.12-4.37-4.23-6.65-6.24-3.14-2.78-6.37-5.46-9.55-8.2-.46-.4-1.39-.82-.83-1.56s1.28,0,1.8.43C237,301.73,242.45,306,247.19,311,247.73,311.53,248.34,312,249.25,312.86Zm-.52-55.53c.25.69.39,1.12.57,1.54.64,1.44,1.3,2.88,1.95,4.32A11.17,11.17,0,0,1,250,275.07c-.15.2-.28.4-.42.6-1,1.37-1,1.41-.06,2.89a12.44,12.44,0,0,1,1.39,2.55,3.39,3.39,0,0,0,3,2.46c1.25.21,2.75.48,3.34,1.65,1.11,2.23,3.69,2.5,5.12,4.24.12.14.46.11.7.14,1.08.14,2.17.28,3.25.39a31.27,31.27,0,0,1,14.38,4.82c1.32.87,2.7,1.64,4.09,2.4a3,3,0,0,0,3.57-.16,13.32,13.32,0,0,1-.7-2.26c-.24-1.88,0-3,1.9-3.76a19.34,19.34,0,0,1,10-1.06,1.74,1.74,0,0,1,1.43,1.24c.63,1.74,1.06,3.47-.8,4.88,4.05-1.18,5.95-4.31,7.7-7.67-.92-.41-2-.55-2.25-1.09a3.73,3.73,0,0,0-2.91-1.9,4.87,4.87,0,0,1-3.41-2.49,4.6,4.6,0,0,0-3.07-2.45c-.71,1.41-1.38,2.77-2.07,4.12-.29.55-.46,1.49-1.35,1.07s-.25-1.16,0-1.72c.73-1.59,1.52-3.15,2.32-4.8-2.43-1.28-4.75-2.61-7.15-3.75-1.52-.73-3.17-1.19-4.76-1.77-1.84-.67-4-.17-5.65-1.56,0,0-.12,0-.18,0-2.2-.17-4-1.29-5.88-2.33-2.44-1.35-4.9-2.67-7.37-4-2.74-1.45-5.51-2.83-8.24-4.31C253.58,260.17,251.31,258.81,248.73,257.33ZM215.3,269.57c1.09-1.07,1.89-2.28,3-2.84a30,30,0,0,0,4.44-2.82,15.87,15.87,0,0,1,2.89-1.51c.27-.12.66,0,1,.07a6.6,6.6,0,0,1-.21,1.11c-.08.19-.37.3-.58.42-2.29,1.35-4.59,2.67-6.87,4a7,7,0,0,0-1.1.94,1.77,1.77,0,0,0-.31,2.31c.65,1.37,1.17,2.8,1.75,4.19.2.47.42.94.57,1.27,2.55-1.07,5-1.84,7.31-2.93s4.75-2.06,7.38-3.19a24.84,24.84,0,0,1-2.87-2.5c-2.51-2.95-5-6-7.39-9q-3.08-3.84-6-7.78c-1.66-2.23-3.29-4.49-4.83-6.81a13.1,13.1,0,0,1-1.18-2.83c-.42-1.13-.79-2.28-1.18-3.41s-.79-2-1-3c-.34-1.35-.39-2.79-.84-4.09a1.7,1.7,0,0,1,.41-2,15.13,15.13,0,0,0-4.49-5.37,3.28,3.28,0,0,0-1.93-.86,10.74,10.74,0,0,0-5.18,1.53c-1.65,1-2.36,2.88-3.3,4.5a.67.67,0,0,0-.06.53c.7,1.22.09,2.39-.13,3.55a14.67,14.67,0,0,0,.82,8.41,69.84,69.84,0,0,0,4.13,7.9c1.19,2.11,2.47,4.19,3.84,6.19,1.68,2.45,3.22,5.09,5.31,7.14C210.93,265,213.5,266.92,215.3,269.57Zm74.5,44.81a6.88,6.88,0,0,0-.5-1.43,2.83,2.83,0,0,1-.25-3.08,1.7,1.7,0,0,0-.09-1.32c-.81-1.76-1.68-3.5-2.58-5.22a2.35,2.35,0,0,0-1-.95c-3.06-1.49-6.23-2.76-9.19-4.41-5.48-3-11.36-3.61-17.44-3.31a5.33,5.33,0,0,1-.74,1.62c-.76.81-.45,1.52-.12,2.34.58,1.46,1.09,2.95,1.61,4.44a4,4,0,0,1-.52,3.66c-1.75,2.67-3.28,5.55-6.17,7.28-.07,0-.07.21-.11.38l1.33,1.86,25.71-2.07c.26-.6.58-1.25.84-1.93.59-1.53,1.18-3.06,1.72-4.61.17-.51.38-1,.95-.77.29.14.45.77.47,1.19a3.32,3.32,0,0,1-.35,1.21c-.47,1.25-1,2.49-1.44,3.74-.16.42-.26.86-.42,1.38Zm-39.24,7.76a21.1,21.1,0,0,1-3.3,8.46c-1.53,2.18-2,4.65-2.52,7.12-.65,3.09-1.12,6.21-1.68,9.32a26.25,26.25,0,0,0-.14,9.6,24.79,24.79,0,0,1,.26,4.72,5.32,5.32,0,0,1-1.74,4.27,3.51,3.51,0,0,0-1.36,3.08c-.1,1.88.54,2.49,2.57,2.48.3-.52.58-1,.9-1.54,1.32-2,2.83-4,4-6.1,4.53-8.47,8.69-17.13,13.8-25.28,1.52-2.43,1.77-4.93,0-7.48s-3.52-5.39-5.25-8.1a1.63,1.63,0,0,0-1.8-.9C253.13,322,252,322,250.56,322.14Zm-15.25-131c-.09-1.5-.1-2.77-.27-4a8.17,8.17,0,0,0-1.77-4.53,20.27,20.27,0,0,0-11.78-6.8,22.27,22.27,0,0,0-15.59,3.09A13,13,0,0,0,199.34,189c-.28,3,.53,5.78,1.28,8.59.19.73.52,1.42.78,2.13a19,19,0,0,0,.7-3.07,1.57,1.57,0,0,1,1.51-1.35,1.19,1.19,0,0,1,1.41,1.08,4.49,4.49,0,0,0,.52.82c.52-2.69,2.4-3.26,4.49-3.52,1.93-.24,3.85-.53,5.78-.73,5.68-.57,11.36-1.11,17-1.66C233.57,191.25,234.28,191.2,235.31,191.12Zm-56.75,113c1.94-2.18,2.76-5.33,5.37-6.86a8.74,8.74,0,0,0,1.65,1.42c.74.35,3.42-.7,3.9-1.43s1-1.63,1.58-2.52c-.1-.29-.2-.64-.34-1a7.38,7.38,0,0,1,.37-6.67,60.9,60.9,0,0,1,5.21-7.9c3.18-4.06,6.61-7.94,9.92-11.91.72-.87,1.38-1.78,2-2.54-5.53-6.51-9.48-13.75-13.8-20.81a7.35,7.35,0,0,0,.12,1.88,33.16,33.16,0,0,1,.66,11.41,12.07,12.07,0,0,0,.33,3.95,6.1,6.1,0,0,1-.18,3.56c-.66,1.68-1.9,3.12-2,5a1.28,1.28,0,0,1-.59.88c-1.28.71-1.7,2-2.31,3.19-.73,1.4-1.4,2.84-2.22,4.19a86.3,86.3,0,0,0-6.61,14.19,19.65,19.65,0,0,0-.87,4.43c-.24,1.85-.65,3.58-2.23,4.8a3.13,3.13,0,0,0-.83.95C177.24,303.15,177.49,303.58,178.56,304.13ZM277.63,258c-3.29-2.27-6.26-4.48-9.39-6.44-3.29-2.06-6.72-3.88-10.11-5.78a3,3,0,0,1-1.82-2.09c-.07-.46-.68-1.24-.91-1.19-1.51.31-1.87-.66-2.29-1.72a3.18,3.18,0,0,0-.85-1.17c-2.15-1.87-4.31-3.74-6.51-5.55a3.47,3.47,0,0,0-2.13-1.06c.08.42.12.71.18,1,.61,2.59,1.28,5.17,1.83,7.78.42,2,.73,4.05,1,6.09a11.11,11.11,0,0,1,0,2.88,5,5,0,0,0,2.24,4.76c5,2.81,9.93,5.61,14.92,8.36,1.84,1,3.76,1.85,5.59,2.75C270.42,262.18,274.07,260.4,277.63,258Zm-56.11,20-1.25.36c-1.4.37-1.49.32-1.92-1a5.13,5.13,0,0,0-.53-1.35c-1.67-2.46-3.32-4.94-5.11-7.31a30.57,30.57,0,0,0-3-3.1l-3.74,4.34c-4.67,5.43-9.48,10.75-13.06,17a9.33,9.33,0,0,0-1.14,5.05c0,.27.26.55.5,1a20.58,20.58,0,0,1,1.12-1.93c1.2-1.6,2.39-3.21,3.68-4.73a5.43,5.43,0,0,1,1.91-1.36,14.75,14.75,0,0,1,9.95-1c3.62,1,7.18,2.18,10.76,3.31a23.88,23.88,0,0,0,13.81.34c1.63-.45,2.9-1.11,3.34-2.85a2.42,2.42,0,0,0,0-.43l-7.93-4.9C225.62,281.34,225.26,281.26,221.52,278Zm9.82-85.31-18.05,2v3.68c0,2.68-.08,5.35,0,8,.1,4,1.6,5.91,5.36,7a25.79,25.79,0,0,0,3,.75c2,.35,3.94.69,5.93.92a3,3,0,0,0,3-1.31,8.89,8.89,0,0,0,1.59-6c-.23-1.68-.81-3.31-.37-5,.07-.26-.12-.58-.16-.88a14.79,14.79,0,0,1-.22-2.29A50.14,50.14,0,0,0,231.34,192.7Zm-2.47,28.51a4,4,0,0,0,.83,3.68,18.71,18.71,0,0,1,3.38,6c.48,1.38,1,2.76,1.53,4.1a170.64,170.64,0,0,1,6.66,18.89c.92,3.07,1.12,6.08-.39,9,0,.1,0,.24,0-.06a28.68,28.68,0,0,0,7.6,11.68c1.88-2.66,3.14-5.41,2.06-8.69-.53-1.61-1.24-3.16-1.87-4.74-1.08-2.7-2.33-5.35-3.22-8.11-1.24-3.88-2.18-7.84-3.31-11.76a32,32,0,0,0-2.92-7.64,7.84,7.84,0,0,1-1-2.13c-.31-1.35-.85-2.38-2.33-2.69-.68-.15-1.17-.66-.95-1.31.3-.91-.22-1.35-.7-1.88a20.67,20.67,0,0,0-1.46-1.63C231.66,222.92,230.79,221.5,228.87,221.21Zm6.5,50.73-8.88,3.75c.71.6,1.13,1,1.62,1.37,2.07,1.38,4.17,2.73,6.25,4.09,1.93,1.27,3.87,2.52,5.79,3.8a3.37,3.37,0,0,1,1.45,2.2,5.7,5.7,0,0,0,1.16,2.44,8.63,8.63,0,0,1,2.24,4.88,1.82,1.82,0,0,0,1.58,1.69c0-1.35,0-2.54,0-3.73,0-.32.41-.63.63-.94.26.28.72.53.75.83.14,1.14.13,2.29.19,3.44a1.7,1.7,0,0,0,.18.39l1.23-.07c0-1.26,0-2.41,0-3.55,0-.62-.35-1.53.66-1.59s.83.9.86,1.51c.06,1.31,0,2.63,0,4.15l2.44-.47c0-1.51,0-2.91,0-4.3,0-.27.38-.53.58-.79.29.24.74.44.82.74a6.73,6.73,0,0,1,0,1.62c0,.87,0,1.74,0,2.62,1.29,0,1.93-.41,2-1.44.1-1.87.19-3.75.14-5.63-.06-2.13-1-3.2-3-3.78-.35-.1-.69-.22-1-.29a14.64,14.64,0,0,1-6.7-3.13c-1.69-1.38-3.28-2.89-4.91-4.34Zm-13.6-44.45c-.26,1-.53,1.92-.75,2.85a3.89,3.89,0,0,0,.8,3.34c2.44,3.48,4.7,7.08,7,10.67,3.39,5.32,6.74,10.68,10.13,16a7.82,7.82,0,0,0,.85,1,6.49,6.49,0,0,0,.6-4.39,61.15,61.15,0,0,0-1.54-6c-2.43-6.8-5-13.56-7.51-20.32a19.28,19.28,0,0,0-1.22-2.45,5.83,5.83,0,0,0-.81-.91c-.66,2.19-.88,2.35-2.87,1.77C224.89,228.57,223.36,228,221.77,227.49Zm8.77,96.84a117,117,0,0,0-15.59-.39c.05.14,11.72,29.89,11.89,30.31.15-2.5.25-4.59.4-6.68.37-5.28.71-10.56,1.17-15.83a19.42,19.42,0,0,1,1.12-3.68C229,327,229.53,325.73,230.54,324.33Zm67.87,25.53a7.74,7.74,0,0,0-.68.9c-1.35,2.58-2.8,5.12-4,7.77A68.38,68.38,0,0,0,290,371.07a68.66,68.66,0,0,0-2.21,15.3A32.81,32.81,0,0,0,290,397.93a3.05,3.05,0,0,0,1.77,2.11c.3-1.63,1.16-2.92.9-4.63a65.59,65.59,0,0,1,.18-18.35,55,55,0,0,1,3.66-13.5c.79-2,1.89-3.87,2.25-5.91s0-4.24-.07-6.37A11.53,11.53,0,0,0,298.41,349.86ZM203.21,200a6.45,6.45,0,0,1,1.16,1.66c.94,3.52,3.24,6.09,5.8,8.47a5.43,5.43,0,0,1,2,4.29,4.33,4.33,0,0,0,.78,2.37,27,27,0,0,0,6.8,7.55,19.37,19.37,0,0,0,7.85,3.41c-.19-3.84-.36-7.44-.54-11-2.43-.48-4.64-.84-6.83-1.35-2.6-.61-5.25-1.22-7.08-3.43a44.8,44.8,0,0,1-3.28-4.14c-2.15-3.32-4.17-6.72-6.39-10.33ZM219.72,241c-.43,2.7-.82,5.08-1.15,7.46a2,2,0,0,0,.28,1.32c1.92,2.49,3.9,4.94,5.84,7.42s3.89,5,5.81,7.46A26,26,0,0,0,236,269.7l1.06-3.17C231,258.31,226.69,248.93,219.72,241Zm20.9,27.42c.85-.32.75-.85.47-1.37-.7-1.28-1.36-2.58-2.15-3.8-1.81-2.81-3.75-5.54-5.52-8.38-3.22-5.15-6.3-10.39-9.53-15.54-1.71-2.72-3.38-5.52-5.9-7.6-2.91-2.4-5.89-4.7-8.85-7a4.57,4.57,0,0,0-.72-.4,24.43,24.43,0,0,0,3.63,5.17,139,139,0,0,1,12.61,15.33c1.3,1.76,2.48,3.61,3.68,5.44C232.32,256.28,235.68,262.8,240.62,268.37Zm57.32,60c.17-.16.25-.2.25-.24,0-5.17.05-10.33-2.68-15-.92-1.57-1.05-3.67-3.58-4.32-.16.12-.88.36-1,.79-.27.83-1.09,1.61-.31,2.7a15.46,15.46,0,0,1,1.28,2.93c-.38.23-.58.46-.78.47-3.45.16-6.91.29-10.49.43l-1.14,2.56c2.71,0,5.24,0,7.77,0,1.09,0,2.19-.2,3.27-.14,1.83.11,3.41.65,4.2,2.6C295.7,323.51,296.83,325.85,297.94,328.34ZM276,269.94a13.57,13.57,0,0,0,2.49-.84q3.32-1.89,6.52-4c.9-.57,1-1.3.2-2.1a28.43,28.43,0,0,0-2.79-2.59c-2.94-2.32-2.34-1.83-5.22-.36a17.4,17.4,0,0,0-5.1,4c-1.22,1.36-1.24,2.89.19,4A20.91,20.91,0,0,0,276,269.94Zm-52.86,49.5.16-.28c-3.64-2.28-7.22-4.65-10.94-6.8-2.95-1.69-6.08-3.05-9.08-4.66a7.81,7.81,0,0,0-4.41-1.34l-.83,3c.36.52.68,1.2,1.51,1,1.94-.55,3.71.16,5.64.57,1,2.78,2.08,5.55,3.17,8.44l1.73-.72c-.69-1.78-1.34-3.42-2-5.06a4.56,4.56,0,0,1-.37-1.21.84.84,0,0,1,.42-.69.85.85,0,0,1,.76.25,6.08,6.08,0,0,1,.65,1.3c.65,1.57,1.28,3.15,1.92,4.72a1.68,1.68,0,0,0,1.63,1.21C216.5,319.23,219.83,319.34,223.17,319.44Zm74.89-45.56c-4.37-2-7.67-5.25-11.3-7.95l-7.86,4.88c3.15,1,6.05,1.68,8.78,2.81s5.38,2.73,8.23,4.21C296.66,276.44,297.32,275.25,298.06,273.88ZM311.93,282l1.89-1.36a1.7,1.7,0,0,0-1.26-2.19c-1.5-.45-3-1-4.52-1.29-2.6-.57-5.28-.85-7.51-2.52a3.75,3.75,0,0,0-.89-.35,32.8,32.8,0,0,0-2.52,4.78,8.39,8.39,0,0,1,3.8,3.49,3.57,3.57,0,0,0,1.54,1.16c1.14.48,2.33.82,3.66,1.27-.17-.35-.3-.6-.41-.86-.87-1.94-.16-3.14,2-3A28.47,28.47,0,0,1,311.93,282ZM279,315.83c-9.69.45-19,1.47-28.48,2.28l.15,2.31c.67,0,1.14.08,1.62.06,3.94-.19,7.89-.38,11.83-.6s8.13-.48,12.18-.78a2.31,2.31,0,0,0,1.53-.72A13.44,13.44,0,0,0,279,315.83Zm-38.4-20.4c2.15,3.05,4,5.91,6.08,8.53a14.76,14.76,0,0,1,2.51,4.15c.32.85.62,1.71.93,2.57a4.28,4.28,0,0,0,1.36,2.22c2.42-1.4,2.71-2.09,2-4.61a12.15,12.15,0,0,0-.42-1.2q-1.67-4.12-3.36-8.23c-.44-1.08-.69-1.27-1.95-1a2.76,2.76,0,0,1-3.09-.94C243.72,295.57,242.38,295.48,240.61,295.43ZM258.83,293c1.68.09,3.31.3,4.92.25a23.12,23.12,0,0,1,10.91,2.44c2.79,1.34,5.53,2.79,8.34,4.08a28.7,28.7,0,0,0,4.78,1.73,9.08,9.08,0,0,0,5.55-.2c.58-.21,1.13-.49.8-1.4a5.62,5.62,0,0,0-1.23,0c-3.39.72-6.5-.19-9.48-1.69-1.46-.73-2.83-1.65-4.23-2.5A23.89,23.89,0,0,0,271,292.3c-2.8-.51-5.63-.88-8.46-1.22a32.28,32.28,0,0,0-3.69,0Zm-42-46.14.5-.14c.25-2.22.49-4.44.74-6.66a3.21,3.21,0,0,0-.9-2.66c-1.93-2.1-3.83-4.23-5.75-6.34a1.83,1.83,0,0,0-.5-.27c.19,1.51.35,2.89.55,4.26a3.83,3.83,0,0,0,.45,1.74c1.14,1.46,1.34,3.22,1.85,4.89A12.57,12.57,0,0,0,216.86,246.81Zm2.16-20.9c-1.49-1.45-3-2.76-4.32-4.25s-2.48-3.23-3.72-4.88c-.47.22-.86.39-1.23.58s-.51.29-.73.42c.11,4.33,3.1,8.2,7.77,10.56Zm32,72.17,4.46,11.12c.74-1.06,1.41-2,2-2.92A3.44,3.44,0,0,0,258,303c-.69-1.79-1.35-3.59-2.09-5.53Zm-39.31-90.43c0-4.41.15-8.48,0-12.74-1,.22-1.65.36-2.34.54a3.41,3.41,0,0,0-2.2,5.16c1.19,2.1,2.53,4.13,3.82,6.19A10.15,10.15,0,0,0,211.72,207.65ZM241.5,362.48l-14.14-2.8.28,2.93c1.61.85,3.15,1.8,5.06,1.87q3.27.11,6.54.32a1.41,1.41,0,0,0,1.61-.87C241.06,363.44,241.28,363,241.5,362.48Zm57.35-64.36.38,2.08c4.95-.84,11.22-7.49,12.89-13.6L310.07,285a16,16,0,0,1-3.47,8.37A12.12,12.12,0,0,1,298.85,298.12Zm6,57c-3.63,3.34-5.37,9.8-3.87,14.07,1.45-3.67,2.87-7.28,5.41-10.36Zm0-20.47c-1.65-3.62-3.24-7.13-4.83-10.63l-.36.12c.09,3.77.19,7.55.28,11.23l1.66,1.06ZM195,304.82a12.45,12.45,0,0,1,.38,1.58,4.73,4.73,0,0,1-1.08,4.25c-.38.38-.87.79-1.42.28s-.08-.83.23-1.24a4.37,4.37,0,0,0-2-6.62,7.53,7.53,0,0,0-.59,5.27c.77,3.27,3.72,4.23,6.47,2-.83-.86-.28-1.73,0-2.64C197.57,306,197,305.09,195,304.82Zm104.16-13.31a24.88,24.88,0,0,0-2.8-.35c-1.59,0-3.18.06-4.21,1.58-.41.61-1,1.24-.51,2s1.09,1.54,2.14,1.45a15.32,15.32,0,0,0,3.39-.49C299.24,295,299.74,293.9,299.12,291.51Zm-62-64.21c.63.66,1.67,1.27,1.94,2.12.59,1.88,1.64,3.5,2.36,5.29.87,2.17,1.61,4.4,2.4,6.6a13,13,0,0,0-.45-3.36c-.66-2.7-1.33-5.39-2-8.09a3.17,3.17,0,0,0-.55-1.5c-1.66-1.57-3.19-3.32-5.28-4.36a1,1,0,0,0-.45,0Zm-47.1,84c-1.74-3.14-1.52-6.19-.42-9.27a3.8,3.8,0,0,0-3.73,3.77C185.64,308.93,187,310.9,190.05,311.32Zm52.08-41.76a1.16,1.16,0,0,0-.61,1.81c1,2.1,1.92,4.2,2.92,6.29a4.72,4.72,0,0,0,.75.9c2.51-.66,2.35-1.65,1.4-3.69a.58.58,0,0,0-.11-.15Zm1.14,24.59c-.42-2.77-1.77-4.22-4-4.5-.68-.08-1.5-.21-1.77.52a7.16,7.16,0,0,0-.25,2.46c0,.19.36.52.61.57C239.65,293.54,241.42,293.83,243.27,294.15Zm62.43,49.9c3.29-4.25,8-6.57,12.42-9.4a33.18,33.18,0,0,0-11.93,7.09c-.28.24-.49.54-.75.8C304.92,343.06,305.11,343.5,305.7,344.05Zm-4.78,2.51c-.39.66-.79,1-.79,1.41,0,2.19.07,4.38.12,6.57l.33,0,2.16-4.05Zm11.68-63c2.06,2.46.89,4.81,0,7.25a2.56,2.56,0,0,0,1.42-1c1.06-2.4.85-4.88.47-7.57-.47.29-.73.44-1,.61S313,283.16,312.6,283.53ZM293.85,381.6c-.39,6.55-.38,12.67,1.14,18.77C294.62,394.2,294.24,388.1,293.85,381.6ZM241.11,274.46c-1.06-2-1.18-4.47-2.76-6.47C237.15,270.58,238.08,272.69,241.11,274.46Zm61.94,62.84c.53,1.46,1,2.64,1.38,3.77l1.75-1.38L305,336.38ZM202.74,321.14A3.94,3.94,0,0,0,205,322.9c.64.15,1.21.11,1.52-.57a1.37,1.37,0,0,0-.73-1.77A2.53,2.53,0,0,0,202.74,321.14Zm88.91-13.91c-.46-1.08-.83-2-1.23-2.82-.58-1.25-.63-1.26-2.4-1l2.23,4.32Zm3.32-8.82c1.33,1.29.87,2.52.23,3.8,2.13-.57,2.71-1.84,1.84-3.8ZM227.4,278.5l-2.53-2.08-1.66.8C224.87,279.27,225.32,279.43,227.4,278.5Zm12.78,9.58c-.07-.4,0-.71-.17-.85-.46-.49-.92-1.16-1.5-1.33s-.88.66-1.13,1.18-.3.76-.47,1.17Zm-46.69,58.05.41-.86a14.29,14.29,0,0,0-5.28-2.19Zm96.35-53.46c-.5,0-.83.41-.78,1A3.94,3.94,0,0,0,290.6,297Zm-43.48-12.74,2.84,1.91.28-.26c-.48-.86-1-1.72-1.5-2.65Zm-39-60.6-2.18,1.2,3.22,1.47Zm10.3,10.17,1.74,1.17c.26-1.16.46-2.07.67-3l-.32-.16Zm32.76,87.08,1.89-.21-2.47-2.75C250.06,314.82,250.22,315.63,250.41,316.58ZM302,355.29c2-1.71,2-1.71,1.31-2.71C302.88,353.53,302.45,354.41,302,355.29Zm-61.43,17.3c.52,1.53.78,1.57,2,.33Zm54.87-1.08.3.07.87-3-.36-.09Zm-4.42-72.88,3.24-.47C292.32,297.82,292.32,297.82,291.05,298.63ZM199,345l-.27-.19-.53,1.1.26.12Z"/><path d="M314.92,303.21c1.51.45,2.91.86,4.29,1.3A295.18,295.18,0,0,1,364,322.88c3.35,1.71,6.75,3.35,10.11,5.05a6.85,6.85,0,0,1,1.66,1.1c.23.22.2.72.29,1.09-.44.07-.94.3-1.29.15-.54-.22-.92-.79-1.45-1-12.73-6.32-25.36-12.87-38.72-17.82-6-2.22-12.06-4.13-18.1-6.17-.57-.19-1.2-.21-1.75-.45-.32-.14-.51-.56-.76-.85Z"/><path d="M318.45,291.4l-.74-.67c.26-.27.48-.73.78-.79,2.68-.51,5.37-1,8.08-1.4,9.69-1.36,19.4-2.58,29.08-4,6-.87,11.86-2,17.79-3,.83-.15,1.63-.5,2.47-.61.39-.05,1.07.11,1.21.39.36.69-.29,1-.82,1.09-1.29.32-2.59.65-3.91.86-10.32,1.65-20.64,3.32-31,4.88-6.25.94-12.53,1.68-18.79,2.53C321.3,290.85,320,291.13,318.45,291.4Z"/><path d="M164.89,314.66c4.32,1,8.72.38,13.07.62,3.39.19,6.76.72,10.13,1.11,1.69.19,3.38.4,5.06.61a4.82,4.82,0,0,1,1.43.24c.31.13.5.54.74.83-.34.19-.69.57-1,.54-2.17-.2-4.34-.49-6.5-.75-4.82-.58-9.62-1.3-14.51-1.06a58.86,58.86,0,0,1-7.25-.49c-.49,0-1-.1-1.45-.1s-1,.1-1.11-.59.43-1,1.22-1Z"/><path d="M182.6,334.56c-.08-.16-.28-.37-.29-.59a1.42,1.42,0,0,1,.24-1,6.57,6.57,0,0,1,1.45-.73c5-2.2,10.05-4.27,14.66-7.25.2-.14.43-.34.63-.33a6.47,6.47,0,0,1,1.13.29c-.15.34-.21.84-.48,1a45,45,0,0,1-4.55,2.66c-3.93,1.89-7.92,3.68-11.88,5.5Z"/><path d="M188.71,323.13c.16-.15.38-.49.67-.59,1.6-.54,3.21-1.07,4.85-1.49a1.33,1.33,0,0,1,1.18.45c.28.54-.19.8-.72,1-1.62.48-3.22,1-4.84,1.5C189.12,324.17,188.64,323.84,188.71,323.13Z"/><path d="M214.36,177.48c.21.17.69.39.82.74.22.57-.29.77-.76,1-1.09.51-2.14,1.07-3.18,1.66-.47.26-.9.42-1.3,0s-.2-.93.22-1.23C211.38,178.76,212.49,177.68,214.36,177.48Z"/><path d="M217.14,184.4a6,6,0,0,1,1.18,0c.2.05.48.27.49.43s-.11.74-.25.77c-1.35.25-2.32,1.61-3.83,1.35-.33-.05-.88-.19-.91-.35a1.59,1.59,0,0,1,.3-1.09A3.51,3.51,0,0,1,217.14,184.4Z"/><path d="M230.6,185.08c-.42-.07-1.26.42-1.46-.58-.13-.67.55-1.1,1.72-1.15a5.93,5.93,0,0,1,.73,0c.62.05,1.36.13,1.29.9,0,.31-.76.61-1.21.81A3.28,3.28,0,0,1,230.6,185.08Z"/></svg>