<svg xmlns="http://www.w3.org/2000/svg" width="500" height="350" viewBox="0 0 500 350"><path d="M356.79,154.55a10.56,10.56,0,0,1-5.73,5.17,5.7,5.7,0,0,1-1,.33c-1.88.32-2.48-.29-2.11-2.18a9.38,9.38,0,0,1,.5-1.74,19.28,19.28,0,0,1,1-1.78c-.68,0-1.18-.12-1.68-.1-4.48.2-9,.49-13.44.63a146.6,146.6,0,0,1-16.89-.59,135.39,135.39,0,0,0-20.34-.22c-3.69.25-7.39.31-11.08.47-4.36.19-8.72.36-13.08.58-7.71.4-15.39.29-22.93-1.63-2.58-.66-5.14-1.42-7.64-2.3-3.72-1.31-6-4.55-6.58-8.65-.19-1.26-.24-2.53-.41-3.79-.93-6.9-1.86-13.81-1.44-20.81.13-2.11.39-4.21.58-6.32.27-3.08.45-6.16.81-9.23a46.69,46.69,0,0,1,3.48-12.74A8.83,8.83,0,0,1,243.83,85c3.33-1.38,6.89-1.81,10.41-2.42A122,122,0,0,1,273.42,81c2.67,0,5.34-.18,8-.42,6.5-.57,13,.06,19.44.28,4.66.16,9.33.12,14,.09q14-.1,28-.31c2,0,4.07-.23,6.14-.35a30.2,30.2,0,0,1-1.31-3.09,5,5,0,0,1-.09-2.12c.2-1.37.74-1.77,2-1.24a11.18,11.18,0,0,1,4.75,3.22,15.49,15.49,0,0,1,1.56,2.24,1.87,1.87,0,0,0,2.07,1.06c2.53-.2,5.07-.5,7.61-.51,7.39,0,14.79,0,22.17.19a34.48,34.48,0,0,1,14,3.67A12.45,12.45,0,0,1,406,87c.5.6,1.1,1.12,1.65,1.69a13.59,13.59,0,0,1,3,4.49,30.8,30.8,0,0,0,1.87,3.72,18.58,18.58,0,0,1,2.55,9c.13,5.26.39,10.53.45,15.8A30.18,30.18,0,0,1,415,128a64.7,64.7,0,0,1-2.39,9.12,31.15,31.15,0,0,1-7.06,11.33,13.55,13.55,0,0,1-5.5,3.36,66.38,66.38,0,0,1-21.66,3.07c-6.49-.05-13-.19-19.46-.29C358.22,154.54,357.5,154.55,356.79,154.55ZM243.23,95.62l-1.35,1.23c-1.27,1.12-2.47,2.32-3.83,3.32a2.73,2.73,0,0,0-1.31,2.2c-.21,3-.46,5.91-.72,8.86-.21,2.41-.53,4.81-.67,7.22a80.08,80.08,0,0,0,.59,13.22c.19,1.81.47,3.24,2.15,4.2a8.29,8.29,0,0,1,1.48,1.58c.3.3.65.56,1.26,1.08a27.59,27.59,0,0,1-1.34-2.64A31,31,0,0,1,237.41,124c.14-4.23.4-8.46.91-12.66A39.2,39.2,0,0,1,240.91,101c.69-1.66,1.43-3.3,2.08-5l1.11-1.44c3.88-3.51,8.61-5,13.66-5.7,2.88-.37,5.78-.69,8.68-.8,2.67-.11,5.28-.25,7.69-1.57a5.84,5.84,0,0,1,1.21-.35,60.78,60.78,0,0,1,14-1.92c6.06-.19,12.12-.35,18.18-.42s12.35-.07,18.53,0c5.46,0,10.91.08,16.36.11,3.07,0,6.15,0,9.23,0-.78-2.08-.86-2.15-2.76-2.07-2.42.1-4.84.28-7.26.32q-10.81.15-21.64.23c-6.06.05-12.13.12-18.19.09-2.66,0-5.32-.33-8-.41-3.27-.1-6.55-.2-9.81-.12-3.76.09-7.5.37-11.25.58-4.24.24-8.47.41-12.69.78-2.83.25-5.64.77-8.45,1.23-1.4.23-2.79.59-4,.86-.3,1.35-.46,2.43-.8,3.45A24.36,24.36,0,0,1,245.46,92c-.42.86-1,1.67-1.44,2.5C243.68,95,243.33,95.49,243.23,95.62Zm62.38,47.77v.18c2.06,0,4.12,0,6.17,0,5.46-.08,10.91-.12,16.36-.33a19.8,19.8,0,0,0,5.15-1c1.77-.58,3.6-1.34,3.35-3.81a1.26,1.26,0,0,1,.14-.52,47.67,47.67,0,0,0,1.92-14.18c.06-5.57-.18-11.15-.39-16.72a55.68,55.68,0,0,0-2.2-12.86,3,3,0,0,0-2.54-2.51,61,61,0,0,0-11.77-.71c-4.78.29-9.56.47-14.34.68-2.18.09-4.36.14-6.55.18-5.15.1-10.3.23-15.45.25-3,0-5.94-.3-8.91-.26-2.72,0-5.43.42-8.16.53a18,18,0,0,0-9.17,3.06,10.92,10.92,0,0,0-4.56,5.92,32.4,32.4,0,0,0-1.76,10c-.07,6.66,0,13.33.07,20a18.89,18.89,0,0,0,.55,4,6.81,6.81,0,0,0,1.13,2.44,12.56,12.56,0,0,0,5.78,4.22A31.62,31.62,0,0,0,272,144c5.09-.08,10.17-.5,15.25-.59C293.37,143.31,299.49,143.39,305.61,143.39Zm88.18,8.2c-1.92.14-3.85.27-5.77.44-1.54.14-1.9-.28-1.45-1.73a32.55,32.55,0,0,1,1-3.27,2.33,2.33,0,0,1,1.26-1.13,21,21,0,0,1,3.36-.77c5.54-.93,10.44-3.06,14.21-7.38a2.91,2.91,0,0,1,.78-.75,1.35,1.35,0,0,1,1,0c.16.07.28.53.23.77a5,5,0,0,1-1.14,2.75c-1.22,1.25-2.22,2.73-3.44,4-1.79,1.88-3.69,3.65-5.56,5.46-.31.3-.68.54-1.31,1a12.76,12.76,0,0,0,7.55-3.59,31,31,0,0,0,6.74-10.9,75.41,75.41,0,0,0,2.34-9,20,20,0,0,0,.54-4.68c-.07-4.84-.33-9.68-.43-14.53a22.06,22.06,0,0,0-1.32-8.37c-.14-.33-.18-.83-.43-1-.8-.44-.85-1.25-1.19-1.93-1.07-2.1-1.63-4.46-3.22-6.28a27.37,27.37,0,0,0-2.63-2.75,15.94,15.94,0,0,0-3.73-2.82c-2.64-1.17-5.43-2-8.18-2.94a3.22,3.22,0,0,0-1,0c2.13,1.12,4.27,2.12,6.27,3.34A22.82,22.82,0,0,1,405.35,93c.32.5.55,1.07,0,1.46a1.54,1.54,0,0,1-1.31.13,20.85,20.85,0,0,1-2.55-1.37c-2.21-1.27-4.35-2.65-6.62-3.78a20.83,20.83,0,0,0-5.58-2.09,2.85,2.85,0,0,1-2.22-1.46c-.57-.93-1.15-1.84-1.72-2.76-.34-.57-.66-1.14-1.08-1.86-9-.14-18.13-.35-27.34.74l-.24,2c2.95.63,5.74,1,8.37,1.82,5.14,1.68,9.68,4.26,11.73,9.73a22.39,22.39,0,0,1,1.12,3.45c.8,4.22,1.69,8.44,2.19,12.7a52.8,52.8,0,0,1,.14,9.07,55.35,55.35,0,0,1-2.48,12.26A23,23,0,0,1,368.9,146c-1,.74-2.18,1.31-3.21,2.05a17.18,17.18,0,0,1-6.29,2.71c-1.63.37-1.62.39-1.7,2.31.66,0,1.31,0,2,0,3.52,0,7,.09,10.55.09,5.21,0,10.42,0,15.63-.12A21.8,21.8,0,0,0,393.79,151.59ZM335.66,90.33a15.43,15.43,0,0,1,1.74,3,62.89,62.89,0,0,1,1.65,7.06,81.73,81.73,0,0,1,1.08,14.49c0,2.12.12,4.24,0,6.36-.13,3.51-.25,7-.62,10.51-.31,2.87-1,5.71-1.51,8.55a3.52,3.52,0,0,1-.87,1.34,15.78,15.78,0,0,1-1.16,1.11c2.64.41,5.09.77,7.53,1.18,5.79,1,11.59,1.89,17.35,3a7.3,7.3,0,0,0,5.59-1.07,22.43,22.43,0,0,0,8.06-8.66,32.88,32.88,0,0,0,2.86-8.59A44.2,44.2,0,0,0,379,117a83,83,0,0,0-2.66-18.12c-1.16-4.44-3.5-7.95-7.83-9.89-.44-.19-.84-.48-1.28-.69a11.72,11.72,0,0,0-7.54-1.16c-4.33.86-8.71,1.5-13.09,2.09C343,89.68,339.36,90,335.66,90.33ZM267.5,89.4l-2,.21c-1.81.18-3.61.43-5.42.52a28.45,28.45,0,0,0-11.65,3.14,9.27,9.27,0,0,0-3.74,3.37,29.41,29.41,0,0,0-3.14,7.12,64.14,64.14,0,0,0-2.29,12.84c-.45,5.33-.57,10.61.72,15.88,1.12,4.53,3.9,7.88,7.34,10.72,2.23,1.84,5.11,2.4,7.84,3.21,4.2,1.23,8.47.86,13.09.86-1.32-1.39-2.26-2.42-4-2.74a23.41,23.41,0,0,1-6-2c-3.74-1.83-6.26-4.7-6.55-9.1-.06-1-.19-1.93-.19-2.9,0-5.75-.06-11.5-.1-17.26a43,43,0,0,1,1.47-11.12c1.64-6.34,6.24-9.37,12.19-10.81A3.08,3.08,0,0,0,267.5,89.4Zm82.86,62.42-.65,0c-4.48,0-9,0-13.44,0-3.51,0-7-.3-10.54-.28-7.15,0-14.31.25-21.46.33-3.15,0-6.31-.06-9.46-.14-4.12-.11-8.24-.12-12.34-.46a41.58,41.58,0,0,1-9.46-1.58,20.28,20.28,0,0,0-6.55-.9c-1.15,0-2.31,0-3.46,0a30.53,30.53,0,0,1-12.76-2.39c-1.41-.56-2.78-1.23-4.11-1.83.71,1.88,1.55,3.7,2.08,5.61a2.43,2.43,0,0,0,2,1.92,74.6,74.6,0,0,0,20.59,1.72c5.14-.18,10.29-.45,15.43-.69,3.64-.17,7.27-.47,10.9-.51,5.63-.08,11.27-.08,16.9.07,4.66.13,9.32.65,14,.76,3.93.09,7.87-.14,11.81-.26,3.15-.1,6.3-.26,9.45-.38C349.89,152.76,350.45,152.81,350.36,151.82ZM320,150.17a21.73,21.73,0,0,0,2.78,0c4.55-.53,9.09-.09,13.6.2a128.45,128.45,0,0,0,16.88-.24c2.28-.15,4.54-.64,6.81-1a6.2,6.2,0,0,0,1.2-.49c-7.32-1.3-14.44-2.64-21.6-3.8-3.49-.56-7-1.17-10.59-.15a4.3,4.3,0,0,1-1.08.08l-11.25.34-2,.09Zm-2.25,0a27,27,0,0,0-5.72-4.83,2.91,2.91,0,0,0-1.38-.31c-7-.1-13.92-.21-20.88-.24-1.9,0-3.8.22-5.83.36.65,2.15,2.28,3.36,3.18,5ZM283,90.48c.76,0,1.35.12,1.93.11,8-.15,16.09-.29,24.13-.47a2.23,2.23,0,0,0,1.32-.42c1.5-1.27,2.94-2.62,4.65-4.16-.8-.06-1.25-.12-1.71-.13-2.54,0-5.08-.15-7.62-.1-4.77.1-9.55.28-14.32.45-1.62.06-3.47-.27-4.78.42s-2.27,2.43-3.36,3.71A3,3,0,0,0,283,90.48Zm29.86-1,.17.3c1.73,0,3.46.11,5.17,0a59,59,0,0,1,11.43,0,1.39,1.39,0,0,0,1-.16c.83-.88,1.89-.68,2.89-.71a110.08,110.08,0,0,0,15.89-1.58c2.36-.41,4.73-.78,7.1-1.16a13.61,13.61,0,0,0-3.42-.58c-6.11-.17-12.23-.38-18.35-.4-5.39,0-10.78.21-16.18.34a2.18,2.18,0,0,0-1.22.2C315.78,86.86,314.31,88.16,312.82,89.44Zm-44,56.06a12,12,0,0,0,5.84,3.15c3,.53,6,.84,9,1.21a7.27,7.27,0,0,0,1.26-.07,35.73,35.73,0,0,1-2.12-3.37,1.94,1.94,0,0,0-2.16-1.22c-1.93.13-3.86.24-5.8.29S271.05,145.5,268.78,145.5Zm119.59,4.75a40.45,40.45,0,0,0,4.28,0,11.46,11.46,0,0,0,3.68-.88c3-1.39,4.67-4.16,6.78-6.53-4.24,2.94-9.3,3.29-14,4.53C388.87,148.35,388.65,149.21,388.37,150.25Zm-141.56.47c-.78-3-1.86-5.52-3.92-7.37l-5,.87C238.65,148.16,241.71,150,246.81,150.72Zm22.8-60.12c.45,0,.9,0,1.35,0,3.09-.06,6.17-.11,9.26-.2a1.42,1.42,0,0,0,.95-.37c1-1.19,1.85-2.43,3-4C278.77,86.73,273.88,87.49,269.61,90.6Zm117.84-7.78a3.85,3.85,0,0,0,3.1,3.32,38.74,38.74,0,0,1,10.74,5.13c.37.26.77.47,1.16.7C398.85,86.74,393.65,84.21,387.45,82.82Zm-38.12,75.77c3.82-.92,6.61-4,6.75-7.25l-3.85.36C351.69,154.08,349.78,155.9,349.33,158.59Zm-.24-83.19a3.67,3.67,0,0,0,.76,3.13c1.17,1.58,2.35,3.16,3.48,4.78a1.36,1.36,0,0,0,1.72.68c.17-1,.65-2,0-3.11C353.71,78.46,352.05,76.39,349.09,75.4ZM243,92.74a11.22,11.22,0,0,0,2.8-6.72c-3.52.8-5.53,2.75-6,6ZM237,136.84c-.15.09-.33.14-.33.18.18,1.84.38,3.67.59,5.56a8.06,8.06,0,0,0,4.29-.71Zm2-43.41a12.05,12.05,0,0,0-1.44,5.06A9.53,9.53,0,0,0,241.86,94Z"/><path d="M110.16,166.7a4.6,4.6,0,0,0-1.26.7,3.81,3.81,0,0,1-4.28,1.13v12.18c1,0,1.9.08,2.78,0,5.34-.54,10.64,0,15.93.67a37.19,37.19,0,0,1,4,.57,9.54,9.54,0,0,1,2.69,1,1.9,1.9,0,0,1,.76,2.94,6.06,6.06,0,0,1-1.93,1.84,23.13,23.13,0,0,1-8.56,2.83c-1.73.25-3.48.32-5.37.48-.08,1,.09,2.25-1.21,2.85-.19.08-.19.53-.31.79s-.29.79-.55.9a17.6,17.6,0,0,1-3.7,1.21,4.06,4.06,0,0,1-2.19-.68c-1.12-.58-2.18-1.28-3.27-1.92a3,3,0,0,0-.82-.35c-5.27-1.37-10.49-2.91-16-3.35a32.34,32.34,0,0,1-4.43-.94c-.71-.16-1.4-.36-2.23-.58-.47,1.36-1.6,1.65-3,1.68l.2,2.12c1.33,0,2.54,0,3.74,0a7.31,7.31,0,0,1,2.13.41,2.66,2.66,0,0,1,1,4.44,6.37,6.37,0,0,1-3.78,2,38.91,38.91,0,0,1-10.67.1c-2-.27-2.55-1.09-2.42-3.05a7.58,7.58,0,0,0-.24-1.43c-2,.88-3.48.25-5-.68a20.45,20.45,0,0,0-7.71-2.54,8.68,8.68,0,0,1-1.26-.17,4.7,4.7,0,0,0-3.32.08,9.6,9.6,0,0,1-3.22.41c-2.73,0-5.46.07-8.18-.06a31.33,31.33,0,0,1-11.78-2.68,9.44,9.44,0,0,1-2-1.28c-1.18-1-1.17-2.28.2-2.93A23.76,23.76,0,0,1,30,183.72a56.21,56.21,0,0,1,12.28-1.12h1.4a9.86,9.86,0,0,0-.16-1.5c-.91-3.35-.08-6.48,1.18-9.54,1.86-4.5,7.75-8.95,13.86-8.55a38.2,38.2,0,0,0,4.54,0,4.43,4.43,0,0,0,1.88-.54c1.38-.76,2.73-1.57,4-2.46a52.29,52.29,0,0,1,9.62-5.07,7.62,7.62,0,0,1,5.85-.22c3.28,1.25,6.5,2.64,9.74,4a9.57,9.57,0,0,0,1,.45c2.76.89,5.53,1.72,8.28,2.64a3,3,0,0,0,2.24-.08c1.06-.44,2.17-.74,3.24-1.13,3.53-1.28,6.44,2.52,5.91,5.44a2.68,2.68,0,0,1-2.59,1.72A14.4,14.4,0,0,1,110.16,166.7Zm-28.27,9.09c-.55,0-1-.06-1.49-.14-3.94-.69-7.82-2.45-7.94-7.6-.11-4.72,3-9.43,7.43-10.39a41,41,0,0,1,4.86-.53c.43,0,.87,0,1.68-.09-2.9-1.43-5.36-1.64-8-.41a61.89,61.89,0,0,0-8.78,4.74c-1.35.92-2.78,1.73-4.19,2.55a3.61,3.61,0,0,1-1.51.56c-1.63.09-3.27,0-4.9.1a29,29,0,0,0-4,.29,3.29,3.29,0,0,0-1.86,1,14.33,14.33,0,0,0-3,13.11,5.77,5.77,0,0,0,2.72,3.93,16.67,16.67,0,0,0,10,1.79,45.55,45.55,0,0,1,9.41-.28A8.36,8.36,0,0,1,76.75,186a5.54,5.54,0,0,0,1.92,1c2.92.76,5.85,1.5,8.81,2.12,3.61.75,7.25,1.34,10.86,2.06,1.6.33,3.15.88,4.75,1.21,1.3.27,1.79-.12,2-1.42a3.07,3.07,0,0,0-.07-.87,40.45,40.45,0,0,1-4.92-1.69,43.54,43.54,0,0,0-7.65-2.8c-2.16-.58-4.29-1.27-6.41-2a6.28,6.28,0,0,1-4.26-6.31C81.81,176.84,81.85,176.37,81.89,175.79Zm-32-8.14c-3.93,2.27-5.71,8.86-5.1,11.87a29,29,0,0,0,.93,4.07,11.24,11.24,0,0,0,1.93,3.83,8.77,8.77,0,0,0,5.14,2.87c.95.15,1.9.32,2.85.5a23.47,23.47,0,0,1,8,2.9c1.62,1,2.59.72,3.71-.82,1.33-1.83,1.23-3.71-.21-5.69A2.7,2.7,0,0,0,64.15,186a17.66,17.66,0,0,1-11.3-1.43A7.28,7.28,0,0,1,49.38,181a13.49,13.49,0,0,1-.9-8C48.77,171.19,49.4,169.43,49.87,167.65Zm54.71,15a23.83,23.83,0,0,1,0,2.54,2.15,2.15,0,0,0,1,2.13,2,2,0,0,0,1.85.33c1.56-.43,3-.61,4.32.76a3.76,3.76,0,0,0,3,1c1.69-.07,3.39-.07,5.07-.28a24,24,0,0,0,8.09-2.55c.82-.44,1.56-.93,1.6-2C127,182.52,110.28,181.12,104.58,182.62ZM74.15,167.51c-.29,2.75.33,4.12,3.44,5.84,3.74,2.07,11.69.05,14.24-2.74,3.11-3.41,2.78-7.58-.94-10.16a11.11,11.11,0,0,0-7.79-1.79c-.65.08-1.3.2-2,.27a7.73,7.73,0,0,0-6.78,6.85c.9-.92,1.66-2.13,3.07-2.11a42.57,42.57,0,0,1,5.4.44c.87.12,1,.83.24,1.38a6.37,6.37,0,0,1-2.2,1.12,44.71,44.71,0,0,1-4.46.78C75.71,167.49,75,167.47,74.15,167.51ZM96.56,179l4-1.49V166h-5a5.38,5.38,0,0,0-.25.74,9.46,9.46,0,0,1-5.79,7.2A25.33,25.33,0,0,1,86.52,175c-1,.3-2,.52-3,.8l-.21,2.45c3.36,0,6.5,0,9.64,0a3.33,3.33,0,0,0,1-.3A1.8,1.8,0,0,1,96.56,179Zm-71,7.54-.06.53a8.59,8.59,0,0,0,1.75,1.19,54.31,54.31,0,0,0,6.2,2c4.53,1,9.16.53,13.74.7a6.94,6.94,0,0,0,1.6-.3A11.57,11.57,0,0,1,44.17,184C37.8,184.15,31.53,184.25,25.58,186.57Zm43.14,11.17a5.89,5.89,0,0,0,1.17.56,35.54,35.54,0,0,0,10.65-.16,3.78,3.78,0,0,0,1.34-.54c.76-.46,1.67-.87,1.65-1.95,0-.8-.84-1.24-2.27-1.41a24,24,0,0,0-7,.59,2,2,0,0,0-1.24.88,3.46,3.46,0,0,1-3.32,1.79A5,5,0,0,0,68.72,197.74Zm32.17-15.05c-1.69.45-3.08.78-4.45,1.19-.55.16-1.16.76-1.5-.12s.41-1,1-1.27a6.14,6.14,0,0,1,1-.32c1.06-.27,2.11-.52,3.17-.77.48-.11.8-.3.43-1-.76.16-1.56.35-2.36.5-.41.08-.89.27-1.22.13a1.69,1.69,0,0,0-2.24.56.91.91,0,0,1-.64.26c-1.68.09-3.36.18-5,.22-.78,0-1.56-.1-2.33-.15a31.59,31.59,0,0,0,7.06,2.62c2.41.7,4.77,1.59,7.32,2.45ZM93.5,160.44a20.43,20.43,0,0,1,1.34,2.63,1.76,1.76,0,0,0,1.89,1.32c2.41,0,4.83,0,7.24,0a3.44,3.44,0,0,0,.91-.25C101.16,162.57,97.62,160.73,93.5,160.44ZM108.58,189c-1.77.35-1.72.36-2,1.86a21.37,21.37,0,0,1-.79,2.69A23.7,23.7,0,0,0,108,195a2.34,2.34,0,0,0,1.32.09,17.77,17.77,0,0,0,2-.48,3.06,3.06,0,0,0,.53-.25l-.07-1.25a8.11,8.11,0,0,1-2.2-1.48A10,10,0,0,1,108.58,189Zm-6-3.17.4,0a7.17,7.17,0,0,0,.15-1q-.14-9.31-.31-18.62s-.07-.08-.12-.09a3.13,3.13,0,0,0-.43,0C102,172.64,102.26,179.22,102.54,185.8Zm-32.71,3.07c-.12,2.37,0,2.45,1.09,3.42s2.52,1.59,4.1.66l-.26-2c-.77,0-1.49,0-2.2,0s-1-.41-.81-1.1c.08-.31.17-.62.29-1.06Zm42.06-26.64a5.62,5.62,0,0,0-4.77.58l-.25,2.73a4.52,4.52,0,0,0,1.41.2c.39-.06,1-.4,1.07-.7C109.61,163.71,110.57,163,111.89,162.23Zm-36.68,25,0-.45c-2.16-1.23-4.54-1-7.25-1l1,1.47ZM93,180.15c-2.24-.73-7.59-.61-8.71.11C86.21,180.68,91.55,180.67,93,180.15ZM71.7,194.76l-2.56-1.95-.93,1.51C69.48,196.46,70.23,196.59,71.7,194.76Zm34.89-27.42-2.15-1.45C104.76,167.19,105.49,167.21,106.59,167.34ZM79.1,165.41V165l-2.27.32.06.4Zm32.79.17c.08-.88-.25-1.05-1-.64Z"/><path d="M464.54,334.06l1.63,1.12c-1,1.19-1.94.64-3,.47a11.13,11.13,0,0,1-.15-1.46c.11-3.69.34-7.39.33-11.08s-.23-7.14-.37-10.71c-.07-1.76-.2-3.51-.26-5.27-.13-3.87-.22-7.75-.36-11.62,0-.85-.24-1.68-.35-2.52-.13-1-.24-2-.35-3.06s-.2-1.92-.3-2.88c-.11-1.15-.3-2.29-.32-3.43-.1-6.18-.15-12.36-.25-18.54a15.32,15.32,0,0,0-.36-3.24c-1.06-4.53-2.26-9-3.28-13.57a35.09,35.09,0,0,0-3.67-8.66c-1.24-2.35-3.58-3.73-5.9-5-.91-.48-1.85-.88-2.8-1.29a13.23,13.23,0,0,0-6-1.33q-6.36.31-12.71.6c-2.91.13-5.81.24-8.72.32-4.42.13-8.83.29-13.23.84-4.2.53-8.46.61-12.69.84-6.54.36-13.07.77-19.61,1-8.18.3-16.3,1.31-24.51,1.27-8,0-16,.37-24,.7-4,.17-8,.61-12,.88-2.84.2-5.69.3-8.53.46-7.27.43-14.52,1-21.79,1.24-6.6.21-13.22.08-19.82,0-7.46-.11-14.91-.38-22.37.18-2.71.21-5.45.24-8.17.39-7.32.41-14.64.91-22,1.22-3.69.15-7.4,0-11.09-.09-6.84-.21-13.68-.7-20.52-.67A128.88,128.88,0,0,0,163,242.3a69.33,69.33,0,0,1-11.07-.12c-1-.05-2.06-.16-3.09-.15-5.51.05-11,.1-16.54.21-5.28.1-10.54.29-15.81.41-6.13.14-12.25.21-18.37.37-2.79.07-5.57.33-8.36.45a75.83,75.83,0,0,1-15.9-1.37c-3.63-.61-7.28-1.18-10.94-1.68a88.85,88.85,0,0,0-16-.22c-3.63.17-7.26.35-10.9.46a26.53,26.53,0,0,1-3.44-.25,2.65,2.65,0,0,1-1.2-.38c-.25-.16-.36-.56-.53-.85.35-.16.73-.52,1-.46,3.85.84,7.72.36,11.59.17,6.72-.32,13.44-.8,20.15.13,2.39.33,4.74.94,7.14,1.25,7.32.94,14.61,2,22.06,1.7,11.57-.51,23.15-.58,34.72-.86,1.4,0,2.78-.27,4.17-.29q9.47-.18,18.91-.27a25.64,25.64,0,0,1,2.89.26c5.41.52,10.78-.05,16.15-.61a114.54,114.54,0,0,1,18.52-.35c1.94.11,3.9,0,5.82.19a112.58,112.58,0,0,0,17.61.38c6.6-.3,13.18-.86,19.77-1.3l.73-.05q14.81-.67,29.63-.4,11.46.26,22.92-.11c6.54-.2,13.06-.85,19.59-1.27,2.9-.19,5.81-.29,8.72-.45l16.15-1,.91,0c7.64-.16,15.28-.25,22.91-.49,4-.13,8-.53,12-.8,4.53-.3,9.06-.67,13.6-.89,4.78-.24,9.58-.24,14.36-.52s9.52-.83,14.29-1.22q3.72-.3,7.44-.45c4.78-.19,9.57-.33,14.35-.5,3.45-.12,6.9-.29,10.36-.35a11.29,11.29,0,0,1,3.22.4,28.22,28.22,0,0,1,9.08,4.44,16.51,16.51,0,0,1,4.76,6.52c2.37,5,3.32,10.32,4.67,15.58a51.32,51.32,0,0,1,1.29,14.07,105.89,105.89,0,0,0,.68,16.31c.45,3.4.63,6.85.8,10.29.39,7.8.79,15.61,1,23.42C465,325.75,464.65,329.87,464.54,334.06Z"/><path d="M318.73,178.31c.15-1.46.15-1.54,1.4-1.49a30.17,30.17,0,0,1,3.77.5c1.18.21,2.34.51,3.46.76,1.53,1.41,3.18,2.73,4.6,4.27,3.29,3.58,6,7.49,5.74,12.68a44.86,44.86,0,0,1-.38,6.88c-1.28,6.37-4.62,11.39-10.47,14.52-1,.54-2.05,1-3.09,1.54a12.07,12.07,0,0,1-8.68.64c-3.5-1-6.71-2.46-8.92-5.54-2.59-3.62-4.25-7-4.29-11.34-.1-8.83,3.85-15.29,11.12-19.95C314.83,180.61,316.72,179.53,318.73,178.31Zm15.4,9.1c-.06,1.24-1,1.9-1.81,2.59q-10.51,8.94-21.06,17.84c-1.42,1.2-2.85,2.39-4.29,3.59a7.22,7.22,0,0,0,.44.78c1.85,2.72,4.7,3.92,7.65,4.88a10.52,10.52,0,0,0,8.12-.5c1-.51,2.06-1,3.07-1.56,5.74-3.05,8.66-8.09,9.78-14.28a46.53,46.53,0,0,0,.2-5.43,10.76,10.76,0,0,0-1.58-6.59,7.25,7.25,0,0,1-.52-1.32,55.84,55.84,0,0,0-4.26-5.12c-3.81-3.74-8.36-4-12.38-1.51-1.28.8-2.6,1.55-3.87,2.36-7.32,4.7-10.81,11.38-10.2,20.09a12.85,12.85,0,0,0,2.69,6.9c1.78-1.45,3.54-2.83,5.24-4.27q10.51-8.94,21-17.93A2.12,2.12,0,0,1,334.13,187.41Z"/><path d="M379.8,54.8a1.81,1.81,0,0,1-2,1.28c-3,.18-5.92.35-8.89.46-1.93.06-3.87,0-5.81,0a5.5,5.5,0,0,1-.91,0c-.57-.1-1.38,0-1.33-.88s.85-.62,1.42-.63c5.14-.13,10.29-.27,15.43-.38A18.6,18.6,0,0,1,379.8,54.8Z"/><path d="M246.3,160.09c-.32,2-.52,3.76-.89,5.47-.62,2.84-1.36,5.65-2,8.48-.19.82-.25,1.67-.42,2.49a2.86,2.86,0,0,1-.43,1.15.87.87,0,0,1-.79.18.82.82,0,0,1-.44-.67,24.82,24.82,0,0,1,.44-2.85c.94-4.44,1.91-8.87,2.87-13.3.06-.3.11-.6.18-.89.11-.54.41-1,1-.78C246.05,159.46,246.2,159.94,246.3,160.09Z"/><path d="M218.75,160.54c-.29-.19-.65-.3-.73-.51s.07-.54.17-.8c0-.1.17-.16.27-.23l12.25-8c.1-.06.19-.14.3-.2a.83.83,0,0,1,1.24.32c.34.6-.15.8-.58,1.07-1.77,1.14-3.53,2.31-5.29,3.49s-3.47,2.39-5.24,3.55C220.39,159.69,219.58,160.08,218.75,160.54Z"/><path d="M285.27,57.23c5-.57,9.87-1.13,14.73-1.67a12.7,12.7,0,0,1,1.81.06A1.42,1.42,0,0,1,300.35,57q-6.14.81-12.26,1.53a11.13,11.13,0,0,1-2,0C285.31,58.44,285,58,285.27,57.23Z"/><path d="M263.74,59.18a7.7,7.7,0,0,1-1.69.76q-5.6,1.06-11.22,2a6.48,6.48,0,0,1-2.15.06,1.32,1.32,0,0,1-.87-.91c0-.6.5-.57,1-.62,1.79-.15,3.58-.4,5.35-.68,2.32-.37,4.63-.83,7-1.19a16.27,16.27,0,0,1,2.42,0Z"/><path d="M229.1,136.5c-1-.25-1.86-.41-2.67-.65-2.72-.79-5.43-1.61-8.13-2.43a6.79,6.79,0,0,1-1.67-.67c-.27-.17-.37-.62-.54-.95.36-.14.76-.46,1.06-.38,2.2.61,4.37,1.32,6.56,2,1.79.53,3.58,1.05,5.39,1.52.54.14,1.23.16,1.07.87C230.09,136.11,229.41,136.3,229.1,136.5Z"/><path d="M334.78,55.39a4.49,4.49,0,0,1-1.37.57q-5.79.43-11.59.75c-.58,0-1.56.33-1.58-.67s.93-.71,1.54-.75c3.69-.25,7.37-.5,11.06-.7a11.8,11.8,0,0,1,1.86.17Z"/><path d="M233.24,66.33a13,13,0,0,1-1.59,1.23c-1.42.8-2.92,1.46-4.31,2.3s-2.87,2-4.34,2.92c-.28.18-.74.07-1.12.1,0-.38-.13-.85.05-1.11a3.66,3.66,0,0,1,1.19-1.09c2.77-1.58,5.56-3.15,8.37-4.67a4.76,4.76,0,0,1,1.5-.27Z"/><path d="M442.71,54.12c-.26,1.26-.93,1.41-1.6,1.44-3.44.14-6.88.25-10.32.35a1.6,1.6,0,0,1-.88-.14,1.05,1.05,0,0,1-.4-.73c0-.15.26-.41.45-.48a3,3,0,0,1,.9-.08L441,54.12C441.51,54.1,442,54.12,442.71,54.12Z"/><path d="M476.14,54.07c0,1.14-.58,1.36-1.09,1.42-3.36.41-6.72.79-10.09,1.12-.61.06-1.56.22-1.58-.71s.94-.66,1.54-.73c2.46-.28,4.92-.57,7.38-.82C473.54,54.22,474.79,54.17,476.14,54.07Z"/><path d="M197.56,110.84a10.18,10.18,0,0,1-.32,1.78c-.57,1.53-1.25,3-1.83,4.53a7.54,7.54,0,0,0-.68,4.22c.06.3-.29.68-.46,1-.33-.28-.93-.52-1-.83a7,7,0,0,1,.07-2.85c.76-2.34,1.7-4.63,2.64-6.91.19-.47.72-.8,1.09-1.2Z"/><path d="M410.14,55.14a4.12,4.12,0,0,1-1.28.75c-2.87.42-5.75.78-8.63,1.12a2.93,2.93,0,0,1-1.41-.18,1.12,1.12,0,0,1-.41-.87c0-.14.41-.41.66-.44q4.59-.52,9.18-1a16.05,16.05,0,0,1,1.7,0Z"/><path d="M418.68,159.43c-.37.23-.7.6-1,.57a3.18,3.18,0,0,1-1.47-.58c-1.2-.91-2.34-1.89-3.49-2.87s-2.12-1.78-3.12-2.72a1.3,1.3,0,0,1-.42-1c.21-.6.76-.49,1.2-.21a10.28,10.28,0,0,1,1.48,1c2,1.82,3.71,4,6.29,5.06C418.34,158.77,418.43,159.06,418.68,159.43Z"/><path d="M204.87,93a11.42,11.42,0,0,1,.78-1.6c1.5-2.1,3-4.19,4.58-6.28.07-.09.14-.19.22-.28.38-.4.82-.9,1.34-.41.18.19.07.93-.16,1.25-1.27,1.84-2.63,3.6-3.92,5.43-.47.67-.78,1.46-1.23,2.17a4.76,4.76,0,0,1-.83.78Z"/><path d="M421.79,141.88l-5.59-.46c-.53,0-1.05-.18-.94-.79a1.21,1.21,0,0,1,.9-.63,23.79,23.79,0,0,1,2.53.11l5.58.2c.12,0,.24,0,.36,0,.49,0,1,0,1.05.67s-.51.76-1,.8C423.78,141.81,422.87,141.83,421.79,141.88Z"/><path d="M397.3,162.8c-.08-1-.19-2.47-.32-3.92,0-.5-.1-1.06.52-1.16s.94.4,1,1c.1,1.27.18,2.53.27,3.8s.17,2.64.26,4c0,.56-.21,1-.75,1a1.29,1.29,0,0,1-.91-.83C397.23,165.53,397.3,164.37,397.3,162.8Z"/><path d="M178,147.8a12.52,12.52,0,0,1,.62-1.33c1.07-1.75,2.17-3.49,3.27-5.22a2,2,0,0,1,.58-.68c.23-.14.72-.26.79-.16a1.21,1.21,0,0,1,.24.92,6.32,6.32,0,0,1-.68,1.28c-1.09,1.93-2.17,3.87-3.31,5.78-.14.24-.74.51-.83.43A4.53,4.53,0,0,1,178,147.8Z"/><path d="M141.25,179.27a1.86,1.86,0,0,1-.82-.23,1.13,1.13,0,0,1-.34-.92c.07-.25.55-.64.74-.59,2.08.59,3.58-.68,5.21-1.53.55-.29,1.22-1,1.72-.22s-.41,1.13-.93,1.48A10.68,10.68,0,0,1,141.25,179.27Z"/><path d="M238.49,157.31a10.29,10.29,0,0,1-.48.92c-1,1.49-2,3-3.11,4.43a1.18,1.18,0,0,1-1,.41c-.58-.19-.56-.79-.27-1.21,1-1.5,2-3,3.14-4.43.19-.26.71-.32,1.09-.37C238.06,157,238.3,157.23,238.49,157.31Z"/><path d="M229.53,142.42c.2.17.63.35.66.58a1.07,1.07,0,0,1-.48.82,3.65,3.65,0,0,1-1.2.37c-1.52.37-3,.76-4.57,1.05-.29,0-.66-.3-1-.47a3.48,3.48,0,0,1,.51-.84,1.9,1.9,0,0,1,.83-.32Z"/><path d="M164.89,162.77a4.59,4.59,0,0,1-.54.77q-1.75,1.69-3.54,3.36a1.66,1.66,0,0,1-.77.39.72.72,0,0,1-.62-.24c-.11-.23-.16-.67,0-.81,1.48-1.41,3-2.81,4.52-4.14C164.36,161.72,165,162.11,164.89,162.77Z"/><path d="M403,155.63c.23.15.42.21.51.34.79,1.2,1.6,2.4,2.31,3.65.14.25-.09.72-.16,1.08-.36-.12-.87-.12-1.07-.37a30.36,30.36,0,0,1-2.24-3.06,1.57,1.57,0,0,1,0-1.15C402.41,155.91,402.78,155.79,403,155.63Z"/><path d="M417.08,148.37c-.24.12-.63.47-.85.39a19.17,19.17,0,0,1-2.91-1.34c-.46-.27-.28-.79.12-1C414.19,145.89,416.93,147.25,417.08,148.37Z"/><path d="M88.61,166.37c1.16,1.28,1.14,1.93-.21,2.53a9.79,9.79,0,0,1-3.3.88,29.62,29.62,0,0,1-4.7-.24c-.47,0-1.17-.36-1.29-.71-.24-.72.5-1,1-1.24,2-1,4.07-1.88,6.41-1.41a3.36,3.36,0,0,0,.55,0,3.83,3.83,0,0,1,.25-1.45c.24-.35.79-.5,1.22-.72,1.43-.75,2.83-.14,4.22.15a1,1,0,0,1,.59.78,1.07,1.07,0,0,1-.53.83,9.77,9.77,0,0,1-2,.39C90.19,166.25,89.46,166.29,88.61,166.37ZM83.31,168l.06.43,3.38-.44-.06-.46Z"/><path d="M82.28,163.33c-1,0-2,0-3.07,0-.82,0-1.51-.27-1.65-1.08a1.34,1.34,0,0,1,1.11-1.46c2-.53,3.91-1.29,6-.54.73.26,1.55.28,2.28.55.38.15.89.59.9.91a1.42,1.42,0,0,1-.78,1.05,6.69,6.69,0,0,1-2.07.51c-.9.08-1.81,0-2.72,0Z"/><path d="M82.86,170.89c.72,0,1.44,0,2.16,0a.87.87,0,0,1,.64.48.89.89,0,0,1-.32.75,2.84,2.84,0,0,1-1.31.54,27.91,27.91,0,0,1-3.77.06,1.39,1.39,0,0,1-1-.74c-.19-.65.33-1,.93-1,.9-.08,1.8-.12,2.7-.17Z"/><path d="M88.29,170.11a7.06,7.06,0,0,1,3.22-2.31c.15-.08.55.16.72.36s.12.58,0,.65c-1.06.64-2.13,1.25-3.24,1.8C88.9,170.67,88.58,170.32,88.29,170.11Z"/></svg>