<svg xmlns="http://www.w3.org/2000/svg" width="500" height="350" viewBox="0 0 500 350"><path d="M99.6,173.23c-.29,1.58-1.53,1.46-2.69,1.64V177H98.4a15.16,15.16,0,0,1,4.33.45,2.77,2.77,0,0,1,1.09,4.54,7.11,7.11,0,0,1-4.46,2.13,54.73,54.73,0,0,1-10.24,0,2.38,2.38,0,0,1-2.26-2.7c0-.22.13-.44.14-.67,0-.74-.41-1.17-1.1-.92a4,4,0,0,1-3.63-.59,19.52,19.52,0,0,0-8.6-2.84,8.84,8.84,0,0,1-1.33-.31,5.11,5.11,0,0,0-2.89.14,17.93,17.93,0,0,1-4.59.42c-2.14,0-4.29,0-6.43-.06a28.57,28.57,0,0,1-9.89-1.77,17.15,17.15,0,0,1-4.17-2c-1.55-1.19-1.59-2.5.15-3.37A18.05,18.05,0,0,1,48.76,168a60.09,60.09,0,0,1,12.77-1.21c.53,0,1.06,0,1.67,0-.12-.79-.19-1.42-.31-2a15.23,15.23,0,0,1,7.26-15.57,13.81,13.81,0,0,1,7.38-2c1.5.05,3,0,4.52,0a4.64,4.64,0,0,0,2.83-.76c2-1.3,4-2.67,6.14-3.83,2.47-1.35,5-2.56,7.6-3.7a7.08,7.08,0,0,1,4.95-.22,59.45,59.45,0,0,1,10.6,4.3,10.91,10.91,0,0,0,1.68.48l6.73,2.21.12.06a3.48,3.48,0,0,0,3.31-.16,13.81,13.81,0,0,1,3.5-1.09,3.34,3.34,0,0,1,3.6,1.41,5.49,5.49,0,0,0,.72.81c1,1.1.84,2.44.75,3.76,0,.19-.22.38-.38.53s-.34.14-.48.25c-.56.44-1,1.11-1.88.68-.59-.3-1.13-.68-1.89-1.14a9.06,9.06,0,0,0-1.59,1c-1.18,1-2.39,1.69-4.07.74V165.1c.9-.07,1.75-.11,2.59-.19a43.11,43.11,0,0,1,8.87,0c3.13.35,6.27.53,9.39.9a15.27,15.27,0,0,1,3.82,1c2.36,1,2.62,3.12.52,4.62a18.06,18.06,0,0,1-4,2,26.21,26.21,0,0,1-10.3,1.79h-.73c.13,1.3.27,2.58-1.28,3.08-.35,1.78-.7,2.1-2.49,2.26-.27,0-.63,0-.77.14-.9,1-1.88.52-2.76.12a23.35,23.35,0,0,1-3.29-1.89,5.82,5.82,0,0,0-2.1-.89c-3.09-.74-6.16-1.63-9.27-2.3-2.26-.49-4.59-.7-6.88-1.1-1.38-.25-2.74-.63-4.12-.94C100.92,173.52,100.34,173.4,99.6,173.23Zm6.78-32c-1-.36-1.94-.78-2.94-1.05a6.3,6.3,0,0,0-4,.07c-2.71,1.17-5.37,2.46-8,3.87-2.19,1.2-4.23,2.65-6.37,3.94a4.49,4.49,0,0,1-1.89.7c-1.59.1-3.19,0-4.79,0a27.51,27.51,0,0,0-3,.09,3.87,3.87,0,0,0-2.6,1,13.1,13.1,0,0,0-3.24,6.5,14.33,14.33,0,0,0,0,6.25c.43,1.74,1.08,3.45,2.73,4.38a16.74,16.74,0,0,0,3.9,1.59,18.53,18.53,0,0,0,6.52.3c2.08-.22,4.17-.39,6.26-.42a13.11,13.11,0,0,1,6.15,1c.64.31,1.18.88,1.83,1.15a31.88,31.88,0,0,0,4,1.35,56.75,56.75,0,0,0,6.66,1.41,73,73,0,0,1,9.65,1.85c1.94.51,3.87,1,5.82,1.5a1.19,1.19,0,0,0,1.66-.93,9.7,9.7,0,0,0,.14-1.75,15.17,15.17,0,0,1-6.47-2.1,22.37,22.37,0,0,0-3.69-1.38c-1.87-.57-3.77-1-5.64-1.59-1-.31-2.06-.72-3.1-1a6.27,6.27,0,0,1-4.23-4.1,6,6,0,0,1-.13-3.79,3.21,3.21,0,0,0-.85-.23,9.72,9.72,0,0,1-4.95-1.33,6,6,0,0,1-3.23-3.32,11.92,11.92,0,0,1-.54-3.09,11.09,11.09,0,0,1,1.87-6.31A8,8,0,0,1,98.8,142,20.41,20.41,0,0,1,106.38,141.19Zm-36.9,10.62a9,9,0,0,0-3.29,3.25,17.5,17.5,0,0,0-1.76,4.68,8.23,8.23,0,0,0,0,5c.05.12,0,.27.06.4.42,1.58.76,3.17,1.29,4.71a5.73,5.73,0,0,0,1.76,2.36A13,13,0,0,0,74.4,175a20.41,20.41,0,0,1,6.64,2c.91.5,1.86.95,2.77,1.47a1.58,1.58,0,0,0,1.79-.1,4.51,4.51,0,0,0,1.77-5.63c-1-2.38-2.06-2.78-4.62-2.35a17.15,17.15,0,0,1-8.72-.8A13.8,13.8,0,0,1,71,168a6.83,6.83,0,0,1-2.75-4.24,16.21,16.21,0,0,1,.44-9.79C69,153.23,69.23,152.52,69.48,151.81Zm79.92,17.07a5.13,5.13,0,0,0-3.37-1.44c-1.67-.23-3.35-.35-5-.61a74.92,74.92,0,0,0-14.59-.44c-.71,0-1.41.21-2.17.32a19.91,19.91,0,0,0,.08,3.82c.11.57,1,1,1.53,1.45a1.12,1.12,0,0,0,.25.11,18.54,18.54,0,0,1,3.62-.43,2.09,2.09,0,0,1,1.17.52,5.18,5.18,0,0,0,2.78,1.38,24.88,24.88,0,0,0,5-.07,26.32,26.32,0,0,0,9.21-2.79A2.66,2.66,0,0,0,149.4,168.88ZM93.68,150.41c.25-.36.38-.57.52-.77a4.53,4.53,0,0,1,4.51-2c.86.11,1.71.24,2.56.36a4.71,4.71,0,0,1,1.07.2c.27.1.66.31.69.52a1.24,1.24,0,0,1-.36.91,4.52,4.52,0,0,1-2.93,1.3,11.14,11.14,0,0,0-1.63.18,9.13,9.13,0,0,1-4.6.28,15,15,0,0,0,.2,2.44,3.85,3.85,0,0,0,.85,1.81,9.42,9.42,0,0,0,8.37,2.67,23.23,23.23,0,0,0,3.86-.89c2.52-.82,4.75-2.07,6-4.57a6.18,6.18,0,0,0-.52-6.69,9.73,9.73,0,0,0-7-3.39c-1.25-.12-2.53.26-3.79.24C97.29,143,94.45,146.15,93.68,150.41Zm21.63-.51c-.11.29-.18.41-.21.54-.08.31-.12.63-.2.94a9.47,9.47,0,0,1-4,5.78,19.18,19.18,0,0,1-6.84,2.52c-.78.16-1.13.48-1.15,1.22,0,.52,0,1,0,1.55,3.25,0,6.29,0,9.34,0a3.85,3.85,0,0,0,1.19-.26c1.63-.52,1.95-.42,2.85,1l4-1.47V150.17ZM44.57,171.31a3.43,3.43,0,0,1,.69.33A14,14,0,0,0,50.72,174a28.87,28.87,0,0,0,8.48,1.13c1.95-.05,3.91.11,5.86.17a6.91,6.91,0,0,0,3.35-.44,22.86,22.86,0,0,1-3-2.81,26.69,26.69,0,0,1-2-3.71,63.27,63.27,0,0,0-15.15,1.35A7.65,7.65,0,0,0,44.57,171.31ZM88.4,182c.19.21.36.53.6.6a8.78,8.78,0,0,0,2.14.35c2.1,0,4.19,0,6.28-.09a18.08,18.08,0,0,0,2.44-.31,4.87,4.87,0,0,0,2.92-1.63,1.15,1.15,0,0,0-.28-1.86,2.93,2.93,0,0,0-1-.34c-2.7-.57-5.34.07-8,.53a1.48,1.48,0,0,0-.92.66C91.71,181.51,90.35,182,88.4,182Zm31.93-17.44-1.9.45a3.21,3.21,0,0,1-2.25.09,1.35,1.35,0,0,0-1.59.48,1.63,1.63,0,0,1-1.16.54,26.2,26.2,0,0,1-6.13.15,7.34,7.34,0,0,0-.93.1,43.23,43.23,0,0,0,7.17,2.42,40.69,40.69,0,0,1,7.1,2.63v-4.54c-1.72.49-3.29.9-4.82,1.41-.46.15-.82.43-1.17-.08a.84.84,0,0,1,.44-1.24,8,8,0,0,1,1.66-.6c1-.28,2.11-.54,3.19-.74C120.53,165.48,120.56,165.19,120.33,164.52Zm-7.88-20.61a30.9,30.9,0,0,1,2.08,3.45,1.67,1.67,0,0,0,1.61,1.17q3.75,0,7.5,0a5.21,5.21,0,0,0,1.08-.24c-.19-.23-.25-.39-.36-.43q-3.51-1.27-7-2.52C115.66,144.79,113.77,144.9,112.45,143.91Zm16.1,36c.75-1.31,2.08-.8,3.08-1.18,0-.58,0-1-.06-1.36-.67-.35-1.25-.61-1.78-.95a2,2,0,0,1-1.14-2.26c.07-.3-.22-.68-.35-1-.51.13-.86.23-1.22.3a.76.76,0,0,0-.69.87,5.41,5.41,0,0,1-1.11,3.47Zm-6.11-30c-.31.42-.54.59-.57.8a6.89,6.89,0,0,0-.07,1.36c.06,3.83.13,7.65.2,11.48,0,1.91,0,3.83.11,5.74,0,.35-.12.84.46,1C123,169,122.91,152.82,122.44,149.89Zm-28.1,25.44H93c-1.73,0-2-.42-1.32-2.06,0-.07,0-.16-.07-.3-.77.09-1.6-.18-2.3.32-.16,1.24-.14,2.3.92,3.12,2,1.53,2,1.55,4.45,1C94.55,176.72,94.45,176.07,94.34,175.33Zm37.07-28.86-.09-.34c-1.72-.43-3.23.28-4.89.88.52,1,.68,1.85-.23,2.56a2.35,2.35,0,0,0,.47.23,10,10,0,0,0,1.09.08c1.07,0,1.1,0,1.42-1a3.09,3.09,0,0,1,1.46-1.87A8,8,0,0,0,131.41,146.47ZM88.53,171.55h3.21a13.8,13.8,0,0,0,3.12-.14c-1-1.24-5.22-1.87-7.29-1.15Zm-.88,7.06c.53.83.79,1.78,2,1.71A1.47,1.47,0,0,0,91.12,179l-2.43-1.87Zm25.1-14c-.37-.34-.51-.57-.65-.57-2.67,0-5.34,0-8,0a1.92,1.92,0,0,0-.53.17l0,.29c.37,0,.73.13,1.11.15,1.76.08,3.52.18,5.28.19C110.8,164.9,111.63,164.73,112.75,164.62Zm11.59-14.52c-.07,1.05.27,1.29,1.76,1.26ZM99,149.57c-1.49-.51-1.95-.45-2.67.35Zm32.72.3.22-.13c-.11-.29-.15-.67-.36-.84a.55.55,0,0,0-.9.26Z"/><path d="M300.69,172.29c-.17,1.77-1.54,1.5-2.76,1.75l.12,1.82,5.31.57a2.64,2.64,0,0,1,2.35,2,2.67,2.67,0,0,1-1,2.92,6.73,6.73,0,0,1-4.3,1.88c-3.27.16-6.53.53-9.81,0-2.28-.34-3.08-1.49-2.41-3.68l-.55-.72c-.11,0-.22-.07-.28,0a3.43,3.43,0,0,1-3.75-.31,21.09,21.09,0,0,0-9.24-3.09,5.93,5.93,0,0,1-.93-.2,4.2,4.2,0,0,0-2.73.09,16.7,16.7,0,0,1-4.58.54c-2,0-3.92-.19-5.87-.17a30.69,30.69,0,0,1-11.49-2,13.55,13.55,0,0,1-3.47-1.83,1.73,1.73,0,0,1,.12-3.1,16.15,16.15,0,0,1,5.83-1.83A51.92,51.92,0,0,1,260,166c1.39,0,2.79-.19,4.3-.3a9.86,9.86,0,0,0-.21-1.77,9.63,9.63,0,0,1,0-5,16.85,16.85,0,0,1,2.1-5.71,15.9,15.9,0,0,1,7.48-6.13,11.67,11.67,0,0,1,4.4-.81c1.78,0,3.56,0,5.33,0a3.93,3.93,0,0,0,2.21-.57c2.05-1.27,4.12-2.51,6.14-3.82a49.39,49.39,0,0,1,8.2-4,7.64,7.64,0,0,1,5.39,0,62,62,0,0,1,9.93,4.14,7.53,7.53,0,0,0,1.41.47c2.13.66,4.26,1.31,6.38,2,.82.26,1.63.59,2.23.81,1.72-.55,3.25-1.13,4.82-1.53a3.79,3.79,0,0,1,4.44,1.48,5.35,5.35,0,0,1,1.32,3.43,1.78,1.78,0,0,1-1,1.75c-.7.4-1.32.84-2.09.5a10.26,10.26,0,0,1-1.63-1.13,18.82,18.82,0,0,0-2,1.39,3,3,0,0,1-3.28.65,1.26,1.26,0,0,0-.4,0v12.3a10.24,10.24,0,0,0,1.11,0,79.46,79.46,0,0,1,14.22.1c2.63.19,5.24.66,7.84,1.1a6.59,6.59,0,0,1,2.14.86c1.4.8,1.63,1.94.8,3.35a6.23,6.23,0,0,1-3.14,2.28,27.11,27.11,0,0,1-11.8,2.45h-.84c-.09.72-.13,1.34-.25,1.95-.05.25-.19.61-.38.69-.7.28-.83.84-1,1.47-.3,1.1-1.33,1.08-2.2,1.29a2.63,2.63,0,0,0-1.09.33,1.63,1.63,0,0,1-1.67.24,6.69,6.69,0,0,1-1.36-.62c-1.18-.69-2.28-1.52-3.5-2.08a17.18,17.18,0,0,0-3.26-.94c-3.5-.83-7-1.67-10.51-2.42-1.42-.3-2.9-.3-4.33-.57s-2.92-.72-4.38-1.08C301.51,172.42,301.19,172.38,300.69,172.29Zm-1.34-25.65c.88.15,1.76.31,2.65.45a11.09,11.09,0,0,1,1.74.29.7.7,0,0,1,.27,1.28,4.64,4.64,0,0,1-2.5,1.29c-1.45.14-2.88.45-4.31.72a2.53,2.53,0,0,1-2.65-.63,29.8,29.8,0,0,0,.5,3.54,3.38,3.38,0,0,0,1.06,1.54,9.47,9.47,0,0,0,8.24,2.27,21.32,21.32,0,0,0,4.1-1,9.4,9.4,0,0,0,5.65-4.66,5.83,5.83,0,0,0-.73-6.5c-1.83-2.36-4.49-3.17-7.33-3.39a15.93,15.93,0,0,0-3.49.33,11.84,11.84,0,0,0-3,.64c-2.73,1.19-3.9,3.6-4.56,6.37a5.2,5.2,0,0,1,4.44-2.52Zm7.77-6.37.07-.16a20.08,20.08,0,0,0-3.2-1,6.69,6.69,0,0,0-3.09.15,40.9,40.9,0,0,0-8.26,3.87c-2.19,1.38-4.41,2.71-6.6,4.09a3.9,3.9,0,0,1-2.21.55c-2,0-3.92-.06-5.88,0-2.13.05-3.94.64-5.17,2.66a17.81,17.81,0,0,0-2.34,6.47,11.75,11.75,0,0,0,1.07,7.16,5.42,5.42,0,0,0,2,2.15,14,14,0,0,0,8.12,1.89c2.5-.16,5-.39,7.49-.57a9,9,0,0,1,1.64,0,32.13,32.13,0,0,1,3.53.45,6.08,6.08,0,0,1,2.39.87,12,12,0,0,0,4.7,2.09c2.17.47,4.32,1.12,6.52,1.43a81.88,81.88,0,0,1,13.49,2.82c1,.31,2,.5,3,.76.74.19,1.43-.57,1.54-1.71.08-.9-.12-1.1-1.18-1.26a9.55,9.55,0,0,1-2-.38c-1.1-.42-2.14-1-3.22-1.46a20.3,20.3,0,0,0-3.41-1.38,90,90,0,0,1-9.53-2.86,5.65,5.65,0,0,1-2.54-1.77,6.46,6.46,0,0,1-1.35-5.9,3.26,3.26,0,0,0-.71-.2,10.84,10.84,0,0,1-5.2-1.48,6.61,6.61,0,0,1-3.12-3.08,10.8,10.8,0,0,1-.5-4.17,9.83,9.83,0,0,1,1.7-5.24,9,9,0,0,1,7.29-4.45C303.85,140.43,305.49,140.37,307.12,140.27Zm-36.36,10.44c-.2,0-.3,0-.36,0a13.47,13.47,0,0,0-5,12.32,27.73,27.73,0,0,0,1,4.24c.85,3.34,3.2,5.18,6.34,6.12,1.21.36,2.49.49,3.74.73a22.89,22.89,0,0,1,8.09,3.12,2.16,2.16,0,0,0,.36.2,2,2,0,0,0,2.18-.31,4.5,4.5,0,0,0,1.71-4.49,9,9,0,0,0-1.34-2.49,2.13,2.13,0,0,0-2.46-.94,18.59,18.59,0,0,1-11.07-1.2,7.77,7.77,0,0,1-4.65-5.65,16.86,16.86,0,0,1,.55-9.43C270.09,152.23,270.43,151.5,270.76,150.71Zm54.72,15c0,.87-.08,1.59-.1,2.3,0,1.75,0,1.72,1.33,2.81a1.35,1.35,0,0,0,1.25.21,21.42,21.42,0,0,1,3.09-.31c.34,0,.7.3,1,.52a5.4,5.4,0,0,0,2.86,1.45,27.18,27.18,0,0,0,12.66-2.19,9.79,9.79,0,0,0,2-1.1c1.22-.87,1.13-1.64-.19-2.28a3.44,3.44,0,0,0-1-.33c-1.84-.29-3.69-.57-5.54-.81a74,74,0,0,0-12.27-.71C328.92,165.37,327.25,165.57,325.48,165.73Zm-8.06-3.44,4-1.47V149.31l-5.1-.28c-.08.44-.14.8-.22,1.15a9,9,0,0,1-3.4,5.58,12.84,12.84,0,0,1-5.41,2.5,21.72,21.72,0,0,0-2.26.51c-.29.08-.71.27-.76.47-.17.77-.57,1.57,0,2.46.59,0,1.22-.12,1.85-.14a30.81,30.81,0,0,1,4-.05,11.33,11.33,0,0,0,5.11-.46,1.38,1.38,0,0,1,1.68.53C317.09,161.78,317.23,162,317.42,162.29Zm-52.65,5.12a64.36,64.36,0,0,0-11.17.59,26.34,26.34,0,0,0-6.61,1.58c-.35.15-.67.37-1.38.78a5,5,0,0,1,.78.35A17.3,17.3,0,0,0,253,173.4a29.43,29.43,0,0,0,7.44.74c2.22,0,4.45.14,6.68.15a19,19,0,0,0,2.35-.26l.13-.3A9.59,9.59,0,0,1,264.77,167.41Zm24.7,13.53c.52,1,1.43,1,2.17,1,2.64.05,5.28.08,7.91-.06a6.1,6.1,0,0,0,4.32-1.75,1.23,1.23,0,0,0-.45-2.16,5.89,5.89,0,0,0-1.19-.28c-2.61-.43-5.15.3-7.71.58-.46.05-.62.4-.83.78a3.18,3.18,0,0,1-3.33,1.85A6.47,6.47,0,0,0,289.47,180.94Zm32.17-17.38c-.55.12-1,.23-1.39.31-1,.19-1.92.75-3,.28a1.27,1.27,0,0,0-1.56.54,1.1,1.1,0,0,1-.75.46c-1.63.09-3.27.12-4.9.15a11.1,11.1,0,0,0-2.7.12,46.85,46.85,0,0,0,5.44,1.9,34.68,34.68,0,0,1,8.46,3,2.78,2.78,0,0,0,.78.19l-.35-4.39c-.86.2-1.62.35-2.36.55s-1.72.59-2.6.8c-.28.06-.81-.07-.91-.27a1,1,0,0,1,.24-.93,2.45,2.45,0,0,1,1.06-.55c1.48-.43,3-.81,4.53-1.22Zm4.21-16,0-.37c-1.3-.49-2.59-1-3.91-1.48-1.89-.63-3.78-1.3-5.72-1.74a4.14,4.14,0,0,1-2.52-1.07c-.05-.06-.24,0-.61,0a8.63,8.63,0,0,1,3,4.57A49,49,0,0,0,325.85,147.53Zm6.79,28.82-.32-.15c-1.37-.62-2.88-1.11-2.47-3.14a.88.88,0,0,0-.4-.66,1.42,1.42,0,0,0-1.92,1.07,5.52,5.52,0,0,1-1.1,3.36c.84.57,1.6,1.11,2.39,1.63a1.19,1.19,0,0,0,1.49,0,4,4,0,0,1,1.38-.35c.3-.05.6-.07.95-.11Zm-9.07-27.3c-.29.31-.51.44-.54.61a8.8,8.8,0,0,0-.15,1.62c.05,3,.13,5.92.21,8.89.07,2.73.15,5.47.24,8.2a8.36,8.36,0,0,0,.22,1.18C324,168.17,324,151.42,323.57,149.05Zm-28,25.24a22.38,22.38,0,0,1-2.33,0c-.83-.09-1-.53-.76-1.32.08-.24.13-.48.23-.86l-2.21.17c-.36,1.72,0,3,1.58,3.75a8.69,8.69,0,0,1,1.31,1l2.37-.57C295.73,175.69,295.68,175.07,295.61,174.29Zm32-28a2,2,0,0,1-.24,2.52c.7.09,1.24.17,1.78.22a.88.88,0,0,0,1.1-.75,3.23,3.23,0,0,1,1.85-2.38c.17-.09.28-.3.43-.47A5.67,5.67,0,0,0,327.63,146.25Zm-38,24.4h2.33c.72,0,1.45,0,2.17,0a4.37,4.37,0,0,0,2.27-.37c-2.58-1.31-5-1.3-7.75-1.15Zm15.25-7.49-.08.44a5.58,5.58,0,0,0,1,.24c1.59,0,3.19.08,4.78.1.82,0,1.64,0,2.45-.07.22,0,.42-.22.73-.4-.25-.19-.38-.38-.51-.38A78.63,78.63,0,0,0,304.86,163.16Zm-15.12,13c-.31.57-.88,1.14-.79,1.56a2.66,2.66,0,0,0,1.19,1.52,1.52,1.52,0,0,0,1.78-.31.77.77,0,0,0-.12-1.27C291.17,177.17,290.49,176.73,289.74,176.18ZM300,148.63a2.1,2.1,0,0,0-2.78.47Zm31.85-.27,1.34.83c-.21-.6-.24-1.05-.49-1.29S332,147.67,331.82,148.36Zm-4.68,2-1.74-1.23C325.52,150.31,325.53,150.32,327.14,150.4Z"/><path d="M297.94,196.61c2.68.25,5.3.41,7.78,1.55a4.59,4.59,0,0,1,1.81,1.57,21.06,21.06,0,0,0,2.15,2.63,7.11,7.11,0,0,1,2,3.91c.37,2,.87,3.91,1.13,5.88a12.27,12.27,0,0,1-.62,6.2,23.46,23.46,0,0,1-6.51,9.31,9,9,0,0,1-6,2.22,28.58,28.58,0,0,1-13-3c-.49-.23-1.15-.25-1.49-.6-1.42-1.45-2.77-3-4.09-4.51a11.65,11.65,0,0,1-2.61-5.47,14.77,14.77,0,0,1,4.49-14,19.54,19.54,0,0,1,9.7-4.94C294.4,196.91,296.19,196.83,297.94,196.61Zm7.79,3.52c-5.44,8.91-12.47,16.61-18.54,25.16a5.84,5.84,0,0,0,.76.5,28.29,28.29,0,0,0,11.48,2.69,7.84,7.84,0,0,0,5.16-1.81,20.41,20.41,0,0,0,5.51-7.22,18,18,0,0,0,1.22-3.6,8.53,8.53,0,0,0-.15-4.31c-.47-1.7-.56-3.51-1-5.23a7,7,0,0,0-1.24-2.51C308,202.57,306.93,201.48,305.73,200.13Zm-1.34-.66c-1.54-.29-2.71-1.17-4.19-1.09a25,25,0,0,1-2.87,0,17.48,17.48,0,0,0-8.47,1.79c-4.73,2.11-7.94,5.54-9,10.72a12.39,12.39,0,0,0-.11,4.46,14.91,14.91,0,0,0,4.71,8.1,12.54,12.54,0,0,0,1.37,1c1.79-2.34,3.51-4.56,5.2-6.8a55.56,55.56,0,0,1,3.43-4.57,86.38,86.38,0,0,0,6.95-9.12C302.44,202.52,303.35,201.06,304.39,199.47Z"/><path d="M376.92,124.4h-4.63c-.54,0-1.22,0-1.21-.75s.72-.68,1.24-.69c2.72,0,5.45,0,8.18,0a3.32,3.32,0,0,1,1.34.16c.3.13.47.54.7.83-.28.18-.57.5-.85.51-1.32,0-2.64,0-3.95-.08h-.82Z"/><path d="M395.59,124.78c1.28.35,2.39.64,3.48,1,1.7.49,3.4,1,5.09,1.52a2.85,2.85,0,0,1,.76.32c.35.23.69.6.39,1a1.12,1.12,0,0,1-.94.28c-1.28-.34-2.52-.79-3.79-1.15-1.66-.48-3.32-1-5-1.35-.53-.12-.95-.31-.82-.82C394.84,125.23,395.32,125,395.59,124.78Z"/><path d="M165.16,170.64c-1.67-.13-3.34-.27-5-.38-.52,0-1.06,0-1.05-.73,0-.53.42-.74,1.24-.71l7.49.22a12.65,12.65,0,0,1,1.63,0c.26,0,.47.33.71.5-.18.24-.31.58-.54.68a3.5,3.5,0,0,1-1.32.27c-1,0-2.09,0-3.14,0Z"/><path d="M332.44,121.07a1.57,1.57,0,0,1-1.63.86c-1.6,0-3.19,0-4.78.09a13.64,13.64,0,0,0-2.55.37c-.55.14-.91,0-1.08-.48a.77.77,0,0,1,.62-1,5.54,5.54,0,0,1,1.22-.19c2.27-.12,4.54-.22,6.82-.33C331.62,120.34,332.17,120.34,332.44,121.07Z"/><path d="M442.06,151.47c-1.31.41-2.29-.34-3.32-.69s-2-.93-3-1.35a16.41,16.41,0,0,0-2-.71c-.5-.15-.84-.41-.74-.95s.59-.69,1.06-.56a14.64,14.64,0,0,1,1.93.66c1.63.68,3.24,1.39,4.87,2.07C441.73,150.31,441.87,150.45,442.06,151.47Z"/><path d="M416.31,136.07a.79.79,0,0,1,.88-.91,1.21,1.21,0,0,1,.48.24c1.61,1.36,3.58,2.08,5.41,3.07a6.71,6.71,0,0,1,1.41,1,.72.72,0,0,1,.12.71,1.75,1.75,0,0,1-.8.32.35.35,0,0,1-.25-.07c-2.19-1.34-4.7-2.12-6.7-3.8A5.59,5.59,0,0,1,416.31,136.07Z"/><path d="M260,123.06c-.22.24-.35.53-.56.61a7.17,7.17,0,0,1-1.7.42,21.81,21.81,0,0,0-5.88,1.09c-.42.16-.84.14-1-.35a.83.83,0,0,1,.51-1.12,7.81,7.81,0,0,1,1.84-.49c1.85-.28,3.7-.51,5.55-.74a1.84,1.84,0,0,1,.81.07C259.74,122.62,259.85,122.85,260,123.06Z"/><path d="M305.05,120.43c-.18.93-.67,1-1.18,1.07-2.5.16-5,.33-7.49.45a1.09,1.09,0,0,1-.85-.46c-.24-.45.15-.77.53-.94a2.67,2.67,0,0,1,.92-.2c2.23-.09,4.46-.19,6.68-.24A5.78,5.78,0,0,1,305.05,120.43Z"/><path d="M282.76,120.52a1.22,1.22,0,0,1-1.2.94l-6.95.49c-.48,0-1,0-1-.6a.81.81,0,0,1,.82-.91c2.59-.15,5.18-.23,7.77-.3C282.35,120.13,282.54,120.37,282.76,120.52Z"/><path d="M182.61,170.16c-1.18,0-2.36,0-3.54,0-.51,0-.94-.1-1-.69s.42-.74.92-.74c2.45,0,4.9,0,7.35,0,.49,0,1.13.07,1.07.74s-.64.66-1.16.66Z"/><path d="M205.36,160.92c.64.69.71,1,.11,1.53a23.64,23.64,0,0,1-2.32,1.64c-.46.29-1,.51-1.43.77s-1.25.56-1.34,1.4a.7.7,0,0,1-.56.44c-.26,0-.65-.32-.66-.51a4.14,4.14,0,0,1,.21-1.43,1.05,1.05,0,0,1,.44-.5Z"/><path d="M212.29,154.72a1.94,1.94,0,0,1,.57-2.18c1.33-1.29,2.76-2.49,4.16-3.71a.85.85,0,0,1,.48-.22c.25,0,.59,0,.72.19a.76.76,0,0,1,0,.72,3.8,3.8,0,0,1-.83.87c-.66.56-1.4,1-2,1.64a17.76,17.76,0,0,0-1.76,2.19C213.31,154.73,213,155.09,212.29,154.72Z"/><path d="M356.44,121.47c-.06.9-.47,1.08-.95,1.09-2.5,0-5,0-7.48,0-.38,0-.74-.09-.77-.58a.67.67,0,0,1,.71-.79c.41,0,.82,0,1.23,0,1.9,0,3.81,0,5.71,0A9.74,9.74,0,0,1,356.44,121.47Z"/><path d="M220.76,142.63a9.89,9.89,0,0,1,1-1.84c1.05-1.24,2.2-2.41,3.31-3.6.09-.09.21-.23.32-.24.33,0,.83-.12,1,0a1.27,1.27,0,0,1,0,1c-.07.22-.4.36-.58.55-1.29,1.38-2.84,2.57-3.4,4.51-.11.4-.43.82-.9.56C221.16,143.45,221,143,220.76,142.63Z"/><path d="M242.88,128.29a4.83,4.83,0,0,1-.93.79c-1,.54-2.14,1-3.2,1.52a13.79,13.79,0,0,0-1.77,1c-.41.28-.84.37-1.07,0a1.43,1.43,0,0,1,.09-1.1,1.5,1.5,0,0,1,.73-.59c1.65-.77,3.29-1.54,5-2.27C242.37,127.31,242.82,127.53,242.88,128.29Z"/><path d="M450.89,156.77c1.71.41,3.43.8,5.14,1.22a1,1,0,0,1,.57.32,1,1,0,0,1,.16.74.76.76,0,0,1-.62.38,17,17,0,0,1-1.86-.36c-1.2-.24-2.39-.49-3.59-.71-.53-.1-1.2,0-1.12-.83S450.36,157,450.89,156.77Z"/><path d="M107,150.45c-.48-1.46-.31-1.64.94-2.22,1.58-.74,3.07-.31,4.58.08a.93.93,0,0,1,.55.68,1.25,1.25,0,0,1-.43.89,2.65,2.65,0,0,1-1.16.33c-1.17.14-2.34.24-3.7.37.66.31,1.46.39,1.37,1.2s-.74,1.18-1.44,1.48a10.24,10.24,0,0,1-4.26.76c-1.18,0-2.36-.17-3.53-.28a3.07,3.07,0,0,1-.8-.16c-.68-.28-.8-1-.17-1.37a17.21,17.21,0,0,1,2.55-1.25A8.77,8.77,0,0,1,107,150.45Zm-4.31,1.89a5.59,5.59,0,0,0,3.85-.4C105,151.52,103.85,152.2,102.67,152.34Z"/><path d="M104,147.28c-1.59.07-3.17.15-4.76.21a3.58,3.58,0,0,1-1.08-.11c-.53-.15-1.17-.4-1.09-1a2,2,0,0,1,.87-1.27,9.94,9.94,0,0,1,2.06-.67c2.15-.68,4.2-.11,6.26.44.56.14,1.11.27,1.18.93s-.45,1.1-1,1.28c-.77.24-1.58.35-2.38.52Z"/><path d="M102.71,155a17.19,17.19,0,0,1,1.76,0c.26,0,.68.26.71.44a1.18,1.18,0,0,1-.31.91,1.64,1.64,0,0,1-1,.44c-1.44.09-2.89.17-4.33.12a1.29,1.29,0,0,1-.9-.83c-.12-.48.32-.84.81-.9,1.08-.13,2.15-.21,3.23-.32Z"/><path d="M112,152.76a1.94,1.94,0,0,1-.4.53,18.36,18.36,0,0,1-2.31,1.42,1.17,1.17,0,0,1-1.08-.15c-.3-.31-.16-.78.26-1,.8-.51,1.6-1.05,2.44-1.48A.73.73,0,0,1,112,152.76Z"/><path d="M308,149.3a6.67,6.67,0,0,0,1.11.46c.56.13,1.09.26,1.15,1a1.22,1.22,0,0,1-.89,1.38,12.15,12.15,0,0,1-3.24.93,45.22,45.22,0,0,1-5.44-.31c-.41,0-.91-.16-.84-.68a1.42,1.42,0,0,1,.63-.94c2-1.06,4.09-2,6.48-1.74a9.93,9.93,0,0,0,1.09,0Zm-3.72,2.14a5,5,0,0,0,3.24-.35A4.51,4.51,0,0,0,304.24,151.44Z"/><path d="M299.39,146.67l-.22-.17c-.42-.32-1-.54-.89-1.23a1.65,1.65,0,0,1,1.24-1.33c2.06-.46,4.1-1.29,6.26-.37a15.71,15.71,0,0,0,1.86.39c.47.14,1,.32,1,1a1.06,1.06,0,0,1-.81,1.13,10.92,10.92,0,0,1-2.36.5c-2,.09-4.09.07-6.13.09Z"/><path d="M308,149.34c-.26-1.29-.19-1.41,1-2a6,6,0,0,1,4.6,0c.85.28.88,1.19.14,1.69a1,1,0,0,1-.5.2c-1.67,0-3.32.71-5,.09a1.17,1.17,0,0,0-.27,0Z"/><path d="M303.91,154.11a17.19,17.19,0,0,1,1.76,0,.93.93,0,0,1,.7.45.9.9,0,0,1-.25.81,2.59,2.59,0,0,1-1.22.52c-1.27.1-2.54.11-3.81.15a2.93,2.93,0,0,1-.41-.07.85.85,0,0,1,0-1.7c1.08-.12,2.17-.18,3.25-.26Z"/><path d="M310,154.12c-.33-.25-.63-.36-.72-.57a.75.75,0,0,1,.11-.72c.93-.64,1.89-1.23,2.88-1.79a.78.78,0,0,1,.69.24c.15.15.23.63.13.7C312.09,152.72,311,153.41,310,154.12Z"/></svg>