<svg xmlns="http://www.w3.org/2000/svg" width="500" height="500" viewBox="0 0 500 500"><path d="M294.49,397.23c1.58.28,1.45,1.53,1.64,2.68h2.13v-1.48a15.46,15.46,0,0,1,.46-4.33,2.78,2.78,0,0,1,4.54-1.1,7.19,7.19,0,0,1,2.13,4.46,55.6,55.6,0,0,1,0,10.24,2.37,2.37,0,0,1-2.7,2.26c-.22,0-.44-.13-.67-.13-.74,0-1.17.4-.92,1.09a4,4,0,0,1-.59,3.64,19.44,19.44,0,0,0-2.84,8.59,8.84,8.84,0,0,1-.31,1.33,5,5,0,0,0,.14,2.89,17.93,17.93,0,0,1,.42,4.59c.05,2.15,0,4.29-.06,6.43a28.63,28.63,0,0,1-1.77,9.9,17.26,17.26,0,0,1-2,4.16c-1.2,1.56-2.5,1.59-3.37-.15a17.26,17.26,0,0,1-1.47-4.23,60.15,60.15,0,0,1-1.21-12.77c0-.54,0-1.07,0-1.68-.79.12-1.42.19-2,.31a15.24,15.24,0,0,1-15.58-7.26,13.89,13.89,0,0,1-2-7.38c.05-1.5,0-3,0-4.51a4.67,4.67,0,0,0-.76-2.84c-1.3-2-2.67-4-3.83-6.14-1.35-2.47-2.56-5-3.7-7.59a7.05,7.05,0,0,1-.22-5,58.91,58.91,0,0,1,4.3-10.59,11.59,11.59,0,0,0,.48-1.68c.73-2.25,1.47-4.49,2.21-6.74l.06-.12a3.48,3.48,0,0,0-.16-3.31,13.35,13.35,0,0,1-1.09-3.49,3.33,3.33,0,0,1,1.41-3.6A6.13,6.13,0,0,0,268,363c1.1-1,2.44-.85,3.76-.76a1.1,1.1,0,0,1,.53.38c.12.13.14.34.25.48.44.56,1.11,1,.68,1.89-.3.58-.68,1.13-1.15,1.88a9.43,9.43,0,0,0,1,1.59c1,1.18,1.69,2.4.74,4.07h12.59c-.07-.9-.11-1.74-.19-2.59a43.11,43.11,0,0,1,0-8.87c.35-3.12.53-6.27.9-9.39a14.68,14.68,0,0,1,.95-3.81c1-2.37,3.11-2.63,4.62-.52a18,18,0,0,1,2,4,26.05,26.05,0,0,1,1.78,10.3v.73c1.3-.13,2.58-.26,3.07,1.29,1.79.34,2.11.7,2.26,2.49,0,.26,0,.63.15.76,1,.9.52,1.88.12,2.76a22,22,0,0,1-1.9,3.29,6,6,0,0,0-.88,2.1c-.74,3.1-1.63,6.16-2.3,9.27-.5,2.27-.7,4.59-1.11,6.88-.24,1.39-.62,2.75-.94,4.12C294.78,395.9,294.66,396.48,294.49,397.23Zm-32.05-6.79c-.35,1-.78,1.94-1,2.94a6.23,6.23,0,0,0,.07,4.05c1.16,2.71,2.46,5.37,3.87,8,1.19,2.19,2.65,4.24,3.94,6.38a4.44,4.44,0,0,1,.7,1.89c.09,1.59,0,3.19,0,4.79a30,30,0,0,0,.08,3,3.9,3.9,0,0,0,1.06,2.6,13.12,13.12,0,0,0,6.5,3.25,14.48,14.48,0,0,0,6.25,0c1.74-.43,3.45-1.09,4.37-2.74a15.76,15.76,0,0,0,1.59-3.9,18.3,18.3,0,0,0,.31-6.52c-.22-2.08-.39-4.17-.43-6.26a13.2,13.2,0,0,1,1-6.14c.31-.65.88-1.18,1.15-1.84a31.16,31.16,0,0,0,1.34-4,55,55,0,0,0,1.42-6.67,73.66,73.66,0,0,1,1.85-9.65c.51-1.93,1-3.87,1.5-5.81a1.19,1.19,0,0,0-.94-1.66,9.48,9.48,0,0,0-1.74-.15,15.21,15.21,0,0,1-2.1,6.47,22.48,22.48,0,0,0-1.38,3.7c-.57,1.86-1,3.76-1.59,5.63-.31,1.05-.72,2.06-1,3.1a6.29,6.29,0,0,1-4.1,4.23,5.92,5.92,0,0,1-3.79.13,3.21,3.21,0,0,0-.23.85,9.82,9.82,0,0,1-1.33,4.95,6,6,0,0,1-3.32,3.24,11.91,11.91,0,0,1-3.09.53A11.08,11.08,0,0,1,267,403a8.06,8.06,0,0,1-3.82-5A20.63,20.63,0,0,1,262.44,390.44Zm10.63,36.9a9,9,0,0,0,3.25,3.29A17.19,17.19,0,0,0,281,432.4a8.31,8.31,0,0,0,5,0c.12-.05.27,0,.4-.06,1.57-.41,3.17-.76,4.71-1.29a5.73,5.73,0,0,0,2.36-1.76,13,13,0,0,0,2.8-6.82,20.74,20.74,0,0,1,2-6.65c.5-.91.95-1.86,1.46-2.76a1.58,1.58,0,0,0-.09-1.8,4.53,4.53,0,0,0-5.63-1.77c-2.38,1-2.78,2.06-2.35,4.62a17.13,17.13,0,0,1-.8,8.72,13.87,13.87,0,0,1-1.56,3,6.86,6.86,0,0,1-4.24,2.74,16.21,16.21,0,0,1-9.79-.44Zm17.06-79.91a5.14,5.14,0,0,0-1.43,3.36c-.23,1.67-.36,3.35-.61,5a75.59,75.59,0,0,0-.45,14.58,19.72,19.72,0,0,0,.33,2.17,20,20,0,0,0,3.82-.07c.56-.12,1-1,1.45-1.54a.63.63,0,0,0,.1-.25,20.21,20.21,0,0,1-.43-3.62,2.12,2.12,0,0,1,.53-1.16,5.17,5.17,0,0,0,1.38-2.79,24.89,24.89,0,0,0-.07-5,26,26,0,0,0-2.8-9.2A2.57,2.57,0,0,0,290.13,347.43Zm-18.46,55.72c-.37-.25-.57-.38-.77-.53a4.52,4.52,0,0,1-2-4.51c.11-.85.23-1.7.36-2.56a4.81,4.81,0,0,1,.2-1.07c.1-.27.31-.66.52-.69a1.28,1.28,0,0,1,.91.36,4.52,4.52,0,0,1,1.3,2.93,10.84,10.84,0,0,0,.18,1.63,9.16,9.16,0,0,1,.28,4.61,17.29,17.29,0,0,0,2.43-.2,3.94,3.94,0,0,0,1.82-.85,9.42,9.42,0,0,0,2.66-8.37,22.35,22.35,0,0,0-.88-3.87c-.82-2.52-2.07-4.75-4.57-6a6.17,6.17,0,0,0-6.69.51,9.74,9.74,0,0,0-3.39,7.05c-.12,1.24.25,2.52.24,3.78C264.28,399.53,267.4,402.37,271.67,403.15Zm-.51-21.64c.29.12.41.18.54.22.31.07.63.11.94.19a9.47,9.47,0,0,1,5.78,4,19.16,19.16,0,0,1,2.52,6.85c.16.78.48,1.12,1.22,1.14.52,0,1,0,1.55,0,0-3.25,0-6.3,0-9.35a3.79,3.79,0,0,0-.26-1.18c-.52-1.63-.42-1.95,1-2.85-.48-1.34-1-2.7-1.46-4H271.43C271.34,378.22,271.25,379.84,271.16,381.51Zm21.4,70.75a3.82,3.82,0,0,1,.34-.7,14,14,0,0,0,2.35-5.46,28.77,28.77,0,0,0,1.12-8.48c0-1.95.12-3.91.18-5.86a7,7,0,0,0-.44-3.34,23.42,23.42,0,0,1-2.81,3,25.67,25.67,0,0,1-3.71,2,63.36,63.36,0,0,0,1.35,15.16A7.8,7.8,0,0,0,292.56,452.26Zm10.66-43.83c.21-.2.53-.37.59-.6a8.79,8.79,0,0,0,.36-2.15c0-2.09,0-4.19-.09-6.28a18.29,18.29,0,0,0-.31-2.44,4.89,4.89,0,0,0-1.64-2.92,1.16,1.16,0,0,0-1.86.28,3.13,3.13,0,0,0-.33,1c-.57,2.71.06,5.34.53,8a1.44,1.44,0,0,0,.66.92C302.77,405.11,303.28,406.48,303.22,408.43Zm-17.44-31.94c.16.68.3,1.29.45,1.9a3.25,3.25,0,0,1,.09,2.26,1.35,1.35,0,0,0,.48,1.59c.41.3.44.69.54,1.15a26.78,26.78,0,0,1,.15,6.13,7.65,7.65,0,0,0,.09.94,41.75,41.75,0,0,0,2.42-7.17,41.25,41.25,0,0,1,2.64-7.1H288.1c.49,1.71.9,3.28,1.41,4.82.15.46.43.81-.09,1.17s-.93.13-1.23-.45a7.94,7.94,0,0,1-.6-1.65c-.28-1.06-.55-2.12-.74-3.19C286.74,376.3,286.45,376.26,285.78,376.49Zm-20.61,7.89a31.72,31.72,0,0,1,3.44-2.09,1.65,1.65,0,0,0,1.17-1.61q.06-3.75,0-7.5a5,5,0,0,0-.24-1.07c-.23.18-.39.25-.43.35-.85,2.35-1.7,4.69-2.52,7C266,381.17,266.16,383.05,265.17,384.38Zm36-16.1c-1.31-.76-.8-2.08-1.18-3.09l-1.36.06c-.35.67-.61,1.25-1,1.78a2,2,0,0,1-2.25,1.14c-.3-.07-.68.22-1,.35.13.52.23.87.3,1.22a.77.77,0,0,0,.87.7,5.3,5.3,0,0,1,3.47,1.11C299.73,370.47,300.4,369.46,301.18,368.28Zm-30,6.11c.43.31.6.53.81.57a8.79,8.79,0,0,0,1.36.07l11.48-.2c1.91,0,3.82-.06,5.74-.11.35,0,.84.11,1-.47C290.21,373.84,274.08,373.91,271.14,374.39Zm25.45,28.09v1.38c0,1.73-.43,2-2.07,1.33-.06,0-.15,0-.29.06.09.77-.18,1.61.32,2.3,1.24.16,2.3.15,3.12-.92,1.53-2,1.55-2,1-4.45Zm-28.86-37.07-.34.09c-.43,1.72.28,3.24.87,4.9,1-.52,1.85-.69,2.57.22a2.12,2.12,0,0,0,.23-.47c0-.36.07-.72.08-1.09,0-1.07,0-1.09-1-1.42a3.13,3.13,0,0,1-1.88-1.46C268.09,365.91,267.9,365.67,267.73,365.41Zm25.08,42.88c0-1.22,0-2.21,0-3.2a13.19,13.19,0,0,0-.13-3.12c-1.24,1-1.87,5.22-1.15,7.28Zm7.06.88c.83-.53,1.78-.79,1.71-2a1.46,1.46,0,0,0-1.34-1.49l-1.87,2.42Zm-14-25.09c-.33.37-.56.51-.56.65,0,2.66,0,5.33,0,8a1.82,1.82,0,0,0,.17.53h.29c.05-.37.13-.74.15-1.11.08-1.76.17-3.52.19-5.29C286.15,386,286,385.19,285.87,384.08Zm-14.51-11.59c1.05.06,1.29-.28,1.26-1.76Zm-.54,25.35c-.51,1.49-.44,1.94.36,2.66Zm.31-32.73-.13-.22c-.29.12-.67.15-.84.36a.56.56,0,0,0,.26.91Z"/><path d="M293.55,196.14c1.77.16,1.5,1.54,1.75,2.76l1.82-.12c.2-1.89.38-3.61.57-5.31a2.74,2.74,0,0,1,4.91-1.37,6.73,6.73,0,0,1,1.88,4.3c.16,3.26.53,6.53,0,9.8-.34,2.29-1.49,3.08-3.68,2.42l-.72.54c0,.12-.07.23,0,.29a3.4,3.4,0,0,1-.32,3.74,21.2,21.2,0,0,0-3.08,9.24,6,6,0,0,1-.2.94,4.27,4.27,0,0,0,.08,2.73,16.24,16.24,0,0,1,.55,4.58c0,1.95-.19,3.91-.17,5.87A30.45,30.45,0,0,1,294.88,248a13.28,13.28,0,0,1-1.82,3.48,1.74,1.74,0,0,1-3.11-.13,16.33,16.33,0,0,1-1.82-5.83,51.81,51.81,0,0,1-.85-8.7c0-1.4-.19-2.8-.3-4.31a9.75,9.75,0,0,0-1.77.21,9.42,9.42,0,0,1-5,0,17.18,17.18,0,0,1-5.72-2.09,15.9,15.9,0,0,1-6.12-7.49,11.66,11.66,0,0,1-.81-4.39c0-1.78,0-3.56,0-5.34a3.88,3.88,0,0,0-.58-2.21c-1.26-2-2.5-4.12-3.82-6.13a49.43,49.43,0,0,1-4-8.21,7.61,7.61,0,0,1,0-5.38,61.69,61.69,0,0,1,4.14-9.94,7.53,7.53,0,0,0,.47-1.41c.66-2.13,1.31-4.26,2-6.38.26-.82.59-1.62.81-2.23-.55-1.72-1.13-3.25-1.53-4.82a3.77,3.77,0,0,1,1.48-4.43,5.3,5.3,0,0,1,3.43-1.32,1.77,1.77,0,0,1,1.75,1c.4.7.84,1.32.5,2.09a10.26,10.26,0,0,1-1.13,1.63,20,20,0,0,0,1.39,2,2.92,2.92,0,0,1,.64,3.27,1.76,1.76,0,0,0,0,.41h12.3c0-.43,0-.78,0-1.12a79.34,79.34,0,0,1,.1-14.21c.19-2.63.66-5.24,1.1-7.85a6.68,6.68,0,0,1,.86-2.14c.8-1.4,1.94-1.63,3.34-.8a6.23,6.23,0,0,1,2.29,3.14,27.16,27.16,0,0,1,2.45,11.81v.84c.72.08,1.34.13,1.95.24.25,0,.61.19.69.39.28.69.84.82,1.47,1,1.09.3,1.08,1.34,1.29,2.21a2.84,2.84,0,0,0,.32,1.09,1.6,1.6,0,0,1,.25,1.67,6.44,6.44,0,0,1-.63,1.36c-.68,1.17-1.51,2.27-2.07,3.5a17.74,17.74,0,0,0-.95,3.26c-.82,3.5-1.66,7-2.41,10.51-.3,1.42-.3,2.9-.57,4.33s-.72,2.91-1.08,4.37C293.68,195.32,293.64,195.63,293.55,196.14Zm-25.65,1.34c.15-.89.31-1.77.45-2.66a11.09,11.09,0,0,1,.29-1.74.71.71,0,0,1,1.28-.27,4.59,4.59,0,0,1,1.28,2.5c.15,1.45.45,2.89.73,4.32a2.52,2.52,0,0,1-.63,2.64,29.8,29.8,0,0,0,3.54-.5,3.43,3.43,0,0,0,1.54-1.05,9.51,9.51,0,0,0,2.27-8.24,22,22,0,0,0-1-4.11,9.33,9.33,0,0,0-4.65-5.64,5.85,5.85,0,0,0-6.5.72c-2.36,1.83-3.17,4.5-3.4,7.33a16,16,0,0,0,.34,3.49,12.17,12.17,0,0,0,.63,3c1.2,2.73,3.6,3.9,6.38,4.56a5.2,5.2,0,0,1-2.52-4.43Zm-6.37-7.77-.16-.07a18.55,18.55,0,0,0-1,3.2,6.57,6.57,0,0,0,.15,3.09,40.82,40.82,0,0,0,3.87,8.25c1.38,2.19,2.71,4.41,4.08,6.6A3.83,3.83,0,0,1,269,213c0,2-.06,3.93,0,5.89.06,2.13.64,3.93,2.66,5.17a17.9,17.9,0,0,0,6.48,2.33,11.68,11.68,0,0,0,7.16-1.07,5.42,5.42,0,0,0,2.15-2,14,14,0,0,0,1.89-8.12c-.16-2.5-.39-5-.58-7.49a10,10,0,0,1,0-1.64,34.57,34.57,0,0,1,.46-3.52,6.12,6.12,0,0,1,.87-2.4,12.17,12.17,0,0,0,2.09-4.69c.47-2.18,1.12-4.33,1.43-6.52a82.46,82.46,0,0,1,2.81-13.49c.32-1,.51-2,.77-3,.19-.73-.58-1.43-1.71-1.53-.9-.09-1.1.11-1.26,1.17a9.55,9.55,0,0,1-.38,2c-.42,1.1-1,2.14-1.46,3.23a20.76,20.76,0,0,0-1.39,3.4,87.91,87.91,0,0,1-2.86,9.54,5.47,5.47,0,0,1-1.76,2.53,6.46,6.46,0,0,1-5.9,1.35,3.26,3.26,0,0,0-.2.71,10.88,10.88,0,0,1-1.48,5.21,6.63,6.63,0,0,1-3.08,3.11,10.43,10.43,0,0,1-4.17.5,9.72,9.72,0,0,1-5.24-1.7,9,9,0,0,1-4.45-7.29C261.69,193,261.63,191.34,261.53,189.71ZM272,226.06c0,.2,0,.31,0,.36a13.45,13.45,0,0,0,12.32,5,27.69,27.69,0,0,0,4.24-1c3.34-.86,5.18-3.2,6.12-6.35.36-1.21.49-2.49.73-3.74a23,23,0,0,1,3.12-8.09,2.47,2.47,0,0,0,.19-.36,2,2,0,0,0-.31-2.18A4.45,4.45,0,0,0,294,208a8.71,8.71,0,0,0-2.49,1.33,2.13,2.13,0,0,0-.94,2.46,18.59,18.59,0,0,1-1.2,11.07,7.77,7.77,0,0,1-5.65,4.65,16.68,16.68,0,0,1-9.43-.55C273.48,226.73,272.76,226.39,272,226.06Zm15-54.71c.88,0,1.59.08,2.31.09,1.75,0,1.72,0,2.81-1.33a1.34,1.34,0,0,0,.21-1.24,21.56,21.56,0,0,1-.31-3.1,2,2,0,0,1,.52-1A5.33,5.33,0,0,0,294,161.9a27.18,27.18,0,0,0-2.19-12.66,10.28,10.28,0,0,0-1.1-2c-.87-1.21-1.65-1.13-2.28.19a3.54,3.54,0,0,0-.33,1c-.29,1.85-.58,3.69-.81,5.54a74.11,74.11,0,0,0-.71,12.27C286.62,167.91,286.83,169.57,287,171.35Zm-3.43,8.05c-.51-1.38-1-2.73-1.47-4H270.57c-.1,1.75-.19,3.42-.28,5.1.44.09.8.14,1.15.23a9,9,0,0,1,5.58,3.4,12.81,12.81,0,0,1,2.5,5.4,19.59,19.59,0,0,0,.51,2.27c.08.28.27.7.47.75.77.17,1.57.58,2.45,0,0-.6-.11-1.23-.13-1.86a30.68,30.68,0,0,1-.05-3.95,11.31,11.31,0,0,0-.46-5.11,1.38,1.38,0,0,1,.52-1.68C283,179.73,283.27,179.6,283.55,179.4Zm5.12,52.66a63.44,63.44,0,0,0,.59,11.17,26.55,26.55,0,0,0,1.58,6.61c.15.35.37.66.78,1.37a5.62,5.62,0,0,1,.34-.77,17,17,0,0,0,2.69-6.64,28.91,28.91,0,0,0,.75-7.43c0-2.23.13-4.46.15-6.68a18.56,18.56,0,0,0-.26-2.35l-.3-.14A9.62,9.62,0,0,1,288.67,232.06Zm13.52-24.71c1-.52,1-1.42,1-2.17.05-2.63.08-5.28-.06-7.91a6.08,6.08,0,0,0-1.75-4.31,1.23,1.23,0,0,0-2.16.44,5.29,5.29,0,0,0-.28,1.19c-.43,2.62.3,5.15.58,7.72.05.45.39.61.77.82a3.19,3.19,0,0,1,1.86,3.33A8.14,8.14,0,0,0,302.19,207.35Zm-17.37-32.17c.12.55.23,1,.31,1.39.19,1,.75,1.92.28,3a1.26,1.26,0,0,0,.54,1.56,1.1,1.1,0,0,1,.46.75c.09,1.64.12,3.27.15,4.91a10.56,10.56,0,0,0,.12,2.69,44.39,44.39,0,0,0,1.89-5.44,34.85,34.85,0,0,1,3-8.46,2.78,2.78,0,0,0,.19-.78l-4.4.36c.21.86.35,1.61.56,2.35s.59,1.72.79,2.6a1,1,0,0,1-.26.91,1.06,1.06,0,0,1-.93-.23,2.54,2.54,0,0,1-.55-1.07c-.43-1.48-.81-3-1.22-4.53Zm-16-4.21-.37,0c-.5,1.3-1,2.59-1.48,3.91-.63,1.89-1.3,3.78-1.74,5.72a4.14,4.14,0,0,1-1.07,2.52c-.06,0,0,.25,0,.62a8.57,8.57,0,0,1,4.57-3A49.09,49.09,0,0,0,268.79,171Zm28.82-6.79-.15.33c-.62,1.36-1.11,2.87-3.15,2.47a.83.83,0,0,0-.65.39,1.41,1.41,0,0,0,1.07,1.92,5.66,5.66,0,0,1,3.36,1.1c.57-.83,1.11-1.6,1.63-2.38a1.2,1.2,0,0,0,0-1.5,3.79,3.79,0,0,1-.35-1.38c-.06-.29-.07-.6-.11-.95Zm-27.31,9.07c.32.29.45.51.61.54a9,9,0,0,0,1.63.16l8.89-.21,8.2-.25a8.36,8.36,0,0,0,1.18-.22C289.43,172.79,272.67,172.81,270.3,173.25Zm25.25,28c0,.88.06,1.62,0,2.33s-.53,1-1.32.77c-.24-.08-.49-.14-.86-.24l.17,2.21c1.72.37,3-.05,3.75-1.58a9.84,9.84,0,0,1,1-1.31c-.2-.81-.38-1.58-.57-2.36Zm-28-32a2,2,0,0,1,2.52.24c.09-.7.17-1.23.22-1.77s-.15-1-.76-1.1a3.2,3.2,0,0,1-2.37-1.86c-.09-.17-.3-.28-.47-.43A5.67,5.67,0,0,0,267.51,169.19Zm24.4,38v-2.33c0-.73,0-1.45,0-2.18a4.29,4.29,0,0,0-.38-2.27c-1.3,2.58-1.29,5-1.14,7.76ZM284.42,192l.44.08a5.4,5.4,0,0,0,.24-1c0-1.59.08-3.18.09-4.78,0-.81,0-1.63-.06-2.45,0-.22-.23-.42-.4-.72-.19.24-.38.37-.38.51A78.44,78.44,0,0,0,284.42,192Zm13,15.13c.57.3,1.13.87,1.56.78a2.66,2.66,0,0,0,1.52-1.19,1.52,1.52,0,0,0-.31-1.77.76.76,0,0,0-1.27.11C298.43,205.65,298,206.33,297.44,207.09Zm-27.55-10.24a2.1,2.1,0,0,0,.47,2.79C270.18,198.58,270,197.72,269.89,196.85ZM269.62,165l.83-1.34c-.6.2-1.06.24-1.29.49S268.93,164.86,269.62,165Zm2,4.67-1.23,1.74C271.57,171.31,271.58,171.3,271.66,169.68Z"/><path d="M317.86,198.88c.26-2.68.42-5.3,1.56-7.77a4.62,4.62,0,0,1,1.57-1.82,21,21,0,0,0,2.63-2.14,7.06,7.06,0,0,1,3.91-2.05c2-.37,3.91-.87,5.88-1.13a12.22,12.22,0,0,1,6.19.63,23.42,23.42,0,0,1,9.32,6.51,9,9,0,0,1,2.22,6,28.78,28.78,0,0,1-3,13.05c-.24.48-.25,1.14-.6,1.49-1.45,1.41-3,2.76-4.51,4.09a11.63,11.63,0,0,1-5.47,2.6,14.77,14.77,0,0,1-14-4.48,19.62,19.62,0,0,1-4.94-9.71C318.17,202.42,318.08,200.63,317.86,198.88Zm3.53-7.78c8.9,5.43,16.61,12.47,25.15,18.53a4.21,4.21,0,0,0,.51-.76,28.2,28.2,0,0,0,2.69-11.47,7.93,7.93,0,0,0-1.81-5.16,20.41,20.41,0,0,0-7.22-5.52,17.94,17.94,0,0,0-3.6-1.21,8.42,8.42,0,0,0-4.31.15c-1.7.47-3.51.56-5.23,1a7.15,7.15,0,0,0-2.52,1.24C323.83,188.81,322.74,189.9,321.39,191.1Zm-.66,1.33c-.29,1.55-1.17,2.71-1.09,4.19a25,25,0,0,1,0,2.87,17.57,17.57,0,0,0,1.78,8.47c2.12,4.74,5.55,7.95,10.72,9a12.45,12.45,0,0,0,4.47.1,14.88,14.88,0,0,0,8.1-4.71,13.37,13.37,0,0,0,1-1.36c-2.35-1.8-4.56-3.52-6.8-5.21a55.45,55.45,0,0,1-4.57-3.42,82.92,82.92,0,0,0-9.13-7C323.78,194.39,322.32,193.48,320.73,192.43Z"/><path d="M245.66,119.9V124c0,.18,0,.36,0,.55,0,.54,0,1.21-.75,1.2s-.68-.71-.69-1.24c0-2.72,0-5.45,0-8.17a3.48,3.48,0,0,1,.15-1.34c.13-.3.55-.48.84-.71.18.29.5.57.51.86,0,1.31-.05,2.63-.08,4v.81Z"/><path d="M246,101.23c.35-1.28.64-2.38,1-3.47.49-1.71,1-3.4,1.52-5.1a2.78,2.78,0,0,1,.32-.75c.23-.36.6-.7,1-.39a1.12,1.12,0,0,1,.28.94c-.34,1.27-.79,2.52-1.15,3.78-.48,1.66-1,3.32-1.35,5-.12.54-.31,1-.82.82C246.49,102,246.27,101.5,246,101.23Z"/><path d="M291.9,331.66c-.13,1.67-.27,3.34-.38,5,0,.52,0,1.06-.73,1.05-.53,0-.74-.43-.72-1.24.08-2.5.16-5,.22-7.5a14.78,14.78,0,0,1,0-1.63c0-.25.33-.47.5-.7.24.17.58.3.68.54a3.88,3.88,0,0,1,.27,1.31c0,1.05,0,2.09,0,3.14Z"/><path d="M242.33,164.38a1.57,1.57,0,0,1,.86,1.64c0,1.59,0,3.19.09,4.78a13.65,13.65,0,0,0,.37,2.54c.14.56,0,.92-.48,1.08a.77.77,0,0,1-1-.62,5,5,0,0,1-.19-1.21q-.18-3.42-.33-6.82C241.59,165.21,241.6,164.65,242.33,164.38Z"/><path d="M272.72,54.76c.42,1.31-.33,2.29-.69,3.32s-.92,2-1.34,3a16,16,0,0,0-.71,2.05c-.15.5-.41.84-1,.73s-.69-.59-.56-1.06a14,14,0,0,1,.66-1.92c.68-1.63,1.39-3.25,2.07-4.88C271.57,55.09,271.71,55,272.72,54.76Z"/><path d="M257.33,80.51a.79.79,0,0,1-.91-.87,1.25,1.25,0,0,1,.24-.49,29.41,29.41,0,0,0,3.06-5.41,7.43,7.43,0,0,1,1-1.4.78.78,0,0,1,.72-.13,1.75,1.75,0,0,1,.32.8.38.38,0,0,1-.07.26c-1.34,2.19-2.12,4.69-3.8,6.69A5.51,5.51,0,0,1,257.33,80.51Z"/><path d="M244.32,236.79c.24.22.53.35.6.56a6.85,6.85,0,0,1,.43,1.7,21.81,21.81,0,0,0,1.09,5.88c.15.42.14.84-.35,1a.84.84,0,0,1-1.12-.52,7.69,7.69,0,0,1-.49-1.84c-.28-1.84-.51-3.7-.74-5.55a1.79,1.79,0,0,1,.07-.8C243.88,237.08,244.11,237,244.32,236.79Z"/><path d="M241.69,191.77a1.11,1.11,0,0,1,1.07,1.19c.16,2.49.33,5,.44,7.48a1.09,1.09,0,0,1-.45.86c-.45.23-.77-.15-.94-.54a2.62,2.62,0,0,1-.2-.92c-.1-2.23-.19-4.45-.24-6.68A5.78,5.78,0,0,1,241.69,191.77Z"/><path d="M241.78,214.06a1.22,1.22,0,0,1,.94,1.2c.15,2.32.33,4.63.49,7,0,.48,0,1-.6,1a.81.81,0,0,1-.91-.81c-.15-2.59-.23-5.19-.3-7.78C241.39,214.47,241.63,214.29,241.78,214.06Z"/><path d="M291.42,314.21c0,1.18,0,2.36,0,3.54,0,.52-.11.94-.69,1s-.74-.42-.74-.92c0-2.45,0-4.9,0-7.35,0-.48.07-1.13.74-1.07s.66.65.66,1.17Z"/><path d="M282.18,291.47c.69-.65,1-.72,1.53-.11a22.51,22.51,0,0,1,1.64,2.32c.29.45.5.95.77,1.43s.56,1.24,1.4,1.33a.72.72,0,0,1,.44.56c0,.26-.32.65-.52.67a4.66,4.66,0,0,1-1.42-.21,1,1,0,0,1-.5-.45C284.4,295.17,283.29,293.31,282.18,291.47Z"/><path d="M276,284.54a1.94,1.94,0,0,1-2.18-.58c-1.29-1.33-2.49-2.75-3.71-4.15a.87.87,0,0,1-.22-.49,1.08,1.08,0,0,1,.18-.72.76.76,0,0,1,.73,0,4,4,0,0,1,.87.82c.56.66,1,1.4,1.64,2a16.23,16.23,0,0,0,2.19,1.76C276,283.51,276.34,283.83,276,284.54Z"/><path d="M242.73,140.38c.9.07,1.08.47,1.08,1q0,3.74,0,7.48c0,.37-.09.73-.58.77a.68.68,0,0,1-.79-.72c0-.41,0-.82,0-1.22,0-1.91,0-3.81,0-5.72A10,10,0,0,1,242.73,140.38Z"/><path d="M263.89,276.06a9.32,9.32,0,0,1-1.84-1c-1.24-1.05-2.41-2.2-3.6-3.31-.1-.09-.23-.2-.24-.32,0-.33-.12-.83,0-1a1.32,1.32,0,0,1,1,0c.22.07.35.39.55.57,1.38,1.3,2.57,2.84,4.51,3.4.4.12.82.43.56.9C264.71,275.67,264.28,275.8,263.89,276.06Z"/><path d="M249.55,254a4.74,4.74,0,0,1,.79.92c.54,1,1,2.14,1.52,3.2a13.39,13.39,0,0,0,1,1.78c.28.4.37.83,0,1.06a1.39,1.39,0,0,1-1.1-.09,1.45,1.45,0,0,1-.59-.73c-.77-1.64-1.55-3.29-2.27-5C248.57,254.45,248.79,254,249.55,254Z"/><path d="M278,45.93c.4-1.71.8-3.42,1.22-5.13a1,1,0,0,1,.32-.58,1,1,0,0,1,.74-.16.77.77,0,0,1,.38.62,17,17,0,0,1-.36,1.86c-.24,1.2-.49,2.39-.71,3.59-.1.53,0,1.2-.83,1.12S278.24,46.46,278,45.93Z"/><path d="M271.71,389.84c-1.46.48-1.64.32-2.23-.94-.73-1.57-.3-3.07.08-4.58a.91.91,0,0,1,.69-.54,1.17,1.17,0,0,1,.89.43,2.61,2.61,0,0,1,.33,1.16c.14,1.16.24,2.33.37,3.7.31-.66.39-1.47,1.2-1.37s1.18.73,1.48,1.43a10.6,10.6,0,0,1,.76,4.26c0,1.18-.17,2.36-.28,3.54a2.92,2.92,0,0,1-.16.79c-.29.68-1,.8-1.37.17a16.74,16.74,0,0,1-1.25-2.55A8.77,8.77,0,0,1,271.71,389.84Zm1.88,4.32a5.55,5.55,0,0,0-.39-3.86C272.78,391.82,273.46,393,273.59,394.16Z"/><path d="M268.54,392.8c.07,1.58.15,3.17.21,4.75a3.89,3.89,0,0,1-.11,1.08c-.15.53-.4,1.18-1,1.09a2,2,0,0,1-1.28-.87,10.55,10.55,0,0,1-.66-2.06c-.68-2.14-.11-4.2.44-6.26.14-.55.27-1.11.93-1.18a1.23,1.23,0,0,1,1.28,1c.24.77.35,1.58.52,2.38Z"/><path d="M276.27,394.11a17.19,17.19,0,0,1,0-1.76c0-.26.26-.68.44-.71a1.19,1.19,0,0,1,.91.32,1.61,1.61,0,0,1,.44,1c.09,1.44.16,2.89.12,4.34a1.33,1.33,0,0,1-.83.9c-.48.12-.84-.33-.9-.82-.14-1.07-.22-2.15-.32-3.23Z"/><path d="M274,384.81a2,2,0,0,1,.53.41,19.61,19.61,0,0,1,1.42,2.31,1.15,1.15,0,0,1-.15,1.07.67.67,0,0,1-1-.25c-.51-.81-1-1.6-1.48-2.45A.73.73,0,0,1,274,384.81Z"/><path d="M270.56,188.86a7.2,7.2,0,0,0,.46-1.11c.13-.56.26-1.08,1-1.15a1.22,1.22,0,0,1,1.37.89,12.18,12.18,0,0,1,.94,3.24,49.6,49.6,0,0,1-.31,5.44c0,.42-.16.91-.68.84a1.41,1.41,0,0,1-.94-.62c-1.06-2-2-4.09-1.74-6.48a9.91,9.91,0,0,0,0-1.09Zm2.14,3.72a5,5,0,0,0-.36-3.24A4.56,4.56,0,0,0,272.7,192.58Z"/><path d="M267.93,197.44l-.17.21c-.32.43-.54,1-1.23.89a1.65,1.65,0,0,1-1.33-1.24c-.47-2.05-1.29-4.1-.37-6.26a18,18,0,0,0,.39-1.86c.14-.47.32-1,1-1a1.05,1.05,0,0,1,1.13.8,11.5,11.5,0,0,1,.5,2.37c.09,2,.07,4.08.09,6.12Z"/><path d="M270.6,188.82c-1.29.25-1.41.18-2-1a6,6,0,0,1,0-4.6c.28-.84,1.19-.88,1.69-.13a1,1,0,0,1,.2.5c0,1.66.71,3.31.09,5a1.26,1.26,0,0,0,0,.27Z"/><path d="M275.37,192.91a14.77,14.77,0,0,1,0-1.76,1,1,0,0,1,.45-.7.88.88,0,0,1,.81.26,2.55,2.55,0,0,1,.52,1.22c.1,1.26.11,2.54.15,3.81a2.79,2.79,0,0,1-.07.4.82.82,0,0,1-.77.82.84.84,0,0,1-.94-.79c-.11-1.08-.17-2.17-.25-3.25Z"/><path d="M275.38,186.82c-.25.33-.36.64-.57.73a.8.8,0,0,1-.72-.11c-.64-.94-1.24-1.9-1.79-2.88a.82.82,0,0,1,.23-.7c.16-.14.64-.22.71-.13C274,184.74,274.67,185.78,275.38,186.82Z"/></svg>