<svg xmlns="http://www.w3.org/2000/svg" width="500" height="500" viewBox="0 0 500 500"><path d="M351.09,280a10.56,10.56,0,0,1-5.74,5.18,5.44,5.44,0,0,1-1,.32c-1.88.33-2.48-.28-2.1-2.17a8.76,8.76,0,0,1,.5-1.75,17.88,17.88,0,0,1,1-1.77,15.71,15.71,0,0,0-1.68-.1c-4.48.2-9,.49-13.44.63a146.35,146.35,0,0,1-16.88-.59,135.52,135.52,0,0,0-20.35-.22c-3.68.25-7.38.31-11.08.47-4.35.18-8.71.36-13.07.58-7.72.4-15.4.29-22.94-1.64-2.57-.65-5.13-1.41-7.64-2.29-3.72-1.31-6-4.55-6.58-8.65-.18-1.26-.24-2.53-.41-3.79-.93-6.9-1.86-13.81-1.43-20.81.12-2.11.39-4.21.57-6.32.28-3.08.45-6.17.82-9.23A46.32,46.32,0,0,1,233,215.11a8.87,8.87,0,0,1,5.09-4.66c3.33-1.38,6.89-1.81,10.41-2.42a123.21,123.21,0,0,1,19.18-1.54c2.66,0,5.33-.17,8-.41,6.49-.58,13,0,19.43.28,4.67.15,9.34.12,14,.09q14-.1,28-.32c2,0,4.06-.22,6.14-.34A31.39,31.39,0,0,1,342,202.7a5.25,5.25,0,0,1-.09-2.13c.2-1.36.74-1.77,2-1.24a11.33,11.33,0,0,1,4.76,3.23,16.26,16.26,0,0,1,1.55,2.24,1.87,1.87,0,0,0,2.07,1.06c2.54-.2,5.08-.5,7.61-.51,7.4,0,14.79,0,22.18.19a34.52,34.52,0,0,1,14,3.67,12.64,12.64,0,0,1,4.33,3.24c.5.61,1.1,1.13,1.65,1.7a14,14,0,0,1,3,4.48,29.53,29.53,0,0,0,1.87,3.73,18.68,18.68,0,0,1,2.55,8.95c.13,5.27.38,10.54.45,15.8a31,31,0,0,1-.54,6.31,64.7,64.7,0,0,1-2.39,9.12,31,31,0,0,1-7.06,11.32,13.4,13.4,0,0,1-5.5,3.37,66.61,66.61,0,0,1-21.66,3.07c-6.48-.05-13-.2-19.45-.29C352.51,280,351.79,280,351.09,280ZM237.53,221.08l-1.36,1.23c-1.27,1.12-2.47,2.32-3.83,3.31a2.79,2.79,0,0,0-1.31,2.21c-.2,3-.46,5.91-.72,8.86-.21,2.41-.53,4.81-.67,7.22a80.13,80.13,0,0,0,.59,13.22c.2,1.81.47,3.24,2.15,4.2.6.35,1,1.06,1.49,1.58.29.3.64.56,1.26,1.08a28,28,0,0,1-1.35-2.65,31.09,31.09,0,0,1-2.08-11.9c.14-4.23.4-8.46.91-12.66a39.59,39.59,0,0,1,2.59-10.35c.69-1.66,1.43-3.3,2.08-5L238.4,220c3.88-3.51,8.6-5.05,13.66-5.7,2.88-.38,5.78-.69,8.68-.81,2.67-.1,5.27-.24,7.68-1.56a5.94,5.94,0,0,1,1.22-.35,60.7,60.7,0,0,1,14-1.92c6.05-.19,12.11-.35,18.17-.42s12.36-.07,18.54,0c5.45,0,10.9.08,16.36.11,3.07,0,6.14,0,9.22,0-.77-2.08-.86-2.15-2.76-2.07-2.42.1-4.84.28-7.26.31-7.21.11-14.42.17-21.64.24-6.06.05-12.12.12-18.18.09-2.67,0-5.33-.33-8-.41-3.27-.1-6.54-.2-9.81-.12-3.75.09-7.5.37-11.25.58-4.23.24-8.47.41-12.69.78-2.83.25-5.64.77-8.44,1.23-1.41.23-2.79.59-4,.86-.3,1.34-.46,2.43-.79,3.45a25.89,25.89,0,0,1-1.33,3.17c-.42.86-.95,1.67-1.43,2.5C238,220.45,237.63,221,237.53,221.08Zm62.38,47.77V269c2.06,0,4.12,0,6.18,0,5.45-.09,10.9-.12,16.35-.33a19.41,19.41,0,0,0,5.15-1c1.77-.57,3.6-1.33,3.35-3.8a1.68,1.68,0,0,1,.14-.52A47.39,47.39,0,0,0,333,249.2c.06-5.57-.18-11.15-.38-16.72a55.7,55.7,0,0,0-2.21-12.86,3,3,0,0,0-2.53-2.51,61,61,0,0,0-11.77-.71c-4.78.29-9.57.47-14.35.67-2.18.1-4.36.15-6.54.19-5.15.1-10.31.23-15.46.24-3,0-5.94-.29-8.9-.25-2.72,0-5.44.42-8.16.53a18,18,0,0,0-9.18,3.06,10.9,10.9,0,0,0-4.55,5.92,32.4,32.4,0,0,0-1.77,10c-.07,6.67,0,13.34.08,20a17.66,17.66,0,0,0,.55,4,6.7,6.7,0,0,0,1.12,2.44,12.52,12.52,0,0,0,5.79,4.21,31.33,31.33,0,0,0,11.54,2.12c5.09-.09,10.17-.5,15.26-.59C287.66,268.77,293.78,268.85,299.91,268.85ZM388.09,277c-1.93.15-3.85.28-5.78.45-1.53.14-1.89-.28-1.45-1.73.34-1.09.56-2.23,1-3.27a2.28,2.28,0,0,1,1.27-1.13,21.16,21.16,0,0,1,3.35-.78c5.54-.92,10.44-3.05,14.22-7.37a2.91,2.91,0,0,1,.78-.75,1.33,1.33,0,0,1,1,0c.17.07.28.52.23.77a5,5,0,0,1-1.13,2.75c-1.23,1.25-2.23,2.73-3.44,4-1.8,1.87-3.7,3.65-5.56,5.46-.32.3-.69.54-1.31,1a12.76,12.76,0,0,0,7.55-3.59,31.21,31.21,0,0,0,6.73-10.9,71.75,71.75,0,0,0,2.34-8.95,20,20,0,0,0,.55-4.68c-.07-4.84-.33-9.68-.43-14.53a22.26,22.26,0,0,0-1.32-8.37c-.14-.33-.19-.83-.43-1-.81-.43-.85-1.24-1.2-1.93-1.06-2.09-1.63-4.45-3.21-6.27a26.39,26.39,0,0,0-2.64-2.75,15.89,15.89,0,0,0-3.72-2.82c-2.64-1.17-5.44-2-8.18-2.94a3.22,3.22,0,0,0-1,0c2.12,1.12,4.26,2.12,6.27,3.34a22.69,22.69,0,0,1,7.11,7.41c.32.5.55,1.07,0,1.46a1.58,1.58,0,0,1-1.31.13,21.61,21.61,0,0,1-2.55-1.37c-2.2-1.27-4.35-2.65-6.61-3.78a21.08,21.08,0,0,0-5.58-2.09,2.87,2.87,0,0,1-2.23-1.46c-.57-.93-1.15-1.84-1.71-2.76-.35-.57-.67-1.14-1.09-1.86-9-.14-18.12-.36-27.34.73l-.24,2.06a82.35,82.35,0,0,1,8.37,1.82c5.14,1.68,9.68,4.26,11.73,9.73a20.42,20.42,0,0,1,1.12,3.45c.81,4.22,1.69,8.44,2.2,12.7a53.83,53.83,0,0,1,.13,9.07,55.35,55.35,0,0,1-2.48,12.26,23,23,0,0,1-8.86,12.93c-1,.74-2.19,1.31-3.22,2.05a17.28,17.28,0,0,1-6.29,2.71c-1.62.37-1.62.39-1.7,2.3h2c3.52,0,7,.09,10.55.09,5.22,0,10.43,0,15.64-.12A21.89,21.89,0,0,0,388.09,277ZM330,215.79a15.87,15.87,0,0,1,1.73,3,58.79,58.79,0,0,1,1.65,7.06,80.8,80.8,0,0,1,1.09,14.49c0,2.12.11,4.24,0,6.36-.14,3.51-.26,7-.63,10.51-.31,2.87-.95,5.71-1.51,8.55a3.5,3.5,0,0,1-.86,1.33,14.18,14.18,0,0,1-1.17,1.12c2.64.41,5.09.77,7.53,1.18,5.79,1,11.59,1.89,17.35,3a7.28,7.28,0,0,0,5.6-1.06,22.51,22.51,0,0,0,8.06-8.66,33.23,33.23,0,0,0,2.85-8.59,43.8,43.8,0,0,0,1.6-11.67,82.88,82.88,0,0,0-2.67-18.12c-1.16-4.44-3.49-7.95-7.82-9.89-.44-.19-.85-.48-1.28-.69a11.74,11.74,0,0,0-7.55-1.16c-4.33.86-8.71,1.5-13.08,2.09C337.28,215.14,333.66,215.41,330,215.79Zm-68.17-.93-2,.2c-1.8.19-3.61.44-5.42.53a28.64,28.64,0,0,0-11.65,3.13A9.34,9.34,0,0,0,239,222.1a29,29,0,0,0-3.14,7.12,63.36,63.36,0,0,0-2.3,12.83c-.44,5.34-.57,10.62.73,15.89,1.11,4.53,3.89,7.88,7.34,10.72,2.23,1.84,5.11,2.4,7.84,3.2,4.19,1.24,8.46.87,13.09.87-1.33-1.39-2.26-2.42-4-2.74a23.21,23.21,0,0,1-6-2c-3.75-1.84-6.27-4.7-6.55-9.1-.07-1-.19-1.93-.2-2.9,0-5.75-.05-11.51-.1-17.26a43.48,43.48,0,0,1,1.48-11.12c1.63-6.35,6.23-9.38,12.18-10.81A3.08,3.08,0,0,0,261.79,214.86Zm82.86,62.42c-.29,0-.47,0-.64,0-4.48,0-9,0-13.45,0-3.51,0-7-.31-10.54-.28-7.15,0-14.3.25-21.46.33-3.15,0-6.3-.06-9.45-.14-4.12-.11-8.25-.13-12.35-.46a42.14,42.14,0,0,1-9.46-1.58,20.21,20.21,0,0,0-6.55-.9c-1.15,0-2.3,0-3.45,0a30.66,30.66,0,0,1-12.76-2.39c-1.41-.57-2.79-1.23-4.12-1.83.72,1.88,1.55,3.7,2.08,5.61a2.44,2.44,0,0,0,2.05,1.92,74.18,74.18,0,0,0,20.58,1.71c5.15-.17,10.29-.45,15.44-.69,3.63-.17,7.26-.46,10.89-.51,5.64-.07,11.28-.07,16.91.08,4.66.12,9.31.65,14,.76,3.94.09,7.88-.14,11.82-.26,3.15-.1,6.3-.27,9.45-.38C344.18,278.22,344.75,278.27,344.65,277.28Zm-30.39-1.65a21.73,21.73,0,0,0,2.78,0c4.55-.53,9.09-.09,13.61.2a128.3,128.3,0,0,0,16.87-.24c2.28-.15,4.54-.64,6.81-1a6.27,6.27,0,0,0,1.21-.49c-7.32-1.3-14.45-2.64-21.6-3.8-3.5-.56-7-1.17-10.59-.15a4.87,4.87,0,0,1-1.09.08l-11.24.34-2,.09Zm-2.25,0a27,27,0,0,0-5.72-4.83,2.78,2.78,0,0,0-1.38-.31c-7-.1-13.92-.21-20.88-.24-1.89,0-3.79.22-5.83.36.66,2.15,2.29,3.36,3.18,5Zm-34.76-59.69c.76,0,1.35.11,1.94.1q12.06-.21,24.12-.46a2.28,2.28,0,0,0,1.32-.42c1.5-1.28,2.94-2.62,4.65-4.16-.79-.06-1.25-.12-1.7-.13-2.54,0-5.08-.16-7.62-.1-4.78.09-9.55.27-14.33.45-1.61.05-3.46-.27-4.77.41s-2.27,2.44-3.37,3.72A3.81,3.81,0,0,0,277.25,215.94Zm29.86-1,.18.3c1.72,0,3.45.1,5.17,0a58.89,58.89,0,0,1,11.42,0,1.38,1.38,0,0,0,1-.16c.83-.88,1.89-.68,2.89-.71a111.37,111.37,0,0,0,15.89-1.58c2.37-.41,4.74-.78,7.11-1.16a13.69,13.69,0,0,0-3.42-.58c-6.12-.17-12.24-.38-18.36-.4-5.39,0-10.78.21-16.17.34a2.16,2.16,0,0,0-1.22.2C310.07,212.32,308.6,213.62,307.11,214.9Zm-44,56a11.94,11.94,0,0,0,5.85,3.16c3,.53,6,.83,9,1.21a6.63,6.63,0,0,0,1.27-.08,32.8,32.8,0,0,1-2.13-3.36,1.93,1.93,0,0,0-2.15-1.22c-1.93.13-3.87.24-5.8.28S265.35,271,263.07,271Zm119.6,4.76c1.51,0,2.91.11,4.28,0a11.8,11.8,0,0,0,3.68-.88c3-1.39,4.67-4.17,6.77-6.53-4.24,2.94-9.29,3.29-14,4.53C383.17,273.81,382.94,274.67,382.67,275.71Zm-141.57.47c-.78-3-1.86-5.52-3.92-7.37l-5,.87C233,273.62,236,275.43,241.1,276.18Zm22.81-60.12h1.35c3.08-.06,6.17-.11,9.25-.2a1.4,1.4,0,0,0,.95-.37c1-1.19,1.86-2.43,3-4C273.07,212.18,268.17,213,263.91,216.06Zm117.84-7.78a3.83,3.83,0,0,0,3.1,3.31,38.91,38.91,0,0,1,10.74,5.14c.37.26.77.47,1.16.7C393.14,212.2,388,209.66,381.75,208.28Zm-38.13,75.77c3.82-.92,6.62-4,6.75-7.25l-3.85.36C346,279.54,344.08,281.36,343.62,284.05Zm-.24-83.2a3.68,3.68,0,0,0,.76,3.14c1.17,1.58,2.35,3.16,3.49,4.78a1.35,1.35,0,0,0,1.71.68c.17-1,.65-2,0-3.12C348,203.92,346.34,201.85,343.38,200.85ZM237.25,218.2a11.21,11.21,0,0,0,2.79-6.72c-3.52.8-5.52,2.74-6,6Zm-5.91,44.1c-.16.08-.34.14-.34.18.19,1.84.39,3.67.59,5.56a8.12,8.12,0,0,0,4.29-.71Zm2-43.41a11.87,11.87,0,0,0-1.44,5.05,9.44,9.44,0,0,0,4.22-4.45Z"/><path d="M104.45,292.15a4.81,4.81,0,0,0-1.26.71A3.81,3.81,0,0,1,98.91,294v12.18c1,0,1.9.08,2.78,0,5.35-.55,10.64,0,15.94.66,1.32.16,2.65.29,4,.58a9.19,9.19,0,0,1,2.68,1,1.89,1.89,0,0,1,.76,2.93,5.73,5.73,0,0,1-1.92,1.84,23,23,0,0,1-8.56,2.84c-1.73.25-3.49.32-5.38.48-.08,1,.09,2.25-1.21,2.84-.18.09-.18.54-.31.8s-.28.79-.54.9a17.79,17.79,0,0,1-3.7,1.21,4.1,4.1,0,0,1-2.2-.68c-1.12-.58-2.17-1.29-3.26-1.92a3.72,3.72,0,0,0-.82-.36c-5.27-1.36-10.5-2.9-16-3.34a34.25,34.25,0,0,1-4.43-.94c-.7-.17-1.4-.36-2.22-.58-.48,1.36-1.61,1.65-3,1.68l.2,2.12c1.33,0,2.54-.05,3.75,0a7.25,7.25,0,0,1,2.12.41,2.65,2.65,0,0,1,1,4.44,6.3,6.3,0,0,1-3.77,2,38.21,38.21,0,0,1-10.68.1c-2-.26-2.55-1.08-2.42-3.05a6.26,6.26,0,0,0-.24-1.42c-2,.88-3.47.25-5-.68a20.34,20.34,0,0,0-7.71-2.54,7.53,7.53,0,0,1-1.25-.18,4.78,4.78,0,0,0-3.33.09,9.79,9.79,0,0,1-3.22.41c-2.72,0-5.45.07-8.18-.06A31.53,31.53,0,0,1,21,315.12a9.51,9.51,0,0,1-2-1.28c-1.18-1-1.18-2.28.19-2.93a23.13,23.13,0,0,1,5.13-1.73,56.15,56.15,0,0,1,12.28-1.12H38a8.82,8.82,0,0,0-.15-1.5c-.92-3.35-.09-6.48,1.18-9.54,1.85-4.5,7.75-8.95,13.86-8.55a38.2,38.2,0,0,0,4.54,0,4.39,4.39,0,0,0,1.87-.54,44.79,44.79,0,0,0,4-2.47A53.27,53.27,0,0,1,73,280.39a7.62,7.62,0,0,1,5.85-.22c3.27,1.25,6.49,2.64,9.73,4,.34.13.64.34,1,.45,2.76.89,5.54,1.72,8.29,2.64a3,3,0,0,0,2.24-.09c1-.43,2.16-.74,3.24-1.12,3.53-1.28,6.43,2.52,5.9,5.44a2.67,2.67,0,0,1-2.58,1.72A15.19,15.19,0,0,1,104.45,292.15Zm-28.27,9.1c-.55-.05-1-.06-1.48-.14-4-.7-7.83-2.45-8-7.6-.11-4.73,3-9.43,7.43-10.4a43.49,43.49,0,0,1,4.86-.52c.43,0,.87,0,1.69-.09-2.9-1.43-5.37-1.65-8-.41a61,61,0,0,0-8.79,4.74c-1.35.92-2.77,1.73-4.19,2.55a3.61,3.61,0,0,1-1.51.56c-1.63.09-3.27,0-4.9.1a29.07,29.07,0,0,0-4,.29,3.26,3.26,0,0,0-1.85,1,14.31,14.31,0,0,0-3,13.11,5.79,5.79,0,0,0,2.73,3.93,16.64,16.64,0,0,0,10,1.79,45.57,45.57,0,0,1,9.41-.28A8.33,8.33,0,0,1,71,311.45a5.81,5.81,0,0,0,1.92,1c2.92.76,5.86,1.5,8.81,2.11,3.61.76,7.25,1.35,10.87,2.07,1.6.33,3.15.88,4.74,1.21,1.3.27,1.79-.12,2-1.42a3.13,3.13,0,0,0-.06-.87,43.07,43.07,0,0,1-4.93-1.69,42.38,42.38,0,0,0-7.64-2.8c-2.16-.58-4.29-1.27-6.41-2a6.29,6.29,0,0,1-4.27-6.31C76.1,302.29,76.14,301.83,76.18,301.25Zm-32-8.14c-3.93,2.27-5.7,8.86-5.1,11.87a30.44,30.44,0,0,0,.93,4.07,11.17,11.17,0,0,0,1.94,3.83,8.75,8.75,0,0,0,5.13,2.87c.95.15,1.9.32,2.85.5a23.39,23.39,0,0,1,8,2.9c1.62,1,2.59.72,3.71-.82,1.33-1.83,1.23-3.71-.21-5.69a2.7,2.7,0,0,0-2.93-1.23A17.7,17.7,0,0,1,47.15,310a7.3,7.3,0,0,1-3.48-3.52,13.59,13.59,0,0,1-.89-8C43.07,296.65,43.69,294.89,44.16,293.11Zm54.72,15a23.85,23.85,0,0,1,0,2.54,2.13,2.13,0,0,0,1,2.13,2,2,0,0,0,1.86.33c1.55-.43,3-.61,4.31.76a3.82,3.82,0,0,0,3,1c1.69-.07,3.39-.07,5.06-.28a23.88,23.88,0,0,0,8.09-2.55c.82-.44,1.56-.93,1.61-2C121.3,308,104.57,306.58,98.88,308.08ZM68.44,293c-.28,2.75.33,4.11,3.44,5.84,3.74,2.07,11.7.05,14.24-2.74,3.12-3.41,2.78-7.58-.94-10.16a11,11,0,0,0-7.78-1.79c-.66.07-1.31.2-2,.27a7.71,7.71,0,0,0-6.78,6.85c.89-.92,1.65-2.13,3.06-2.11a44.65,44.65,0,0,1,5.41.43c.87.13,1,.83.24,1.39a6.69,6.69,0,0,1-2.21,1.12c-1.46.36-3,.56-4.46.78C70,293,69.28,292.93,68.44,293Zm22.41,11.52,4-1.49V291.41h-5c-.1.3-.2.52-.25.75a9.44,9.44,0,0,1-5.79,7.2,25.19,25.19,0,0,1-3.06,1.07c-1,.3-2,.52-3,.8l-.2,2.45c3.36,0,6.5,0,9.64,0a3.65,3.65,0,0,0,1-.3A1.8,1.8,0,0,1,90.85,304.49Zm-71,7.54-.06.53a8,8,0,0,0,1.76,1.18,52.44,52.44,0,0,0,6.2,2c4.52,1,9.15.52,13.74.7a7,7,0,0,0,1.59-.3,11.51,11.51,0,0,1-4.63-6.62C32.09,309.61,25.82,309.71,19.87,312ZM63,323.2a5.17,5.17,0,0,0,1.16.55,35.21,35.21,0,0,0,10.65-.15,3.71,3.71,0,0,0,1.34-.54c.76-.46,1.67-.88,1.65-1.95,0-.8-.83-1.24-2.26-1.41a24.05,24.05,0,0,0-7,.59,2.13,2.13,0,0,0-1.24.87A3.44,3.44,0,0,1,64,323,4.15,4.15,0,0,0,63,323.2Zm32.17-15.05c-1.69.44-3.08.78-4.45,1.19-.56.16-1.16.76-1.51-.12s.42-1,1-1.28a6.22,6.22,0,0,1,1-.31c1.05-.27,2.11-.52,3.17-.77.47-.12.79-.3.42-1-.75.16-1.55.35-2.36.5-.4.08-.88.27-1.21.13A1.69,1.69,0,0,0,89,307a1,1,0,0,1-.64.26c-1.69.09-3.37.18-5.06.21-.77,0-1.55-.09-2.33-.14A32.28,32.28,0,0,0,88.05,310c2.42.7,4.78,1.58,7.33,2.44ZM87.8,285.9a22.53,22.53,0,0,1,1.34,2.63A1.75,1.75,0,0,0,91,289.85c2.41,0,4.83,0,7.24,0a3.34,3.34,0,0,0,.91-.25C95.46,288,91.91,286.18,87.8,285.9Zm15.07,28.53c-1.77.35-1.72.36-2,1.86a25.2,25.2,0,0,1-.79,2.68,20.74,20.74,0,0,0,2.14,1.5,2.33,2.33,0,0,0,1.32.09,20.8,20.8,0,0,0,2-.48,3.14,3.14,0,0,0,.52-.26l-.07-1.24a8.28,8.28,0,0,1-2.19-1.48A10,10,0,0,1,102.87,314.43Zm-6-3.18.41,0a5.71,5.71,0,0,0,.14-1q-.13-9.31-.3-18.62s-.08-.08-.12-.09a3.2,3.2,0,0,0-.44,0C96.29,298.1,96.56,304.68,96.83,311.25Zm-32.71,3.08c-.11,2.37,0,2.45,1.1,3.42s2.51,1.59,4.1.66l-.26-2c-.77,0-1.49,0-2.2,0s-1-.41-.81-1.1c.08-.31.17-.62.29-1.06Zm42.06-26.64a5.59,5.59,0,0,0-4.77.58l-.24,2.73a4.52,4.52,0,0,0,1.4.19c.4-.05,1-.39,1.07-.69C103.91,289.17,104.86,288.47,106.18,287.69Zm-36.68,25,0-.45c-2.16-1.23-4.55-1-7.26-1l1,1.47Zm17.75-7.09c-2.24-.72-7.58-.6-8.7.12C80.5,306.14,85.85,306.13,87.25,305.6ZM66,320.22l-2.56-2-.93,1.51C63.77,321.92,64.52,322,66,320.22Zm34.9-27.43-2.16-1.44C99.06,292.64,99.78,292.67,100.89,292.79Zm-27.5-1.92v-.39l-2.27.31.06.41Zm32.8.17c.07-.88-.26-1.05-1-.65Z"/><path d="M458.83,459.52l1.64,1.12c-1,1.18-1.94.64-3,.47a9.65,9.65,0,0,1-.15-1.46c.1-3.69.33-7.39.33-11.08s-.23-7.14-.38-10.72c-.07-1.75-.2-3.51-.26-5.26-.13-3.88-.22-7.75-.36-11.63,0-.84-.24-1.67-.35-2.51-.12-1-.24-2-.35-3.06s-.2-1.92-.29-2.88c-.12-1.15-.3-2.29-.32-3.43-.11-6.18-.15-12.36-.26-18.54a15.31,15.31,0,0,0-.35-3.24c-1.06-4.53-2.27-9-3.28-13.57a35.47,35.47,0,0,0-3.67-8.66c-1.25-2.35-3.58-3.73-5.9-5-.91-.48-1.86-.89-2.81-1.29a13.23,13.23,0,0,0-6-1.33q-6.35.31-12.7.6c-2.91.12-5.82.24-8.73.32-4.42.13-8.82.28-13.23.84-4.2.52-8.45.6-12.69.84-6.53.36-13.07.76-19.61,1-8.17.3-16.3,1.31-24.5,1.27-8,0-16,.37-24,.7-4,.16-8,.61-12,.88-2.84.19-5.69.3-8.53.46-7.26.42-14.52,1-21.79,1.24-6.6.2-13.21.08-19.82,0-7.46-.11-14.91-.38-22.36.18-2.72.21-5.45.24-8.17.39-7.33.4-14.64.91-22,1.22-3.69.15-7.39,0-11.09-.1-6.84-.2-13.68-.69-20.52-.66a129.07,129.07,0,0,0-14.13,1.11,68.18,68.18,0,0,1-11.07-.13c-1-.05-2.06-.15-3.08-.14-5.52.05-11,.1-16.55.21-5.27.1-10.54.29-15.81.41-6.12.13-12.25.2-18.37.37-2.79.07-5.57.33-8.35.45a75.71,75.71,0,0,1-15.9-1.37c-3.64-.61-7.29-1.18-10.94-1.68a88.86,88.86,0,0,0-16-.22c-3.64.17-7.27.35-10.9.46a26.69,26.69,0,0,1-3.45-.25,2.73,2.73,0,0,1-1.19-.38c-.26-.17-.36-.56-.53-.85.34-.16.73-.52,1-.46,3.86.84,7.73.36,11.59.17,6.72-.32,13.44-.81,20.15.12,2.39.34,4.75.95,7.14,1.26,7.33.94,14.61,2,22.07,1.7,11.56-.51,23.14-.58,34.72-.86,1.39,0,2.78-.27,4.17-.29q9.45-.18,18.9-.27a25.81,25.81,0,0,1,2.9.26c5.41.52,10.77,0,16.14-.62a115.81,115.81,0,0,1,18.53-.34c1.93.1,3.89,0,5.81.19a112.74,112.74,0,0,0,17.62.38c6.59-.3,13.18-.86,19.76-1.3l.73-.05q14.81-.69,29.64-.4c7.63.16,15.28.14,22.92-.11,6.53-.21,13.06-.85,19.59-1.27,2.9-.19,5.81-.29,8.71-.45,5.39-.31,10.77-.64,16.15-1l.91,0c7.64-.16,15.28-.25,22.92-.49,4-.13,8-.53,12-.8,4.54-.31,9.07-.67,13.61-.89,4.78-.24,9.57-.24,14.35-.53s9.53-.83,14.3-1.21q3.71-.3,7.43-.45c4.79-.19,9.57-.33,14.36-.5,3.45-.12,6.9-.29,10.35-.35a10.94,10.94,0,0,1,3.22.4,27.92,27.92,0,0,1,9.08,4.44,16.51,16.51,0,0,1,4.76,6.52c2.37,5,3.32,10.32,4.67,15.58a50.94,50.94,0,0,1,1.29,14.07,105.71,105.71,0,0,0,.68,16.3c.45,3.41.63,6.86.8,10.3.39,7.8.79,15.61,1,23.42C459.25,451.21,459,455.33,458.83,459.52Z"/><path d="M313,303.77c.15-1.46.16-1.55,1.4-1.49a29.93,29.93,0,0,1,3.77.5c1.18.2,2.34.51,3.46.76,1.54,1.41,3.19,2.73,4.6,4.27,3.3,3.58,6,7.49,5.75,12.68a44.85,44.85,0,0,1-.39,6.88c-1.28,6.37-4.61,11.39-10.47,14.51-1,.55-2.05,1.05-3.09,1.55a12,12,0,0,1-8.67.64c-3.51-1-6.72-2.46-8.92-5.54-2.59-3.62-4.25-7-4.3-11.34-.09-8.84,3.85-15.29,11.13-19.95C309.12,306.07,311,305,313,303.77Zm15.4,9.1c-.06,1.24-1,1.9-1.81,2.59q-10.5,8.94-21.05,17.84c-1.42,1.2-2.86,2.39-4.3,3.59.2.37.31.58.44.78,1.85,2.72,4.71,3.92,7.66,4.88a10.49,10.49,0,0,0,8.11-.5c1-.51,2.06-1,3.08-1.56,5.74-3.05,8.65-8.09,9.77-14.28a46.53,46.53,0,0,0,.2-5.43,10.8,10.8,0,0,0-1.57-6.59,7.28,7.28,0,0,1-.53-1.32,54.42,54.42,0,0,0-4.25-5.12c-3.82-3.75-8.36-4.05-12.38-1.51-1.28.8-2.6,1.55-3.87,2.36-7.33,4.7-10.81,11.38-10.21,20.09a12.79,12.79,0,0,0,2.7,6.9c1.78-1.45,3.53-2.83,5.23-4.27q10.51-8.94,21-17.93A2.09,2.09,0,0,1,328.42,312.87Z"/><path d="M374.09,180.26a1.81,1.81,0,0,1-2,1.28c-3,.18-5.92.35-8.88.45-1.94.07-3.88,0-5.82,0a5.55,5.55,0,0,1-.91,0c-.56-.1-1.37,0-1.32-.89s.84-.61,1.41-.62c5.15-.13,10.29-.27,15.43-.38A16.44,16.44,0,0,1,374.09,180.26Z"/><path d="M240.6,285.55c-.32,2-.52,3.76-.9,5.47-.61,2.84-1.36,5.65-2,8.48-.19.82-.26,1.66-.43,2.49a3,3,0,0,1-.42,1.15.85.85,0,0,1-.79.17.82.82,0,0,1-.45-.66,27.23,27.23,0,0,1,.44-2.85c.95-4.44,1.92-8.87,2.87-13.3.07-.3.12-.6.18-.9.11-.53.41-1,1-.77C240.34,284.92,240.5,285.4,240.6,285.55Z"/><path d="M213,286c-.29-.19-.64-.3-.73-.51s.08-.54.17-.8c0-.1.17-.16.27-.23l12.25-8c.1-.06.19-.14.3-.2a.83.83,0,0,1,1.24.31c.35.61-.15.81-.57,1.08-1.78,1.14-3.54,2.31-5.29,3.48s-3.48,2.4-5.24,3.56C214.69,285.15,213.87,285.54,213,286Z"/><path d="M279.57,182.69c5-.57,9.87-1.13,14.73-1.67a12.74,12.74,0,0,1,1.81.06,1.43,1.43,0,0,1-1.47,1.34c-4.08.54-8.17,1-12.26,1.53a11.13,11.13,0,0,1-2,0C279.61,183.9,279.33,183.46,279.57,182.69Z"/><path d="M258,184.64a7.85,7.85,0,0,1-1.68.76q-5.61,1.07-11.22,2a6.54,6.54,0,0,1-2.16.06,1.31,1.31,0,0,1-.86-.91c-.05-.6.49-.57,1-.62,1.78-.15,3.57-.4,5.34-.68,2.33-.37,4.63-.84,7-1.19a16.4,16.4,0,0,1,2.43,0Z"/><path d="M223.39,262c-1-.25-1.86-.41-2.67-.65-2.71-.79-5.42-1.61-8.13-2.43a7.38,7.38,0,0,1-1.67-.67c-.27-.17-.36-.62-.53-.95.35-.14.76-.47,1.05-.38,2.2.61,4.38,1.32,6.57,2,1.79.53,3.58,1,5.38,1.52.54.14,1.23.16,1.07.87C224.39,261.57,223.71,261.76,223.39,262Z"/><path d="M329.08,180.85a4.59,4.59,0,0,1-1.37.57q-5.79.44-11.6.74c-.58,0-1.55.34-1.57-.66s.92-.71,1.54-.75c3.68-.25,7.36-.5,11.05-.71a13.15,13.15,0,0,1,1.86.18Z"/><path d="M227.53,191.79a11.65,11.65,0,0,1-1.59,1.23c-1.42.8-2.92,1.46-4.31,2.3s-2.87,2-4.33,2.92c-.28.18-.75.07-1.12.1,0-.38-.14-.85,0-1.11a3.66,3.66,0,0,1,1.19-1.09c2.78-1.59,5.56-3.15,8.37-4.67a4.87,4.87,0,0,1,1.5-.27Z"/><path d="M437,179.57c-.27,1.27-.94,1.42-1.6,1.44-3.44.15-6.89.25-10.33.36a1.6,1.6,0,0,1-.88-.14,1.11,1.11,0,0,1-.4-.73c0-.15.26-.41.46-.48a2.9,2.9,0,0,1,.89-.08c3.38-.13,6.77-.25,10.15-.36C435.81,179.56,436.32,179.57,437,179.57Z"/><path d="M470.43,179.53c0,1.13-.58,1.36-1.09,1.42-3.35.41-6.72.78-10.08,1.12-.62.06-1.56.22-1.59-.71s.94-.66,1.54-.73c2.46-.28,4.92-.57,7.39-.82C467.84,179.68,469.08,179.63,470.43,179.53Z"/><path d="M191.86,236.3a10.36,10.36,0,0,1-.33,1.78c-.57,1.53-1.25,3-1.82,4.53a7.54,7.54,0,0,0-.69,4.22c.06.3-.29.68-.45,1-.34-.28-.94-.52-1-.83a7.17,7.17,0,0,1,.07-2.85c.77-2.34,1.7-4.63,2.64-6.91.2-.47.72-.8,1.1-1.2Z"/><path d="M404.44,180.6a4.17,4.17,0,0,1-1.29.75c-2.87.42-5.75.78-8.63,1.12a2.93,2.93,0,0,1-1.41-.18,1.12,1.12,0,0,1-.41-.87c0-.15.42-.41.67-.44q4.58-.53,9.17-1c.57-.05,1.14,0,1.71,0Z"/><path d="M413,284.89c-.37.23-.7.6-1,.57a3.14,3.14,0,0,1-1.47-.58c-1.2-.91-2.35-1.89-3.5-2.87s-2.11-1.78-3.12-2.73c-.25-.23-.51-.75-.41-1,.2-.6.75-.49,1.2-.21a8.9,8.9,0,0,1,1.48,1c2,1.82,3.7,4,6.29,5.06C412.64,284.22,412.72,284.52,413,284.89Z"/><path d="M199.17,218.46a11.48,11.48,0,0,1,.77-1.6c1.51-2.11,3.05-4.19,4.58-6.28a2.15,2.15,0,0,1,.23-.28c.37-.4.82-.9,1.33-.41.19.19.07.93-.15,1.25-1.27,1.84-2.64,3.6-3.92,5.42-.48.68-.79,1.47-1.23,2.17a4.46,4.46,0,0,1-.83.79Z"/><path d="M416.09,267.34l-5.59-.46c-.53,0-1.05-.18-.95-.79a1.21,1.21,0,0,1,.91-.63,23.72,23.72,0,0,1,2.52.11l5.59.2c.12,0,.24,0,.36,0,.49,0,1,0,1.05.67s-.52.76-1,.8C418.07,267.27,417.17,267.29,416.09,267.34Z"/><path d="M391.6,288.26c-.09-1-.19-2.47-.32-3.92,0-.5-.11-1.06.52-1.16s.93.4,1,1c.09,1.27.18,2.53.26,3.8s.17,2.64.26,4c0,.56-.21,1.05-.75,1a1.28,1.28,0,0,1-.91-.82C391.53,291,391.6,289.83,391.6,288.26Z"/><path d="M172.29,273.26c.27-.57.4-1,.62-1.33q1.62-2.62,3.27-5.23a2.13,2.13,0,0,1,.59-.67c.22-.14.71-.26.79-.16a1.2,1.2,0,0,1,.23.92,6.2,6.2,0,0,1-.67,1.27c-1.1,1.94-2.18,3.88-3.32,5.79-.14.24-.74.5-.82.43A5,5,0,0,1,172.29,273.26Z"/><path d="M135.55,304.73a1.9,1.9,0,0,1-.83-.23,1.12,1.12,0,0,1-.33-.92c.06-.26.54-.64.73-.59,2.08.59,3.58-.68,5.22-1.53.55-.29,1.22-1,1.72-.22s-.41,1.13-.94,1.47A10.57,10.57,0,0,1,135.55,304.73Z"/><path d="M232.78,282.77c-.26.51-.34.73-.47.92-1,1.48-2,3-3.12,4.43a1.16,1.16,0,0,1-1,.41c-.59-.19-.56-.79-.28-1.21,1-1.5,2.05-3,3.14-4.43.2-.26.71-.32,1.1-.37C232.35,282.5,232.59,282.69,232.78,282.77Z"/><path d="M223.82,267.88c.21.17.64.35.66.58a1.08,1.08,0,0,1-.48.82,3.85,3.85,0,0,1-1.19.37c-1.52.37-3,.76-4.57,1.05-.29.05-.66-.3-1-.47a3.22,3.22,0,0,1,.52-.84,1.86,1.86,0,0,1,.82-.32Z"/><path d="M159.18,288.23a4.19,4.19,0,0,1-.54.76q-1.74,1.71-3.54,3.36a1.46,1.46,0,0,1-.77.39.69.69,0,0,1-.62-.23c-.1-.23-.15-.67,0-.81,1.47-1.41,3-2.81,4.51-4.14C158.66,287.18,159.25,287.57,159.18,288.23Z"/><path d="M397.3,281.09c.23.14.43.21.51.34.8,1.2,1.6,2.4,2.32,3.65.14.25-.1.72-.16,1.08-.37-.12-.87-.12-1.08-.37a33.19,33.19,0,0,1-2.23-3.06,1.62,1.62,0,0,1,0-1.15C396.71,281.37,397.07,281.25,397.3,281.09Z"/><path d="M411.37,273.83c-.24.12-.63.47-.85.39a19.06,19.06,0,0,1-2.9-1.34c-.47-.27-.29-.79.11-1C408.49,271.35,411.22,272.7,411.37,273.83Z"/><path d="M82.9,291.82c1.16,1.28,1.15,1.94-.2,2.54a9.78,9.78,0,0,1-3.3.87,27.54,27.54,0,0,1-4.71-.24c-.46,0-1.17-.35-1.28-.7-.24-.72.5-1,1-1.25,2-1,4.06-1.88,6.4-1.4a3.49,3.49,0,0,0,.56,0,3.65,3.65,0,0,1,.25-1.45c.23-.35.79-.5,1.21-.72,1.43-.75,2.84-.14,4.23.15a1,1,0,0,1,.58.78,1.06,1.06,0,0,1-.53.83,9.77,9.77,0,0,1-2,.39C84.48,291.71,83.75,291.75,82.9,291.82Zm-5.3,1.67.06.42,3.39-.43L81,293Z"/><path d="M76.58,288.79c-1,0-2.06,0-3.08,0-.81,0-1.5-.26-1.64-1.07A1.33,1.33,0,0,1,73,286.26c2-.53,3.9-1.29,6-.54.74.26,1.55.28,2.28.55.38.15.89.59.91.91a1.46,1.46,0,0,1-.78,1.05,6.68,6.68,0,0,1-2.08.51c-.9.08-1.81,0-2.71,0Z"/><path d="M77.15,296.35c.72,0,1.45,0,2.16,0a.85.85,0,0,1,.64.48.9.9,0,0,1-.31.75,2.89,2.89,0,0,1-1.31.54,28.08,28.08,0,0,1-3.78.06,1.37,1.37,0,0,1-1-.74c-.2-.65.33-1,.93-1,.89-.08,1.79-.12,2.69-.17Z"/><path d="M82.59,295.56a7.06,7.06,0,0,1,3.21-2.3c.15-.08.55.16.72.35s.12.59,0,.65c-1.05.64-2.13,1.26-3.23,1.81C83.2,296.13,82.88,295.77,82.59,295.56Z"/></svg>