<svg xmlns="http://www.w3.org/2000/svg" width="500" height="500" viewBox="0 0 500 500"><path d="M141.27,291c-.52,2-.6,2.05-2.59,2.11-1.46,0-2.92.06-4.38,0a2.44,2.44,0,0,0-1.65.53,9.16,9.16,0,0,1-8.48,1.39c-2.88-.85-4.25-3.08-4.83-5.88-.12-.58-.17-1.18-.27-1.83l-2.51-.36c-1.3,2.88-2.61,5.68-3.85,8.51a19.45,19.45,0,0,1-8.64,9.57c-3.35,1.85-6.63,3.95-10.49,4.54-5.24.79-10.43.64-15.27-2A35.25,35.25,0,0,1,75,305.78a19,19,0,0,1-5.48-5.27c-2-3-4.08-5.9-5.22-9.37a27.78,27.78,0,0,1-.2-17.92c-.42-.3-1-.53-1.2-.94a2.35,2.35,0,0,1,0-1.59,12,12,0,0,1,1.25-2.81A31.61,31.61,0,0,1,81.9,254.71c6-1.78,11.65-.81,17.26,1.23a30.92,30.92,0,0,1,9.21,4.87l6-3.5c-1.18-3.26-2.32-6.44-3.51-9.6-.38-1-.88-2-2.32-2-.79,1-.93,2.54-2.23,3-3.41-.47-3.39-3.3-4.13-5.58-2.3-1.19-2.37-1.32-2.11-4a12.54,12.54,0,0,1,.23-1.63c.42-1.75,1-2.21,2.78-2.16a8.31,8.31,0,0,1,2,.39,24.42,24.42,0,0,0,3,.88,8.93,8.93,0,0,0,3.38,0c2.09-.55,4.11-1.38,6.3-2.14-.5-.65-.77-1.19-1.76-1-1.48.34-1.92.1-2.29-1.33-1.09-4.21-1.77-8.46-.19-12.73a26.87,26.87,0,0,1,3.73-7.48,2.29,2.29,0,0,0,.54-2.33,7.7,7.7,0,0,1-.1-2.36,7.94,7.94,0,0,0-.81-3.85,6.15,6.15,0,0,1-.41-3.36,25.22,25.22,0,0,1,1.14-5.15c1.1-3.28,2.36-6.51,3.57-9.76a10.55,10.55,0,0,1,3.51-4.78c1.78-1.37,3.45-2.88,5.12-4.28-.25-1.05-.41-1.94-.68-2.81a4.47,4.47,0,0,0-.71-1.2,27.38,27.38,0,0,1-1.73-2.32,4,4,0,0,1-.25-3.51,16.94,16.94,0,0,1,3.39-5.79c2.57-2.78,5.89-3.12,9.43-2.55,6.89,1.1,9.4,8.9,7.08,13.61-.11.22-.15.53-.32.65-1.9,1.32-2.58,3.62-4.18,5.18-.17.16-.29.44-.49.53-1.9.9-3.79,1.85-5.74,2.63-1.52.6-2.26.28-3.31-1.06-.51-.67-1-1.36-1.57-2.15-2.22,1.88-4.38,3.63-6.44,5.5a5.62,5.62,0,0,0-1.35,2.14c-1.56,4.22-3.06,8.46-4.57,12.69a10.62,10.62,0,0,0-.29,1.24,6.1,6.1,0,0,0,2.5,6.7c2.08,1.64,3.88,3.65,5.77,5.47l3.5-4.52c-.87-.68-1.82-1.39-2.74-2.14a15.78,15.78,0,0,1-2-1.82,3.81,3.81,0,0,1-.64-1.64,20.26,20.26,0,0,1-.19-2.05c.67-1.15,1.29-2.14,1.84-3.18,1.07-2,2.1-4.11,3.15-6.17a.8.8,0,0,0,.08-.16c.23-.5.61-.88,1.12-.53a1.16,1.16,0,0,1,.23,1.08c-.5,1.23-1.1,2.43-1.7,3.62-.92,1.84-1.94,3.64-2.8,5.51a2.85,2.85,0,0,0,1.26,3.78,12.16,12.16,0,0,1,4.38,4,.93.93,0,0,0,.38.38c1.9.94,3.8,1.86,5.73,2.8a31.61,31.61,0,0,0,1.34-8.63,12.25,12.25,0,0,1,.25-2.35c.07-.29.55-.5.84-.74.19.33.57.68.54,1-.33,3.32-.19,6.69-1.16,9.94a2.43,2.43,0,0,0,0,.31c.89.71,1.61,1.76,3,2a2.44,2.44,0,0,1,1.51,1.21,4.83,4.83,0,0,0,2.32,2.17c1.05-1.21,2.14-2.46,3.13-3.58-.77-.75-1.43-1.43-2.13-2.08-1-.89-2.06-1.7-3-2.67A34.48,34.48,0,0,1,141.7,203a1.84,1.84,0,0,1-.22-1.36c1-3.74.68-7.62,1.33-11.39.27-1.55.27-3.15.39-4.73a4.84,4.84,0,0,0-1.42-3.81,8.79,8.79,0,0,1-1.34-1.71c-.16-.28.05-.76.09-1.15.37.1.86.08,1.08.32a26.76,26.76,0,0,1,2.08,2.54,4.08,4.08,0,0,1,.95,2.87c-.29,3.45-.56,6.91-.87,10.35-.21,2.24-.49,4.46-.72,6.7a1,1,0,0,0,.14.67c1.32,1.64,2.29,3.59,4.19,4.74a7.65,7.65,0,0,1,1.33,1.22c.13.13.2.33.34.43a7.68,7.68,0,0,1,3.35,3.48c.29.71,1.2.92,2.22.69a4.73,4.73,0,0,1,6.11,4.46,2.25,2.25,0,0,0,1.12,1.73c1.16.89,2.32,1.77,3.41,2.74a4.79,4.79,0,0,1,1.72,4.05c-.07,1.09-.14,2.18-.26,3.27a3.49,3.49,0,0,1-1.86,2.63,11.63,11.63,0,0,0-4.39,5.36,3.31,3.31,0,0,0,.4,2.06c1.09,2.7,2.31,5.35,3.35,8.08.76,2,1.3,4.05,1.94,6.07.11.33.27.65.44,1.07,1.16-.42,2.21-.87,3.31-1.19,2-.56,4-1.12,6-1.55,1.61-.34,1.72-.2,2.38,1.49.79,0,1.64.09,2.48.11a25.48,25.48,0,0,1,15.76,5.87,23.56,23.56,0,0,1,4.65,5.6,31.12,31.12,0,0,1,5.06,11.6,31.63,31.63,0,0,1-1.15,14.76,28.49,28.49,0,0,1-4.95,9.08,16.43,16.43,0,0,1-4.69,4c-2.75,1.68-5.49,3.41-8.74,4a18.94,18.94,0,0,1-3.44.36c-3.88,0-7.83.25-11.6-.85-5.07-1.48-9.56-4-12.61-8.48-1.74-2.55-3.13-5.33-4.81-8.24-.27-.1-1.08-.16-1.41-.58a4,4,0,0,1-.57-2c-.23-2.67-.57-5.35-.54-8a26.9,26.9,0,0,1,4.84-15.8c1.48-2.08,3.09-4.07,4.69-6.06a2.13,2.13,0,0,0,.64-1.6c-.06-.72.09-1.45.07-2.18a21,21,0,0,0-.32-2.09c-1.25.92-2.26,1.56-3.14,2.34a31.06,31.06,0,0,0-9.26,13.76c-1,3.17-2.28,6.28-3.57,9.36a16.24,16.24,0,0,1-5.24,6.68,6.92,6.92,0,0,1-.89.49c1.41.68,2.41,1.23,3.47,1.66a2.68,2.68,0,0,1,1.51,1.48c.63,1.45.11,2.37-1.46,2.52C142.45,291,141.85,291,141.27,291Zm-32.89-7.24-1.86-.11V284l1.89-.27a3.33,3.33,0,0,0,1,.58c2,.34,3.93.62,5.9.91.71.1,1.43.16,2.14.24l0-.38C114.45,284.62,111.42,284.17,108.38,283.75Zm39.21-15.48c-.35.68-.74,1.34-1.05,2-.95,2.16-1.81,4.36-2.8,6.51a15,15,0,0,1-5.3,6.33c-.38.26-.71.59-1.15,1,1,.47,1.54-.07,2.09-.48a14,14,0,0,0,4.43-5.23c1-2.07,1.82-4.22,2.63-6.37.47-1.23.75-2.52,1.12-3.79l.75-1.34-.35-.13Zm12-23c.94,0,1.5.29,1.48,1.35a4.55,4.55,0,0,0,.21,1.25,2.1,2.1,0,0,1-1,2.62,12.2,12.2,0,0,0-3.41,3.56,31.58,31.58,0,0,1,5.29-3.28c.67,1.57,1.58,2.85,1.24,4.68a6.21,6.21,0,0,0,.46,3.55c2.22,4.84,4.58,9.62,7,14.4a14.47,14.47,0,0,0,1.65,2.15,1.77,1.77,0,0,0-.3-1.27c-2-3.56-4.05-7.05-5.84-10.7-1.27-2.58-2.55-5.29-1.44-8.35a1.21,1.21,0,0,0-.05-.7c-1.1-3.53-2.23-7-3.44-10.86l-1.79,1.64L158,246l.25.41Zm-14.76,9.31a8.47,8.47,0,0,0,1.13-1,22.53,22.53,0,0,1,6.74-6c2-1.15,4-2.5,6.07-3.82-.53-1.7-.95-3.34-1.54-4.93a3.82,3.82,0,0,1,.66-4.21c.94-1.08,1.73-2.3,2.52-3.38-1.28-1.79-2.53-3.36-3.6-5.05a11.91,11.91,0,0,0-3.61-3.53c-2.71-1.84-5.88-2.55-8.86-3.72a.86.86,0,0,0-.52-.06c-1.86.69-3.43-.27-5-.92-.66-.28-1.67-.54-1.55-1.53s-.48-1.17-1-1.54c-2.48-1.7-5.34-2.53-8.24-3.68l-.61,2c2.7,1.19,5.3,2.34,7.9,3.46,1.5.65,1.52.65,1.37,2.3-.18,1.87-.41,3.73-.53,5.61a3.72,3.72,0,0,0,.29,1.75c.86,1.87,1.83,3.68,2.73,5.53a22.87,22.87,0,0,1,1,2.36c.64,1.83,1.29,3.67,1.86,5.53,1.1,3.6,2.17,7.2,3.19,10.83a5.11,5.11,0,0,1-.29,4.08c-1.44,1.55-2.89,3.09-4.33,4.63-.33.35-.84.64-1,1-.71,2.07-1.32,4.18-2,6.28l.43.2a27.74,27.74,0,0,0,2-2.72c1.59-2.8,3.09-5.64,4.6-8.47A3.36,3.36,0,0,0,144.87,254.54Zm19.86,10.24-.5,0c-1.1,2-2.23,4-3.28,6.06a21.06,21.06,0,0,0-.54,19.31,30.56,30.56,0,0,0,6.61,9.54c4.07,3.86,9.19,4.71,14.59,4.25a17,17,0,0,0,7.29-2.08,28,28,0,0,0,9.22-8.92c4.29-6.5,4.12-13.39,1.62-20.43a16.44,16.44,0,0,0-5.17-7.81c-5-3.86-10.49-6.07-16.9-5.53a17.34,17.34,0,0,0-7.28,2.23c1.77,5.13,3.82,10,7.47,13.95,1.1,1.22,2.27,2.37,3.37,3.59.73.81.72,1.79-.06,1.93-1,.18-1.2,1.11-2.07,1.71a10,10,0,0,1-2.49-1,28.07,28.07,0,0,1-8.72-10.37C166.9,269,165.79,266.89,164.73,264.78Zm-63,.2a26.68,26.68,0,0,0-9.11-4.26,14.11,14.11,0,0,0-8.26.24c-5.08,1.9-9.35,4.73-12.42,9.39a22.28,22.28,0,0,0-3.44,16,22.62,22.62,0,0,0,6.37,12.29,16.93,16.93,0,0,0,8.43,5.2,23.5,23.5,0,0,0,10.84.14,18.32,18.32,0,0,0,11.07-7.21,32.83,32.83,0,0,0,4.38-9c.18-.55.26-1.14.41-1.83-.91-.14-1.63-.22-2.33-.37a81.72,81.72,0,0,0-20.1-1.75,3,3,0,0,1-1.07-.12c-1.34-.43-1.78-1.65-.82-2.65A9.37,9.37,0,0,1,88.44,279a4.29,4.29,0,0,0,1.78-1.46c.88-1.24,1.69-2.52,2.64-3.69A47.77,47.77,0,0,1,101.76,265Zm16.82-32.19c1,1.43,2,3,3.07,4.54a67.12,67.12,0,0,0,4,5.42c1.91,2.2,4,4.25,6,6.33,1.76,1.8,2.52,3.83,1.67,6.31-.24.69-.37,1.41-.59,2.11-.54,1.74-1.16,3.45-1.64,5.21-1.11,4.09-1.09,8.3-1.07,12.5,0,3.07,0,3.07,3,2.48.11,0,.19-.14.34-.26s.15-.52.22-.81c1-4,1.88-8.05,3-12,1.05-3.74,2.34-7.41,3.54-11.11a6.32,6.32,0,0,0-.35-5.08c-1.91-3.79-3.56-7.72-5.34-11.58-.76-1.65-1.54-3.28-2.37-4.9-.4-.8-.92-1.54-1.54-2.56-1.2.09-2.59.11-4,.32-1.82.28-3.61,1-5.38-.22a3.74,3.74,0,0,0-1.36-.26Zm44.52,28.74a3.2,3.2,0,0,0-.57.33,25.33,25.33,0,0,0-7.22,12.26,28.85,28.85,0,0,0,5.6,25.11,20.7,20.7,0,0,0,11.25,7.06c3.8,1,7.73.73,11.62.71a9.19,9.19,0,0,0,2.17-.22c5.81-1.53,10.82-4.23,14.29-9.37A28.28,28.28,0,0,0,204.93,278c-.48-4.47-2.39-8.36-4.75-12.11a22.42,22.42,0,0,0-15.05-10.6,49.47,49.47,0,0,0-6.34-.59,15.21,15.21,0,0,0-7.93,1.15,33.67,33.67,0,0,0-4.77,2.31l.83,2.74c2.41-.9,4.65-1.82,7-2.56a20.81,20.81,0,0,1,9.92-.35,26,26,0,0,1,9.84,4.14,18.73,18.73,0,0,1,6.78,7.92,24.68,24.68,0,0,1,2,16.54c-1.86,7.93-7,13.42-14.13,17.21a9,9,0,0,1-2,.84,26,26,0,0,1-11.57.41c-3.42-.74-6.67-2-9.11-4.66a36.26,36.26,0,0,1-6.89-10.46,21.65,21.65,0,0,1-.22-17.2,38.33,38.33,0,0,1,5.39-9.75Zm-58.18,1.19a21.75,21.75,0,0,0-6.92-4.1,24.47,24.47,0,0,0-18.66-.11c-5.25,2.14-9,6.05-12.37,10.5a2.67,2.67,0,0,0-.38.82c-.45,1.51-.85,3-1.32,4.55A26.65,26.65,0,0,0,65.16,289a30.67,30.67,0,0,0,4.07,8.52,22.82,22.82,0,0,0,28.24,9.32,50.89,50.89,0,0,0,6.73-3.64,14.58,14.58,0,0,0,6-6.19c1.48-3,2.83-6.05,4.22-9.09a6.54,6.54,0,0,0,.29-1.18l-3.08-.54a38.54,38.54,0,0,1-4.82,10.95,17.16,17.16,0,0,1-4.65,4.84c-6,4.2-12.55,5-19.48,3.24a19.46,19.46,0,0,1-10.34-7.14c-5.11-6.45-6.92-13.67-4.8-21.75a26.56,26.56,0,0,1,4.92-9.08,18.42,18.42,0,0,1,7-5.68c.71-.34,1.46-.62,2.15-1a15.55,15.55,0,0,1,13.41-.61c2.76,1.05,5.38,2.49,8.25,3.85Zm10.19-30.66a10,10,0,0,0,1.89-.67,2.16,2.16,0,0,0,1-1.17c.52-2.68.42-3,3.83-2.18a1.8,1.8,0,0,1,.53.14,3.29,3.29,0,0,0,2.46.28c1.44-.24,2.89-.41,4.33-.63a3.88,3.88,0,0,1,3.08.78,1.62,1.62,0,0,0,.94.41c.89-.05,1.78-.2,2.64-.31a1.25,1.25,0,0,0,0-.26,1.8,1.8,0,0,0-.17-.51,5.62,5.62,0,0,1-.85-4.49,42.89,42.89,0,0,0,.42-5.2l-10.28-4.49c-.34-.14-.78-.19-1-.44-.9-1.07-2.19-1.2-3.4-1.54a1.67,1.67,0,0,0-2,.76,29,29,0,0,0-3.8,7.64C113.28,224.13,114.21,228,115.11,232.06Zm5.81,7.09a32.46,32.46,0,0,1-4,2.1c-1.65.6-2.09,2.09-2.9,3.32-.15.23,0,.69.06,1,.42,1.71.85,3.41,1.32,5.11a13.37,13.37,0,0,0,.89,2.56c1.12,2.21,2.33,4.37,3.48,6.57.34.66.59,1.37.88,2.05,1.81-1.77,3.42-3.5,5.2-5.05a12.5,12.5,0,0,1,6.3-3.33c-.25-1.83-.37-2.14-1.92-3.74C127.08,246.45,123.69,243.3,120.92,239.15Zm14.65,43.9c.68-.38,1.28-.66,1.82-1a13.77,13.77,0,0,0,5-5.88c1-2.2,1.88-4.48,2.87-6.69a75.9,75.9,0,0,1,4.32-9.21A55.94,55.94,0,0,1,159,249.61c.7-.66,1.21-1.17.42-2.28-1,.61-2.07,1.18-3.07,1.83A31,31,0,0,0,146,260.78a84.63,84.63,0,0,1-4.59,7.42,12.05,12.05,0,0,1-5.42,4.53c-.39,1.89-.88,3.77-1.16,5.69C134.65,279.89,134.42,281.43,135.57,283.05ZM87.3,281.58l.09.51a35.3,35.3,0,0,0,4.6.14c1.64.07,3.28.2,4.91.31l4.52.32,0-.39c-1.13-.14-2.25-.29-3.38-.41S96,282,95,281.8c-.27,0-.68-.43-.67-.63a1,1,0,0,1,.63-.71,8.36,8.36,0,0,1,2,0c3.63.33,7.25.75,10.89,1,3.87.29,7.76.43,11.65.69a8.79,8.79,0,0,1,2,.74,8.19,8.19,0,0,1,6.25-1.77l.27-2.28-3.47-.6-1-3c-1-3-2-6-3-9a61.25,61.25,0,0,0-4.17-10.29c-.24-.44-.36-1-1.25-.94.29.88.87,1.72.73,2.42s-1,1.33-1.48,1.95c2.62-.42,2-.71,3.07,1.7,1.35,3.18,2.51,6.45,3.77,9.67.8,2,1.68,4,2.42,6.1.51,1.41.14,1.94-1.35,2-3,.11-6.08.19-9.12.22-1.64,0-3.28-.14-4.92-.12-4.81.06-9.61.2-14.41.24a10.78,10.78,0,0,0-5.55,1.62A8.64,8.64,0,0,0,87.3,281.58Zm40.6-115.22c1.95.27,3.7.46,5.42.76,2.75.49,5.52.89,8.19,1.63,1.33.37,2.53.85,4,.24.18-3.49-.58-6.54-3.81-8.6a9.22,9.22,0,0,0-7.7-.88,6.9,6.9,0,0,0-2.93,1.71A14.16,14.16,0,0,0,127.9,166.36Zm2.85,1.91c-.64,3.49-.33,6.58,2,9.35,1.45,1.73,1.32,1.83,3.4,1a3.74,3.74,0,0,0,1-.46c1.05-.8,2.39-1.45,3-2.52a28.39,28.39,0,0,0,1.87-5.23A62.9,62.9,0,0,0,130.75,168.27Zm16.65,47.79c.61,2.21,2.3,2.95,4,3.61a17.83,17.83,0,0,1,7.9,6.51c.82,1.13,1.69,2.22,2.46,3.24l2.84-.21a34.26,34.26,0,0,0,0-4.41,3.44,3.44,0,0,0-1.28-2.09c-1.26-.91-2.35-2.37-4.24-2-.1,0-.23-.08-.33-.13-1.27-.71-2.57-1.36-3.8-2.13-1.94-1.22-3.83-2.51-5.87-3.86Zm-45.88,25.1a23.37,23.37,0,0,0,2.53.8c1.79.34,3.59.61,5.39.86a2.59,2.59,0,0,0,1.39-.11c3.08-1.56,6.14-3.17,9.33-4.83L119,236c-.87.16-1.71.23-2.51.46a30.22,30.22,0,0,0-3.61,1.26,8.22,8.22,0,0,1-6.22.11c-.86-.3-1.72-.64-2.59-.87-1.48-.39-2.08,0-2.32,1.45C101.6,239.25,101.59,240.16,101.52,241.16Zm39.29,15.39c2.73-1.63,3.43-3.16,2.87-5.85-.13-.59-.24-1.19-.42-1.77q-2.43-7.65-4.89-15.28a7.65,7.65,0,0,0-.71-1.47c-1.22-2.15-1.87-2.36-4.27-1.38a27.39,27.39,0,0,1,2.05,4,74.59,74.59,0,0,0,5.64,12.64,7.88,7.88,0,0,1,.56,6.49C141.4,254.76,141.13,255.55,140.81,256.55Zm-9-1.07-.31-.28a19.36,19.36,0,0,0-2,.88,26.78,26.78,0,0,0-7.79,7.28,1.52,1.52,0,0,0-.19,1.15c.4,1.44.88,2.86,1.38,4.46l1.24-1a33.71,33.71,0,0,1,3.44-2.67,4.14,4.14,0,0,0,2.15-3.33,13,13,0,0,1,.79-2.6ZM96.4,276.93l.28.28h12.54a13.83,13.83,0,0,0-4.08-8.76C102.17,271.32,99.29,274.13,96.4,276.93Zm30.39,12a4.16,4.16,0,0,0,2.71.69c1.69,0,3.38.13,5.07.1,2.82,0,5.63-.17,8.44-.26l.14-.42a11.78,11.78,0,0,0-1.16-.84q-3.74-2-7.51-4a1.83,1.83,0,0,0-1-.21c-1.62.15-3.23.35-5,.55-.42,1-.88,2-1.32,3.08C127,288,127,288.41,126.79,288.93Zm.63-6a6.14,6.14,0,0,0-1.57-.29,5.58,5.58,0,0,0-5.07,4.5c-.33,2.66,1.22,5.65,3.5,6.39a8.09,8.09,0,0,0,6.85-.61c.62-.36,1.26-.74,1.27-1.72a27.55,27.55,0,0,1-3.64,0c-4-.55-4-1.49-2.83-4.42C126.42,285.49,126.89,284.26,127.42,282.89Zm15.92-66.18a12.62,12.62,0,0,0,0-2c-.25-1.64-.8-2-2.47-1.86a2.76,2.76,0,0,1-1.31-.3c-2.62-1.27-5.21-2.6-7.84-3.84-1.34-.64-1.7-.42-2.39,1.3.61.23,1.24.42,1.83.7,2.07,1,4.15,2,6.19,3a2.74,2.74,0,0,1,1.82,2.64C140.62,216.29,141.6,218.25,143.34,216.71Zm-32.83,46.46,3.77,6c1.93.07,2.42-1.58,3.33-2.72a.87.87,0,0,0,0-.68,25.89,25.89,0,0,0-2.2-5.14Zm2.64,14.07c-.92-4.64-2.48-8.8-5.84-12.22l-1.91,1.37a17.61,17.61,0,0,1,5.44,10.85Zm54.46-14.55a91.74,91.74,0,0,0,7.16,12.53,51.17,51.17,0,0,0,3.74,4.47c.17.19.62.12,1.13.21a101.47,101.47,0,0,1-6.43-8.48,95.41,95.41,0,0,1-4.49-9.43Zm-43.34,9.56,4.28-1c.1-1.74.18-3.21.28-5.15-1.65,1.37-3,2.5-4.34,3.56C123.62,270.37,123.39,271.07,124.27,272.25Zm17-7.15.32.2c.34-.52.7-1,1-1.57,1.07-1.83,2.12-3.68,3.18-5.52a27,27,0,0,1,7.28-8.54,6.54,6.54,0,0,0,.61-.57,5.41,5.41,0,0,0-2.81,1.43,22.84,22.84,0,0,0-5.52,6.94C144.05,260,142.67,262.56,141.31,265.1ZM129.12,283l4-.46v-3.18c-.81.06-1.46.13-2.11.17-1.33.07-1.49.2-1.69,1.56C129.21,281.59,129.19,282.12,129.12,283Zm-14.06-12c.52,1.92,1,3.84,1.58,5.74.27.91,1,.64,1.5.54C119.21,274.06,116.81,272.69,115.06,271Zm9-59.75a16.61,16.61,0,0,0-5-4.79c0,.86,0,1.44,0,2,0,1.37.23,1.53,1.65,1.85C121.7,210.54,122.67,210.84,124.07,211.22ZM155,216.76l2.84-1.78c-1.25-.91-1.62-1.09-2.94-.61a3.14,3.14,0,0,1-3.05-.6c-.36-.23-.63-.58-1-.82-.13-.09-.37,0-.89,0A16.94,16.94,0,0,0,155,216.76Zm-36.15,55.81c.73-.25,1.18-.6.86-1.36-.41-1-.84-1.93-1.37-3.12l-1.5,2Zm3.21,4.57a9.41,9.41,0,0,0-2-3.94c-.1,1.6-.17,2.81-.24,4.19Zm6.46.48V275l-3,.74C125.91,277.47,127.44,276.8,128.52,277.62Zm-15.1-28,.23-.07c-.52-1.87-1-3.74-1.57-5.72l-1.25.69C111.75,246.31,112.58,248,113.42,249.61ZM96.34,274.78l5.68-5.39A14.1,14.1,0,0,0,96.34,274.78Zm8.37-28.51.52,0,1.26-2.5-2.68-.33C104.18,244.61,104.45,245.44,104.71,246.27Zm35.69,20.15a16.84,16.84,0,0,0-1.91,2.06c-.5.74-1.68.88-1.9,2.35C138.36,269.48,139.77,268.32,140.4,266.42Zm19.07-48.64c-.8-.61-1.31-1.43-2.32-.59C158.31,218.68,158.31,218.68,159.47,217.78Zm-30.92-47.63L129,170v-1.87l-1.48-.21Zm6.34,121.18-.15.23h4.37v-.23ZM125,273.73l.07.48,3.26-.89-.09-.32Zm-11.07-1.15-.34.1.86,2.83.31-.09Zm45.52-37-.25-.12-.68,1.43.27.14Zm-54.51,24.63a3.11,3.11,0,0,0-.14.28c.57.39,1,1.15,2.23,1.05Zm5.53,6.14.31-.21-.7-.78-.19.16Z"/><path d="M311.66,259.6l3.57-5.76a2,2,0,0,0,.25-2.19c-2-4-3.78-8-5.8-12a11.8,11.8,0,0,0-2.68-3.4c-3.63-3.21-5-8.46-3.18-12.6a9.94,9.94,0,0,0,.61-2.77,8.29,8.29,0,0,1,1.59-3.42,12.69,12.69,0,0,1,7.39-5.31,8.84,8.84,0,0,0,2.29-1.07,74.65,74.65,0,0,1,22-9A51.64,51.64,0,0,1,349.5,201c1.66,0,1.91-.27,2.34-1.86a5.72,5.72,0,0,0-.81-5.34,4.84,4.84,0,0,1-.45-5.34,2.55,2.55,0,0,1,1.18-1.24,19.56,19.56,0,0,1,4.71-1.35,17.35,17.35,0,0,1,16,6.56,5.81,5.81,0,0,1,1,5.83c-.52,1.57-.38,2.35-2.86,1.35a1.42,1.42,0,0,0-.67,1.95,6.31,6.31,0,0,1,.46,1.94,2.91,2.91,0,0,1-.5,1.47,27,27,0,0,0-2,3c-1.06,2.43-1.71,2.86-4.29,2.37-.18,0-.36-.06-.61-.1-.71.51-1.3,1.51-2.48.94-.13-.07-.35,0-.52.07-1.36.46-3.46,3.24-3.56,4.69-.08,1.22-.18,2.43-.25,3.64a2.06,2.06,0,0,0,.06.9c1.23,2.39,1.18,5.07,1.7,7.62a6.37,6.37,0,0,0,1.42,3.09c1.37,1.54,2.73,3.1,4.14,4.71.87-.06,1.78-.14,2.68-.19,1.63-.09,1.76.07,1.38,1.9a17.34,17.34,0,0,1,2.7,0,41.79,41.79,0,0,1,5,1.05c1.79.51,2.88.3,4.1-1,.43-.46,1-1,1.54-1.07a12.6,12.6,0,0,1,3.39.38c.19,0,.4.86.29,1.21a33.07,33.07,0,0,1-1.34,3.06,6.08,6.08,0,0,1,.14,4.31c-.21.54.3,1.33.45,2,.08.36.09.74.14,1.1-.44,0-1,.09-1.27-.15a5.52,5.52,0,0,1-.88-1.54c-.12-.26-.2-.53-.37-1a3.91,3.91,0,0,0-.71.69c-.35.63-.59,1.32-1,1.94-1.16,2-2.32,4-5.21,3a.85.85,0,0,0-.68.12c-1.55,1.38-3.54,1.5-5.44,1.87-.05,0-.09.07-.32.25.42,1,.87,2.13,1.32,3.21a1.76,1.76,0,0,0,.61,0c4.45-1.5,9-1.09,13.58-.85a15.88,15.88,0,0,1,8.91,3.4c2.3,1.79,4.46,3.77,6.59,5.76a20.1,20.1,0,0,1,5.06,8.54c.31.92.59,1.86.89,2.78,1.44,4.49.85,9-.46,13.3-1.62,5.35-4.09,10.31-8.62,13.88a22.1,22.1,0,0,1-13,5.14,5.42,5.42,0,0,0-.91.06c-5.15,1.11-10-.41-14.88-1.68-4-1.05-6.84-3.8-9.38-6.91a31.23,31.23,0,0,1-6.06-12.93c-.35-1.54-.67-3.08-1-4.57-.87-.05-1.77-.11-2.67-.13-.28,0-.69,0-.84.19-1,1.26-2.28.84-3.53.59-1-.2-3.29.84-3.62,1.82a3.36,3.36,0,0,0,.15,1.58c.54,2.69.33,5.2-1.5,7.42a8.79,8.79,0,0,1-9.48,2.43,3.73,3.73,0,0,0-1.54-.3,14.72,14.72,0,0,0,1.07,1.76c1.06,1.25,2.2,2.44,3.3,3.66s.95,2.14-.76,2.53a11.19,11.19,0,0,1-7.3-.78,5.24,5.24,0,0,1-1.42-1.33c-.52-.56-1-1.16-1.44-1.7-2.12,1.69-4,3.29-6,4.76a17.87,17.87,0,0,1-11.44,3.61c-1.52-.05-3,0-4.56,0a18.73,18.73,0,0,1-8.59-2,30.92,30.92,0,0,1-12.61-11.31c-3.39-5.13-4-10.87-2.88-16.83a33.78,33.78,0,0,1,3.73-10.25,26.93,26.93,0,0,1,5.1-5.9,19.5,19.5,0,0,1,13.62-5.25c3-.05,6.09-.28,9.07.45C308.33,258.45,309.91,259,311.66,259.6Zm52.08-12a7.85,7.85,0,0,0-4.07-.44c-.54,0-1.09,0-1.64,0-2.85,0-5.7.09-8.55.16-.48,0-1.11-.12-1.2.82.84,0,1.62,0,2.4,0,2.42-.12,4.83-.31,7.26-.42,1.93-.08,3.87-.09,5.81-.14a3.82,3.82,0,0,0,.11.9c.57,1.66-.09,2.95-1.13,4.16-.36.42-.69.85-1,1.27-3.3,3.9-6.42,7.95-10.18,11.45-1.95,1.81-3.64,3.92-5.43,5.9-.53.59-.9,1.2.27,1.82.69-.67,1.46-1.35,2.14-2.1,3.37-3.67,6.72-7.37,10.08-11,1.6-1.75,3.16-3.55,4.84-5.21,1-1,1.62-.75,2,.62.18.64.36,1.28.56,1.92a3,3,0,0,0,.22.44l1.78.14a25.58,25.58,0,0,0-1.7-4,3,3,0,0,1-.66-2.13A3.64,3.64,0,0,0,363.74,247.62Zm-10.07-57.93-1.08-1.26-.79.86,1.93.35a8.34,8.34,0,0,0,.66,1c.59.72,1.8,1.32,1.21,2.37-.38.69-1.46,1-2.2,1.45.71.76.75.86,1.73.42a5.8,5.8,0,0,1,5.87.65c.62.38,1.24.76,1.9,1.08a3,3,0,0,0,1.36.39,16.64,16.64,0,0,1,7.48,1.3,4.33,4.33,0,0,0-.29-4.73,14,14,0,0,0-4.43-4,16,16,0,0,0-12.2-1.87,8.89,8.89,0,0,1,1.11.62c1.28,1.09,2.58,2.17,3.81,3.32a1,1,0,0,1,.09,1.48,1.17,1.17,0,0,1-1.65.14,12.54,12.54,0,0,1-1.46-1.37A6.74,6.74,0,0,0,353.67,189.69Zm13.12,74a40.76,40.76,0,0,0-3.43,2.34c-4.19,3.61-6.08,8.45-6.86,13.73a23.36,23.36,0,0,0,2.72,14.46c2.92,5.57,7.31,9.32,13.57,10.69a42.2,42.2,0,0,0,12.34.46,11.2,11.2,0,0,0,7-3.23c4.84-4.6,8.26-9.93,9-16.82a22.28,22.28,0,0,0-3.51-14.93,15.64,15.64,0,0,0-3.67-4c-6.33-4.94-13.55-6.3-21.34-5.36a11,11,0,0,0-1.74.49c.26.88.42,1.7.73,2.46,1.88,4.62,3.8,9.22,5.7,13.83.48,1.18,1,2.34,1.42,3.55.21.69.73,1.72-.28,2.1s-1.23-.7-1.6-1.37C373.55,276.06,370.25,270,366.79,263.7Zm-57.28.2a8,8,0,0,0-4.29-2.22,21.92,21.92,0,0,0-9.23.14c-10.74,2.08-16.93,12.58-16.87,21.13.05,8.1,3.74,14.31,10.46,18.73,1.11.73,2.42,1.16,3.55,1.87a12.66,12.66,0,0,0,8,1.72c2.48-.2,5-.25,7.45-.55s4.64-.91,6.19-3a19.51,19.51,0,0,1,2.18-2.18l1.25-1.27a12.57,12.57,0,0,1-2-.83,7.64,7.64,0,0,1-2.2-1.8c-1.23-1.81-.8-3.9,1.09-5.51a3.07,3.07,0,0,0,1.14-2.41L303,286l-3.4,1.88c.49.55,1.13,1.19,1.67,1.89a1.33,1.33,0,0,1-.08,2,4.29,4.29,0,0,0-1.35,1.84c-.72,1.44-2,1.46-3,.18a2.71,2.71,0,0,1-.17-3c-1.79-.94-2-1.83-.68-3.08a2.33,2.33,0,0,0,.8-2.7,3.49,3.49,0,0,1,2.32-4.53,3,3,0,0,0,1.63-1.31c1.92-3.17,3.91-6.3,5.79-9.49C307.59,267.78,308.51,265.81,309.51,263.9Zm32.07-40.74c-.31-2.06-.6-4.1-1-6.12-.07-.35-.47-.64-.72-1a30,30,0,0,1-2.16-2.91,3.79,3.79,0,0,1-.33-3.51,7.17,7.17,0,0,1,4.44-4.28,10.62,10.62,0,0,1,4.85-.33c4.43.65,7.09,4,6.49,8.46a18.88,18.88,0,0,1-.91,3.51c-.29.88-.74,1.71-1.19,2.72l3.6-.33c.64-2.75-.55-6,2.77-7.79-1.73-1.81-2.44-4-3.27-6-.34-.85-.69-1.69-1.08-2.51s-.81-1.15-1.74-.77a4.89,4.89,0,0,1-1.8.15,50.89,50.89,0,0,0-11.23,1,72.78,72.78,0,0,0-22,8.93,16.73,16.73,0,0,1-3.16,1.36c-3.44,1.15-5.61,3.56-7.25,6.91,1.73.12,3.18.27,4.62.3,5.77.1,11.55.09,17.31.27a35.29,35.29,0,0,1,5.93.91c1.72.35,3.41.87,5.1,1.35A2.54,2.54,0,0,0,341.58,223.16Zm-4.64,1.28c-2.16-.48-4.43-1.32-6.73-1.43-7.7-.39-15.4-.51-23.11-.74a1.35,1.35,0,0,0-1.44.83,10.29,10.29,0,0,0-.59,7.79,2.53,2.53,0,0,0,1.53,1.69,17.53,17.53,0,0,1,2.61,1.28,19.79,19.79,0,0,0,11.13,2.83c4-.11,8-.15,12-.22a5.12,5.12,0,0,0,.71-.11C334.37,232.36,335.61,228.52,336.94,224.44Zm1.63,1.24c-1.75,2.84-3.51,8.48-3.45,10.83l1.76.35a36.43,36.43,0,0,1,3.74.76c1.41.42,1.51.95,1,2.31a29.44,29.44,0,0,0-1.54,5A144.57,144.57,0,0,1,335.56,265a2.14,2.14,0,0,0,0,1.2c.29.91.69,1.78,1.06,2.7,2.29.8,4-.4,4.13-2.84a15.27,15.27,0,0,1,.19-2.54,55.54,55.54,0,0,1,4.87-14.28c1.49-2.92,3-5.83,4.5-8.75a1.78,1.78,0,0,0,.07-.56c-.7-.57-1.4-1.16-2.11-1.73a6.5,6.5,0,0,1-2.17-2.86c-.87-2.39-1.81-4.77-2.75-7.14-.17-.42-.44-1-.81-1.11C341.24,226.57,339.92,226.16,338.57,225.68Zm28.92,22.15c1.19-2.56,1-3.42-.78-4.7-.34-.24-.75-.39-1.11-.62a31.43,31.43,0,0,1-3.82-2.45c-2.86-2.45-5.61-5-8.38-7.58a2.38,2.38,0,0,1-.73-1c-1.06-3.85-2.08-7.72-3.11-11.58-.05-.17,0-.39-.05-.54-.18-.36-.33-.84-.64-1-1.65-.89-3.33-1.74-5-2.52a6.19,6.19,0,0,0-1.72-.19,22.3,22.3,0,0,0,.26,3.29c.62,2.66,1.24,5.33,2.08,7.92s2,5.1,2.91,7.66a5.91,5.91,0,0,0,1.86,2.64A74.49,74.49,0,0,0,367.49,247.83Zm-55.32,17.36L302.88,283c4.61,1.53,9.25,1.23,14,1.8a29.16,29.16,0,0,0,.37-3.36c0-3.76-.17-7.52-.3-11.28a2.1,2.1,0,0,0-.42-1.32A17.88,17.88,0,0,0,312.17,265.19Zm25.3-14.74H328.7c.13.53.2.87.31,1.21,1.61,4.94,2.1,9.83-.66,14.56a2.13,2.13,0,0,0-.05,1.89c.76,2.56,1.49,5.13,2.22,7.7.37,1.28.72,2.57,1.07,3.86a1.44,1.44,0,0,0,1.06,1.08c1.75.61,3.46,1.35,5.29,2.08.15-.1.41-.26.65-.44a2.3,2.3,0,0,0,.32-3.4,10.81,10.81,0,0,0-5.57-3.9,3.32,3.32,0,0,1-2.31-2.15,5.89,5.89,0,0,1,1.62-6.63,6,6,0,0,0,1.93-3.18c.22-.83.46-1.64.68-2.46A59.32,59.32,0,0,0,337.47,250.45Zm25.13-1.18c-.9,0-1.5,0-2.1,0-4,.16-8,.39-12,.47a1.85,1.85,0,0,0-1.93,1.24,57.29,57.29,0,0,0-3.64,10.48,11,11,0,0,0-.16,1.15l.36.14a14.34,14.34,0,0,0,.7-1.28c.31-.76.7-1.51,1.58-1.59a7.45,7.45,0,0,0,2.71-.77c1.09-.55,1.85.17,1.58,1.43a1.62,1.62,0,0,0,.38,1.47,11.38,11.38,0,0,1,.85,1.67,1.92,1.92,0,0,0,.47-.31c3.55-4.08,7.11-8.15,10.62-12.26A6.1,6.1,0,0,0,362.6,249.27ZM310.37,262c.05-.09.29-.37.25-.6a1,1,0,0,0-.55-.65,32.81,32.81,0,0,0-3.62-1.23c-3.11-.77-6.29-.45-9.45-.37-7.52.19-12.89,4.23-16.69,10.24a28.35,28.35,0,0,0-4,11.86,20.28,20.28,0,0,0,3.29,14.26A28.48,28.48,0,0,0,291.75,306a17.57,17.57,0,0,0,3.38,1.33,43.34,43.34,0,0,0,11.09.28,15,15,0,0,0,3-.58,15.85,15.85,0,0,0,1.95-.83c-3.07.08-6,.34-9,.63a15.36,15.36,0,0,1-10.15-2.11,4.45,4.45,0,0,0-.81-.42c-4.51-1.88-7.68-5.24-10.31-9.23a21.38,21.38,0,0,1-3.31-10.67,22.78,22.78,0,0,1,4.24-14.63c5.63-8.05,13.5-11,23.06-9.51A34.82,34.82,0,0,1,310.37,262Zm56.5-2.43c-.81.56-1.5,1-2.16,1.5a39.17,39.17,0,0,0-3.48,2.63c-4.28,4-6.72,9-8.25,14.56a14.18,14.18,0,0,0,.09,8.11c.31,1,.59,2,.83,3a26.8,26.8,0,0,0,5.18,10.35,17.77,17.77,0,0,0,11.28,7.12c1.73.3,3.44.76,5.18,1a20.38,20.38,0,0,0,4,.18c1.63-.09,3.25-.4,4.88-.61l1.21-.18c-3.35-.29-6.7-.1-10-.34a19.7,19.7,0,0,1-12-4.72,25.47,25.47,0,0,1-8.77-20.78,26.68,26.68,0,0,1,2.41-9.49c2.06-4.88,5.82-8.1,10.59-10.46Zm3.69.26a2.33,2.33,0,0,0,.48,0c7-1.2,13.68-.54,20.12,2.93a22.44,22.44,0,0,1,10.72,13,21.43,21.43,0,0,1,.68,9.91c-1.05,8.43-5.28,14.85-12.23,19.58a3.79,3.79,0,0,0-.42.38,21.69,21.69,0,0,0,4.66-2.43c3.13-2.11,4.9-5.3,6.67-8.52a28.3,28.3,0,0,0,3.14-11.51c.34-3.89-1-7.44-2.48-10.91a16.29,16.29,0,0,0-3-4.92,65,65,0,0,0-7.35-6.52,16,16,0,0,0-4.87-2.39c-4.08-1.31-8.3-.85-12.48-.66a16.78,16.78,0,0,0-3,.65C370.4,258.61,370.07,259,370.56,259.8ZM325.46,238c1,3.08,1.87,5.88,2.82,8.85l9.81-.48c.69-2.53,1.32-4.86,2-7.33C335.3,237.8,330.48,237.84,325.46,238Zm24.94-20.59a10,10,0,0,0,1.37-5.9,4.13,4.13,0,0,0-.68-2,7.6,7.6,0,0,0-9.71-2.26c-2.45,1.47-3.59,3.67-1.82,6.22a1.4,1.4,0,0,0,1.64.76,7.71,7.71,0,0,1,5.4,1.1C347.83,215.92,349,216.62,350.4,217.38Zm-21.2,63.56c.84-.17,1-.55.77-1.32-2.45-9.93-6-19.5-9.32-29.15a12.5,12.5,0,0,1-.33-1.46,6.68,6.68,0,0,1,.78-.15l14.95-.05a3.52,3.52,0,0,0,1.08-.13,3,3,0,0,0,.74-.5,2.43,2.43,0,0,0-1.33-.26c-2,.08-3.89.24-5.83.24-3.65,0-7.3-.09-10.94-.12-1.71,0-1.7,0-2.31-1.49-.68-1.69-1.36-3.38-2.09-5.05-1.25-2.85-1.27-2.85-4.25-3.41-.08,0-.18.1-.33.2q3,6.19,5.94,12.41c1.77-.92,2.38-.72,3,.84.17.45.24.93.37,1.4.6,2,1.1,4.11,1.81,6.11,2.48,7,5.1,13.91,7,21.1A6.29,6.29,0,0,0,329.2,280.94Zm5.12-13.83a4.44,4.44,0,0,0-2.1,4.63,2.43,2.43,0,0,0,1.85,2,11,11,0,0,1,5.51,3.7c2.11,2.45,4.94,3.4,8,3.93a22.2,22.2,0,0,0,2.59.16,3.15,3.15,0,0,0-.25-.76c-.63-.74-1.27-1.46-1.88-2.16-2.34.51-2.58.35-2.7-1.69a5.55,5.55,0,0,1-.89.11,1.25,1.25,0,0,1-1.18-2c.19-.38.52-.68.71-1.06a5.85,5.85,0,0,0,.2-1.24,7.59,7.59,0,0,1-.94.81c-.59.34-1.25.63-1.85.08a1.5,1.5,0,0,1-.14-2c.31-.59.67-1.14,1.18-2l-1.05-1.18a3.87,3.87,0,0,1-4.4,2.23C334.84,270.48,334.82,268.6,334.32,267.11ZM368.81,199c-2.44-.71-4.65-1.05-6.27,1.36a9.45,9.45,0,0,1-.77.78c-2.49,2.69-2.62,5.06-.39,8.3a3.19,3.19,0,0,1,3-.46c1.12.32,1.44,0,1.94-1.06.75-1.56,1.57-3.08,2.47-4.84C368.42,201.92,367.77,200.5,368.81,199ZM351,279.86c2.36-8.72,5.86-16.1,13.82-20.62-.23-.95-.44-1.84-.72-3L347.2,274.78Zm12.2-40.53.47-.33a9.8,9.8,0,0,0-.91-1.62c-1.31-1.6-2.66-3.17-4-4.71a7.75,7.75,0,0,1-2.18-4.5,46.81,46.81,0,0,0-.76-4.67,5.69,5.69,0,0,0-.59-1.71,1.38,1.38,0,0,0-.93-.68,22.06,22.06,0,0,0-2.67.15c.8,3.14,1.51,6.08,2.32,9a3.91,3.91,0,0,0,1.09,1.61c1.66,1.6,3.36,3.16,5.07,4.72C361.06,237.52,362.12,238.41,363.16,239.33Zm-45.48-1.15c.91,2.76,1.66,5.12,2.49,7.46a1.48,1.48,0,0,0,1,.88,22.62,22.62,0,0,0,5.28.13,39.82,39.82,0,0,0-2.3-7.63,1.15,1.15,0,0,0-1.23-.85C321.26,238.19,319.63,238.18,317.68,238.18Zm4.76,12.36c1.45,4.85,3,9.37,4.85,14.21.85-2.16,1.85-3.83,1.66-5.77a46.5,46.5,0,0,0-.92-5.38,29,29,0,0,0-1-3.06ZM334.86,285c-2.78-1.24-5-.64-6.52,1.42a3.26,3.26,0,0,0-.78,2.34,5.07,5.07,0,0,0,6.73,4.53c2.78-.85,3.79-2.76,2.82-5.76-1.23,1-2.42,1.91-3.53,2.89-.88.79-1.42,1-2.24.48a1.73,1.73,0,0,1-.85-2.28,3.09,3.09,0,0,1,1.76-2.15C333,286.11,333.79,285.64,334.86,285ZM370,245.08l-.82,3.44c2.44,1.38,5.08,1.51,7.68,1.85,1.05-1.83,2.35-3.38,2.54-5.72C376.2,244.46,373.12,245.18,370,245.08Zm-46.8,40.5c-.84-5-1.13-9.85-4.51-14V285Zm7.74,17.58a37.59,37.59,0,0,1-3.53-4.22,37.09,37.09,0,0,1-2.2-5c-1.1,1.94-2.12,3.76-3,5.4.74,1,1.32,1.83,2,2.61a2.24,2.24,0,0,0,.86.62A9.63,9.63,0,0,0,330.92,303.16Zm-10-42.33-.5,0c-.33,1.48-.66,3-1,4.57a30.46,30.46,0,0,1,7.15,15.22,16.56,16.56,0,0,0,.54,1.78c.54-.83.59-.85.33-1.68-1.41-4.58-2.82-9.16-4.29-13.72C322.43,264.9,321.63,262.88,320.89,260.83Zm-7.82,2.85a2.26,2.26,0,0,0,.28.36c6,4.36,9.88,10,10.73,17.47.14,1.19.43,2.35.66,3.61,1.11-.79.8-1.79.64-2.61a41.2,41.2,0,0,0-2.9-9.76,21.24,21.24,0,0,0-8.9-9.94Zm5.32-10.61c-.74,1.67-1.28,3-1.92,4.3s-1.4,2.63-2.13,4l3.53,2.52c.65-1.75,1.28-3.42,1.89-5.09a1.26,1.26,0,0,0,.11-.7C319.43,256.54,319,255,318.39,253.07Zm30.55,10.25c-.39-1.13-1.35-1.34-2.12-1.74-1-.54-1.5-.34-1.58.77A1.66,1.66,0,0,1,344,264a2.61,2.61,0,0,0-1.18,3.92c.35.6.8,1.15,1.3,1.87a15,15,0,0,0,2.9-4.14C347.39,264.64,347.76,263.65,348.94,263.32Zm27.14-20.11c.72-.12,1.68,0,1.83-.35.61-1.31,1.93-1.38,2.94-2a3.41,3.41,0,0,0,2-2.58c-1.57-.38-1.57-.38-2.43.49a5,5,0,0,1-5.64,1.3,21.66,21.66,0,0,0-4.23-1,5.32,5.32,0,0,0-3.55.6c1.73.16,3,.22,4.33.41C373.27,240.43,375.11,241,376.08,243.21Zm-16.57-33.63a10,10,0,0,1-1.23-5.24,1.27,1.27,0,0,0-.47-.9,8.91,8.91,0,0,1-2.91-4.37l-1.69,1.23c.8,1.57,1.57,3,2.25,4.44.52,1.09.9,2.24,1.4,3.34a10.16,10.16,0,0,0,1,1.71C358.34,210.41,358.88,210.38,359.51,209.58Zm3-11.51c-2-.8-3.49-2.64-5.83-2-.53,3.25.1,4.85,2.27,6.12Zm-10.85,43-2.48,4.67c3.4,0,6.41,0,9.84-.11Zm-29.8,51.36-.35-.35c-.48.34-.95.7-1.45,1a1.53,1.53,0,0,1-2.45-.59c-.3-.5-.52-1-.78-1.58-1.41.82-2.12,1.82-2,2.86a2.82,2.82,0,0,0,2,2.33c.78.29,1.55.61,2.52,1C320.27,295.45,321.08,293.92,321.88,292.39Zm14.89,1.86a39.52,39.52,0,0,1-4.74.93c-1.77.12-2.95-1.21-4.2-2.27s-1.5-2.64-2-4.39a5.75,5.75,0,0,0,3,6.62C331,296.34,335.26,296.19,336.77,294.25Zm-18.88-6.64c-.35,1.74.7,2.84,1.13,4.2l2.35-1.44v-2.48Zm56.19-44.15a6,6,0,0,0-6.6-1.62c.79.6,1.43,1.46,2.18,1.58A26,26,0,0,0,374.08,243.46ZM305,276.06l-.37-.19c-1.18,1.83-2.35,3.68-3.57,5.49a2.2,2.2,0,0,1-1.19.94c-1.6.25-1.66.25-1.59,1.86l2.42-.61Zm11,26.66.31.24a21.1,21.1,0,0,0,7.73-11.1c-1.19,1.94-2.11,4.07-3.45,5.9A55,55,0,0,1,316,302.72Zm16.44-20.3c-2.82-.52-5.82,1.56-6,4.33C327.73,284.08,330,283.12,332.41,282.42Zm49.25-40.26-1.9,1,2,1.5C382.53,243.74,382.27,243.06,381.66,242.16Zm-14.38,7.25c.07,1.46.07,1.46,1.9.9ZM316.39,240l.25-.11-.73-2-.44.18ZM298,293l.6-.15a9.61,9.61,0,0,0-.36-.94.57.57,0,0,0-.29.09C298,292.32,298,292.66,298,293Zm35.26-5.21.22.38,1.11-.67-.18-.32Zm-33.83-2,.31.36.73-.57c-.12-.12-.31-.37-.34-.35A7.46,7.46,0,0,0,299.44,285.74Z"/><path d="M362.23,188.39c3.46,1.36,6.58,2.87,8.21,6.31.14.29-.07.74-.13,1.11a3.66,3.66,0,0,1-1.22-.42c-1.38-1.26-2.62-2.67-4.06-3.84a14.23,14.23,0,0,0-3-1.54c-.46-.22-.95-.47-.69-1C361.43,188.69,361.92,188.58,362.23,188.39Z"/></svg>