<svg xmlns="http://www.w3.org/2000/svg" width="500" height="350" viewBox="0 0 500 350"><path d="M144.21,240c-.59,2.22-.68,2.32-3,2.39-1.65.06-3.31.07-5,0a2.75,2.75,0,0,0-1.88.61,10.48,10.48,0,0,1-9.65,1.58c-3.26-1-4.83-3.51-5.49-6.69-.13-.66-.19-1.34-.3-2.08l-2.85-.41c-1.49,3.28-3,6.46-4.38,9.68A22.09,22.09,0,0,1,101.92,256c-3.82,2.1-7.55,4.49-11.93,5.15-6,.9-11.87.74-17.37-2.23-1.27-.69-2.62-1.28-3.81-2.09a21.74,21.74,0,0,1-6.24-6c-2.22-3.42-4.64-6.7-5.93-10.65a31.58,31.58,0,0,1-.23-20.37c-.47-.35-1.14-.61-1.36-1.07a2.68,2.68,0,0,1,0-1.81,13.51,13.51,0,0,1,1.42-3.2,35.92,35.92,0,0,1,20.22-15c6.8-2,13.25-.92,19.62,1.4a35.05,35.05,0,0,1,10.47,5.54l6.8-4c-1.36-3.71-2.64-7.33-4-10.92-.44-1.16-1-2.32-2.64-2.31-.9,1.13-1,2.9-2.54,3.42-3.87-.54-3.85-3.76-4.68-6.35-2.62-1.35-2.7-1.5-2.4-4.55a14,14,0,0,1,.25-1.84c.48-2,1.12-2.52,3.17-2.46a9.58,9.58,0,0,1,2.22.43,26,26,0,0,0,3.37,1,10.16,10.16,0,0,0,3.85-.05c2.37-.63,4.67-1.56,7.15-2.43-.56-.74-.87-1.36-2-1.09-1.68.39-2.18.11-2.6-1.51-1.24-4.8-2-9.62-.22-14.48a30.51,30.51,0,0,1,4.25-8.5,2.62,2.62,0,0,0,.61-2.65,9.17,9.17,0,0,1-.12-2.68,8.89,8.89,0,0,0-.91-4.38,7.06,7.06,0,0,1-.48-3.83,29.43,29.43,0,0,1,1.3-5.85c1.25-3.73,2.68-7.4,4.07-11.09a11.86,11.86,0,0,1,4-5.44c2-1.55,3.91-3.27,5.81-4.87-.28-1.19-.46-2.21-.77-3.19a5.23,5.23,0,0,0-.8-1.36,29.32,29.32,0,0,1-2-2.65,4.51,4.51,0,0,1-.28-4,19,19,0,0,1,3.85-6.58c2.93-3.17,6.7-3.56,10.72-2.91,7.84,1.25,10.69,10.12,8,15.48-.12.24-.17.6-.36.73-2.16,1.51-2.94,4.12-4.76,5.89-.19.19-.32.5-.55.61-2.16,1-4.31,2.11-6.53,3-1.72.69-2.57.32-3.76-1.21-.59-.75-1.14-1.54-1.79-2.44-2.52,2.13-5,4.13-7.32,6.25a6.25,6.25,0,0,0-1.53,2.44c-1.78,4.79-3.49,9.61-5.2,14.42a11.53,11.53,0,0,0-.33,1.41c-.73,3.17.24,5.57,2.84,7.62,2.37,1.86,4.41,4.15,6.57,6.22l4-5.14c-1-.77-2.07-1.58-3.11-2.43a17.22,17.22,0,0,1-2.27-2.07,4.11,4.11,0,0,1-.73-1.86,18.88,18.88,0,0,1-.22-2.34c.76-1.3,1.47-2.43,2.09-3.61,1.22-2.32,2.39-4.67,3.58-7l.09-.19c.26-.56.7-1,1.28-.6a1.31,1.31,0,0,1,.26,1.22c-.57,1.41-1.25,2.77-1.93,4.13-1.06,2.09-2.21,4.13-3.19,6.26a3.24,3.24,0,0,0,1.43,4.29c1.93,1.25,3.82,2.51,5,4.58a1,1,0,0,0,.43.43l6.51,3.18a35.36,35.36,0,0,0,1.52-9.81,14,14,0,0,1,.29-2.67c.08-.34.62-.57.95-.85.22.38.65.78.62,1.14-.37,3.77-.21,7.61-1.32,11.3,0,.06,0,.14,0,.36,1,.81,1.82,2,3.42,2.26a2.79,2.79,0,0,1,1.71,1.37,5.5,5.5,0,0,0,2.64,2.47l3.56-4.07c-.88-.85-1.63-1.63-2.43-2.36-1.11-1-2.34-1.94-3.37-3a40.25,40.25,0,0,1-3.25-4,2.08,2.08,0,0,1-.25-1.55c1.08-4.25.77-8.66,1.52-13,.3-1.76.3-3.58.43-5.37a5.49,5.49,0,0,0-1.61-4.33,10.6,10.6,0,0,1-1.53-2c-.17-.32.06-.87.1-1.31.43.11,1,.1,1.24.37a32.54,32.54,0,0,1,2.36,2.88,4.72,4.72,0,0,1,1.09,3.27c-.34,3.92-.64,7.85-1,11.77-.24,2.54-.56,5.07-.82,7.61a1.17,1.17,0,0,0,.16.77c1.51,1.86,2.6,4.08,4.77,5.38a9.88,9.88,0,0,1,1.51,1.39c.15.15.23.38.39.48a8.78,8.78,0,0,1,3.8,4c.34.82,1.37,1.05,2.52.79,3.74-.84,6.65,1.32,7,5.07a2.59,2.59,0,0,0,1.28,2c1.32,1,2.64,2,3.88,3.11a5.44,5.44,0,0,1,1.95,4.61c-.08,1.24-.15,2.48-.29,3.72a3.94,3.94,0,0,1-2.12,3,13.21,13.21,0,0,0-5,6.09,3.84,3.84,0,0,0,.46,2.35c1.24,3.07,2.63,6.08,3.81,9.18.86,2.25,1.47,4.6,2.2,6.91.12.37.3.73.5,1.21,1.32-.48,2.52-1,3.76-1.35,2.25-.65,4.51-1.28,6.8-1.76,1.83-.39,2-.23,2.7,1.69.91,0,1.87.1,2.83.12A29,29,0,0,1,207,203.79a26.59,26.59,0,0,1,5.28,6.36,35.33,35.33,0,0,1,5.76,13.19,35.94,35.94,0,0,1-1.31,16.78,32.4,32.4,0,0,1-5.63,10.33,18.69,18.69,0,0,1-5.33,4.57c-3.12,1.91-6.24,3.88-9.93,4.53a21.56,21.56,0,0,1-3.92.42c-4.41-.05-8.9.28-13.19-1-5.76-1.68-10.87-4.57-14.33-9.64-2-2.9-3.56-6.07-5.48-9.38-.3-.11-1.22-.17-1.6-.65a4.59,4.59,0,0,1-.64-2.33c-.26-3-.65-6.07-.62-9.1a30.67,30.67,0,0,1,5.5-18c1.69-2.36,3.51-4.63,5.34-6.89a2.38,2.38,0,0,0,.72-1.82c-.07-.82.11-1.65.08-2.48a21.18,21.18,0,0,0-.37-2.37c-1.41,1-2.56,1.77-3.56,2.66a35.26,35.26,0,0,0-10.53,15.64c-1.19,3.6-2.59,7.14-4.06,10.64a18.4,18.4,0,0,1-6,7.6,8,8,0,0,1-1,.55c1.6.78,2.75,1.4,3.94,1.89a3,3,0,0,1,1.72,1.68c.73,1.65.13,2.7-1.66,2.87C145.55,240,144.86,240,144.21,240Zm-37.4-8.24-2.11-.13,0,.39,2.14-.3a3.88,3.88,0,0,0,1.12.65c2.23.39,4.47.71,6.71,1,.8.11,1.62.18,2.43.27l0-.43C113.72,232.76,110.28,232.26,106.81,231.78Zm44.59-17.6c-.4.77-.85,1.52-1.2,2.32-1.07,2.46-2.06,5-3.18,7.4a17.14,17.14,0,0,1-6,7.2,15.67,15.67,0,0,0-1.3,1.09c1.1.53,1.74-.08,2.37-.54a16.07,16.07,0,0,0,5-6c1.12-2.35,2.07-4.8,3-7.24.53-1.4.85-2.87,1.27-4.31l.85-1.53-.39-.15ZM165.08,188c1.07,0,1.71.33,1.69,1.53a5,5,0,0,0,.24,1.43,2.39,2.39,0,0,1-1.12,3,13.81,13.81,0,0,0-3.87,4c1.95-1.26,3.7-2.79,6-3.72.77,1.78,1.8,3.24,1.41,5.32a7.08,7.08,0,0,0,.52,4c2.53,5.51,5.21,10.94,7.91,16.37a16.05,16.05,0,0,0,1.87,2.45,2,2,0,0,0-.34-1.44c-2.23-4.05-4.6-8-6.64-12.17-1.44-2.93-2.9-6-1.64-9.49a1.3,1.3,0,0,0-.05-.8c-1.26-4-2.54-8-3.91-12.34l-2,1.86-1.92.79.29.47ZM148.3,198.56a8.77,8.77,0,0,0,1.29-1.14,25.42,25.42,0,0,1,7.66-6.86c2.33-1.32,4.54-2.85,6.9-4.35-.59-1.94-1.08-3.8-1.74-5.6a4.34,4.34,0,0,1,.75-4.8c1.07-1.22,2-2.61,2.86-3.84-1.46-2-2.88-3.82-4.09-5.74a13.55,13.55,0,0,0-4.11-4c-3.08-2.09-6.68-2.9-10.07-4.23a1,1,0,0,0-.6-.07c-2.11.79-3.9-.3-5.7-1-.75-.31-1.9-.61-1.77-1.73s-.54-1.34-1.14-1.75c-2.82-1.94-6.07-2.88-9.38-4.19l-.69,2.3c3.07,1.35,6,2.65,9,3.93,1.71.74,1.73.74,1.55,2.61-.19,2.13-.46,4.25-.6,6.38a4.13,4.13,0,0,0,.33,2c1,2.12,2.08,4.18,3.1,6.29a25,25,0,0,1,1.1,2.67c.73,2.09,1.46,4.18,2.11,6.29,1.25,4.09,2.47,8.19,3.63,12.31a5.86,5.86,0,0,1-.33,4.65c-1.64,1.75-3.28,3.51-4.93,5.26-.37.4-.95.72-1.11,1.19-.8,2.36-1.49,4.76-2.22,7.14l.48.23a31.05,31.05,0,0,0,2.3-3.1c1.8-3.17,3.51-6.4,5.23-9.62A3.68,3.68,0,0,0,148.3,198.56Zm22.58,11.66-.57-.06c-1.24,2.29-2.53,4.56-3.73,6.88a24,24,0,0,0-.61,22,34.52,34.52,0,0,0,7.52,10.84c4.63,4.4,10.44,5.36,16.58,4.84a19.27,19.27,0,0,0,8.29-2.37,31.69,31.69,0,0,0,10.49-10.14c4.88-7.39,4.69-15.22,1.84-23.23a18.71,18.71,0,0,0-5.88-8.88c-5.64-4.39-11.93-6.9-19.22-6.28a19.9,19.9,0,0,0-8.27,2.53c2,5.83,4.34,11.33,8.49,15.87,1.26,1.37,2.58,2.69,3.84,4.07.83.92.82,2-.08,2.2-1.15.21-1.36,1.26-2.34,1.94a11.1,11.1,0,0,1-2.84-1.18,31.79,31.79,0,0,1-9.91-11.79C173.35,215,172.09,212.62,170.88,210.22Zm-71.59.22a30.31,30.31,0,0,0-10.36-4.84,16,16,0,0,0-9.4.27c-5.77,2.16-10.62,5.37-14.11,10.68a25.26,25.26,0,0,0-3.91,18.2,25.69,25.69,0,0,0,7.24,14,19.4,19.4,0,0,0,9.58,5.92,26.62,26.62,0,0,0,12.33.15,20.82,20.82,0,0,0,12.58-8.19,36.93,36.93,0,0,0,5-10.21,20.59,20.59,0,0,0,.47-2.09c-1-.16-1.85-.24-2.65-.41a91.77,91.77,0,0,0-22.85-2,3.58,3.58,0,0,1-1.22-.14c-1.53-.49-2-1.88-.93-3a10.71,10.71,0,0,1,3.11-2.33,4.94,4.94,0,0,0,2-1.66c1-1.4,1.91-2.87,3-4.2A54.42,54.42,0,0,1,99.29,210.44Zm19.12-36.6c1.1,1.63,2.26,3.42,3.5,5.16a74.7,74.7,0,0,0,4.55,6.16c2.17,2.51,4.55,4.83,6.87,7.2,2,2,2.87,4.35,1.89,7.18-.26.78-.42,1.6-.66,2.39-.61,2-1.32,3.93-1.86,5.92-1.26,4.66-1.25,9.44-1.22,14.22,0,3.49,0,3.49,3.46,2.82.11,0,.21-.16.38-.3s.17-.59.26-.92c1.12-4.56,2.13-9.15,3.4-13.66,1.2-4.25,2.66-8.43,4-12.64a7.12,7.12,0,0,0-.4-5.77c-2.17-4.32-4-8.78-6.06-13.17-.87-1.87-1.76-3.73-2.69-5.57-.46-.91-1-1.74-1.76-2.91-1.37.11-3,.13-4.5.36-2.07.32-4.11,1.13-6.12-.24a4.12,4.12,0,0,0-1.55-.3ZM169,206.52a3,3,0,0,0-.65.37c-3.91,4-7,8.46-8.21,13.94a32.8,32.8,0,0,0,6.38,28.55,23.54,23.54,0,0,0,12.78,8c4.33,1.17,8.79.83,13.22.8A9.65,9.65,0,0,0,195,258c6.6-1.73,12.3-4.81,16.25-10.65a32.08,32.08,0,0,0,5.33-22.08c-.55-5.08-2.72-9.5-5.4-13.77a25.5,25.5,0,0,0-17.11-12.05,55.84,55.84,0,0,0-7.21-.67c-3.09-.2-6.14-.12-9,1.3a39.11,39.11,0,0,0-5.42,2.63l.94,3.12c2.74-1,5.29-2.07,7.9-2.91a23.57,23.57,0,0,1,11.29-.4,29.8,29.8,0,0,1,11.19,4.7,21.29,21.29,0,0,1,7.7,9A28.13,28.13,0,0,1,213.73,235c-2.12,9-8,15.26-16.07,19.56a9.94,9.94,0,0,1-2.29,1,29.52,29.52,0,0,1-13.15.47c-3.89-.84-7.58-2.26-10.35-5.3A41.52,41.52,0,0,1,164,238.8a24.67,24.67,0,0,1-.24-19.56,43.51,43.51,0,0,1,6.13-11.09Zm-66.14,1.35A24.76,24.76,0,0,0,95,203.21c-7-2.73-14.16-3-21.22-.13-6,2.44-10.3,6.89-14.06,11.95a2.79,2.79,0,0,0-.44.92c-.51,1.72-1,3.46-1.49,5.18a30.14,30.14,0,0,0-.13,16.58c.88,3.56,2.74,6.61,4.63,9.67a25.23,25.23,0,0,0,10.46,9.75,25.52,25.52,0,0,0,21.64.86,59.69,59.69,0,0,0,7.66-4.14,16.56,16.56,0,0,0,6.85-7c1.68-3.4,3.22-6.88,4.8-10.34a7.8,7.8,0,0,0,.32-1.34l-3.49-.61A43.76,43.76,0,0,1,105.06,247a19.38,19.38,0,0,1-5.29,5.5c-6.79,4.78-14.26,5.73-22.14,3.68A22,22,0,0,1,65.88,248c-5.81-7.34-7.88-15.55-5.46-24.74,1-3.9,3.2-7.14,5.59-10.32a20.93,20.93,0,0,1,8-6.46c.81-.38,1.65-.7,2.44-1.13,5-2.69,10.13-2.63,15.25-.69,3.14,1.19,6.11,2.83,9.38,4.37ZM114.47,173a10.29,10.29,0,0,0,2.14-.76,2.38,2.38,0,0,0,1.08-1.33c.59-3,.49-3.44,4.36-2.47a2.3,2.3,0,0,1,.6.16,3.78,3.78,0,0,0,2.8.32c1.64-.28,3.29-.47,4.92-.72a4.33,4.33,0,0,1,3.5.89,2,2,0,0,0,1.07.46c1-.05,2-.23,3-.35,0-.16.06-.23,0-.29a1.8,1.8,0,0,0-.19-.58,6.42,6.42,0,0,1-1-5.11,46.63,46.63,0,0,0,.47-5.92l-11.68-5.1c-.38-.16-.89-.22-1.12-.5-1-1.22-2.49-1.36-3.87-1.75a1.88,1.88,0,0,0-2.28.86A32.86,32.86,0,0,0,114,159.5C112.39,164,113.44,168.34,114.47,173Zm6.6,8.07a36.42,36.42,0,0,1-4.49,2.38c-1.87.69-2.37,2.39-3.29,3.78-.18.27,0,.79.06,1.17.48,1.94,1,3.89,1.5,5.81a15.41,15.41,0,0,0,1,2.91c1.27,2.52,2.66,5,4,7.47.39.75.67,1.56,1,2.34,2.06-2,3.89-4,5.91-5.74a14.18,14.18,0,0,1,7.17-3.79c-.29-2.08-.42-2.44-2.18-4.26C128.07,189.37,124.22,185.79,121.07,181.07ZM137.73,231c.78-.43,1.45-.75,2.07-1.15a15.74,15.74,0,0,0,5.71-6.7c1.15-2.5,2.14-5.08,3.26-7.6,1.58-3.52,2.89-7.22,4.91-10.47,2.85-4.57,6.72-8.4,10.64-12.09.79-.76,1.36-1.34.47-2.6-1.16.69-2.35,1.34-3.49,2.08a35.11,35.11,0,0,0-11.66,13.21,98.7,98.7,0,0,1-5.22,8.44,13.74,13.74,0,0,1-6.17,5.15c-.45,2.15-1,4.29-1.32,6.47C136.68,227.39,136.43,229.15,137.73,231Zm-54.88-1.67.1.59a45.62,45.62,0,0,0,5.23.16c1.87.07,3.73.22,5.59.35l5.13.36,0-.45c-1.28-.15-2.56-.33-3.85-.46s-2.35-.13-3.5-.3c-.3,0-.78-.48-.76-.72a1.12,1.12,0,0,1,.72-.8,9.07,9.07,0,0,1,2.27,0c4.12.38,8.24.85,12.38,1.16,4.41.32,8.83.48,13.24.79a9.15,9.15,0,0,1,2.27.83,9.31,9.31,0,0,1,7.11-2c.11-.92.19-1.64.3-2.59l-4-.69c-.41-1.25-.77-2.35-1.14-3.44-1.14-3.41-2.31-6.8-3.43-10.21a69.45,69.45,0,0,0-4.75-11.7c-.27-.5-.41-1.18-1.42-1.07.34,1,1,2,.83,2.75s-1.11,1.51-1.68,2.22c3-.48,2.32-.81,3.49,1.93,1.54,3.62,2.86,7.33,4.29,11,.91,2.31,1.91,4.59,2.75,6.93.58,1.61.16,2.21-1.54,2.27-3.45.13-6.91.22-10.36.26-1.87,0-3.74-.16-5.6-.13-5.46.06-10.93.22-16.39.26a12.22,12.22,0,0,0-6.3,1.85A8.21,8.21,0,0,0,82.85,229.31ZM129,98.31c2.22.31,4.2.52,6.17.87,3.11.55,6.27,1,9.31,1.85,1.51.41,2.86,1,4.53.27.21-4-.66-7.44-4.33-9.78a10.5,10.5,0,0,0-8.76-1,7.82,7.82,0,0,0-3.33,2A16,16,0,0,0,129,98.31Zm3.24,2.17c-.73,4-.38,7.48,2.27,10.63,1.65,2,1.51,2.08,3.87,1.18a4.34,4.34,0,0,0,1.13-.53c1.19-.91,2.72-1.65,3.42-2.86,1-1.74,1.4-3.83,2.12-6A71.1,71.1,0,0,0,132.25,100.48Zm18.92,54.34c.7,2.51,2.62,3.36,4.53,4.11a20.29,20.29,0,0,1,9,7.4c.93,1.28,1.91,2.52,2.79,3.68l3.24-.24a36.73,36.73,0,0,0-.07-5,3.9,3.9,0,0,0-1.45-2.38c-1.44-1-2.67-2.68-4.82-2.25-.11,0-.26-.08-.38-.15-1.44-.79-2.92-1.53-4.31-2.41-2.21-1.38-4.36-2.86-6.68-4.39ZM99,183.35a24,24,0,0,0,2.87.91c2,.39,4.08.69,6.14,1a2.77,2.77,0,0,0,1.57-.13c3.51-1.76,7-3.6,10.61-5.48l-1.33-2.19A24.83,24.83,0,0,0,116,178a32.69,32.69,0,0,0-4.11,1.42,9.33,9.33,0,0,1-7.08.13c-1-.34-1.94-.72-2.94-1-1.68-.45-2.36,0-2.63,1.64C99.1,181.18,99.1,182.21,99,183.35Zm44.67,17.51c3.1-1.86,3.9-3.6,3.26-6.65a19.77,19.77,0,0,0-.48-2q-2.75-8.69-5.55-17.37a9,9,0,0,0-.82-1.68c-1.38-2.44-2.12-2.68-4.85-1.57a32,32,0,0,1,2.33,4.6A84.11,84.11,0,0,0,144,190.54a9,9,0,0,1,.63,7.38C144.35,198.82,144.06,199.71,143.69,200.86Zm-10.23-1.22-.36-.32a23.75,23.75,0,0,0-2.24,1,30.79,30.79,0,0,0-8.85,8.28,1.71,1.71,0,0,0-.22,1.31c.45,1.64,1,3.26,1.57,5.07.56-.43,1-.75,1.4-1.08a40.7,40.7,0,0,1,3.92-3,4.66,4.66,0,0,0,2.44-3.78,16.22,16.22,0,0,1,.9-3ZM93.2,224l.31.33h14.25a15.72,15.72,0,0,0-4.63-10Zm34.55,13.65a4.77,4.77,0,0,0,3.07.79c1.93,0,3.85.14,5.78.11,3.19,0,6.39-.19,9.59-.3l.16-.48a13.33,13.33,0,0,0-1.32-.95q-4.26-2.31-8.54-4.58a2.15,2.15,0,0,0-1.14-.23c-1.84.17-3.67.4-5.63.62-.48,1.12-1,2.31-1.51,3.51C128,236.6,127.93,237.08,127.75,237.67Zm.71-6.87a6.65,6.65,0,0,0-1.79-.33c-3,.39-5.44,2.52-5.76,5.11-.37,3,1.39,6.43,4,7.28a9.23,9.23,0,0,0,7.8-.7,2.22,2.22,0,0,0,1.44-2,30,30,0,0,1-4.14,0c-4.54-.62-4.54-1.69-3.22-5C127.33,233.76,127.86,232.36,128.46,230.8Zm18.1-75.25a13.69,13.69,0,0,0,0-2.3c-.29-1.87-.9-2.25-2.81-2.11a3.13,3.13,0,0,1-1.48-.35c-3-1.44-5.93-2.95-8.92-4.37-1.53-.72-1.94-.47-2.72,1.49.69.26,1.41.47,2.08.79,2.36,1.13,4.72,2.26,7.05,3.45a3.15,3.15,0,0,1,2.06,3C143.47,155.08,144.59,157.31,146.56,155.55Zm-37.33,52.83,4.3,6.81c2.19.08,2.74-1.8,3.78-3.09a1,1,0,0,0,.06-.78,30,30,0,0,0-2.5-5.84Zm3,16c-1-5.26-2.82-10-6.64-13.88l-2.18,1.56a20,20,0,0,1,6.19,12.32Zm61.92-16.53a103.74,103.74,0,0,0,8.14,14.24,60.48,60.48,0,0,0,4.25,5.08c.19.22.71.14,1.29.24-2.61-3.39-5.29-6.32-7.31-9.64s-3.39-7-5.11-10.72Zm-49.27,10.87,4.86-1.11c.11-2,.2-3.65.32-5.85-1.88,1.55-3.38,2.84-4.93,4.05C124.15,216.57,123.89,217.37,124.89,218.71Zm19.37-8.14.36.23c.39-.59.79-1.17,1.15-1.78,1.21-2.09,2.4-4.19,3.61-6.28a30.81,30.81,0,0,1,8.28-9.71,7.09,7.09,0,0,0,.7-.65,6.1,6.1,0,0,0-3.2,1.63,26,26,0,0,0-6.28,7.89C147.38,204.81,145.8,207.68,144.26,210.57ZM130.4,230.91l4.51-.53v-3.62c-.92.08-1.66.15-2.39.19-1.53.09-1.71.23-1.93,1.78C130.5,229.32,130.48,229.92,130.4,230.91Zm-16-13.66c.59,2.18,1.15,4.36,1.79,6.52.31,1,1.08.74,1.71.62C119.13,220.76,116.4,219.2,114.41,217.25Zm10.25-67.94a19.09,19.09,0,0,0-5.71-5.44c0,1,0,1.64,0,2.3.06,1.56.26,1.74,1.88,2.11C122,148.54,123.06,148.88,124.66,149.31Zm35.16,6.3,3.23-2c-1.42-1-1.84-1.24-3.34-.69a3.64,3.64,0,0,1-3.48-.68c-.39-.27-.7-.67-1.1-.94-.15-.1-.43,0-1,0A19.15,19.15,0,0,0,159.82,155.61Zm-41.1,63.46c.83-.29,1.34-.68,1-1.55-.46-1.1-1-2.19-1.55-3.55l-1.71,2.29Zm3.65,5.19c-.56-1.57-.85-3-2.26-4.48-.1,1.83-.18,3.2-.27,4.76Zm7.35.55v-3l-3.43.84C126.74,224.64,128.49,223.87,129.72,224.81ZM112.55,193l.25-.08c-.58-2.12-1.16-4.25-1.78-6.5l-1.42.78ZM93.12,221.58l6.46-6.13A16.08,16.08,0,0,0,93.12,221.58Zm9.53-32.41.59,0c.44-.87.87-1.74,1.43-2.84l-3-.38C102,187.28,102.34,188.22,102.65,189.17Zm40.57,22.9a19.92,19.92,0,0,0-2.17,2.34c-.57.85-1.91,1-2.16,2.68C140.9,215.55,142.5,214.23,143.22,212.07Zm21.69-55.3c-.92-.69-1.5-1.62-2.64-.67C163.59,157.79,163.59,157.79,164.91,156.77Zm-35.16-54.16.47-.16v-2.13l-1.67-.24ZM137,240.4l-.17.26h5v-.26Zm-11.3-20,.09.55,3.7-1-.1-.37Zm-12.58-1.3-.39.12,1,3.21.36-.1Zm51.76-42-.29-.14-.77,1.63.3.15Zm-62,28a1.51,1.51,0,0,0-.15.33c.65.45,1.09,1.3,2.54,1.19Zm6.3,7,.34-.23-.79-.9-.21.19Z"/><path d="M337.94,204.32l4.06-6.54a2.3,2.3,0,0,0,.28-2.5c-2.23-4.52-4.29-9.13-6.59-13.62a13.64,13.64,0,0,0-3.05-3.87c-4.13-3.64-5.64-9.61-3.61-14.32a11.91,11.91,0,0,0,.7-3.15,9.4,9.4,0,0,1,1.79-3.88,14.45,14.45,0,0,1,8.41-6,9.73,9.73,0,0,0,2.61-1.23,84.25,84.25,0,0,1,25-10.23A57.79,57.79,0,0,1,381,137.7c1.89,0,2.18-.31,2.66-2.13a6.45,6.45,0,0,0-.92-6.06,5.52,5.52,0,0,1-.51-6.08,2.92,2.92,0,0,1,1.35-1.4,21.89,21.89,0,0,1,5.35-1.54c7.32-.69,13.47,1.68,18.17,7.46a6.62,6.62,0,0,1,1.17,6.63c-.6,1.79-.43,2.68-3.25,1.53a1.62,1.62,0,0,0-.76,2.23,7.06,7.06,0,0,1,.52,2.2,3.41,3.41,0,0,1-.57,1.67,33,33,0,0,0-2.22,3.4c-1.2,2.77-1.94,3.26-4.88,2.7l-.69-.12c-.81.59-1.48,1.73-2.82,1.07-.14-.07-.4,0-.58.09-1.55.52-4,3.68-4.06,5.33-.09,1.38-.2,2.76-.28,4.14a2.16,2.16,0,0,0,.07,1c1.39,2.72,1.34,5.77,1.93,8.66a7.22,7.22,0,0,0,1.62,3.52c1.56,1.75,3.1,3.53,4.7,5.36,1-.08,2-.17,3.05-.22,1.85-.11,2,.08,1.57,2.16a20.91,20.91,0,0,1,3.07,0,48.86,48.86,0,0,1,5.65,1.19c2,.59,3.27.34,4.66-1.15.49-.51,1.14-1.18,1.75-1.21a14.47,14.47,0,0,1,3.86.43c.21.05.45,1,.32,1.38-.36,1.1-.92,2.14-1.52,3.48a6.92,6.92,0,0,1,.16,4.9c-.23.61.34,1.51.51,2.29.09.41.11.83.16,1.25-.5-.05-1.17.09-1.44-.17a6.19,6.19,0,0,1-1-1.76c-.14-.29-.24-.6-.42-1.08-.37.34-.67.51-.81.77-.39.72-.67,1.51-1.09,2.21-1.32,2.24-2.65,4.53-5.93,3.41a.93.93,0,0,0-.76.14c-1.78,1.57-4,1.7-6.19,2.13-.06,0-.11.08-.37.28.48,1.18,1,2.42,1.51,3.65a2,2,0,0,0,.69.05c5.05-1.7,10.28-1.23,15.43-1A18.1,18.1,0,0,1,430,204.44c2.62,2,5.07,4.28,7.49,6.55a22.82,22.82,0,0,1,5.75,9.71c.35,1.05.67,2.1,1,3.16,1.64,5.1,1,10.18-.52,15.11-1.84,6.09-4.64,11.72-9.8,15.79a25.14,25.14,0,0,1-14.78,5.84,7.17,7.17,0,0,0-1,.07c-5.85,1.26-11.38-.46-16.92-1.91-4.58-1.19-7.77-4.32-10.66-7.86a35.41,35.41,0,0,1-6.89-14.7c-.4-1.75-.76-3.5-1.13-5.2-1-.05-2-.12-3-.15-.32,0-.79,0-.95.22-1.16,1.44-2.6,1-4,.68-1.17-.23-3.74.95-4.12,2.07a3.92,3.92,0,0,0,.17,1.8c.62,3,.38,5.9-1.7,8.42A10,10,0,0,1,358,246.81a4.12,4.12,0,0,0-1.75-.34,15.46,15.46,0,0,0,1.22,2c1.21,1.43,2.5,2.77,3.74,4.17s1.09,2.42-.86,2.87a12.7,12.7,0,0,1-8.3-.89,5.88,5.88,0,0,1-1.61-1.51c-.59-.63-1.12-1.32-1.63-1.93-2.41,1.92-4.56,3.73-6.82,5.41a20.29,20.29,0,0,1-13,4.1c-1.73-.05-3.46,0-5.19,0a21.32,21.32,0,0,1-9.77-2.32,35.21,35.21,0,0,1-14.33-12.86c-3.86-5.83-4.59-12.36-3.27-19.13a38.13,38.13,0,0,1,4.24-11.65,30.49,30.49,0,0,1,5.79-6.71,22.16,22.16,0,0,1,15.48-6c3.47-.06,6.93-.32,10.32.51C334.15,203,336,203.69,337.94,204.32Zm59.22-13.62a8.92,8.92,0,0,0-4.63-.5c-.62.06-1.24,0-1.86,0l-9.72.18c-.56,0-1.27-.13-1.37.94,1,0,1.84,0,2.72,0,2.75-.14,5.5-.35,8.26-.48,2.2-.1,4.4-.11,6.6-.16a5,5,0,0,0,.13,1c.65,1.88-.1,3.35-1.29,4.73-.4.47-.78,1-1.18,1.44-3.75,4.43-7.29,9-11.57,13-2.22,2.07-4.13,4.46-6.17,6.71-.61.67-1,1.37.3,2.08.79-.77,1.66-1.54,2.44-2.39q5.74-6.27,11.46-12.57c1.82-2,3.59-4,5.51-5.92,1.15-1.14,1.83-.85,2.28.7.22.73.42,1.46.64,2.19a3.24,3.24,0,0,0,.26.49l2,.16a28.55,28.55,0,0,0-1.93-4.58,3.42,3.42,0,0,1-.75-2.43C399.54,193.38,399.08,191.7,397.16,190.7Zm-11.45-65.86-1.23-1.44-.9,1,2.19.4a12.45,12.45,0,0,0,.75,1.14c.68.82,2.06,1.51,1.39,2.7-.45.79-1.67,1.13-2.51,1.65.81.87.85,1,2,.47a6.64,6.64,0,0,1,6.67.74,21.87,21.87,0,0,0,2.16,1.23,3.41,3.41,0,0,0,1.55.45,18.88,18.88,0,0,1,8.5,1.47,4.9,4.9,0,0,0-.33-5.37,15.67,15.67,0,0,0-5-4.55A18.14,18.14,0,0,0,387,122.59a9.25,9.25,0,0,1,1.25.7c1.46,1.24,2.94,2.46,4.34,3.77a1.13,1.13,0,0,1,.09,1.68,1.32,1.32,0,0,1-1.87.16,13.41,13.41,0,0,1-1.65-1.55C388.15,126.33,387.21,125.2,385.71,124.84ZM400.62,209a39.27,39.27,0,0,0-3.89,2.66c-4.77,4.09-6.92,9.6-7.81,15.6A26.57,26.57,0,0,0,392,243.7c3.32,6.33,8.31,10.59,15.42,12.15a48.61,48.61,0,0,0,14,.53,12.79,12.79,0,0,0,7.95-3.68c5.49-5.23,9.39-11.29,10.25-19.12a25.4,25.4,0,0,0-4-17,17.89,17.89,0,0,0-4.18-4.58c-7.19-5.61-15.4-7.15-24.26-6.09a13.64,13.64,0,0,0-2,.56,27.53,27.53,0,0,0,.83,2.81c2.13,5.24,4.31,10.48,6.47,15.71.55,1.35,1.19,2.66,1.61,4,.24.78.83,1.95-.3,2.39s-1.41-.79-1.83-1.55Zm-65.13.22a9,9,0,0,0-4.87-2.52,24.78,24.78,0,0,0-10.5.16c-12.2,2.36-19.24,14.29-19.18,24,.06,9.21,4.26,16.27,11.9,21.3,1.26.83,2.75,1.31,4,2.12a14.38,14.38,0,0,0,9.14,2c2.82-.22,5.66-.29,8.47-.63s5.27-1,7-3.44A22.34,22.34,0,0,1,344,249.7l1.42-1.45a13.55,13.55,0,0,1-2.31-.94,8.45,8.45,0,0,1-2.51-2.05c-1.4-2-.91-4.43,1.25-6.26a3.48,3.48,0,0,0,1.28-2.75l-15.07-1.89-3.87,2.14c.57.63,1.29,1.35,1.91,2.15a1.5,1.5,0,0,1-.1,2.23,5,5,0,0,0-1.54,2.1c-.81,1.63-2.26,1.66-3.41.21a3.09,3.09,0,0,1-.2-3.43c-2-1.07-2.29-2.08-.77-3.5a2.66,2.66,0,0,0,.91-3.07,4,4,0,0,1,2.64-5.15,3.42,3.42,0,0,0,1.84-1.49c2.19-3.6,4.46-7.16,6.59-10.79C333.31,213.63,334.36,211.38,335.49,209.21ZM372,162.89c-.36-2.34-.68-4.66-1.09-7-.08-.4-.54-.73-.82-1.1a34,34,0,0,1-2.46-3.3,4.33,4.33,0,0,1-.37-4,8.1,8.1,0,0,1,5-4.86,12,12,0,0,1,5.52-.38c5,.74,8.06,4.59,7.39,9.61a23,23,0,0,1-1.05,4,32.17,32.17,0,0,1-1.35,3.1l4.1-.37c.73-3.13-.63-6.86,3.14-8.86-2-2.06-2.77-4.49-3.71-6.85-.39-1-.78-1.92-1.23-2.85s-.92-1.31-2-.88a5.52,5.52,0,0,1-2,.18,57,57,0,0,0-12.78,1.18,83,83,0,0,0-25,10.15,18.41,18.41,0,0,1-3.59,1.54c-3.91,1.31-6.38,4.06-8.25,7.86,2,.14,3.61.32,5.26.34,6.56.12,13.12.1,19.68.31a39.82,39.82,0,0,1,6.74,1c2,.4,3.88,1,5.8,1.53A2.9,2.9,0,0,0,372,162.89Zm-5.28,1.46c-2.45-.55-5-1.5-7.65-1.63-8.75-.44-17.51-.58-26.27-.85a1.57,1.57,0,0,0-1.65.95,11.75,11.75,0,0,0-.66,8.86,2.83,2.83,0,0,0,1.74,1.92,20.44,20.44,0,0,1,3,1.46,22.48,22.48,0,0,0,12.65,3.21c4.55-.12,9.11-.16,13.67-.25a4.88,4.88,0,0,0,.81-.13Zm1.86,1.41c-2,3.22-4,9.63-3.92,12.31l2,.39a43.24,43.24,0,0,1,4.25.87c1.61.48,1.72,1.08,1.15,2.63a33.37,33.37,0,0,0-1.75,5.72c-1.36,7.69-2.7,15.38-5.15,22.82a2.34,2.34,0,0,0,0,1.36c.33,1,.79,2,1.2,3.07,2.61.91,4.6-.45,4.7-3.23a17.33,17.33,0,0,1,.22-2.89,62.9,62.9,0,0,1,5.53-16.23c1.7-3.32,3.42-6.63,5.12-10a2.32,2.32,0,0,0,.08-.64c-.8-.65-1.59-1.31-2.4-2a7.45,7.45,0,0,1-2.47-3.25c-1-2.73-2.05-5.43-3.12-8.12a2.37,2.37,0,0,0-.92-1.27C371.58,166.76,370.07,166.3,368.54,165.76Zm32.88,25.18c1.35-2.91,1.18-3.89-.88-5.34-.39-.28-.86-.45-1.27-.71a34.88,34.88,0,0,1-4.34-2.79c-3.25-2.78-6.38-5.72-9.53-8.61a2.78,2.78,0,0,1-.83-1.17c-1.21-4.38-2.37-8.78-3.54-13.17,0-.2,0-.44,0-.61-.21-.41-.38-1-.73-1.15q-2.82-1.53-5.73-2.87a7,7,0,0,0-1.95-.21,25.4,25.4,0,0,0,.29,3.74c.7,3,1.41,6.06,2.37,9s2.24,5.8,3.3,8.71a6.88,6.88,0,0,0,2.11,3A85,85,0,0,0,401.42,190.94Zm-62.9,19.73L328,230.93c5.24,1.73,10.52,1.39,16,2a33.35,33.35,0,0,0,.42-3.83c-.06-4.27-.19-8.55-.34-12.82a2.35,2.35,0,0,0-.48-1.51A20.64,20.64,0,0,0,338.52,210.67Zm28.76-16.75h-10c.15.6.22,1,.35,1.37,1.83,5.62,2.39,11.18-.75,16.56a2.4,2.4,0,0,0-.06,2.15c.87,2.91,1.69,5.83,2.53,8.75.41,1.46.81,2.92,1.21,4.39a1.64,1.64,0,0,0,1.21,1.23c2,.7,3.93,1.54,6,2.37.17-.12.47-.3.74-.51a2.63,2.63,0,0,0,.37-3.87c-1.74-2-3.64-3.77-6.34-4.42a3.82,3.82,0,0,1-2.63-2.45,6.71,6.71,0,0,1,1.85-7.54,6.72,6.72,0,0,0,2.19-3.62c.25-.93.53-1.86.78-2.79A67.61,67.61,0,0,0,367.28,193.92Zm28.58-1.35c-1,0-1.7,0-2.38,0-4.56.18-9.11.44-13.67.53a2.11,2.11,0,0,0-2.19,1.41,66.23,66.23,0,0,0-4.14,11.92c-.1.42-.12.87-.18,1.31l.41.15a12,12,0,0,0,.79-1.45c.36-.87.8-1.71,1.8-1.81a8.47,8.47,0,0,0,3.09-.87c1.23-.63,2.1.19,1.79,1.62a1.85,1.85,0,0,0,.43,1.68,12.44,12.44,0,0,1,1,1.89,3,3,0,0,0,.54-.35c4-4.64,8.08-9.27,12.06-13.94A6.44,6.44,0,0,0,395.86,192.57ZM336.48,207c0-.1.32-.42.28-.68a1.14,1.14,0,0,0-.63-.73,37.53,37.53,0,0,0-4.11-1.4c-3.54-.88-7.15-.52-10.74-.42-8.56.22-14.66,4.81-19,11.64a32.15,32.15,0,0,0-4.52,13.48,23,23,0,0,0,3.73,16.21c3.54,5.15,7.95,9.39,13.8,11.91a20.09,20.09,0,0,0,3.83,1.52c4.18.82,8.41.56,12.62.31a17.81,17.81,0,0,0,3.45-.66,16.6,16.6,0,0,0,2.22-.94c-3.49.08-6.86.38-10.21.71a17.43,17.43,0,0,1-11.54-2.4,6.71,6.71,0,0,0-.92-.48c-5.13-2.13-8.74-6-11.72-10.49a24.2,24.2,0,0,1-3.77-12.13,25.86,25.86,0,0,1,4.83-16.63c6.39-9.15,15.35-12.46,26.21-10.81A39.38,39.38,0,0,1,336.48,207Zm64.23-2.76c-.92.64-1.7,1.15-2.45,1.7a46.76,46.76,0,0,0-4,3c-4.86,4.52-7.64,10.27-9.37,16.56a16,16,0,0,0,.1,9.21c.35,1.12.66,2.25.93,3.4a30.51,30.51,0,0,0,5.9,11.76c3.3,4.25,7.41,7.18,12.82,8.1,2,.33,3.91.86,5.89,1.14a22.8,22.8,0,0,0,4.52.21c1.86-.11,3.7-.45,5.55-.7l1.38-.2c-3.81-.33-7.61-.12-11.38-.38A22.5,22.5,0,0,1,397,252.67c-7-6.25-10.28-14.21-10-23.62a30.56,30.56,0,0,1,2.74-10.79c2.34-5.55,6.62-9.21,12-11.89Zm4.2.3a3,3,0,0,0,.55,0c8-1.36,15.55-.62,22.87,3.34,6.2,3.34,9.94,8.38,12.19,14.79a24.36,24.36,0,0,1,.77,11.26c-1.19,9.59-6,16.89-13.91,22.27a6.29,6.29,0,0,0-.47.43,24.82,24.82,0,0,0,5.29-2.76c3.57-2.41,5.58-6,7.59-9.69a32.48,32.48,0,0,0,3.58-13.09c.38-4.43-1.16-8.46-2.82-12.4a18.79,18.79,0,0,0-3.47-5.6,73.46,73.46,0,0,0-8.35-7.41,18.34,18.34,0,0,0-5.54-2.72c-4.63-1.49-9.44-1-14.19-.75a19,19,0,0,0-3.44.74C404.73,203.19,404.36,203.64,404.91,204.55Zm-51.28-24.82c1.11,3.5,2.13,6.69,3.2,10.06l11.17-.55c.77-2.88,1.49-5.52,2.25-8.33C364.82,179.54,359.34,179.58,353.63,179.73ZM382,156.32a11.52,11.52,0,0,0,1.56-6.72,4.75,4.75,0,0,0-.78-2.27c-2.31-3.4-7.5-4.7-11-2.58-2.79,1.68-4.09,4.18-2.08,7.07a1.59,1.59,0,0,0,1.87.87c2.22-.53,4.21.27,6.14,1.25C379.07,154.66,380.43,155.46,382,156.32Zm-24.11,72.27c1-.2,1.09-.63.88-1.51-2.79-11.28-6.84-22.16-10.59-33.14a15.93,15.93,0,0,1-.39-1.65,5.36,5.36,0,0,1,.9-.18l17-.05a4.24,4.24,0,0,0,1.23-.16,3.67,3.67,0,0,0,.83-.56,2.75,2.75,0,0,0-1.51-.3c-2.21.09-4.42.27-6.63.27-4.15,0-8.3-.1-12.44-.13-1.94,0-1.93,0-2.62-1.69-.78-1.92-1.55-3.85-2.38-5.75-1.43-3.24-1.45-3.23-4.83-3.88-.09,0-.21.12-.38.23l6.75,14.11c2-1,2.71-.81,3.38,1,.19.51.27,1.07.43,1.6.67,2.32,1.25,4.67,2.05,6.94,2.82,7.94,5.8,15.83,7.93,24A5.67,5.67,0,0,0,357.88,228.59Zm5.82-15.73a5,5,0,0,0-2.38,5.26,2.77,2.77,0,0,0,2.1,2.29,12.42,12.42,0,0,1,6.26,4.21c2.4,2.79,5.62,3.86,9.07,4.46a26,26,0,0,0,2.95.19,3.53,3.53,0,0,0-.28-.86c-.71-.84-1.44-1.66-2.14-2.46-2.65.58-2.94.4-3.07-1.92a7,7,0,0,1-1,.12,1.42,1.42,0,0,1-1.34-2.24c.21-.43.6-.77.8-1.2a6.17,6.17,0,0,0,.24-1.41,10.65,10.65,0,0,1-1.07.91c-.68.4-1.42.72-2.11.1a1.74,1.74,0,0,1-.16-2.28c.35-.66.77-1.29,1.34-2.25l-1.19-1.34a4.4,4.4,0,0,1-5,2.54C364.3,216.7,364.28,214.55,363.7,212.86Zm39.22-77.47c-2.78-.81-5.29-1.19-7.13,1.54a9.23,9.23,0,0,1-.88.89c-2.82,3.05-3,5.76-.44,9.43a3.65,3.65,0,0,1,3.45-.52c1.29.36,1.64,0,2.22-1.2.84-1.78,1.78-3.51,2.81-5.5C402.48,138.74,401.74,137.13,402.92,135.39Zm-20.3,92c2.68-9.91,6.67-18.31,15.72-23.44l-.82-3.43-19.17,21.09C379.65,223.35,381,225.16,382.62,227.36Zm13.88-46.09.53-.37a11.86,11.86,0,0,0-1-1.85q-2.24-2.72-4.58-5.35a8.79,8.79,0,0,1-2.48-5.11c-.17-1.78-.53-3.55-.87-5.31a6.57,6.57,0,0,0-.67-1.94,1.56,1.56,0,0,0-1.06-.78,26.13,26.13,0,0,0-3,.17c.91,3.57,1.71,6.91,2.63,10.22a4.48,4.48,0,0,0,1.25,1.83c1.88,1.82,3.82,3.6,5.76,5.37C394.11,179.21,395.31,180.23,396.5,181.27ZM344.79,180c1,3.14,1.88,5.83,2.83,8.49a1.69,1.69,0,0,0,1.11,1,26.11,26.11,0,0,0,6,.15,44.93,44.93,0,0,0-2.63-8.68,1.28,1.28,0,0,0-1.39-1C348.86,180,347,180,344.79,180ZM350.2,194c1.65,5.51,3.4,10.65,5.52,16.15.95-2.45,2.1-4.35,1.88-6.56a53.07,53.07,0,0,0-1.05-6.11,31.61,31.61,0,0,0-1.17-3.48Zm14.12,39.21c-3.16-1.4-5.68-.73-7.42,1.62a3.74,3.74,0,0,0-.88,2.65,5.78,5.78,0,0,0,7.66,5.17c3.15-1,4.3-3.15,3.2-6.55-1.4,1.13-2.75,2.16-4,3.28-1,.89-1.62,1.09-2.55.54a2,2,0,0,1-1-2.58,3.55,3.55,0,0,1,2-2.46C362.25,234.46,363.1,233.92,364.32,233.23Zm39.93-45.42-.93,3.91c2.77,1.57,5.78,1.72,8.73,2.11,1.19-2.08,2.67-3.85,2.89-6.51C411.32,187.11,407.83,187.92,404.25,187.81ZM351,233.86c-1-5.71-1.29-11.2-5.13-15.93v15.3Zm8.8,20a41.39,41.39,0,0,1-4-4.79,42,42,0,0,1-2.51-5.68l-3.45,6.15c.84,1.13,1.5,2.07,2.22,3a2.57,2.57,0,0,0,1,.69A10.79,10.79,0,0,0,359.84,253.84Zm-11.41-48.12-.56,0-1.17,5.2a34.53,34.53,0,0,1,8.14,17.3,17.36,17.36,0,0,0,.61,2c.61-.94.67-1,.38-1.91-1.61-5.21-3.21-10.41-4.89-15.6C350.19,210.35,349.27,208.05,348.43,205.72ZM339.54,209a3.1,3.1,0,0,0,.32.41c6.79,4.95,11.23,11.33,12.2,19.86.16,1.35.49,2.68.75,4.1,1.27-.89.91-2,.73-3a46.24,46.24,0,0,0-3.29-11.09A24.14,24.14,0,0,0,340.12,208Zm6.06-12.06c-.85,1.9-1.47,3.42-2.19,4.88s-1.59,3-2.42,4.54l4,2.87c.74-2,1.46-3.89,2.15-5.8a1.37,1.37,0,0,0,.12-.79C346.78,200.84,346.25,199.09,345.6,196.9Zm34.73,11.66c-.44-1.29-1.53-1.53-2.41-2-1.16-.61-1.71-.39-1.8.88a1.9,1.9,0,0,1-1.46,1.88,3,3,0,0,0-1.34,4.45c.4.69.91,1.31,1.49,2.13a17.35,17.35,0,0,0,3.29-4.71C378.57,210.05,379,208.92,380.33,208.56Zm30.85-22.87c.83-.14,1.92-.05,2.08-.4.7-1.49,2.2-1.57,3.34-2.24a3.94,3.94,0,0,0,2.27-2.94c-1.79-.43-1.79-.43-2.78.56a5.63,5.63,0,0,1-6.4,1.48,25.46,25.46,0,0,0-4.81-1.12,6.09,6.09,0,0,0-4,.69c2,.18,3.45.24,4.92.47C408,182.53,410.08,183.18,411.18,185.69Zm-18.83-38.24a11.37,11.37,0,0,1-1.41-6,1.47,1.47,0,0,0-.53-1,10.14,10.14,0,0,1-3.31-5l-1.91,1.41c.91,1.78,1.77,3.39,2.55,5,.59,1.24,1,2.55,1.6,3.8a10.78,10.78,0,0,0,1.15,1.94C391,148.39,391.63,148.35,392.35,147.45Zm3.43-13.09c-2.32-.91-4-3-6.63-2.31-.6,3.69.11,5.5,2.58,6.95ZM383.44,183.2c-1,1.82-1.81,3.43-2.82,5.32,3.86,0,7.3,0,11.19-.13Zm-33.87,58.4-.41-.39c-.55.38-1.08.79-1.65,1.14a1.74,1.74,0,0,1-2.78-.67c-.34-.57-.59-1.19-.89-1.79-1.6.92-2.4,2.07-2.26,3.24a3.18,3.18,0,0,0,2.32,2.65c.89.34,1.77.7,2.86,1.13Zm16.92,2.11a41.78,41.78,0,0,1-5.38,1.06c-2,.14-3.36-1.38-4.79-2.57s-1.7-3-2.27-5a6.55,6.55,0,0,0,3.46,7.53C359.89,246.09,364.77,245.93,366.49,243.71ZM345,236.17c-.39,2,.81,3.23,1.29,4.77L349,239.3v-2.81ZM408.91,186c-1.67-2.13-4.69-2.73-7.5-1.85.9.69,1.62,1.67,2.47,1.81A31.25,31.25,0,0,0,408.91,186ZM330.33,223l-.43-.21c-1.34,2.08-2.67,4.18-4.06,6.24a2.49,2.49,0,0,1-1.35,1.07c-1.82.28-1.89.29-1.8,2.12l2.75-.69Zm12.51,30.32.35.28A23.93,23.93,0,0,0,352,241c-1.34,2.21-2.4,4.63-3.92,6.71A61.6,61.6,0,0,1,342.84,253.35Zm18.7-23.09c-3.21-.58-6.63,1.79-6.85,4.93C356.22,232.15,358.75,231.07,361.54,230.26Zm56-45.77-2.16,1.08,2.3,1.71C418.52,186.29,418.22,185.52,417.53,184.49Zm-16.35,8.25c.09,1.66.09,1.66,2.17,1Zm-57.86-10.69.28-.12-.82-2.23-.51.22Zm-20.9,60.23.69-.17c-.13-.36-.26-.72-.41-1.07,0,0-.33.07-.33.11C322.36,241.52,322.4,241.9,322.42,242.28Zm40.1-5.92.24.44L364,236l-.21-.36ZM324.05,234l.35.41.83-.64c-.14-.14-.36-.42-.39-.4A7.79,7.79,0,0,0,324.05,234Z"/><path d="M395.44,123.36c3.93,1.54,7.48,3.26,9.34,7.18.15.32-.09.83-.15,1.25a4,4,0,0,1-1.4-.48c-1.56-1.42-3-3-4.61-4.36a16.68,16.68,0,0,0-3.45-1.75c-.53-.25-1.09-.54-.79-1.19C394.53,123.69,395.08,123.57,395.44,123.36Z"/></svg>