<svg xmlns="http://www.w3.org/2000/svg" width="500" height="350" viewBox="0 0 500 350"><path d="M156,195.06c3.36-.8,6.19-.06,9.07,1.12a11.7,11.7,0,0,1,.9-1.08,5.75,5.75,0,0,1,1.42-1.11,1.25,1.25,0,0,1,1.15.12,1.17,1.17,0,0,1,.18,1.14c-1.12,1.38-.51,3-.72,4.47a7,7,0,0,1-.43,1.29l-1.47-.64a5,5,0,0,1-.47.92c-.7.9-1,2-2.7,2-1.4,0-2.8,1-4.33,1.56l.47,1.88a21,21,0,0,1,13.74,2.76,18.25,18.25,0,0,1,8,11.44l1.46.11c10.41.55,20.85.5,31.26.91,11.17.44,22.32,0,33.48,0,4.55,0,9.1-.66,13.65-1.1,3.51-.34,7-.69,10.52-1.24a112.18,112.18,0,0,0,25.09-7c1.35-.56,2.75-1,4.12-1.48A117.16,117.16,0,0,0,313.82,205c4.23-2.15,8.55-4.14,12.88-6.07,6.06-2.7,12.2-5.22,18.26-7.93,3.55-1.59,7-3.4,10.51-5.11,1.21-.58,2.42-1.16,3.64-1.71.5-.23,1.15-.46,1.35.28.07.27-.37.86-.72,1-2.1,1.1-4.23,2.16-6.39,3.15-4.92,2.26-9.87,4.46-14.81,6.69q-11.48,5.19-23,10.4c-1.49.68-2.95,1.44-4.39,2.24a77.65,77.65,0,0,1-12.27,5.15c-4,1.41-8,3.09-12,4.34a110.18,110.18,0,0,1-20.9,4.3c-3.75.39-7.5.9-11.26,1.26-2.42.24-4.86.42-7.29.43-9.64.08-19.28.15-28.92.1-7.37,0-14.75-.23-22.13-.44-4.44-.12-8.89-.42-13.34-.64-.65,0-1.31,0-1.88,0a42.16,42.16,0,0,1-.47,5,14.86,14.86,0,0,1-6.66,9.87,11.24,11.24,0,0,1-4.76,1.75,27.8,27.8,0,0,1-9.1-.19,16.57,16.57,0,0,1-10.67-7.4,11.7,11.7,0,0,1-2.41-7.33,4.07,4.07,0,0,0-.08-.9c-1.63-.12-3.17-.21-4.71-.38a2.24,2.24,0,0,0-1.87.88c1.83,4.78-1.84,8.82-7.47,7.22.63,1.11,1.27,2.13,1.81,3.21s.22,1.53-.89,1.55-2.07-.06-3.1-.14a2.36,2.36,0,0,1-2.1-1.82c-.56.47-1,.83-1.45,1.22a13.33,13.33,0,0,1-9,3.51,17.74,17.74,0,0,1-5.87-1.1,21.78,21.78,0,0,1-7.28-4.08c-4-3.48-5.92-7.62-4.79-12.94,0-.18,0-.36.07-.8a15.28,15.28,0,0,0-2-.37c-2.68-.12-5.36-.19-8-.28-4.63-.14-9.26-.36-13.89-.41-10.43-.09-20.86-.08-31.29-.14-2.86,0-5.74,0-8.59-.23-5.52-.5-11-.81-16.59-.86a1.64,1.64,0,0,1-.87-.18,1,1,0,0,1-.35-.74c0-.15.29-.4.48-.44a5.39,5.39,0,0,1,1.27-.08c4.2.13,8.43,0,12.61.46,5.41.53,10.82.5,16.23.54,10.61.07,21.23.11,31.84.23,5,.06,10,.24,15,.42,1.52.06,3,.31,4.74.49.5-.95,1-2,1.58-2.95a15.52,15.52,0,0,1,11.19-8,13.71,13.71,0,0,1,4,.17c1.92.25,3.82.64,5.79,1a12.88,12.88,0,0,1,.75-1.27c1.31-1.73,1.68-3.31.25-5.36-1.08-1.55-1.49-3.58-2.14-5.41a5.68,5.68,0,0,0-2.42-3.08,4.36,4.36,0,0,1-1.91-5.18c.29-1.13,1.14-2.18.44-3.48-.12-.22.18-.67.32-1a10.93,10.93,0,0,1,3.46-4.4c3.36-2.64,7.28-3.86,11.37-4.7,3.27-.67,6.54-1.39,9.83-2,1.67-.32,3.37-.47,5.32-.74a4.19,4.19,0,0,0-.25-1.54c-1.17-2-.95-4.12-.75-6.24a2.62,2.62,0,0,1,2.86-2.29,11.73,11.73,0,0,1,4.32.43,19.54,19.54,0,0,1,5.22,2.92c1.62,1.31,1.72,3.43,1.7,5.39,0,1.07-1.13.61-1.94,1a7.09,7.09,0,0,0,.26,1.83,1.21,1.21,0,0,1-.49,1.69,3.79,3.79,0,0,0-1.1,1.4c-.77,1.64-.91,1.85-2.73,1.65a3.29,3.29,0,0,0-3.07,1.21,6.18,6.18,0,0,0-1.25,4.92,6.69,6.69,0,0,0,.84,3.29,1.18,1.18,0,0,1,.22.69C152.34,191,155,192.6,156,195.06Zm-7.17,26.75c-.08.79-.16,1.44-.2,2.09-.21,3.06,1.13,5.59,2.92,7.86a15.07,15.07,0,0,0,11.78,6.05,25,25,0,0,0,7.23-.6c4.81-1.3,7.3-5,8.61-9.57a7,7,0,0,0-.14-5.34l-14-.54L164,223.13c-.36-.3-.6-.54-.88-.73s-.68-.56-1-.56C157.74,221.8,153.42,221.81,148.82,221.81Zm-46.63-2.32c-1.5,3.66-.61,6.81,1.21,9.74s4.76,4.77,7.93,6.15c2.88,1.25,5.79,2.09,9,1.41a12.52,12.52,0,0,0,6.73-3.69c-3.79-4.28-3.9-4.72-1.79-7.73-2.15-.46-4.22-.88-6.28-1.35a2.57,2.57,0,0,0-2.51.65.92.92,0,0,0-.15.28,6.27,6.27,0,0,1,.59.42,8,8,0,0,1,.58.6,4.44,4.44,0,0,1-1.55,2.7c-1.09,1-1.56.84-2.13-.48-.1-.24-.25-.61-.43-.64-1-.15-.56-1.1-1-1.63-1.23,0-2.43-.3-2.8-1.77s.42-2.41,1.41-3.52Zm38.58-38.08c-.23-.2-.31-.28-.41-.35a4,4,0,0,1-1.21-5.13c.14-.25.55-.35.84-.52.17.29.47.58.48.87,0,.54-.19,1.08-.23,1.62-.08,1.32.17,1.55,1.47,1.76,1.08.17,2.14.44,3.2.68.69.16,1.37.35,2.3.59a26.3,26.3,0,0,0,0-3.46c-.29-1.88-3.19-3.82-5-3.42-4.1.88-8.2,1.77-12.28,2.73a17.63,17.63,0,0,0-7.49,4,4.94,4.94,0,0,0-1.93,2.94c.69,0,1.28,0,1.86-.11a17.46,17.46,0,0,1,8.45.7,8.06,8.06,0,0,0,3.22.47,14.24,14.24,0,0,1,4.87.35,8.27,8.27,0,0,0,2.2-.06Zm18.57,27.06,4.42,11.8,15.18.46C177,212,168.48,206.85,159.34,208.47Zm-42.83,10.68,6-9.36a25.63,25.63,0,0,0-7.92-1.35c-5,.17-10.51,4.83-11.75,9.56A61.78,61.78,0,0,0,116.51,219.15Zm22.19-32.23c-1.24-.9-2.47-.67-3.66-.7a20.53,20.53,0,0,1-3.43-.26c-2.85-.59-5.62-1.41-8.63-.9-2.61.44-2.64.24-3.45,2.81-.67,2.15-.07,3.21,2.2,3.61,3.4.6,6.79,1.21,10.22,1.56,1.4.14,3.1.25,4-1.35S137.79,188.53,138.7,186.92Zm1.53,26a8.54,8.54,0,0,0,.34-1.12,28.09,28.09,0,0,1,4.53-12.4,25.42,25.42,0,0,0,1.14-2.48,1.4,1.4,0,0,0-.44-1.92,6.22,6.22,0,0,1-2.11-3.53c-.2-.77-.56-1.5-.7-2.27a1.62,1.62,0,0,0-1.67-1.56,6.77,6.77,0,0,1-1.15-.24c-1,1.82-1.95,3.6-3,5.61,1.44.3,2.68.54,3.9.83,1.55.36,1.74.89,1.06,2.34a18.79,18.79,0,0,0-1.43,3.53c-.87,3.73-1.6,7.49-2.4,11.24C138,212.45,138.29,212.84,140.23,212.88Zm16.18-3.22a14.29,14.29,0,0,0-6.83,10.61h12.55Zm.78-8.65c.49-1.51.51-1.54-.35-2.3-1.88-1.64-3.79-3.24-5.67-4.88-1.44-1.25-2.81-2.5-2.61-4.73.07-.71-.48-1.48-.7-2.23-.42-1.42-1.63-2.58-1.31-4.41l-4.24-1.38a14.18,14.18,0,0,0,.3,2.17c.25.79.72,1.51,1,2.3.42,1.34.76,2.7,1.08,4.06a9.55,9.55,0,0,0,3.52,5.59c2.09,1.57,4.28,3,6.46,4.46A25.85,25.85,0,0,0,157.19,201Zm-14.68,8.45c1.25-.62,2.36-1.2,3.49-1.72.86-.39,1.31,0,1.2.83s-.21,1.84-.35,3.09c2.9-3.2,5.56-6.11,8.19-9,.16-.18.14-.53.2-.75-.22-.14-.31-.26-.41-.26-2.73,0-5.46-.06-8.19-.07a1.64,1.64,0,0,0-1.62.93A20.74,20.74,0,0,0,142.51,209.46Zm-18.64,1.06c-1.71,3.1-4,5.51-5.38,8.6a17.89,17.89,0,0,0,8.16.17c0-1.82,0-3.69,0-5.56a1.83,1.83,0,0,0-.47-1.12C125.51,211.93,124.77,211.33,123.87,210.52Zm16.73-15.23c-2.72-.63-5.3-1.63-8-.47.47,1.79.92,3.48,1.39,5.26h4.9Zm4.45,22,3,2.12c1-5.22,4-8.85,8.32-11.54-.24-1-.45-1.92-.75-3.22C152.14,209.25,147.76,212.49,145.05,217.29Zm12.23-50.62-.64,1.5c-.41-.3-.8-.62-1.22-.89-1.1-.73-2.2-1.48-3.34-2.15-.41-.25-.94-.28-1.36-.51-.22-.11-.5-.53-.44-.67s.47-.62.73-.62a3.87,3.87,0,0,1,1.4.33c.84.33,1.66.71,2.54,1.09l.6-1.06a8.74,8.74,0,0,0-4.72-.76c-.53.08-1.36.46-1.45.84-.36,1.62-.73,3.32.06,4.61,1.81,0,3.49-.29,4.89.2,2,.68,3.91.46,5.88.9-.29-2.59-.4-2.85-1.44-3.57,0,.66.7,1.54-.31,1.87-.77.25-.87-.66-1.21-1.11C157.22,166.63,157.14,166.65,157.28,166.67ZM145.66,220c-1.33-1.47-2.49-2.63-3.48-3.92-.81-1.05-1.49-2.05-3.08-1.54-.3.09-.76-.27-1.13-.45s-.82-.46-1.2-.67c-1.81,1.45-1.68,2.43.22,3.35a24.34,24.34,0,0,1,3,2c.59.4,1.14,1.08,1.78,1.18A26.35,26.35,0,0,0,145.66,220Zm-6.84-18.2H134.1c.37,1.53.63,2.91,1,4.24a6.34,6.34,0,0,1-.26,4.61,27.16,27.16,0,0,0-.94,3.12c.81-.68,1.35-1.07,1.81-1.55a3.75,3.75,0,0,0,1-1.44C137.48,207.82,138.12,204.85,138.82,201.78Zm-6.51,12.13c.48-1.54,1-3,1.42-4.54a3.32,3.32,0,0,0,.22-1.6c-.43-2-1-4-1.46-6h-2.64C130.68,205.87,131.49,209.85,132.31,213.91Zm-5-19.58c.45,1.41.9,2.88,1.38,4.35s.53,1.58,2.17,1.54c.41,0,.82-.09,1.37-.15-.26-1.83-.43-3.69-1.55-5-.57-.68-2-.66-3-1C127.67,194.09,127.61,194.16,127.35,194.33Zm18.82-20.72c2.18,1.68,2.83,3.1,2.62,5.59,0,.54-.13,1.08-.2,1.63a10.23,10.23,0,0,0,.27,4.26c1-.4,1-.4,1-1a38.43,38.43,0,0,1,.51-4.69,3.79,3.79,0,0,0-.09-2.29c-.27-.67-.5-1.37-.76-2.05C148.79,173.07,148.5,172.94,146.17,173.61Zm10.61,2.53c.78-1.64,2.26-3.11,1.3-5.43l-2-.09-2.28,3.7C154.35,176.3,154.43,176.36,156.78,176.14Zm-39.12,44.77c-.35.84,0,1.12.67,1.25,1.83.37,3.66.75,5.49,1.1.69.14,1.39.21,2.13.31l.39-2.24Zm4.9-27.7c1.7,3,2,6.23,4,8.78.53-1.33-.17-4.18-2-8.36Zm3.84,33.67c-1.61,1.48-1,3,1.8,4.71a5.68,5.68,0,0,0,1.42-3.18C127.85,228.26,127.85,228.26,126.4,226.88Zm38.16-27.61c-2.58-.66-4.73.08-5.48,1.79l4.33.66Zm-30.89,17.1c-.84,1.19.05,2.32.52,3.55a23.23,23.23,0,0,0,4.41,0l.14-.44Zm13-16.63a12.56,12.56,0,0,0,5.56.28l-4.37-3.12Zm-17.5,9.58c-.59,1.3-1.32,2.59-.53,4,.69,1.2,1.48,2.34,2.23,3.51l.25-.13Zm-4.6,0,2.24,1.55c1-3.46,1-3.63-.46-4.77C125.82,207.1,125.27,208.1,124.61,209.3Zm6,10.68c-.85-1.74-1.51-3.12-2.28-4.7a7.75,7.75,0,0,0,0,4.58Zm0,10.83-.95,1.65c1.21,1.9,1.21,1.9,3.52,1.47Zm19.19-44.32c.15,1.36.24,2.59.42,3.82a3.51,3.51,0,0,0,2.31,2.09,6.61,6.61,0,0,1-1.43-4.11A1.63,1.63,0,0,0,149.73,186.49Zm-19.36,35h-2.49l-.38,2.15,2.34.3Zm23.76-51.35c-1.57-.56-2.19-.49-2.44.23a1.52,1.52,0,0,0,1.09,2C153.59,172.52,153.93,172,154.13,170.15Zm-39.81,53a8.58,8.58,0,0,0-1.65-1,1.17,1.17,0,0,0-1.52.92c-.1.36.1,1.1.35,1.2a3,3,0,0,0,1.76.06C113.62,224.17,113.86,223.64,114.32,223.12Zm37.84-45.45c.37-.65.77-1,.69-1.27-.45-1.32-.82-2.72-2.55-3.69Zm-18.5,44.65-.49-.11c-.25.5-.76,1-.69,1.48.16.95,1,1.41,2.18,1.69Zm5.77,4.88-3.13.32,1.27,2.19Zm-1.49-3.65v-.43l-2.6-.74.83,2.43Zm-5,5.47c1.13.46,1.78,1,2.76.6-.37-.75-.67-1.39-1.09-2.25Zm28.34-31.67a8.36,8.36,0,0,0-3.45,0C159.09,198.56,159.09,198.56,161.25,197.35Zm-29.17,28.58-.31,2,1.47-1.27Zm8.21-4.21-1.75-.27C139.12,222.38,139.53,222.69,140.29,221.72Zm-2.38,3.7c.94.39,1,.41,1.24.07.08-.1-.09-.38-.18-.7Zm-22.83-4.35,0-.36-1,.07,0,.43Z"/><path d="M380,224.56c-.23,3.12-.52,6.15-.65,9.18a1.83,1.83,0,0,1-1.36,1.85c-1.9.8-3.73.22-5.57-.13-1.42-.28-2.8-.81-4.23-1.11-1.08-.24-1.31-1-1.42-1.88-.38-2.95-.83-5.91-1-8.88-.22-3.46-.22-6.94-.25-10.41a22.7,22.7,0,0,1,.32-2.3,4.4,4.4,0,0,0-.06-1.58c-1.58-5.17-1.19-10.34-.18-15.54a7.25,7.25,0,0,1,2-4c2.09-2,2.81-4.62,3.69-7.48-1.85-.23-3.59-.4-5.31-.65s-3.13-.5-4.67-.85a2.13,2.13,0,0,1-1.84-1.79,2,2,0,0,1,1.38-2.14,36,36,0,0,1,5.76-2.21c2.37-.59,4,.4,3.91,3.09a3.5,3.5,0,0,0,.16.75,2.75,2.75,0,0,0,2.7-2c1.53-3.77,3.26-7.47,5.06-11.12a8.45,8.45,0,0,1,6.37-4.73,53.05,53.05,0,0,1,6.48-1c9.13-.45,18.27-.85,27.41-1.1,5.05-.15,10.12,0,15.18,0a8.25,8.25,0,0,1,5.5,2.1,21.2,21.2,0,0,1,5.75,7.9c1.23,2.89,2.65,5.69,4,8.54h.43a8,8,0,0,0,.6-1.51c.27-1.45.73-2.12,2.14-2.33,2.49-.36,5-.41,7.25,1,2.13,1.31,2.37,3.74.19,5-2.85,1.61-5.89,3-9.36,2.35a5.81,5.81,0,0,0-.72-.05,1.3,1.3,0,0,0-.25.08c-.54,1.87-.37,3.47,1.45,4.75s3.32,2.66,5,4a2.27,2.27,0,0,1,1.07,2.19c-.47,2.25.27,4.33.72,6.43a30,30,0,0,1,.68,7.62,19.61,19.61,0,0,1-.32,2.12c1.37,1.09,1.61,2.77,1.78,4.47.36,3.45.83,6.89,1,10.35a37.9,37.9,0,0,1-.41,6c-.16,1.63-.47,3.24-.66,4.86-.14,1.26-.34,1.46-1.57,1.42-2.25-.08-4.5-.1-6.75-.23a17.82,17.82,0,0,1-3-.51c-.78-.18-.94-.91-1-1.58-.29-2.41-.54-4.83-.79-7.25-.05-.53-.06-1.07-.1-1.85-.86.34-1.58.6-2.28.9a27,27,0,0,1-10.66,2.24c-2.61,0-5.23-.2-7.85-.27-2.86-.09-5.73-.09-8.59-.21-5.36-.22-10.72-.5-16.07-.76-2.86-.14-5.73-.2-8.58-.46C388.35,225.54,384.3,225,380,224.56Zm.23-30.71-.19.41,5.44,7.22a2.91,2.91,0,0,1-3,.71,24.4,24.4,0,0,1-5.38-1.68c-2.81-1.43-5.45-3.2-8.15-4.83a1.81,1.81,0,0,1-.79-1.74v-2.08a2.67,2.67,0,0,0-.95,1.49,51.4,51.4,0,0,0-1,8.14c.07,5.68,1.56,11.14,3.26,16.55a5.48,5.48,0,0,0,4.95,4.14c2.17.3,4.36.5,6.52.86a120.18,120.18,0,0,0,16.72,1.67c2.8.08,5.59.35,8.39.49,3.35.17,6.7.33,10.05.44,3.59.12,7.19.06,10.77.32a40.11,40.11,0,0,0,12.18-.53c3.89-.93,7.67-2.19,10.27-5.48,1.95-2.48,3.83-5,5.55-7.69a14,14,0,0,0,1.6-4c.81-3,.24-6-.39-9a35.13,35.13,0,0,1-.89-5.92c0-.95,0-1.6-.92-2.07a7.55,7.55,0,0,1-1.12-.94l-4.28-3.5a37.33,37.33,0,0,1-3.37,3,20.92,20.92,0,0,1-3.7,1.92c-1.26.54-2.59.93-3.88,1.39a10.12,10.12,0,0,0,6.11-1.55,24.48,24.48,0,0,0,3.18-2.42c1-.85,1.92-.68,2.38.59a4,4,0,0,1,.13,1.43,12.05,12.05,0,0,0-.18,1.44c.16,2.43-1.25,4-3.14,4.94a31.42,31.42,0,0,1-8.17,3.11,42.81,42.81,0,0,0-4.53,1.36c-.52.17-1.1.63-1.45,0a1.92,1.92,0,0,1,.07-1.48c.57-1.34,1.26-2.63,1.88-3.94a3.37,3.37,0,0,0,.06-3l-6.34.6v.26h5.31c-.17.72-.25,1.22-.4,1.71a10.56,10.56,0,0,0-.87,2.77c0,2.61-1.48,3.76-3.7,4.71-3.91,1.69-7.86,2.94-12.17,2.79-.73,0-1.52.06-1.86-.8a1.57,1.57,0,0,0-1.75-1,13.43,13.43,0,0,1-1.62-.23,13.2,13.2,0,0,0-6.76,1,6.59,6.59,0,0,1-3.69.58,30.18,30.18,0,0,1-9.39-2.87c-1.95-1-4-1.84-5.29-3.76-.71-1.05-1.52-2-2.28-3.05-.38-.5-.28-1,.31-1.14a6.19,6.19,0,0,1,1.61-.22c.93-.05,1.86,0,2.78-.06v-.37Zm-3-16.16c1.9,0,3.41-.06,4.92,0,5.36.28,10.71.67,16.07.88s10.73.17,16.08.41c4.57.2,9.12.64,13.67,1,5,.36,9.87.43,14.6-1.41l2.75-1c-1.08-2.56-2.16-4.93-3.09-7.35a12.12,12.12,0,0,0-5-6.06,5,5,0,0,0-2.88-.85c-6.65.13-13.29.16-19.93.35-3.9.1-7.78.56-11.67.62-3.41,0-6.82-.23-10.23-.35l-6-.22a4.67,4.67,0,0,0-4.67,2.87c-.46.92-.93,1.84-1.32,2.8C379.39,172.05,378.35,174.77,377.22,177.69Zm68.64-3.17c.14.5.25,1,.41,1.51.66,2.09.36,2.58-1.7,3.43-5.63,2.32-11.49,2.43-17.43,1.91-3.7-.31-7.4-.74-11.11-.89-8.83-.35-17.67-.56-26.5-.83l-11.13-.36c-.73,0-1.47-.08-1.76.88a.91.91,0,0,1-.85.35,1.08,1.08,0,0,1-.46-.84,4.1,4.1,0,0,1,.25-1.43c1.26-3.42,2.55-6.83,3.84-10.24.29-.77.66-1.51,1-2.26a2.15,2.15,0,0,0-1,1.07c-2,4.42-4.35,8.7-5.65,13.43-.49,1.75-1.21,3.44-1.87,5.15a2.6,2.6,0,0,0,.53,3.17c.58.52,1.1,1.11,1.7,1.61,2.29,1.9,5.06,2.2,7.89,2.34,2.31.12,4.62.3,6.92.48,3.83.29,7.65.78,11.48.85,11.23.22,22.4-.82,33.57-1.79a24,24,0,0,0,9.08-2.55,18.89,18.89,0,0,0,3.62-2.71,3.23,3.23,0,0,0,1.1-2.93,19.62,19.62,0,0,1,0-3.83A7.69,7.69,0,0,0,445.86,174.52Zm-59.92,21.84a8.17,8.17,0,0,0,4,4.35,32.71,32.71,0,0,0,9.9,3.56c1.49.26,2.89.41,4.14-.67a1.54,1.54,0,0,1,.68-.24,23.84,23.84,0,0,1,9.22-.18,1.93,1.93,0,0,1,1.18.75,1.94,1.94,0,0,0,2.17.94,34.21,34.21,0,0,0,5.39-.85c2.54-.78,5-1.89,7.34-2.81.43-1.92.8-3.61,1.21-5.49-4.55.16-8.93.26-13.3.5a3.48,3.48,0,0,0-2.23,1,3.34,3.34,0,0,1-2.74,1.13c-2.74,0-5.49,0-8.22.06a5.16,5.16,0,0,1-2.93-.78,5.47,5.47,0,0,0-2-.75c-2.24-.27-4.48-.52-6.73-.61S388.43,196.34,385.94,196.36Zm72,38c.4-2.16.82-4,1.09-6a18.73,18.73,0,0,0,.1-6c-.32-1.91-.23-3.89-.53-5.8s0-4-1.07-5.83c-.19.18-.31.25-.36.35a42.83,42.83,0,0,1-8.46,11.57,2,2,0,0,0-.7,1.59c0,1.46,0,2.93.11,4.38.14,1.68.42,3.34.64,5C452,234.7,455,233.75,458,234.35Zm-79.43-9.95c-.41-.09-.64-.15-.87-.19-1.56-.27-3.15-.41-4.67-.82a6,6,0,0,1-4.71-4.35c-.22-.86-.58-1.68-.87-2.52a56.34,56.34,0,0,0,1,16.29c2,.49,4.08,1,6.13,1.51a3.78,3.78,0,0,0,3.27-.43C378,230.84,378.28,227.7,378.53,224.4ZM386,161.81l0,.31,1,.09c2.25.11,4.5.23,6.75.32,2.86.11,5.72.36,8.58.26,5.66-.19,11.31-.69,17-.87,5.17-.16,10.36,0,15.54-.1a4.33,4.33,0,0,1,3,1A37.43,37.43,0,0,0,441,165l.26-.31c-.71-.73-1.39-1.5-2.14-2.18-1.36-1.24-2.76-2.37-4.77-2.38-5.49,0-11-.16-16.46-.09-5.18.07-10.35.36-15.53.57-3.77.14-7.54.26-11.31.49C389.37,161.24,387.71,161.58,386,161.81Zm62.19,28.45c-3.5,3.41-7.53,4.5-11.8,4.68-.65,1.69-1.24,3.21-1.83,4.76a1.67,1.67,0,0,0,.57.11,38,38,0,0,0,10.47-3.6,3.91,3.91,0,0,0,2.46-3.91A18.89,18.89,0,0,1,448.23,190.26ZM460,176.59c-2.27-2.06-4.65-2.19-7.11-1.85-.43.06-1.14.59-1.14.91a3.28,3.28,0,0,1-1.93,3,1,1,0,0,0-.41.87,1.07,1.07,0,0,0,.82.52,9.85,9.85,0,0,0,3.06.06,31.14,31.14,0,0,0,5.13-1.78C459,178.09,459.39,177.28,460,176.59Zm-77.15,24c-1.11-1.55-2.14-2.89-3.06-4.28a2.81,2.81,0,0,0-2-1.32,14,14,0,0,1-7.1-3c-.15-.13-.42-.13-.74-.22-.06.53-.13.93-.15,1.34s0,.82,0,1.11C373.8,197.05,377.62,200,382.83,200.62ZM361,179a10.64,10.64,0,0,0,2,.67c2.77.42,5.54.78,8.32,1.11.22,0,.48-.28.88-.55-.41-.14-.57-.21-.73-.25a8.33,8.33,0,0,1-2.1-.43c-.86-.44-.27-1.31-.31-2-.08-1.24-.47-1.7-1.7-1.57a13,13,0,0,0-6.26,2.65S361.05,178.77,361,179Zm40.29,16.45c2.06,1.5,2.06,1.5,4,1.51,2.25,0,4.5,0,6.75,0a3.19,3.19,0,0,0,3.3-2Zm-29.9-5.57-.91-1.17-1,1.17Zm1.17,1.17-.23.35,1.7.91.15-.27Z"/><path d="M285.36,208.1a1.88,1.88,0,0,1-1.26-1.89,55.65,55.65,0,0,1-.55-6.54c.22-7.64-.86-15.19-1.46-22.77-.25-3.28-.41-6.57-.45-9.85a125.73,125.73,0,0,0-.73-13.85c-.48-3.8-.37-7.66-.53-11.49-.21-4.68-.37-9.37-.68-14-.14-2.18-.58-4.34-.9-6.51a7.6,7.6,0,0,0-.37-1.11c-.23.15-.39.2-.41.27-.13.57,0,1.35-.4,1.67a6.74,6.74,0,0,1-2.11,1,8.73,8.73,0,0,1-1.25.29c-1.52.36-2,.07-2.21-1.48s-.28-3.4-.41-5.1c-.08-1-.18-1.92-.29-3.12.66-.14,1.33-.33,2-.44.89-.13,1.79-.24,2.69-.29.32,0,.85.09.93.28.41,1,.95.37,1.57.22a5.28,5.28,0,0,0,0-.89c-.12-.69-.24-1.33.64-1.64s2-.22,2.36.67a14.45,14.45,0,0,1,1.07,4c.37,3.88.57,7.78.83,11.66,0,.54.11,1.07.17,1.71L286,129l2.62-3.69c1.27-.19,2.19-.3,3.1-.49.65-.13,1.27-.41,1.92-.57,1.6-.38,1.58-.28,2.66,1a24.43,24.43,0,0,0,2.89,2.77,2.69,2.69,0,0,1,1.09,2.18,8.66,8.66,0,0,0,.37,2.53,7.81,7.81,0,0,1-.63,5.65c-1.47,3.42-1.43,3.44-5,4.44-.76.21-1.53.39-2.29.59-1.76.47-3.28.38-4.57-1.22a2.9,2.9,0,0,0-3.87-.83c.08,1.49.18,3,.24,4.5.24,5.84.5,11.68.69,17.52.16,5.05.12,10.1.4,15.15.19,3.39.76,6.77,1.21,10.15a57.92,57.92,0,0,1,.48,10.2,51.29,51.29,0,0,0,.34,6.89,1.39,1.39,0,0,1-.82,1.62Zm-1.44-27,.15-3.18h-.33l.18,3.18c.3,2.83.71,5.65.87,8.49.18,3.15.09,6.31.23,9.46.1,2.22-.07,4.48.71,6.93,0-1.62,0-2.93,0-4.24,0-3.34.06-6.68-.16-10s-.75-6.62-1.18-9.92C284.36,181.56,284.08,181.33,283.92,181.1ZM289.36,141a1.75,1.75,0,0,0,2.2,1.1,29.08,29.08,0,0,1,3-.66,4.25,4.25,0,0,0,4-3.58c.26-1,.91-2,.81-2.94-.29-2.9-.28-6-3.42-7.73-.6-.32-1-1-1.55-1.66a28.36,28.36,0,0,1-4,1.31c-1.5.26-2.08,1.18-2.68,2.63,1,0,1.77,0,2.54,0a15,15,0,0,1,2-.08c.33,0,.61.44.92.69-.28.24-.55.66-.84.69-1.82.14-3.63.2-5.69.3-.29.83-1,1.82-.88,2.72a45.93,45.93,0,0,0,1.28,5.69c1.9-.1,3.73.11,5.49-.61a1,1,0,0,1,.91.23,1.07,1.07,0,0,1-.2,1,2.27,2.27,0,0,1-1.11.54C291.28,140.77,290.37,140.86,289.36,141Zm-5.88,34.65h.16c0-.36.06-.72.06-1.08-.06-7.06,0-14.12-.2-21.17-.09-3.65-.47-7.29-.75-10.93,0-.41.17-1-.7-1.1a2.65,2.65,0,0,0-.17.64,82.18,82.18,0,0,0,.25,8.75,125,125,0,0,1,1,17.3C283.11,170.6,283.36,173.13,283.48,175.66ZM273,114.9c.18,2.41.34,4.63.51,6.95,1.08-.31,2.17-.06,3-1.27a5.58,5.58,0,0,1-1.45.22,3.42,3.42,0,0,1-1-.52,3.74,3.74,0,0,1,.75-.87,9.85,9.85,0,0,1,1.57-.63c-.14-1.07-.26-2-.38-3C273.91,115.93,273.91,115.93,273,114.9Zm8.41,4.63c-1.24,0-1.22.66-1.12,1.38.34,2.4.66,4.81,1,7.2a2.89,2.89,0,0,0,.41.8l.35-.09C281.84,125.76,281.63,122.7,281.4,119.53Zm.34,11c-.3,2.3.13,8.49.58,9.22C282.85,138.08,282.57,132.49,281.74,130.51Zm2.71,4.37-.35.07c0,1.28,0,2.55,0,3.82,0,1,.53.91,1.33.48Zm-3.19-17c-.06-1.08-.12-2.16-.18-3.42A2,2,0,0,0,281.26,117.83Zm-3.23.64c.76-.93.82-1.48.41-3.33C277.37,115.63,277.37,115.63,278,118.47Zm5.83,14,.44,0,1-2.05h-1.63Z"/><path d="M418.57,219.47a69.55,69.55,0,0,1-12.24,1.1,36.86,36.86,0,0,1-4.17-.44,1.57,1.57,0,0,1-1.5-1.55c-.14-1.49-.73-2.94-.26-4.5.1-.34-.25-.86-.46-1.26-.36-.66-.12-1.07.54-1.21a8.93,8.93,0,0,1,1.64-.08c3.4,0,6.81.06,10.22.05a15.56,15.56,0,0,0,2.34-.28,3.94,3.94,0,0,1,4.51,3.21A7.8,7.8,0,0,1,418.57,219.47Zm-1-1.41c.11-.56.25-1,.3-1.5a6,6,0,0,0,0-1.27c-.23-1.88-1.37-2.57-3.22-2.43-2.78.22-5.58.21-8.37.26-1.38,0-2.76,0-4.4,0,.09,1.56.18,3.05.26,4.53,0,.84.54,1.17,1.32,1.19,1.88.06,3.76.2,5.63.16A47.2,47.2,0,0,0,417.53,218.06Z"/></svg>