<svg xmlns="http://www.w3.org/2000/svg" width="500" height="500" viewBox="0 0 500 500"><path d="M153,291.13c3.36-.81,6.19-.07,9.07,1.12a10.64,10.64,0,0,1,.9-1.09,6,6,0,0,1,1.42-1.1,1.25,1.25,0,0,1,1.15.12,1.16,1.16,0,0,1,.18,1.13c-1.12,1.38-.51,3-.72,4.47a6.83,6.83,0,0,1-.43,1.3l-1.47-.65a4.72,4.72,0,0,1-.47.92c-.69.91-1,2-2.7,2-1.4,0-2.8,1-4.33,1.56l.47,1.88a21,21,0,0,1,13.74,2.75,18.27,18.27,0,0,1,8,11.45c.51,0,1,.08,1.46.1,10.41.56,20.85.51,31.26.92,11.17.43,22.32,0,33.48,0,4.55,0,9.1-.67,13.65-1.11,3.52-.34,7-.68,10.52-1.23a112.2,112.2,0,0,0,25.09-7c1.35-.55,2.75-1,4.12-1.47a117.22,117.22,0,0,0,13.47-6.1c4.23-2.14,8.55-4.13,12.89-6.06,6-2.7,12.19-5.23,18.25-7.94,3.55-1.59,7-3.4,10.51-5.1,1.21-.58,2.42-1.16,3.64-1.71.5-.23,1.15-.47,1.35.27.07.28-.37.87-.72,1.05-2.1,1.09-4.23,2.16-6.39,3.15-4.92,2.25-9.87,4.46-14.81,6.69q-11.47,5.19-22.95,10.39c-1.5.68-3,1.45-4.39,2.25a77.17,77.17,0,0,1-12.28,5.14c-4,1.42-8,3.1-12,4.35a109.38,109.38,0,0,1-20.9,4.29c-3.75.39-7.5.9-11.26,1.27-2.42.23-4.86.41-7.29.43-9.64.08-19.28.15-28.91.09-7.38,0-14.76-.22-22.14-.43-4.44-.13-8.89-.43-13.33-.64-.66,0-1.32,0-1.89,0a42.36,42.36,0,0,1-.47,5,14.86,14.86,0,0,1-6.66,9.87,11.23,11.23,0,0,1-4.76,1.74,27.53,27.53,0,0,1-9.1-.19,16.59,16.59,0,0,1-10.67-7.39,11.7,11.7,0,0,1-2.41-7.33,4.07,4.07,0,0,0-.08-.9c-1.63-.13-3.17-.22-4.71-.38a2.21,2.21,0,0,0-1.87.88c1.83,4.78-1.84,8.82-7.47,7.22.63,1.1,1.27,2.13,1.81,3.21s.22,1.52-.89,1.55a29.24,29.24,0,0,1-3.1-.15,2.35,2.35,0,0,1-2.1-1.81c-.56.46-1,.83-1.45,1.22a13.43,13.43,0,0,1-9,3.51,17.63,17.63,0,0,1-5.86-1.1,21.93,21.93,0,0,1-7.29-4.09c-4-3.47-5.92-7.61-4.79-12.94,0-.17,0-.36.07-.79a13.81,13.81,0,0,0-2-.37c-2.68-.13-5.36-.2-8-.28-4.63-.15-9.26-.37-13.89-.41-10.43-.09-20.86-.08-31.29-.14-2.86,0-5.74,0-8.59-.23-5.52-.51-11-.81-16.59-.87a1.55,1.55,0,0,1-.87-.17,1.07,1.07,0,0,1-.35-.75c0-.14.29-.4.48-.44a5.39,5.39,0,0,1,1.27-.07c4.21.12,8.43,0,12.61.45,5.41.53,10.82.5,16.23.54,10.61.07,21.23.11,31.84.23,5,.06,10,.25,15,.43,1.52.05,3,.3,4.74.48.5-.94,1-2,1.58-2.95a15.55,15.55,0,0,1,11.19-8,13.71,13.71,0,0,1,4,.18c1.92.25,3.82.64,5.79,1a11.81,11.81,0,0,1,.75-1.27c1.31-1.74,1.68-3.32.25-5.36-1.07-1.56-1.49-3.58-2.14-5.42a5.62,5.62,0,0,0-2.42-3.07A4.36,4.36,0,0,1,115,284c.29-1.13,1.14-2.19.44-3.48-.12-.22.18-.68.32-1a11,11,0,0,1,3.46-4.39c3.36-2.64,7.28-3.86,11.37-4.7,3.28-.68,6.54-1.4,9.83-2,1.67-.31,3.37-.47,5.32-.73a4.2,4.2,0,0,0-.25-1.55c-1.17-2-.95-4.12-.75-6.23a2.64,2.64,0,0,1,2.86-2.3,11.52,11.52,0,0,1,4.32.44,19.54,19.54,0,0,1,5.22,2.92c1.63,1.3,1.72,3.43,1.7,5.39,0,1.06-1.13.61-1.94,1a7,7,0,0,0,.26,1.82,1.2,1.2,0,0,1-.49,1.69,3.88,3.88,0,0,0-1.1,1.4c-.77,1.65-.91,1.86-2.73,1.66a3.28,3.28,0,0,0-3.07,1.2A6.21,6.21,0,0,0,148.5,280a6.71,6.71,0,0,0,.84,3.29,1.16,1.16,0,0,1,.22.69C149.36,287,152,288.67,153,291.13Zm-7.17,26.75c-.08.78-.16,1.43-.2,2.09-.21,3,1.13,5.59,2.92,7.86a15.07,15.07,0,0,0,11.78,6.05,25.67,25.67,0,0,0,7.23-.6c4.81-1.3,7.3-5,8.61-9.57a7,7,0,0,0-.14-5.35l-14-.53L161,319.19c-.36-.3-.6-.54-.88-.73s-.68-.55-1-.56C154.76,317.87,150.44,317.88,145.84,317.88Zm-46.63-2.32c-1.5,3.66-.61,6.81,1.21,9.74s4.76,4.77,7.93,6.14c2.88,1.25,5.79,2.1,9,1.41a12.45,12.45,0,0,0,6.73-3.69c-3.79-4.27-3.9-4.71-1.79-7.73-2.15-.46-4.22-.88-6.28-1.34a2.57,2.57,0,0,0-2.51.65c-.07.06-.09.16-.15.27.2.15.41.27.59.43a8,8,0,0,1,.58.6,4.41,4.41,0,0,1-1.55,2.69c-1.09,1-1.56.85-2.13-.48-.1-.24-.25-.61-.42-.63-1-.15-.57-1.1-1-1.64-1.23-.05-2.43-.3-2.8-1.76s.42-2.41,1.41-3.53Zm38.58-38.09c-.23-.19-.31-.28-.41-.35a4,4,0,0,1-1.21-5.12c.14-.25.55-.35.84-.52.17.29.47.57.48.87a15.22,15.22,0,0,1-.23,1.61c-.08,1.33.17,1.56,1.47,1.76,1.08.17,2.14.44,3.2.69.69.15,1.37.35,2.3.59a26.29,26.29,0,0,0,0-3.46c-.29-1.88-3.19-3.82-5-3.42-4.1.88-8.2,1.76-12.28,2.73a17.63,17.63,0,0,0-7.49,4,4.91,4.91,0,0,0-1.93,2.94c.69,0,1.28,0,1.86-.11a17.39,17.39,0,0,1,8.46.7,7.81,7.81,0,0,0,3.21.46,14.48,14.48,0,0,1,4.87.35,7.87,7.87,0,0,0,2.2-.06Zm18.57,27.07,4.42,11.79,15.19.46C174,308.06,165.5,302.92,156.36,304.54Zm-42.83,10.67,6-9.35a25.63,25.63,0,0,0-7.92-1.35c-5,.17-10.51,4.83-11.75,9.55A61.78,61.78,0,0,0,113.53,315.21ZM135.72,283c-1.24-.9-2.47-.67-3.66-.7a20.53,20.53,0,0,1-3.43-.27c-2.85-.59-5.62-1.41-8.63-.9-2.61.44-2.64.25-3.45,2.82-.67,2.14-.07,3.21,2.21,3.61,3.39.59,6.79,1.2,10.21,1.55,1.4.14,3.1.25,4.05-1.34S134.81,284.6,135.72,283Zm1.53,25.95a7.24,7.24,0,0,0,.34-1.12,28.18,28.18,0,0,1,4.53-12.4,24.38,24.38,0,0,0,1.14-2.48,1.4,1.4,0,0,0-.44-1.92,6.22,6.22,0,0,1-2.11-3.53c-.2-.76-.56-1.49-.7-2.26a1.62,1.62,0,0,0-1.67-1.56,8.08,8.08,0,0,1-1.15-.25c-1,1.82-1.95,3.6-3,5.61,1.44.31,2.68.55,3.9.84,1.55.36,1.74.89,1.06,2.33a18.61,18.61,0,0,0-1.43,3.54c-.87,3.73-1.6,7.49-2.4,11.23C135,308.51,135.31,308.91,137.25,308.94Zm16.18-3.21a14.26,14.26,0,0,0-6.82,10.61h12.54Zm.78-8.65c.49-1.52.51-1.54-.35-2.3-1.88-1.64-3.79-3.25-5.67-4.89-1.44-1.25-2.81-2.49-2.61-4.72.07-.72-.48-1.48-.7-2.24-.42-1.42-1.63-2.57-1.31-4.4l-4.24-1.39a14.18,14.18,0,0,0,.3,2.17c.25.79.72,1.51,1,2.31.41,1.33.75,2.69,1.07,4.05a9.57,9.57,0,0,0,3.52,5.6c2.09,1.56,4.28,3,6.46,4.46C152.45,296.25,153.34,296.62,154.21,297.08Zm-14.68,8.45c1.25-.63,2.36-1.21,3.49-1.72.86-.4,1.32-.05,1.2.83s-.21,1.84-.35,3.09c2.9-3.2,5.56-6.12,8.19-9.05.16-.19.14-.53.2-.76-.21-.13-.31-.25-.41-.25-2.73,0-5.46-.07-8.19-.07a1.65,1.65,0,0,0-1.62.92A20.87,20.87,0,0,0,139.53,305.53Zm-18.64,1.06c-1.71,3.1-4,5.51-5.38,8.59a18,18,0,0,0,8.16.18c0-1.82,0-3.7,0-5.57a1.82,1.82,0,0,0-.47-1.12C122.53,308,121.79,307.39,120.89,306.59Zm16.73-15.23c-2.72-.64-5.3-1.63-8-.48.47,1.79.92,3.49,1.39,5.26h4.91C136.48,294.53,137,293.05,137.62,291.36Zm4.45,22,3,2.12c1-5.23,4-8.86,8.32-11.54-.24-1-.45-1.92-.75-3.22C149.16,305.32,144.78,308.56,142.07,313.36Zm12.23-50.63-.64,1.5c-.4-.3-.8-.61-1.22-.89-1.1-.73-2.2-1.47-3.34-2.15-.4-.24-.94-.27-1.36-.5-.22-.12-.5-.54-.44-.67s.47-.62.73-.63a3.69,3.69,0,0,1,1.4.34c.84.32,1.66.7,2.54,1.09l.6-1.07a8.82,8.82,0,0,0-4.72-.75c-.53.08-1.36.45-1.45.83-.36,1.63-.73,3.32.06,4.61,1.81,0,3.49-.29,4.89.2,2,.69,3.91.46,5.88.9-.29-2.59-.4-2.85-1.44-3.56,0,.66.7,1.54-.31,1.87-.76.25-.87-.66-1.21-1.12C154.24,262.7,154.16,262.71,154.3,262.73Zm-11.62,53.32c-1.32-1.48-2.49-2.63-3.48-3.92-.81-1.05-1.49-2.05-3.08-1.55-.3.1-.76-.26-1.13-.45s-.82-.45-1.2-.67c-1.81,1.46-1.68,2.44.22,3.35a24.34,24.34,0,0,1,3,2c.59.41,1.14,1.08,1.78,1.18A26.29,26.29,0,0,0,142.68,316.05Zm-6.84-18.21h-4.72c.37,1.54.63,2.91,1,4.24a6.36,6.36,0,0,1-.26,4.62,26.56,26.56,0,0,0-.94,3.12c.81-.69,1.36-1.07,1.81-1.55a3.75,3.75,0,0,0,1-1.44C134.5,303.88,135.14,300.92,135.84,297.84ZM129.33,310c.49-1.53,1-3,1.42-4.53a3.33,3.33,0,0,0,.22-1.6c-.43-2-1-4-1.46-6h-2.64Zm-5-19.57c.45,1.4.9,2.88,1.38,4.35s.53,1.58,2.17,1.54c.41,0,.83-.09,1.37-.16-.26-1.82-.43-3.68-1.55-5-.57-.68-2-.65-3-.94C124.69,290.16,124.63,290.23,124.37,290.4Zm18.82-20.72c2.18,1.67,2.83,3.09,2.62,5.58-.05.55-.13,1.09-.2,1.63a10.28,10.28,0,0,0,.27,4.27c1-.4,1-.41,1-1a38.43,38.43,0,0,1,.51-4.69,3.76,3.76,0,0,0-.09-2.28c-.27-.68-.5-1.37-.76-2.05C145.81,269.14,145.52,269,143.19,269.68Zm10.61,2.53c.78-1.65,2.26-3.11,1.3-5.43l-1.95-.1-2.28,3.71C151.37,272.37,151.45,272.43,153.8,272.21ZM114.68,317c-.35.83,0,1.12.67,1.25,1.83.37,3.66.75,5.49,1.1.69.13,1.39.2,2.13.31l.39-2.25Zm4.9-27.7c1.71,3,2,6.22,4,8.78.53-1.33-.17-4.18-2-8.36Zm3.84,33.66c-1.61,1.49-1,3.05,1.8,4.72a5.71,5.71,0,0,0,1.42-3.19C124.87,324.32,124.87,324.32,123.42,322.94Zm38.16-27.61c-2.58-.66-4.73.09-5.48,1.8l4.34.66Zm-30.89,17.1c-.84,1.19.05,2.32.52,3.56a24.09,24.09,0,0,0,4.41,0l.14-.45C134.12,314.56,132.49,313.55,130.69,312.43Zm13-16.63a12.56,12.56,0,0,0,5.56.28L144.93,293Zm-17.5,9.58c-.59,1.3-1.32,2.6-.53,4,.69,1.19,1.48,2.33,2.23,3.5l.25-.12Zm-4.6,0,2.24,1.55c1-3.46.95-3.64-.46-4.78C122.84,303.16,122.29,304.17,121.63,305.37Zm6,10.68c-.84-1.75-1.51-3.13-2.28-4.7a7.72,7.72,0,0,0,.05,4.57Zm0,10.83-1,1.64c1.21,1.9,1.21,1.9,3.52,1.48Zm19.19-44.32c.15,1.35.24,2.59.42,3.81a3.49,3.49,0,0,0,2.31,2.09,6.61,6.61,0,0,1-1.43-4.11A1.62,1.62,0,0,0,146.75,282.56Zm-19.36,35H124.9l-.38,2.15,2.34.31Zm23.77-51.34c-1.58-.57-2.2-.5-2.45.23a1.52,1.52,0,0,0,1.09,2C150.61,268.59,151,268.06,151.16,266.22Zm-39.82,53a8.44,8.44,0,0,0-1.65-1,1.16,1.16,0,0,0-1.52.91c-.1.37.1,1.11.35,1.2a2.94,2.94,0,0,0,1.76.06C110.64,320.23,110.88,319.7,111.34,319.18Zm37.84-45.44c.37-.66.77-1.05.69-1.28-.45-1.31-.82-2.72-2.55-3.68C148,270.53,148.51,271.94,149.18,273.74Zm-18.5,44.64-.49-.1c-.24.49-.76,1-.69,1.47.16.95,1,1.41,2.18,1.69Zm5.77,4.89-3.13.32,1.27,2.18C135.26,324.88,135.72,324.24,136.45,323.27ZM135,319.62v-.43l-2.6-.75.83,2.43Zm-5,5.47c1.13.46,1.78,1,2.76.6l-1.09-2.25Zm28.34-31.67a8.36,8.36,0,0,0-3.45,0C156.11,294.63,156.11,294.63,158.27,293.42ZM129.1,322l-.31,2,1.47-1.26Zm8.21-4.2-1.75-.27C136.14,318.45,136.55,318.76,137.31,317.79Zm-2.38,3.7c.94.38,1,.41,1.24.07.08-.1-.09-.39-.18-.7Zm-22.83-4.35,0-.37-1,.08,0,.43Z"/><path d="M377,320.63c-.23,3.12-.51,6.14-.65,9.17a1.84,1.84,0,0,1-1.36,1.86c-1.9.79-3.73.22-5.57-.14-1.42-.28-2.8-.8-4.23-1.11-1.07-.23-1.31-1-1.41-1.87-.38-3-.84-5.91-1-8.88-.22-3.47-.22-6.94-.25-10.42,0-.76.25-1.52.32-2.3a4.18,4.18,0,0,0-.06-1.58c-1.58-5.16-1.19-10.34-.18-15.53a7.25,7.25,0,0,1,2-4c2.09-2,2.81-4.61,3.69-7.48-1.85-.22-3.59-.39-5.31-.65-1.57-.23-3.13-.5-4.67-.84a2.15,2.15,0,0,1-1.84-1.8,2,2,0,0,1,1.38-2.14,36,36,0,0,1,5.76-2.21c2.37-.58,4,.4,3.91,3.1a3.3,3.3,0,0,0,.16.74,2.73,2.73,0,0,0,2.7-1.95c1.54-3.77,3.26-7.48,5.06-11.13a8.41,8.41,0,0,1,6.37-4.72,53.08,53.08,0,0,1,6.48-1c9.14-.44,18.27-.84,27.41-1.1,5-.14,10.12,0,15.18.06a8.2,8.2,0,0,1,5.5,2.1,21.16,21.16,0,0,1,5.75,7.89c1.23,2.89,2.65,5.7,4,8.54h.43a8.14,8.14,0,0,0,.6-1.52c.27-1.44.73-2.11,2.14-2.32,2.49-.37,5-.41,7.25,1,2.13,1.31,2.37,3.73.19,5-2.85,1.62-5.89,3-9.36,2.35a5.79,5.79,0,0,0-.72,0c-.06,0-.12,0-.25.07-.54,1.88-.37,3.48,1.45,4.75s3.32,2.67,5,4a2.28,2.28,0,0,1,1.07,2.2c-.47,2.24.27,4.32.72,6.42a30.09,30.09,0,0,1,.68,7.62,19.61,19.61,0,0,1-.32,2.12c1.37,1.1,1.61,2.78,1.78,4.48.36,3.45.84,6.89,1,10.35a39.19,39.19,0,0,1-.4,6c-.17,1.62-.48,3.23-.67,4.86-.14,1.26-.33,1.46-1.57,1.41-2.25-.08-4.5-.1-6.75-.23a18.83,18.83,0,0,1-3.05-.5c-.78-.18-.94-.92-1-1.58-.29-2.41-.54-4.83-.79-7.25-.05-.53-.06-1.07-.1-1.86-.86.34-1.58.61-2.28.91a27,27,0,0,1-10.65,2.23c-2.62,0-5.24-.19-7.86-.27-2.86-.08-5.73-.08-8.59-.2-5.36-.23-10.72-.51-16.07-.77-2.86-.14-5.73-.2-8.58-.45C385.37,321.61,381.32,321.1,377,320.63Zm.23-30.71-.19.41,5.44,7.22a2.91,2.91,0,0,1-3,.7,24.92,24.92,0,0,1-5.38-1.67c-2.81-1.43-5.45-3.2-8.15-4.83a1.81,1.81,0,0,1-.79-1.74v-2.08a2.64,2.64,0,0,0-.95,1.49,51.13,51.13,0,0,0-1,8.13c.07,5.69,1.56,11.15,3.26,16.56a5.49,5.49,0,0,0,5,4.14c2.18.29,4.36.49,6.52.86a121.72,121.72,0,0,0,16.72,1.67c2.8.08,5.59.35,8.39.49q5,.25,10,.44c3.59.12,7.19.06,10.77.31a39.8,39.8,0,0,0,12.18-.52c3.89-.93,7.67-2.19,10.27-5.48,2-2.49,3.83-5,5.55-7.7a13.92,13.92,0,0,0,1.6-4c.81-3,.24-6-.39-9a35.24,35.24,0,0,1-.89-5.93c0-.95,0-1.6-.92-2.07a7.55,7.55,0,0,1-1.12-.94l-4.28-3.49a37.33,37.33,0,0,1-3.37,3,20.92,20.92,0,0,1-3.7,1.92c-1.26.54-2.59.93-3.88,1.38a10.12,10.12,0,0,0,6.11-1.54,24.56,24.56,0,0,0,3.18-2.43c1-.85,1.92-.67,2.38.59a4,4,0,0,1,.13,1.43,12.21,12.21,0,0,0-.18,1.45c.16,2.42-1.25,3.95-3.14,4.93a31.09,31.09,0,0,1-8.17,3.12,40.58,40.58,0,0,0-4.53,1.36c-.51.16-1.1.62-1.45,0a1.92,1.92,0,0,1,.07-1.48c.57-1.34,1.26-2.63,1.88-3.95a3.35,3.35,0,0,0,.06-3l-6.34.6v.25h5.31c-.17.72-.25,1.23-.4,1.71a10.63,10.63,0,0,0-.87,2.78c0,2.6-1.48,3.75-3.7,4.71-3.91,1.69-7.86,2.94-12.17,2.79-.73,0-1.52.06-1.86-.81a1.57,1.57,0,0,0-1.74-1,13.31,13.31,0,0,1-1.63-.23,13.21,13.21,0,0,0-6.76,1,6.58,6.58,0,0,1-3.69.57,30.16,30.16,0,0,1-9.39-2.86c-1.95-1-4-1.85-5.29-3.76-.71-1.05-1.52-2-2.28-3.05-.38-.5-.28-1,.31-1.15a6.65,6.65,0,0,1,1.61-.22c.93,0,1.86,0,2.78,0v-.37Zm-3-16.16c1.9,0,3.41-.07,4.92,0,5.36.27,10.71.67,16.07.88s10.73.17,16.09.41c4.56.2,9.11.64,13.66,1,4.95.37,9.87.43,14.6-1.4.83-.33,1.67-.63,2.75-1-1.08-2.56-2.16-4.92-3.09-7.34a12.12,12.12,0,0,0-5-6.06,4.88,4.88,0,0,0-2.88-.85c-6.65.12-13.29.16-19.93.34-3.9.11-7.78.56-11.67.62-3.41.06-6.82-.22-10.23-.35-2-.07-4-.13-6-.22a4.7,4.7,0,0,0-4.67,2.87c-.46.93-.93,1.85-1.32,2.81C376.41,268.11,375.37,270.83,374.24,273.76Zm68.64-3.18c.14.51.26,1,.41,1.52.66,2.09.36,2.57-1.7,3.42-5.63,2.33-11.49,2.43-17.43,1.92-3.7-.32-7.4-.75-11.11-.89-8.83-.35-17.67-.56-26.5-.83l-11.13-.37c-.73,0-1.47-.07-1.76.89a.94.94,0,0,1-.85.35,1.1,1.1,0,0,1-.46-.85,4.09,4.09,0,0,1,.25-1.42c1.26-3.42,2.55-6.84,3.84-10.25.29-.76.66-1.5,1-2.25a2.11,2.11,0,0,0-1.05,1.06c-2,4.42-4.35,8.71-5.65,13.44-.49,1.75-1.21,3.44-1.87,5.14a2.6,2.6,0,0,0,.53,3.17c.58.53,1.1,1.12,1.7,1.61,2.29,1.91,5.06,2.21,7.89,2.35,2.31.11,4.62.3,6.92.47,3.83.29,7.65.78,11.48.86,11.23.22,22.4-.82,33.57-1.8a24.12,24.12,0,0,0,9.08-2.54,19.76,19.76,0,0,0,3.62-2.71,3.21,3.21,0,0,0,1.1-2.93,19.62,19.62,0,0,1,0-3.83A7.73,7.73,0,0,0,442.88,270.58ZM383,292.43a8.24,8.24,0,0,0,4,4.35,32.71,32.71,0,0,0,9.9,3.56c1.49.26,2.89.4,4.14-.67a1.55,1.55,0,0,1,.68-.25,23.84,23.84,0,0,1,9.22-.17,1.9,1.9,0,0,1,1.18.75,2,2,0,0,0,2.17.94,36.69,36.69,0,0,0,5.39-.85c2.54-.78,5-1.89,7.34-2.81.43-1.93.8-3.61,1.21-5.49-4.55.15-8.93.26-13.3.5a3.47,3.47,0,0,0-2.22,1,3.34,3.34,0,0,1-2.75,1.13c-2.74,0-5.49,0-8.22.07a5.33,5.33,0,0,1-2.93-.78,5.29,5.29,0,0,0-2-.75c-2.24-.28-4.48-.53-6.73-.61S385.45,292.4,383,292.43Zm72,38c.4-2.16.82-4.05,1.09-6a18.79,18.79,0,0,0,.1-6c-.32-1.91-.23-3.88-.53-5.8s0-4-1.07-5.82c-.19.18-.31.24-.36.34a42.88,42.88,0,0,1-8.46,11.58,2,2,0,0,0-.7,1.59c0,1.46,0,2.93.11,4.38.14,1.67.43,3.34.64,4.94C449,330.76,452,329.82,455,330.42Zm-79.43-10c-.41-.09-.64-.15-.87-.19-1.56-.26-3.15-.41-4.67-.82a6,6,0,0,1-4.71-4.35c-.22-.85-.58-1.68-.87-2.51a56.27,56.27,0,0,0,1,16.28c2,.5,4.08,1,6.13,1.52a3.75,3.75,0,0,0,3.27-.44C375.06,326.91,375.3,323.77,375.55,320.46Zm7.51-62.58,0,.3c.33,0,.66.08,1,.1,2.25.11,4.5.22,6.75.31,2.86.11,5.73.37,8.58.27,5.66-.2,11.31-.7,17-.87,5.18-.17,10.36-.06,15.54-.1a4.25,4.25,0,0,1,3,1c.95.82,2,1.49,3.08,2.22l.25-.31c-.71-.73-1.39-1.5-2.14-2.19-1.36-1.24-2.76-2.37-4.77-2.37-5.49,0-11-.17-16.46-.09-5.17.07-10.35.36-15.53.56-3.77.15-7.54.27-11.31.5C386.39,257.31,384.73,257.65,383.06,257.88Zm62.19,28.45c-3.5,3.4-7.53,4.5-11.8,4.68-.65,1.69-1.24,3.2-1.83,4.76.23,0,.41.14.57.1a38,38,0,0,0,10.47-3.59,3.92,3.92,0,0,0,2.46-3.91C445.09,287.83,445.19,287.29,445.25,286.33ZM457,272.66c-2.27-2.06-4.65-2.2-7.11-1.85-.43.06-1.14.59-1.14.91a3.3,3.3,0,0,1-1.93,3,1,1,0,0,0-.41.87,1.1,1.1,0,0,0,.82.52,9.85,9.85,0,0,0,3.06.06,31.14,31.14,0,0,0,5.13-1.78C456,274.15,456.41,273.35,457,272.66Zm-77.14,24c-1.12-1.55-2.15-2.88-3.07-4.28a2.8,2.8,0,0,0-2.05-1.31,14,14,0,0,1-7.1-3c-.15-.13-.42-.13-.74-.22-.06.52-.13.93-.15,1.33s0,.83,0,1.12C370.82,293.12,374.64,296.1,379.86,296.68ZM358,275.09a11.43,11.43,0,0,0,2,.67c2.77.42,5.54.78,8.32,1.11.22,0,.48-.29.89-.55-.42-.14-.58-.22-.74-.25a8.33,8.33,0,0,1-2.1-.44c-.86-.43-.27-1.31-.31-2-.08-1.24-.47-1.7-1.7-1.57a13,13,0,0,0-6.26,2.65S358.07,274.84,358,275.09Zm40.29,16.45c2.06,1.5,2.06,1.5,4,1.5,2.25,0,4.5-.05,6.75,0a3.2,3.2,0,0,0,3.3-2ZM368.41,286l-.91-1.16-1,1.16Zm1.17,1.17-.23.36,1.7.91.15-.28Z"/><path d="M282.38,304.16a1.87,1.87,0,0,1-1.26-1.88,55.65,55.65,0,0,1-.55-6.54c.22-7.65-.86-15.19-1.45-22.78-.26-3.27-.42-6.56-.46-9.85a125.86,125.86,0,0,0-.73-13.85c-.47-3.79-.36-7.65-.53-11.48-.21-4.68-.37-9.37-.68-14.05-.14-2.18-.58-4.34-.9-6.51a7.22,7.22,0,0,0-.37-1.11c-.23.16-.39.2-.41.28-.13.57-.05,1.35-.4,1.66a7,7,0,0,1-2.11,1,10.3,10.3,0,0,1-1.25.28c-1.52.37-2,.07-2.21-1.47-.2-1.7-.27-3.4-.41-5.1-.08-1-.18-1.93-.29-3.12.66-.15,1.33-.34,2-.44a27,27,0,0,1,2.69-.29c.32,0,.85.09.93.28.41,1,.95.36,1.57.22a5.25,5.25,0,0,0,0-.89c-.12-.69-.24-1.33.64-1.64s2-.22,2.36.67a14.73,14.73,0,0,1,1.08,4c.36,3.88.56,7.77.82,11.66,0,.54.11,1.07.17,1.7l2.34.15,2.62-3.68c1.27-.2,2.19-.3,3.1-.49.65-.14,1.27-.41,1.92-.57,1.61-.39,1.58-.29,2.66,1a24.43,24.43,0,0,0,2.89,2.77,2.68,2.68,0,0,1,1.09,2.18,8.59,8.59,0,0,0,.37,2.52,7.84,7.84,0,0,1-.63,5.66c-1.47,3.41-1.43,3.43-5,4.43-.76.22-1.53.39-2.29.6-1.76.47-3.28.37-4.57-1.22a2.89,2.89,0,0,0-3.87-.84c.08,1.49.18,3,.24,4.51.24,5.83.5,11.67.69,17.51.16,5,.12,10.11.4,15.15.19,3.4.76,6.77,1.21,10.15a57.92,57.92,0,0,1,.48,10.2,51.52,51.52,0,0,0,.34,6.9,1.4,1.4,0,0,1-.82,1.62Zm-1.44-27,.15-3.18h-.33l.18,3.18c.3,2.83.71,5.65.87,8.48.18,3.15.09,6.32.23,9.47.1,2.22-.07,4.48.71,6.92,0-1.61,0-2.93,0-4.24,0-3.33.06-6.67-.16-10s-.75-6.61-1.18-9.92C281.38,277.62,281.1,277.4,280.94,277.16Zm5.44-40.09a1.76,1.76,0,0,0,2.2,1.11,29.08,29.08,0,0,1,3-.66,4.26,4.26,0,0,0,4-3.58c.26-1,.91-2,.81-2.95-.29-2.9-.28-6-3.42-7.72a7.43,7.43,0,0,1-1.55-1.67,27.11,27.11,0,0,1-4,1.31c-1.5.26-2.08,1.19-2.68,2.64,1,0,1.77,0,2.54,0a15,15,0,0,1,2-.09c.33,0,.61.45.92.69-.28.24-.55.67-.84.69-1.82.15-3.63.2-5.69.3-.29.84-1,1.82-.88,2.73a45.78,45.78,0,0,0,1.28,5.68c1.9-.09,3.73.11,5.49-.61a1,1,0,0,1,.91.24,1.07,1.07,0,0,1-.2,1,2.32,2.32,0,0,1-1.11.54C288.3,236.84,287.39,236.93,286.38,237.07Zm-5.88,34.66h.16c0-.36.06-.72.06-1.08-.06-7.06,0-14.12-.2-21.18-.09-3.64-.47-7.28-.74-10.92,0-.41.16-1-.71-1.1a2.53,2.53,0,0,0-.17.64,82.18,82.18,0,0,0,.25,8.75,125,125,0,0,1,1,17.29C280.13,266.66,280.38,269.2,280.5,271.73ZM270,211c.18,2.42.34,4.63.51,6.95,1.09-.31,2.17,0,3-1.26a6,6,0,0,1-1.45.22,3.68,3.68,0,0,1-1-.52,3.54,3.54,0,0,1,.75-.87,9.85,9.85,0,0,1,1.57-.63c-.14-1.08-.26-2.06-.38-3C270.93,212,270.93,212,270,211Zm8.42,4.64c-1.25,0-1.23.65-1.13,1.38.34,2.4.66,4.8,1,7.2a2.71,2.71,0,0,0,.41.79l.35-.09C278.86,221.82,278.65,218.77,278.43,215.6Zm.33,11c-.3,2.31.13,8.49.58,9.23C279.87,234.15,279.59,228.56,278.76,226.57Zm2.71,4.38-.35.07c0,1.27,0,2.55,0,3.82,0,1,.53.91,1.33.48C282.13,233.85,281.8,232.4,281.47,231Zm-3.19-17c-.06-1.09-.12-2.17-.18-3.43A2,2,0,0,0,278.28,213.9Zm-3.23.63c.76-.92.82-1.47.41-3.33C274.39,211.7,274.39,211.7,275.05,214.53Zm5.83,14.05.44,0,1-2.06h-1.63Z"/><path d="M415.59,315.54a70.51,70.51,0,0,1-12.24,1.1,39.32,39.32,0,0,1-4.17-.44,1.56,1.56,0,0,1-1.49-1.55c-.15-1.49-.74-2.94-.27-4.5.1-.35-.25-.86-.46-1.26-.36-.67-.12-1.07.54-1.21a8.13,8.13,0,0,1,1.64-.09c3.4,0,6.81.06,10.22.05a14.24,14.24,0,0,0,2.34-.28,4,4,0,0,1,4.51,3.22A7.8,7.8,0,0,1,415.59,315.54Zm-1-1.41c.12-.57.25-1,.3-1.51a6,6,0,0,0,0-1.27c-.23-1.87-1.37-2.56-3.22-2.42-2.78.22-5.58.2-8.37.26-1.38,0-2.76,0-4.4,0,.09,1.56.18,3,.26,4.53,0,.83.54,1.17,1.32,1.19,1.88.06,3.76.2,5.64.16A48.11,48.11,0,0,0,414.55,314.13Z"/></svg>