<svg xmlns="http://www.w3.org/2000/svg" width="500" height="350" viewBox="0 0 500 350"><path d="M237.4,196.37a34.52,34.52,0,0,1-1-3.69c-.45-3.13-.88-6.27-1.16-9.43-.37-4.18-.63-8.38-.85-12.58a64.25,64.25,0,0,1-.08-6.94,38.41,38.41,0,0,0-.92-11.06,8.41,8.41,0,0,1-.15-2.35c.07-1.29.12-1.29-.41-2a67.61,67.61,0,0,1,2.07-6.91,39.15,39.15,0,0,1,3.59-7,46.05,46.05,0,0,0,3.84-7.24c1.13-2.56,2.2-5.15,3.28-7.73a6.59,6.59,0,0,0,.22-.9,8.58,8.58,0,0,0-4.91-1.26c-2.62-.11-5.24-.06-7.86-.17-4-.15-8-.38-12.05-.58l-1.1,0c-6.45-.28-12.92-.43-19.36-.89-3.81-.28-7.59-1-11.38-1.62-2.21-.35-4.4-.84-6.81-1.3-.93,1.19-2.4,1.36-4,1s-3.46-.68-5.21-.92A4.67,4.67,0,0,0,168.5,115a7.3,7.3,0,0,0-.77,1.24c-.94,2.13-2.8,3-4.86,3.46-1.72.41-3.45.76-5.19,1.07-1,.18-2.1.33-2.85-.66-.48-.64-.16-1.93.87-2.94a21.33,21.33,0,0,1,2.45-1.86c.85-.62.88-1.14,0-1.66a43.54,43.54,0,0,0-3.85-2.11,10.38,10.38,0,0,0-5-.92c-1.82.11-3.65,0-5.47,0a4.85,4.85,0,0,1-1.25-.24c-1.63-.5-2-1.07-1.57-2.68.08-.3.18-.58.27-.9-.22-.28-.49-.54-.68-.84A1.27,1.27,0,0,1,141,104a10.08,10.08,0,0,1,1.41-.84,40.75,40.75,0,0,1,10-3.26,9.3,9.3,0,0,0,2.4-.74,8,8,0,0,1,6-.59c2.48.62,5,1,7.52,1.47a2.7,2.7,0,0,0,1.89-.4,12.88,12.88,0,0,1,3.21-1.22,11,11,0,0,1,2.76.2c2.69-2,6.3-2.47,9.83-2.9,6.1-.73,12.26-1.09,18.39-1.61,2.85-.25,5.7-.47,8.55-.77a3.41,3.41,0,0,0,1.44-.65,8.48,8.48,0,0,1,4.44-1.49c2.77-.14,5.48-.06,8,1.44a3,3,0,0,0,3,.13,9.88,9.88,0,0,1,2.31-.48,19.94,19.94,0,0,0,4-1,9.19,9.19,0,0,1,4.26-.52,2.54,2.54,0,0,0,2.55-.87c.86-1,1.76-2,2.64-3a8.77,8.77,0,0,1,4.79-2.45,29.86,29.86,0,0,0,5.52-1.77A26.38,26.38,0,0,1,260.34,81c.88-.24,1.74-.53,2.72-.83.14-1.34.3-2.66.43-4,.27-2.68,1.44-3.89,4.08-4.32a35.87,35.87,0,0,0,3.57-.74c5.34-1.45,10.67-2.94,16-4.42a4.4,4.4,0,0,0-.92-3.75,16.06,16.06,0,0,1-1.59-3.25A5.22,5.22,0,0,1,285.68,54a8,8,0,0,0,1.9-5,3.91,3.91,0,0,1,1.62-3.13,16.4,16.4,0,0,1,6.19-3,3.72,3.72,0,0,1,1.44-.11,13.91,13.91,0,0,0,5.26-.33A19.61,19.61,0,0,1,316.48,45a8,8,0,0,0,1.12.6c1,.44,1.61,1.11,1.16,2.18,1.4,1.13,2.8,2.12,4,3.28a15.35,15.35,0,0,1,2.57,3.07c2.68,4.33,2.51,9.33-1.78,12.92-.28.23-.51.57-.83.7-2.33.94-2.48,3.11-2.44,5A10.18,10.18,0,0,1,317.94,80c.75.54,1.52.92,1.49,2,0,.3.32.63.53.92a21.41,21.41,0,0,0,1.6,2.18,3.53,3.53,0,0,0,1.56,1.18c3,.71,5.34,2.63,8.1,3.76a6.68,6.68,0,0,1,1.63.8,2.89,2.89,0,0,1,1.06,1.35c.77,2.68,1.52,5.38,2.09,8.11a45.78,45.78,0,0,1,.43,4.71,11.09,11.09,0,0,0,.46,2.84,45.18,45.18,0,0,1,2.3,8.24c.78,4.43,1.76,8.83,2.57,13.25.3,1.61.33,3.27.52,4.9a73.59,73.59,0,0,0,3.21,13.65c.65,2.09,1.11,4.24,1.65,6.36.95,3.65,1.79,7.33,2.86,10.93a22.37,22.37,0,0,1,1.07,9.18,2.71,2.71,0,0,0,0,1.27,4.71,4.71,0,0,1-.57,4.22,2.33,2.33,0,0,0,.45.3c3.78,1,6,3.89,7.72,7.08a12.43,12.43,0,0,1,.93,4.61,3.81,3.81,0,0,1-1.37,2.88c-.38.4-.8.74-1.23,1.14a20.61,20.61,0,0,1,0,8,22.44,22.44,0,0,1-4.16,9.44,6,6,0,0,1-3.66,2.55,2.2,2.2,0,0,1-2.73-1.49,2.43,2.43,0,0,1,1.78-3.06,2.91,2.91,0,0,0,2.13-1.53,14.61,14.61,0,0,0,2.11-11.35c-.25-1.34-1.25-2-2-3-.27-.36-.63-.65-.87-1a2.65,2.65,0,0,0-2.07-1.48c-2.84-.27-5.67-.66-8.52-.93-2.58-.25-5.18-.42-7.86-.63a27,27,0,0,1-.39,4.29c-.71,2.7-1.62,5.36-2.51,8a62.07,62.07,0,0,1-6.66,14c-.13.2-.22.42-.43.83a10.91,10.91,0,0,0,1.64.09,4.76,4.76,0,0,1,3.55,1.15,28.53,28.53,0,0,1,6.91,8.43c2.39,4.16,3.65,8.74,4.79,13.36a81.9,81.9,0,0,1,2.41,15.14c.27,5.22.13,10.46.16,15.7,0,1.15-.09,2.31-.14,3.47,0,.36,0,.73,0,1.09-.06.62-.12,1.4-.9,1.35s-.61-.89-.6-1.46c.11-4.93.42-9.87.31-14.79a86.92,86.92,0,0,0-5.65-29.65,29.24,29.24,0,0,0-7.48-10.9,5.12,5.12,0,0,0-4.7-1.32c-.42.07-.84.17-1.35.27V223c6.13,2.23,9.74,6.74,11.87,12.6A92.8,92.8,0,0,1,337.37,267c0,3,0,6,0,9a7.2,7.2,0,0,1-.19,1.8c-.07.27-.5.44-.77.65a6.15,6.15,0,0,1-.58-.79c-.07-.14,0-.36,0-.54-.11-6.21,0-12.44-.41-18.63a70.35,70.35,0,0,0-2.92-16.33,76.63,76.63,0,0,0-3.37-9.24,17.1,17.1,0,0,0-6.44-7.08,14.49,14.49,0,0,0-2.29-1c.18,2.86.31,5.4.51,7.93.46,5.71.75,11.44,1.5,17.11.61,4.64,1.71,9.21,2.71,13.79.94,4.27,2,8.52,3.08,12.77a3.22,3.22,0,0,0,.8,1.09,17,17,0,0,1,1.56,1.74,1.28,1.28,0,0,1-.11,1.13,1.09,1.09,0,0,1-1,.15c-1.26-.44-2.51-.92-3.73-1.47-.33-.15-.78-.64-.74-.92.3-2.19-.75-4.11-1.19-6.14-2.15-10-4.5-20-5.59-30.16-.41-3.87-.92-7.72-1.4-11.7a18.78,18.78,0,0,0-3.62,5.11c-.24.56-.44,1.13-.68,1.69-2.2,5.22-4.44,10.41-6.56,15.66a21.83,21.83,0,0,0-.89,4.07,15.32,15.32,0,0,0-.34,2.5,11.14,11.14,0,0,0,.23,2.15,20.12,20.12,0,0,1,.43,2.5,2.66,2.66,0,0,1-1.21,2.68,1.9,1.9,0,0,0-.9,1.68,163,163,0,0,0-1,18.61,82.74,82.74,0,0,0,1.35,14.9,4.63,4.63,0,0,1,.22,1.25c0,.31-.29.59-.45.88-.32-.2-.86-.35-.92-.61a52,52,0,0,1-1-5.38,121.31,121.31,0,0,1,0-25.91c.14-1.44.29-2.89.31-4.4-.23,1.67-1.12,2.45-3,2.19-.2,1.45-.48,2.81-.56,4.18-.37,6.44-.6,12.9-1.05,19.34-.31,4.48.82,8.7,1.9,12.95a4.53,4.53,0,0,1,.24,1.24.83.83,0,0,1-.45.65.89.89,0,0,1-.77-.29,6.32,6.32,0,0,1-.53-1.35,45.06,45.06,0,0,1-1.77-17c.4-5.23.62-10.46.94-15.69.07-1.09.23-2.16.37-3.45l-6.1-.32c-.41,1.63-.88,3.12-1.17,4.65-.84,4.43-1.69,8.85-2.38,13.3-.36,2.34-.41,4.73-.6,7.1,0,.24.07.53,0,.72a1.43,1.43,0,0,1-.66.67.84.84,0,0,1-.66-.44c-.14-.72-.18-1.41-1.08-1.66-.14,0-.18-.67-.16-1,.55-7.35,1.12-14.7,1.67-22,.1-1.39.16-2.79.19-4.19,0-1.65,0-3.31,1.42-4.44a45.74,45.74,0,0,1-4.92-2.88,45.35,45.35,0,0,1-4.68-4.31,2.87,2.87,0,0,1-.65-1.67c-.32-3.82,0-7.53,2.07-10.92.66-1.1,1.17-2.28,1.81-3.38.73-1.26,1.36-2.61,2.79-3.3a.79.79,0,0,0,.39-.35c.73-1.66,1.43-3.34,2.17-5,.51-1.16,1-2.31,1.61-3.44,1.27-2.48,2.6-4.93,3.83-7.43.24-.49,0-1.17.18-1.72a6.59,6.59,0,0,1,.86-1.89c1.21-1.82,2.62-3.52,3.73-5.39,1.35-2.3,2.49-4.72,3.83-7.3-1.48-.11-2.84-.23-4.2-.32l-15.46-.95c-2.25-.13-4.5-.2-6.74-.33-.84,0-1.66-.19-2.65-.3.12,1-.43,1.94.65,2.7.26.18.31.91.19,1.3a11.94,11.94,0,0,0-.19,5.25,22.89,22.89,0,0,1,.06,3.1c0,5.18-.15,10.37,0,15.54s.75,10.45,1.11,15.67c.14,2,.18,4,.28,6q.51,9.85,1,19.7.36,6.39.79,12.77c0,.66.27,1.32.28,2,0,.27-.29.74-.52.78a1,1,0,0,1-.83-.47,4.67,4.67,0,0,1-.36-1.58c-.27-3.77-.5-7.54-.75-11.31-.33-5.16-.7-10.33-1-15.5-.15-2.79-.07-5.6-.24-8.4-.37-6.08-.93-12.15-1.23-18.23-.21-4.26-.12-8.53-.16-12.8,0-1.88,0-3.76,0-6-2.15,7-4.25,13.71-5.12,20.7-.2,1.57-.67,3.1-.92,4.66a3.26,3.26,0,0,0,.18,1.92c2.52,4.35,3,9.2,3.63,14,.46,3.74,1.16,7.46,1.55,11.21a174.07,174.07,0,0,1,.66,23.73,8.79,8.79,0,0,1-.36,2.16,1,1,0,0,1-.76.55c-.23,0-.43-.45-.61-.72-.06-.09,0-.24,0-.36.7-5.65.23-11.31.15-17a127.24,127.24,0,0,0-1.88-17.43c-.46-2.94-.7-5.93-1.25-8.86a22.65,22.65,0,0,0-1.87-5.11c-.79,1.88-1.31,3.62-.6,5.69a58.35,58.35,0,0,1,1.77,7.44c.44,2.2.86,4.42,1.11,6.65.28,2.54.41,5.09.53,7.65a141.66,141.66,0,0,1,.17,18.08,27.66,27.66,0,0,1-.41,3.26c-.06.29-.53.51-.81.76-.19-.26-.51-.51-.56-.8a4.16,4.16,0,0,1,0-1.45c.75-4.3.46-8.63.37-12.95-.07-3.54-.18-7.07-.47-10.59-.25-3-.74-6-1.19-9-.26-1.75-.61-3.48-1-5.21-.16-.81-.42-1.61-.64-2.42H262c-.47,1.95-1,3.89-1.39,5.85-1.14,5.74-2.16,11.49-3.35,17.21-.61,3-1.46,5.9-2.22,8.85a7.05,7.05,0,0,0-.19,3.57,6.66,6.66,0,0,1-.29,2.84c-.06.26-.62.41-1,.61-.14-.35-.49-.79-.39-1a5.67,5.67,0,0,0,0-3,6.76,6.76,0,0,1,.33-3.05c1.74-5.09,2.55-10.4,3.56-15.65,1.43-7.41,2.89-14.81,4.79-22.12.85-3.3,1.44-6.66,2.13-10a12.21,12.21,0,0,0,.1-1.48,5.8,5.8,0,0,0-.47.76c-1.74,6.28-3.63,12.51-5.17,18.84-1.89,7.81-3.57,15.67-4.68,23.65-.28,2-.71,3.95-1.13,5.91a4.29,4.29,0,0,1-.61,1.1,28.43,28.43,0,0,0-1.51,2.69,2.8,2.8,0,0,0,.55,3.52c.13.13.32.25.35.41s.15.74,0,.82a1.11,1.11,0,0,1-.95.15,3.57,3.57,0,0,1-1.8-2.8,7.72,7.72,0,0,1,1.59-5,6.6,6.6,0,0,0,1.12-2.64c.74-4.38,1.47-8.77,2.34-13.13a223.91,223.91,0,0,1,5.44-23.28,3.36,3.36,0,0,0-.2-2.77c-.76-1.45-1.24-3-2-4.47-1.85-3.31-4.38-6.27-7.83-7.68-5-2-10-1.64-14.34,2.19A48.48,48.48,0,0,0,224,243.18c-.75,1.4-1.6,2.73-2.37,4.12a17.51,17.51,0,0,0-1.41,2.76c-1.82,5.1-3.66,10.2-5.32,15.35a60.55,60.55,0,0,0-1.45,6.6c-.85,4.23-1.76,8.46-2.49,12.71a42.15,42.15,0,0,0-.25,5.28,5.9,5.9,0,0,1-.05,1.27c-.07.29-.4.5-.62.75-.26-.27-.75-.53-.75-.8a55.34,55.34,0,0,1,.13-6.57c.72-6.49,2.54-12.77,3.92-19.13.76-3.48,2.24-6.82,3.39-10.21.52-1.5,1-3,1.58-4.48a14.78,14.78,0,0,1,1-2.53c2.28-3.88,4.38-7.91,7-11.55a36,36,0,0,1,10.1-9.95c3.3-2.05,6.91-2.14,10.59-1.42,5.58,1.08,8.77,5.07,11.55,9.54.63,1,1.12,2.15,1.77,3.41.26-.84.49-1.55.7-2.23a25,25,0,0,1-3.31-4.91,15.82,15.82,0,0,0-3.07-3.83c-1.78-1.73-3.72-3.29-5.61-4.92s-4.16-2.11-6.51-2.58a7.76,7.76,0,0,0-6,1.36c-1.63,1.08-3.26,2.15-4.93,3.15a50.78,50.78,0,0,0-7.69,6.16c-2.91,2.63-4.57,6.12-6.17,9.62-1,2.22-2,4.44-3,6.65a85.62,85.62,0,0,0-6.95,20.32,160.21,160.21,0,0,0-3,20c-.27,4.61-.09,9.25-.11,13.88,0,.3.15.62.07.89a.94.94,0,0,1-.55.61.85.85,0,0,1-.73-.33,4.86,4.86,0,0,1-.33-1.6,129.44,129.44,0,0,1,.81-20.06c.84-6,2.05-11.88,3.28-17.77a58.19,58.19,0,0,1,2.89-9c1.34-3.45,2.93-6.82,4.46-10.2,1.08-2.38,2.29-4.71,3.34-7.1a21.69,21.69,0,0,1,5.24-7.2,81.77,81.77,0,0,1,6.79-5.52,68.15,68.15,0,0,1,6.3-4c1.41-.81,2.95-1.36,4.7-2.15.38-3-.89-6.18-.63-9.5a58.07,58.07,0,0,0-8.91-5.7,14.06,14.06,0,0,0-9.72-1.29,59.36,59.36,0,0,1-7,1.21,27.88,27.88,0,0,1-5.07-.21A1.56,1.56,0,0,1,208,200.5a1.6,1.6,0,0,1,1.17-1.66c2.85-1.22,5.64-2.73,8.61-3.48a25.86,25.86,0,0,1,9.81-.44C230.83,195.36,234.05,195.87,237.4,196.37Zm18,25.81a6.64,6.64,0,0,0,1.22-3.28c-.5,1.07-1.51,2-1.17,3.32-1.06.45-1,1.42-1,2.4Zm-2.2-122c2,.82,1.78,2.36,1.3,4a14.06,14.06,0,0,1-.45,1.39c-.79,1.91-1.61,3.8-2.4,5.71a10.92,10.92,0,0,0-.87,2.39,7.16,7.16,0,0,1-1.83,3.72,17.74,17.74,0,0,0-3.14,5.31c-2,5-4,9.93-7.12,14.35a14.76,14.76,0,0,0-2.84,7.41,2.1,2.1,0,0,0,.42-.09,44.36,44.36,0,0,1,28.68-5.68c2.47.3,5,.53,7.44.8,3.69.41,7.39.77,11.07,1.28s7.21,1.13,10.8,1.76a42.48,42.48,0,0,1,4.62,1.09c.72.22,1.7.6,2,1.17.93,2.06,2.93,2.75,4.54,4.15a14,14,0,0,0,.64-2.64,5.58,5.58,0,0,1,2.08-3.92c.35-.33.78-.59,1.11-.94a4.23,4.23,0,0,0,1.3-4.14,4.46,4.46,0,0,1,1.27-4.81,13.28,13.28,0,0,0,2.31-3.68c.85-1.88,1.86-3.69,2.85-5.5.51-1,1.11-1.85,1.73-2.87A21.72,21.72,0,0,1,317,119c-.2-.21-.16-.63-.23-.95.36-.06.89-.3,1.07-.15a10.82,10.82,0,0,1,2.58,2.51c2.08,3.55,2.44,7.45,2.06,11.48a8.45,8.45,0,0,0,0,3.58,29,29,0,0,1,1.3,5.84c.07.42.16.84.24,1.25.83,4.06,2.94,7.57,4.76,11.21,1.55,3.1,3.14,6.19,4.48,9.38s2.37,6.64,3.67,9.92c1,2.6,2.2,5.14,3.38,7.67a9,9,0,0,0,1.35,1.92c.78.92,1.73.85,2.81.46,2.2-.78,3.47-2.58,4.84-4.26a2.53,2.53,0,0,0,.42-2.42,5.13,5.13,0,0,1-.19-2,19.83,19.83,0,0,0-1.08-9.16c-.75-2.25-1.34-4.55-1.93-6.84q-1.58-6.1-3.05-12.21a103.58,103.58,0,0,1-2.52-11c-.53-4-1.09-8.07-1.85-12.08-.86-4.6-1.55-9.25-3.23-13.64a14.48,14.48,0,0,1-1-5.49c.05-4-1.78-7.55-2.45-11.37-.06-.36-.61-.7-1-.91-1.66-.89-3.34-1.74-5-2.57A14.25,14.25,0,0,0,323.69,88a5.87,5.87,0,0,1-4-3,3.34,3.34,0,0,0-2.14-1.87c-.83-.18-1.65-.41-2.47-.62a4.57,4.57,0,0,0-4.44.83,15.94,15.94,0,0,1-4.11,2.67,89.7,89.7,0,0,1-10.13,3.6A40.27,40.27,0,0,1,288,91.05a30.71,30.71,0,0,1-9.2-1.17,29.19,29.19,0,0,1-10.83-5c-1.34-1-2.61-2.15-4.1-3.4-2.15.74-4.45,1.5-6.73,2.32-2.11.75-4.1,1.85-6.39,2.11a7.75,7.75,0,0,0-5.06,3c-.59.69-1.16,1.4-1.73,2.11a3.58,3.58,0,0,1-3.74,1.25,6,6,0,0,0-3.36.34,15.11,15.11,0,0,1-4.56,1.17,6.85,6.85,0,0,0-1.95.44,3.94,3.94,0,0,1-4-.15,12.51,12.51,0,0,0-7.25-1.36,7.4,7.4,0,0,0-3.9,1.36,4,4,0,0,1-1.78.76c-2.85.31-5.7.52-8.55.76-6,.51-12,.84-18,1.59-3.51.44-7.19.72-10.16,3.13a1.22,1.22,0,0,1-1.15.11c-1.11-.85-2.17-.48-3.27-.07-1.87.69-2.27,1.33-2.05,3.3.19,1.7.35,3.4.56,5.09.1.77.29,1.53.43,2.22,2.75.47,5.33.89,7.9,1.35.71.13,1.41.14,1.8-.51.68-1.12,1.61-1,2.56-.61a46.28,46.28,0,0,0,11.06,2.27c6.83.81,13.72,1.13,20.59,1.58,3,.2,6.08.2,9.13.29,4.87.15,9.74.33,14.62.43,2.81.05,5.6.09,8.16,1.51a7.53,7.53,0,0,0,2.21-3.61,22.57,22.57,0,0,1,1.18-3.25c.87-2.21,1.8-4.39,2.63-6.61.3-.79.49-1.61-.52-2.22a2,2,0,0,1-.68-2.6c.58-1.73,1.09-3.48,1.75-5.17.74-1.86,1.6-3.67,2.46-5.48.14-.31.58-.48.88-.71.18.33.58.72.51,1a19.22,19.22,0,0,1-1.19,3.23C254.92,94.42,253.52,97,253.18,100.22ZM310,224.15a6.58,6.58,0,0,0,6.05-2,25,25,0,0,0,2.92-3.25c5-6.82,7.84-14.68,10.28-22.67a11.53,11.53,0,0,0-.42-7.89,39.64,39.64,0,0,0-2.25-4.58c-4.18-7.21-8.55-14.31-13.33-21.15a25.78,25.78,0,0,0-4.77-5.5,20.48,20.48,0,0,1-3.06-3.37,3.34,3.34,0,0,1-.73-1.82,4,4,0,0,0-2.4-3.37,4.06,4.06,0,0,1-1.71-1.56c-.76-1.61-2.1-2.09-3.64-2.36l-7-1.22c-1.91-.34-3.82-.77-5.74-1-3.62-.49-7.26-.82-10.88-1.33a118.24,118.24,0,0,0-17.13-1.16,32.07,32.07,0,0,0-5.26.49,47.38,47.38,0,0,0-12.83,4.68,8.84,8.84,0,0,0-1.66,1.13c-.25.2-.57.67-.49.86.34.79-.16,1.3-.5,1.84a4.34,4.34,0,0,0-.49,3.51,42.26,42.26,0,0,1,1,11c0,4.2.12,8.4.36,12.6.24,3.88.74,7.75,1.06,11.64a34.07,34.07,0,0,0,1.48,7.87A3.42,3.42,0,0,0,241,198a24.85,24.85,0,0,1,9.37,6.51c.26.28.56.54.93.9a23.62,23.62,0,0,1,8.54-10.22,6.94,6.94,0,0,0,1.66-2.11c.47-.81.79-1.71,1.29-2.83-.06-.75-.16-1.84-.25-2.92a23.25,23.25,0,0,0-1.94-7.94,2.13,2.13,0,0,0-1.88-1.45c-2.11-.23-4.22-.54-6.33-.83-2.73-.37-5-2.41-5.2-4.62-.27-3.27,1.26-5.78,4.16-6.68a30.3,30.3,0,0,1,3.55-.77c3-.53,5.84.21,8.65.9s5.81,1.9,7.37,4.91c.84,1.6,1.77,3.16,2.66,4.74A33.16,33.16,0,0,0,286.43,188c2.89,1.67,5.79,3.33,8.66,5a28.45,28.45,0,0,1,7.34,5.62,2,2,0,0,0,2.15.59,8.79,8.79,0,0,1,2-.31.86.86,0,0,1,.65.49c.06.22-.14.56-.31.77a1,1,0,0,1-.65.29c-1.63,0-2.48,1.15-3.24,2.35s-1.34,2.18-2,3.27c-2,3.22-3.21,6.85-5.64,9.8-.05.06,0,.22.05.4.89,0,1.8,0,2.7,0a10.64,10.64,0,0,1,8.11,3.52C307.51,221.23,308.75,222.73,310,224.15Zm5.93-143.08c-.45-.91-.8-1.61-1.13-2.31A19.68,19.68,0,0,0,313.42,76a23.67,23.67,0,0,0-2.49-2.9,19.57,19.57,0,0,0-9.74-5.5,26.37,26.37,0,0,0-12.51.34c-7.19,1.82-14.35,3.74-21.53,5.6a2.78,2.78,0,0,0-2,1.94c-1,3-.53,4.58,1.84,6.81a9.41,9.41,0,0,0,.83.71,34.4,34.4,0,0,0,6.75,3.93,33.22,33.22,0,0,0,13.87,2.59c4.82-.12,9.3-1.75,13.82-3.18a26.75,26.75,0,0,0,8.41-4.68,3.36,3.36,0,0,1,3.22-.74A11.07,11.07,0,0,0,315.89,81.07Zm23.21,103.3a1.82,1.82,0,0,0,.34-1.94c-1-2.21-2-4.45-2.94-6.67-.8-1.84-1.66-3.66-2.38-5.53s-1-3.65-1.8-5.35q-2.94-6.48-6.16-12.82a36.88,36.88,0,0,1-4.11-11.63,14.34,14.34,0,0,0-.77-3.53,7.66,7.66,0,0,1-.45-4.64,20.62,20.62,0,0,0-.3-7.43,22.27,22.27,0,0,0-.95-2.91,36.93,36.93,0,0,0-3.42,5.78c-.92,2.25-1.83,4.51-3.65,6.26a2.33,2.33,0,0,0-.56,2.84,2.89,2.89,0,0,1,.14,1.77c-.42,1.84-1,3.58-2.72,4.78a5.35,5.35,0,0,0-1.71,2.46c-.58,1.52-.81,3.17-1.33,4.72a2.33,2.33,0,0,0,.4,2.54c1.11,1.2,2.25,2.38,3.38,3.57a39.06,39.06,0,0,1,3,3.21c1.48,2,2.85,4.09,4.21,6.18,1.87,2.85,3.72,5.72,5.52,8.61,1.67,2.68,3.29,5.4,4.9,8.13a2,2,0,0,0,1.87,1.11C332.68,184,335.77,184.18,339.1,184.37ZM287.59,62.58A23.72,23.72,0,0,1,290,61.42c3.12-1.1,6.27-2.15,9.62-1.18a53.43,53.43,0,0,1,5.5,1.92c1.4.58,2.68,1.41,4,2.07a3.86,3.86,0,0,0,1.7.52c1.46-.06,2.91-.26,4.35-.43,2.09-.24,4,0,5.54,1.65a4.32,4.32,0,0,0,.85.59c4.68-3.09,4.88-7.42,2.67-11.26A13.59,13.59,0,0,0,319.14,50c-1.23-.66-2.24-1.43-2-3a12.93,12.93,0,0,1-1.26-.66c-4.19-2.81-8.8-3.23-13.66-2.45-1.67.26-3.38.26-5.07.39a8.08,8.08,0,0,0-2.49.26,38.93,38.93,0,0,0-4.18,2.23,2.74,2.74,0,0,0-1.37,2.42A9.33,9.33,0,0,1,286.77,55a3.57,3.57,0,0,0-.75,4.06C286.56,60.22,287.05,61.37,287.59,62.58Zm-8.87,191h2.12a6.92,6.92,0,0,1,2,.07,71.06,71.06,0,0,1,7.41,2.53,13.73,13.73,0,0,1,4.53,3c2,2.1,4.32,3.73,6.45,5.62a3,3,0,0,0,.76.48,1.21,1.21,0,0,0,1.81-.87,4.69,4.69,0,0,0,0-1.79c-.21-1.14-.51-2.26-.76-3.38-.72-3.15-1.54-6.27-3.82-8.73a11.16,11.16,0,0,1-2.19-4.12c-.93-2.64-1.55-5.37-4-7.35a10.08,10.08,0,0,0-4.75-2.34c-2.57-.46-4.18.65-5.37,2.71-.7,1.2-1.25,2.51-2,3.68C278.9,246.25,278.55,249.69,278.72,253.62Zm21.3-55.4c-1.41-1.07-2.5-2-3.72-2.78-4.19-2.55-8.45-5-12.66-7.54a27.52,27.52,0,0,1-8.47-7.38c-.66-.92-1.39-1.79-2-2.62-.79.68-1.37,1.53-2.14,1.76a7.44,7.44,0,0,1-2.71-.28,29.61,29.61,0,0,0,1.15,9.07c.58.06,1.07.05,1.54.15,2.7.59,3.73,2.87,2.32,5.19-.62,1-1.34,2-2.17,3.2C280.66,198.2,290.07,199.22,300,198.22Zm8.43,26.71a6.32,6.32,0,0,0-.58-1c-1-1.2-2-2.42-3.14-3.53a7.14,7.14,0,0,0-2.47-1.84,14.74,14.74,0,0,0-6.82-.78,1.8,1.8,0,0,0-1.67,1.41,16.29,16.29,0,0,1-1.22,3.23c-1.21,2.24-2.55,4.41-3.83,6.61a4,4,0,0,0-.33.65c-.59,1.7-1.16,3.41-1.79,5.24.75.12,1.57.31,2.4.4a7,7,0,0,1,4.87,2.54,14.89,14.89,0,0,0,1.76,1.57c.46-.38.79-.64,1.1-.92s.69-.7,1.07-1A34.81,34.81,0,0,0,308.45,224.93ZM153.5,101.49l.18.29a23.13,23.13,0,0,1,2.41-.75c.32-.07.71.2,1.07.32-.18.32-.28.8-.56.94-.75.39-1.59.61-2.37.95a13,13,0,0,1-3.94,1.31,14.28,14.28,0,0,0-3.21,1.08,13.21,13.21,0,0,0,3.54.09c1.15-.08,2.31-.19,3.46-.17.31,0,.6.45.9.68-.27.25-.54.69-.83.7-3.75.15-7.48,1-11.35.46l-.38,1.34a16.19,16.19,0,0,0,2.18.41c1.65.07,3.3.11,4.94,0a9.51,9.51,0,0,1,4.46.69c1.65.76,3.24,1.66,4.86,2.5,2,1,2.13,2.83.3,4.09-.4.28-.87.46-1.26.75-.71.54-1.48,1-1.6,2.09.24,0,.43.14.59.1,2.14-.44,4.29-.85,6.42-1.36a4.42,4.42,0,0,0,2.95-2.23c.88-1.58,1.73-3.23,3.42-3.84l-1.2-10.2a.61.61,0,0,0-.25-.17c-3-.62-6.07-1.26-9.12-1.81A4.4,4.4,0,0,0,157,100C155.78,100.37,154.65,101,153.5,101.49ZM265,198.05a29,29,0,0,1-.4,4.25,37.94,37.94,0,0,1-1.57,3.88c-2.2,5.8-4.37,11.61-6.55,17.42l-.82,2.22,5.92,8.36c1.2-4.75,2.48-9.38,3.52-14.06,1.23-5.52,2.24-11.08,3.39-16.62a11,11,0,0,1,1.05-2.13c-.16-.92-.39-2.27-.62-3.59Zm5.53-19.75c1-1.44,1.29-3.19.65-4.2s-1.36-2-2-3a6.93,6.93,0,0,0-3.34-2.7,26,26,0,0,0-6.48-1.7,15.07,15.07,0,0,0-7.54.5,4.54,4.54,0,0,0-3.2,4.74c0,1.69,1.05,2.81,3.17,3.49a4.37,4.37,0,0,0,.7.22c2.1.29,4.2.63,6.31.85C262.76,176.88,266.73,176.85,270.57,178.3Zm46.09-99.38a5.24,5.24,0,0,0,2-4.24,18,18,0,0,1,.87-6.11A1.81,1.81,0,0,0,317.9,66a19.15,19.15,0,0,0-4.14.13c-2.35.24-4.63.44-6.51-1.43a3.22,3.22,0,0,0-1.15-.54c-1.71-.62-3.47-1.14-5.13-1.87-3.74-1.65-7.28-.69-10.77.72-1.46.58-1.62,1.15-1.21,3,.75,0,1.53,0,2.31,0,2.31-.08,4.61-.27,6.92-.25,4.38,0,8.16,1.88,11.56,4.41,2.84,2.11,5.3,4.65,6.46,8.15A3.45,3.45,0,0,0,316.66,78.92ZM252.84,223.4c1.49-3.59,2.93-6.93,4.27-10.32,1.49-3.79,2.9-7.61,4.33-11.43.34-.91.78-1.63,2-1.53l-.12-1.74c-2.34.71-5.55,5.31-10,14.18a7.3,7.3,0,0,0-1.4,0,18.31,18.31,0,0,0-4,.94c-1.28.58-1.56.66-2.41-.57a10.5,10.5,0,0,0-3.73-3.6c.28,3.09.54,6,.83,9.1C246.47,218.49,249.56,220.72,252.84,223.4Zm50.67,31.17c1.13-2.7,2.31-5.55,3.52-8.39.91-2.13,1.93-4.2,2.75-6.36,1.22-3.19,2.32-6.42,4.43-9.18.44-.57.69-1.29,1.12-1.88,1-1.35.86-2.8.63-4.61a17.24,17.24,0,0,0-3.29,2.19,25.2,25.2,0,0,0-3.12,4.26,80.82,80.82,0,0,0-6.63,14,38.16,38.16,0,0,0-1.37,5.65,2.12,2.12,0,0,0,.26,1.34C302.35,252.66,303,253.67,303.51,254.57Zm39-69.69a2.13,2.13,0,0,0,1.53,2.11c1.29.55,2.57,1.09,3.85,1.65,2.16.94,3.76,2.32,3.79,4.81.55.11,1.19.05,1.4.32s.16.95.23,1.56a9.33,9.33,0,0,0,1.61-.2c1.85-.53,3.36-2.37,3.22-4a9,9,0,0,0-2.16-5.49c-.66-.72-1.32-1.43-2-2.16a7.05,7.05,0,0,0-3.8-2,1.67,1.67,0,0,0-1.9.68c-.42.51-.81,1.18-1.37,1.41C345.53,184.2,344.19,185.21,342.52,184.88ZM209.74,200.47a7.5,7.5,0,0,0,4.17.42c3.36-.47,6.7-1.16,10.07-1.59a42.34,42.34,0,0,1,10.37,0,33.1,33.1,0,0,1,9,2.86,21.06,21.06,0,0,1,3.54,2.2c1,.67,1.85,1.44,2.78,2.16a1.82,1.82,0,0,0-.55-1.18,27.27,27.27,0,0,0-14.85-8c-2.49-.53-5-.76-7.57-1.06C220.66,195.61,215.18,197.22,209.74,200.47ZM289.52,263a5.69,5.69,0,0,0-1.94,4c-.21,2.91-.46,5.82-.68,8.73q-.24,3.18-.46,6.36c.8-2.59,1.3-5.21,1.89-7.82.39-1.71.88-3.41,1.37-5.1.21-.76.54-1.49,1.45-1.59.47.36.86.93,1.28,1,2.52.16,5.07.47,7.49-.62a3.11,3.11,0,0,0-1.9-2.83,16.4,16.4,0,0,0-3.08-1.1C293.19,263.56,291.4,263.31,289.52,263ZM349,191.31l.14-.4c-1-.46-2.09-.88-3.09-1.4-1.69-.87-3.75-1.16-4.81-3a1.13,1.13,0,0,0-.78-.39c-2.65-.25-5.3-.5-8-.7-1-.07-2,0-3.15,0l1.48,4.14C333.84,190.21,347.09,191.5,349,191.31Zm-79.53-1.22c.15,2,.18,2.07-.48,2.49a4.31,4.31,0,0,1-4.66.33l-1-.58c-.41,2.46-2,3.75-3.78,5a19.13,19.13,0,0,0-6.68,8.49,2.08,2.08,0,0,0,.71,2.73,4.92,4.92,0,0,0,.42-.64,48,48,0,0,1,6.31-9.35c1.18-1.47,2.5-2.44,4.5-2.11a15.92,15.92,0,0,0,1.83,0c1.74.08,3.06-1,4.31-1.9.84-.61,1.21-1.89,1.78-2.88C271.83,190.57,271,189.8,269.44,190.09Zm-37.71,10.55a6.72,6.72,0,0,0,.65.51c5,2.89,10,5.84,13.89,10.24.22.25.63.56.89.5,1.45-.3,2.89-.7,4.4-1.08A27.56,27.56,0,0,0,231.73,200.64Zm68.13,48.52a86.7,86.7,0,0,1,10.78-23.38,3,3,0,0,0-1.39,1c-.92,1.35-1.76,2.76-2.64,4.14a9.68,9.68,0,0,1-1.24,1.77c-1.92,1.87-3.89,3.67-5.86,5.48-.93.85-1.91,1.66-3,2.56C297.78,243.42,298.28,246.3,299.86,249.16Zm-38.19-71A22.53,22.53,0,0,1,264,187a10.15,10.15,0,0,0,1.23,4.66c2.31.55,2.75.28,2.56-1.88s-.59-4.57-.85-6.86c-.15-1.31-.21-2.64-.32-4.11ZM271,200.25l11.89.65c2.67.15,5.34.25,8,.44,3.57.26,7.14.57,10.68.86l1-1.45a2.27,2.27,0,0,0-2.16-.91c-2.13.08-4.27.24-6.4.21-4.13-.05-8.27-.1-12.4-.37-3.55-.23-7.09-.78-10.8-1.2C270.79,199,270.86,199.54,271,200.25Zm9.28,55.18c.95,1.83,2.73,2.7,4.27,3.81,3,2.14,6.44,2.26,9.9,2.13C292.93,258.37,283.55,254.35,280.23,255.43Zm69.71-41.31a19.11,19.11,0,0,0,5.93-13.24c.09-1.4.37-2.9-.51-4.28L354,197a2.36,2.36,0,0,0-.05.61c1.09,5.69.4,10.88-4.2,15C349.16,213,349.36,213.5,349.94,214.12ZM320,242.53h.15l-1.56-20.18-.5-.08a5,5,0,0,0-.54,1.51,22.17,22.17,0,0,0,.17,3.82C318.47,232.59,319.27,237.56,320,242.53Zm-52.27-27.1.29.13c.15-.38.34-.76.45-1.15.6-2.29,1.25-4.56,1.73-6.87a10.13,10.13,0,0,0-.18-2.61h-.37ZM141.93,105.17c1.6-.06,6.57-1.41,7.11-1.9.22-.2.29-.57.59-1.19A29.71,29.71,0,0,0,141.93,105.17Zm184,167.17-.34.07.54,2.22.31-.08ZM305.77,48.14c2.64-.59,4.86.32,7.14,1.54a34.24,34.24,0,0,1,6.39,4.17,5.35,5.35,0,0,1,1.25,1.52c.74,1.48.06,2.53-1.59,2.58a1.54,1.54,0,0,1-.72-.08c-2.55-1.29-5.39-1.95-7.67-3.78-1-.8-2.09-1.48-3.13-2.22-1.42-1-2.86-2-4.24-3.11A3.64,3.64,0,0,0,301,48a5.17,5.17,0,0,1-2.06-.61,1.71,1.71,0,0,1-.84-1.22c0-.36.7-.87,1.13-.92a5.68,5.68,0,0,1,2.5.13A7.15,7.15,0,0,1,305.77,48.14ZM307,49.71c3.91,2.75,7.55,5.58,12.18,6.75C318.34,53.76,310.07,49.15,307,49.71Zm-3.18,2.57c2,1.09,3.94,2,5.7,3.1A14.4,14.4,0,0,1,312,57.77a4.19,4.19,0,0,1,.84,1.17c.15.34.27,1,.1,1.13a1.71,1.71,0,0,1-1.26.38,32.26,32.26,0,0,1-3.91-.67,9.45,9.45,0,0,1-2.46-1,22.12,22.12,0,0,1-2.78-2.05c-1.22-1-1.27-1.45-.34-2.76A16.86,16.86,0,0,1,303.77,52.28Zm6.15,6a8.08,8.08,0,0,0-5.47-3.72c-.69-.17-1,0-1.25.88C305.21,56.67,306.74,59,309.92,58.25Zm-9.4.38a2.07,2.07,0,0,1-1.92.72c-1.14-.09-2.28-.24-3.41-.39-1.5-.2-1.91-1-1.11-2.05.95-1.33,1.84-2.71,2.89-4,.81-1,1.56-.76,2,.43.25.67.37,1.4.58,2.1C299.83,56.42,300.13,57.36,300.52,58.63Zm-2.65-3.77-.43-.09-2,2.71h2.79C298.1,56.57,298,55.72,297.87,54.86ZM287,58a6.75,6.75,0,0,1,.57-1.67c1-1.43,2-2.85,3.18-4.18.74-.87,1.18-.71,1.73.34a2.68,2.68,0,0,1,.11,2.6A8.41,8.41,0,0,1,289,59a1.85,1.85,0,0,1-1.47.11C287.18,59,287.13,58.33,287,58Zm2-1.25c1.73-1.08,1.92-1.38,2-2.82C290.22,55,289.6,55.85,289,56.72Zm7.63-4.64a15.27,15.27,0,0,0,2.71,0,1.58,1.58,0,0,0,1-1.05,1.89,1.89,0,0,0-.64-1.35,1.72,1.72,0,0,0-1.18-.34c-1.27.05-2.55.16-3.81.3-.62.07-1.22.29-1.26,1.07a1.42,1.42,0,0,0,1.34,1.42c.61.05,1.22,0,1.82,0Zm-6.37-3.44c-.17.39-.38,1-.22,1.25.32.56.8.17,1.24-.08,1.19-.69,2.39-1.39,3.63-2,.48-.24,1-.43.75-1-.11-.3-.6-.46-.79-.6C292.89,46.57,291.08,46.76,290.23,48.64Zm19.49-3.33c-.46.2-.48,1,0,1.2a22.31,22.31,0,0,0,3.12.8.83.83,0,0,0,.42-1.59,16,16,0,0,0-2.29-.63A6.08,6.08,0,0,0,309.72,45.31Z"/></svg>