<svg xmlns="http://www.w3.org/2000/svg" width="500" height="500" viewBox="0 0 500 500"><path d="M210.84,287.68a35.22,35.22,0,0,1-.94-3.7c-.46-3.13-.89-6.27-1.17-9.42-.37-4.19-.63-8.39-.85-12.58a64.3,64.3,0,0,1-.07-6.94,38.13,38.13,0,0,0-.93-11.07,8,8,0,0,1-.14-2.35c.07-1.29.11-1.29-.42-2a70.21,70.21,0,0,1,2.08-6.91,38.09,38.09,0,0,1,3.59-6.95,46.54,46.54,0,0,0,3.83-7.25c1.14-2.56,2.2-5.15,3.28-7.73a4.24,4.24,0,0,0,.22-.9,8.46,8.46,0,0,0-4.9-1.25c-2.62-.12-5.25-.07-7.87-.17-4-.16-8-.39-12.05-.59l-1.1,0c-6.45-.28-12.91-.43-19.35-.89-3.82-.28-7.6-1-11.38-1.61-2.22-.35-4.41-.84-6.82-1.31-.92,1.19-2.4,1.36-4,1s-3.46-.68-5.2-.92a4.67,4.67,0,0,0-4.65,2.25,7.6,7.6,0,0,0-.78,1.24c-.93,2.12-2.79,3-4.86,3.45-1.71.41-3.45.76-5.18,1.07-1,.18-2.11.33-2.86-.66-.48-.64-.16-1.92.87-2.94a21.73,21.73,0,0,1,2.46-1.86c.84-.62.87-1.13,0-1.65a40.94,40.94,0,0,0-3.84-2.11,10.15,10.15,0,0,0-5-.92c-1.82.11-3.65,0-5.48-.06a4.93,4.93,0,0,1-1.25-.24c-1.63-.49-2-1.07-1.56-2.68.07-.29.17-.58.26-.9a9.14,9.14,0,0,1-.67-.84,1.27,1.27,0,0,1,.34-1.91,10.19,10.19,0,0,1,1.42-.84,41.1,41.1,0,0,1,10-3.26,9,9,0,0,0,2.41-.74,8,8,0,0,1,6-.59c2.47.63,5,1,7.52,1.47a2.63,2.63,0,0,0,1.88-.4,13,13,0,0,1,3.22-1.22,10.93,10.93,0,0,1,2.75.2c2.69-1.95,6.3-2.47,9.83-2.89,6.11-.73,12.26-1.1,18.39-1.62,2.85-.24,5.71-.47,8.55-.76a3.55,3.55,0,0,0,1.44-.66,8.41,8.41,0,0,1,4.44-1.48c2.78-.14,5.48-.07,8,1.43a3,3,0,0,0,3,.13,10.19,10.19,0,0,1,2.31-.48,20.59,20.59,0,0,0,4-1,9.18,9.18,0,0,1,4.26-.52,2.58,2.58,0,0,0,2.55-.87c.86-1,1.75-2,2.63-3a8.75,8.75,0,0,1,4.79-2.46,29,29,0,0,0,5.53-1.77,25.49,25.49,0,0,1,4.42-1.62c.87-.24,1.74-.54,2.71-.84.15-1.34.3-2.65.44-4,.27-2.68,1.43-3.9,4.08-4.33a35.87,35.87,0,0,0,3.57-.74c5.34-1.45,10.67-2.94,16-4.41a4.39,4.39,0,0,0-.92-3.76,17.1,17.1,0,0,1-1.59-3.24,5.24,5.24,0,0,1,1.07-5.77,8,8,0,0,0,1.9-5,3.86,3.86,0,0,1,1.62-3.13,16.33,16.33,0,0,1,6.19-3,3.68,3.68,0,0,1,1.43-.11,13.7,13.7,0,0,0,5.26-.33,19.56,19.56,0,0,1,14.39,2.6,9.32,9.32,0,0,0,1.13.59c1,.44,1.61,1.11,1.16,2.18,1.4,1.13,2.79,2.12,4,3.28a15.52,15.52,0,0,1,2.58,3.08c2.67,4.32,2.51,9.33-1.78,12.91-.28.23-.51.58-.83.71-2.34.93-2.49,3.1-2.45,5a10.19,10.19,0,0,1-2.36,7.27c.74.53,1.52.91,1.48,2,0,.3.33.63.53.92a23,23,0,0,0,1.6,2.18,3.56,3.56,0,0,0,1.57,1.18c3,.71,5.34,2.63,8.09,3.76a6.86,6.86,0,0,1,1.63.8,3,3,0,0,1,1.07,1.35c.76,2.68,1.51,5.38,2.09,8.11a45.78,45.78,0,0,1,.43,4.71,11,11,0,0,0,.45,2.84,44.42,44.42,0,0,1,2.31,8.24c.78,4.43,1.76,8.83,2.57,13.26.29,1.6.32,3.26.51,4.89a74.5,74.5,0,0,0,3.21,13.66c.66,2.08,1.11,4.23,1.66,6.35.94,3.65,1.78,7.33,2.86,10.94a22.34,22.34,0,0,1,1.06,9.17,2.85,2.85,0,0,0,0,1.27,4.68,4.68,0,0,1-.57,4.22,2.21,2.21,0,0,0,.46.3c3.78,1,6,3.89,7.71,7.08a12.47,12.47,0,0,1,.94,4.61A3.84,3.84,0,0,1,331.7,286c-.37.39-.79.74-1.22,1.13a20.8,20.8,0,0,1,0,8,22.54,22.54,0,0,1-4.16,9.45,6,6,0,0,1-3.67,2.54A2.2,2.2,0,0,1,320,305.6a2.44,2.44,0,0,1,1.78-3.06,2.9,2.9,0,0,0,2.13-1.52A14.68,14.68,0,0,0,326,289.66c-.26-1.34-1.25-2-2-3a11.87,11.87,0,0,1-.87-1,2.67,2.67,0,0,0-2.08-1.47c-2.84-.28-5.67-.66-8.51-.94-2.59-.25-5.19-.42-7.86-.63a26,26,0,0,1-.4,4.3c-.71,2.7-1.62,5.35-2.5,8a62.61,62.61,0,0,1-6.67,14c-.12.19-.21.41-.42.82a10.84,10.84,0,0,0,1.64.09A4.79,4.79,0,0,1,299.9,311a28.63,28.63,0,0,1,6.9,8.43c2.39,4.16,3.66,8.75,4.79,13.36A80.26,80.26,0,0,1,314,347.9c.27,5.22.14,10.47.16,15.7,0,1.16-.09,2.31-.13,3.47,0,.37,0,.73,0,1.1-.05.61-.11,1.4-.9,1.35s-.6-.9-.59-1.46c.11-4.94.42-9.87.3-14.8a86.82,86.82,0,0,0-5.65-29.64,29.08,29.08,0,0,0-7.48-10.91,5.12,5.12,0,0,0-4.7-1.32l-1.34.27v2.63c6.12,2.23,9.73,6.74,11.87,12.6a93,93,0,0,1,5.32,31.36c0,3,0,6,0,9a6.83,6.83,0,0,1-.18,1.81c-.08.26-.51.43-.77.64a6.49,6.49,0,0,1-.59-.79c-.07-.14,0-.36,0-.54-.12-6.21,0-12.43-.41-18.63A70.44,70.44,0,0,0,306,333.37a77.31,77.31,0,0,0-3.38-9.24,17.07,17.07,0,0,0-6.43-7.08,15.19,15.19,0,0,0-2.3-1c.18,2.86.31,5.4.52,7.94.46,5.7.75,11.43,1.49,17.1.61,4.64,1.72,9.21,2.72,13.79.93,4.27,2,8.52,3.07,12.77a3.16,3.16,0,0,0,.81,1.09,19.6,19.6,0,0,1,1.56,1.74,1.28,1.28,0,0,1-.12,1.13c-.12.19-.68.25-1,.15a38.32,38.32,0,0,1-3.72-1.47c-.33-.15-.78-.64-.75-.91.3-2.2-.75-4.12-1.18-6.15-2.15-10-4.5-20-5.59-30.16-.42-3.87-.93-7.72-1.41-11.7a18.76,18.76,0,0,0-3.61,5.11c-.24.56-.45,1.13-.68,1.69-2.2,5.22-4.45,10.41-6.57,15.66a22.85,22.85,0,0,0-.89,4.07,17.81,17.81,0,0,0-.34,2.51,12,12,0,0,0,.23,2.14,20,20,0,0,1,.43,2.51,2.61,2.61,0,0,1-1.21,2.67,1.92,1.92,0,0,0-.9,1.69,165.09,165.09,0,0,0-1,18.6,81,81,0,0,0,1.35,14.9,5,5,0,0,1,.21,1.25c0,.31-.29.59-.45.89-.32-.2-.86-.36-.92-.62-.39-1.78-.78-3.57-1-5.38a121.21,121.21,0,0,1,0-25.9c.14-1.45.29-2.9.31-4.41-.23,1.67-1.12,2.45-3,2.19-.2,1.45-.48,2.81-.56,4.18-.36,6.45-.6,12.9-1,19.35-.31,4.48.82,8.69,1.9,12.94a4.94,4.94,0,0,1,.24,1.24.82.82,0,0,1-.46.65.87.87,0,0,1-.76-.29,5.66,5.66,0,0,1-.53-1.35,45.06,45.06,0,0,1-1.78-17c.4-5.22.63-10.46.95-15.69.07-1.08.22-2.16.36-3.44l-6.09-.32c-.42,1.62-.88,3.12-1.17,4.64-.85,4.43-1.69,8.85-2.38,13.3-.37,2.34-.42,4.73-.61,7.1,0,.24.08.53,0,.72a1.35,1.35,0,0,1-.66.67c-.16.06-.61-.24-.65-.44-.14-.72-.19-1.41-1.09-1.66-.14,0-.18-.66-.15-1,.54-7.35,1.11-14.7,1.66-22,.1-1.4.17-2.8.19-4.2,0-1.65,0-3.3,1.43-4.44a28.31,28.31,0,0,1-9.61-7.19,2.9,2.9,0,0,1-.64-1.67c-.32-3.82,0-7.52,2.06-10.92.66-1.09,1.17-2.27,1.81-3.38.73-1.26,1.37-2.61,2.79-3.29a.88.88,0,0,0,.4-.36c.73-1.66,1.43-3.34,2.16-5,.52-1.15,1-2.31,1.61-3.44,1.27-2.48,2.61-4.93,3.84-7.43.23-.48,0-1.17.18-1.72a6.85,6.85,0,0,1,.85-1.89c1.22-1.81,2.62-3.51,3.73-5.39,1.36-2.29,2.49-4.72,3.84-7.3-1.49-.11-2.84-.23-4.2-.31q-7.74-.5-15.47-1c-2.24-.14-4.49-.21-6.74-.34-.83-.05-1.66-.18-2.64-.3.11,1-.43,1.95.64,2.7.26.18.32.91.2,1.31a11.89,11.89,0,0,0-.2,5.24,21.47,21.47,0,0,1,.07,3.11c0,5.18-.16,10.36,0,15.53s.74,10.45,1.11,15.68c.14,2,.17,4,.27,6q.51,9.86,1,19.7c.24,4.26.52,8.52.8,12.77,0,.66.26,1.32.27,2a.69.69,0,0,1-1.34.32,4.79,4.79,0,0,1-.37-1.59q-.39-5.65-.74-11.3c-.34-5.17-.71-10.34-1-15.5-.15-2.8-.06-5.61-.23-8.41-.38-6.08-.94-12.15-1.24-18.23-.21-4.26-.12-8.53-.15-12.79,0-1.89,0-3.77,0-6-2.15,7-4.25,13.7-5.13,20.7-.2,1.56-.67,3.09-.91,4.65a3.17,3.17,0,0,0,.17,1.92c2.52,4.35,3,9.2,3.63,14,.46,3.74,1.16,7.46,1.55,11.21a172.58,172.58,0,0,1,.67,23.74,8.36,8.36,0,0,1-.37,2.15.94.94,0,0,1-.75.55c-.23,0-.44-.45-.62-.72,0-.08,0-.24,0-.36.7-5.65.24-11.31.16-17a127.11,127.11,0,0,0-1.89-17.42c-.45-2.95-.69-5.94-1.25-8.86a22,22,0,0,0-1.86-5.11c-.79,1.87-1.31,3.61-.6,5.68a60.07,60.07,0,0,1,1.76,7.44c.45,2.2.86,4.42,1.11,6.65.29,2.54.41,5.1.53,7.65a141.66,141.66,0,0,1,.18,18.08,27.41,27.41,0,0,1-.42,3.26c-.06.3-.52.51-.8.77-.2-.27-.52-.52-.57-.81a4.42,4.42,0,0,1,0-1.45c.75-4.3.46-8.63.38-13-.07-3.53-.18-7.07-.47-10.59-.25-3-.75-6-1.19-9-.26-1.74-.62-3.48-1-5.21-.17-.81-.43-1.61-.64-2.41h-.38c-.46,1.95-1,3.89-1.38,5.86-1.14,5.73-2.17,11.48-3.35,17.2-.62,3-1.46,5.9-2.22,8.85a7,7,0,0,0-.2,3.58,6.63,6.63,0,0,1-.29,2.83c-.06.26-.62.41-.95.61-.15-.35-.5-.78-.4-1a5.57,5.57,0,0,0,0-3,6.61,6.61,0,0,1,.32-3c1.75-5.09,2.55-10.4,3.57-15.65,1.43-7.41,2.88-14.81,4.78-22.12.86-3.29,1.44-6.66,2.14-10a12.76,12.76,0,0,0,.09-1.47,4.1,4.1,0,0,0-.46.75c-1.74,6.28-3.64,12.52-5.17,18.84-1.9,7.81-3.57,15.68-4.69,23.65-.27,2-.71,3.95-1.13,5.92a4.52,4.52,0,0,1-.6,1.09,27.47,27.47,0,0,0-1.52,2.7,2.83,2.83,0,0,0,.55,3.52c.14.12.32.25.36.4s.15.74,0,.82a1.09,1.09,0,0,1-.95.15,3.58,3.58,0,0,1-1.81-2.8,7.74,7.74,0,0,1,1.59-4.94,6.43,6.43,0,0,0,1.12-2.65c.74-4.38,1.47-8.77,2.34-13.12a226.68,226.68,0,0,1,5.44-23.29,3.33,3.33,0,0,0-.2-2.76c-.75-1.46-1.23-3.06-2-4.48-1.86-3.31-4.38-6.26-7.83-7.67-5-2.05-10-1.65-14.35,2.19a48.77,48.77,0,0,0-10.86,13.43c-.74,1.4-1.59,2.74-2.37,4.12a18.4,18.4,0,0,0-1.41,2.76c-1.82,5.1-3.65,10.2-5.32,15.36a58.09,58.09,0,0,0-1.44,6.59c-.86,4.23-1.76,8.46-2.49,12.72a40.1,40.1,0,0,0-.26,5.27,6,6,0,0,1,0,1.28c-.08.28-.41.5-.62.74-.26-.26-.75-.53-.75-.8a55.34,55.34,0,0,1,.13-6.57c.71-6.49,2.54-12.77,3.92-19.12.76-3.49,2.23-6.82,3.39-10.22q.76-2.25,1.57-4.48a16.58,16.58,0,0,1,1-2.53c2.29-3.88,4.38-7.9,7-11.55a36.08,36.08,0,0,1,10.09-9.95c3.31-2.05,6.91-2.14,10.6-1.42,5.57,1.09,8.77,5.08,11.54,9.55.64,1,1.13,2.15,1.78,3.4l.69-2.23a24.92,24.92,0,0,1-3.3-4.9,15.92,15.92,0,0,0-3.07-3.84c-1.78-1.73-3.73-3.29-5.61-4.92s-4.16-2.11-6.51-2.57a7.7,7.7,0,0,0-6,1.36c-1.63,1.07-3.26,2.14-4.93,3.14a51.32,51.32,0,0,0-7.68,6.16c-2.92,2.63-4.57,6.13-6.18,9.63-1,2.21-2,4.44-3,6.64a85.72,85.72,0,0,0-7,20.33c-1.25,6.64-2.6,13.28-3,20-.28,4.61-.1,9.25-.11,13.88,0,.3.15.63.07.9a1,1,0,0,1-.55.6.81.81,0,0,1-.73-.33,4.62,4.62,0,0,1-.34-1.59,130.64,130.64,0,0,1,.81-20.06c.85-6,2.06-11.88,3.29-17.78a56.69,56.69,0,0,1,2.89-9c1.34-3.46,2.92-6.82,4.45-10.21,1.08-2.38,2.29-4.71,3.35-7.1a21.28,21.28,0,0,1,5.24-7.19,81.74,81.74,0,0,1,6.78-5.53,68.3,68.3,0,0,1,6.31-4c1.4-.81,3-1.36,4.69-2.14.39-3-.89-6.19-.63-9.51a57.92,57.92,0,0,0-8.9-5.69,14,14,0,0,0-9.72-1.3,58,58,0,0,1-7,1.21,27.84,27.84,0,0,1-5.07-.21,1.57,1.57,0,0,1-1.54-1.53,1.61,1.61,0,0,1,1.18-1.67c2.85-1.21,5.63-2.72,8.6-3.48a25.86,25.86,0,0,1,9.81-.44C204.27,286.66,207.49,287.18,210.84,287.68Zm18,25.8A6.54,6.54,0,0,0,230,310.2c-.5,1.07-1.5,2-1.17,3.32-1.05.45-1,1.42-1,2.4Zm-2.2-122c2,.83,1.78,2.37,1.31,4a13.3,13.3,0,0,1-.46,1.39c-.79,1.91-1.61,3.81-2.4,5.72a11.06,11.06,0,0,0-.87,2.39,7,7,0,0,1-1.82,3.71,17.57,17.57,0,0,0-3.15,5.31c-2,4.95-4,9.93-7.12,14.35a14.66,14.66,0,0,0-2.83,7.41,1.57,1.57,0,0,0,.42-.09A44.27,44.27,0,0,1,238.37,230c2.48.3,5,.52,7.44.8,3.69.41,7.39.76,11.07,1.27s7.21,1.13,10.81,1.76a40.65,40.65,0,0,1,4.61,1.1c.73.21,1.71.59,2,1.17.93,2,2.93,2.75,4.53,4.14a14,14,0,0,0,.64-2.64,5.58,5.58,0,0,1,2.08-3.91c.35-.34.79-.6,1.11-1a4.23,4.23,0,0,0,1.31-4.14,4.47,4.47,0,0,1,1.26-4.81,13.08,13.08,0,0,0,2.32-3.68c.84-1.88,1.86-3.68,2.84-5.5.51-.95,1.11-1.85,1.73-2.87a19.79,19.79,0,0,1-1.7-1.47c-.19-.21-.16-.62-.23-.95.37-.06.89-.3,1.08-.15a11,11,0,0,1,2.58,2.52c2.07,3.54,2.43,7.45,2.06,11.47a8.45,8.45,0,0,0,0,3.58,29.61,29.61,0,0,1,1.31,5.85c.06.41.15.83.24,1.25.82,4,2.94,7.57,4.75,11.21,1.55,3.1,3.14,6.18,4.48,9.37s2.38,6.64,3.67,9.92c1,2.6,2.21,5.14,3.39,7.67a8.72,8.72,0,0,0,1.34,1.92c.79.92,1.74.85,2.82.46,2.2-.78,3.47-2.58,4.83-4.26a2.55,2.55,0,0,0,.43-2.42,4.77,4.77,0,0,1-.19-2,20,20,0,0,0-1.08-9.16c-.76-2.24-1.35-4.55-1.94-6.84-1.05-4.06-2.05-8.14-3.05-12.21a103,103,0,0,1-2.52-11c-.53-4-1.09-8.07-1.84-12.08-.87-4.6-1.56-9.24-3.23-13.64a14.26,14.26,0,0,1-1-5.49c.05-3.95-1.77-7.54-2.44-11.37-.06-.36-.61-.7-1-.91-1.66-.89-3.35-1.74-5-2.57a14.94,14.94,0,0,0-2.67-1.15,5.87,5.87,0,0,1-4-2.95,3.32,3.32,0,0,0-2.15-1.86c-.83-.18-1.65-.42-2.47-.63a4.55,4.55,0,0,0-4.43.83,16,16,0,0,1-4.12,2.67A91.61,91.61,0,0,1,269.89,181a41,41,0,0,1-8.45,1.36,30.66,30.66,0,0,1-9.2-1.16,29.18,29.18,0,0,1-10.84-5c-1.34-1-2.6-2.15-4.1-3.39-2.14.73-4.45,1.5-6.73,2.31-2.11.76-4.1,1.86-6.38,2.11a7.73,7.73,0,0,0-5.07,3c-.59.69-1.16,1.39-1.72,2.1a3.59,3.59,0,0,1-3.74,1.25,5.91,5.91,0,0,0-3.37.35,15.57,15.57,0,0,1-4.55,1.17,6.24,6.24,0,0,0-2,.44,4,4,0,0,1-4-.15,12.48,12.48,0,0,0-7.24-1.37,7.44,7.44,0,0,0-3.91,1.37,4,4,0,0,1-1.78.75c-2.84.31-5.69.52-8.54.76-6,.51-12.05.85-18,1.59-3.51.44-7.18.72-10.15,3.13a1.22,1.22,0,0,1-1.15.11c-1.11-.84-2.18-.47-3.28-.07-1.87.69-2.26,1.33-2.05,3.31.19,1.69.35,3.39.57,5.08.1.77.29,1.53.42,2.22,2.75.47,5.33.89,7.9,1.35.71.13,1.42.14,1.81-.51.68-1.12,1.61-1,2.55-.61A45.9,45.9,0,0,0,168,204.74c6.83.81,13.72,1.14,20.59,1.58,3,.2,6.09.2,9.13.29,4.88.15,9.75.34,14.62.43,2.81.05,5.61.1,8.17,1.51a7.53,7.53,0,0,0,2.21-3.61,23,23,0,0,1,1.17-3.25c.87-2.2,1.8-4.39,2.63-6.61.3-.78.49-1.6-.52-2.22a2,2,0,0,1-.67-2.6c.57-1.73,1.08-3.48,1.75-5.16.73-1.86,1.59-3.68,2.45-5.48.15-.31.59-.48.89-.72.18.33.58.72.5,1a17.45,17.45,0,0,1-1.19,3.24C228.37,185.73,227,188.29,226.62,191.52ZM283.4,315.45a6.58,6.58,0,0,0,6.05-2,24.93,24.93,0,0,0,2.93-3.24c5-6.83,7.83-14.69,10.27-22.68a11.44,11.44,0,0,0-.42-7.88,38.79,38.79,0,0,0-2.24-4.58c-4.18-7.22-8.56-14.31-13.34-21.16a25.73,25.73,0,0,0-4.77-5.49,21.44,21.44,0,0,1-3.06-3.38,3.47,3.47,0,0,1-.73-1.81,4,4,0,0,0-2.39-3.38,4.08,4.08,0,0,1-1.72-1.56c-.75-1.6-2.09-2.09-3.64-2.36-2.33-.41-4.67-.8-7-1.22-1.92-.34-3.82-.76-5.75-1-3.62-.49-7.26-.81-10.87-1.33a118.43,118.43,0,0,0-17.13-1.16,32.08,32.08,0,0,0-5.27.49,47.84,47.84,0,0,0-12.83,4.68,8.77,8.77,0,0,0-1.65,1.13c-.25.21-.57.67-.49.86.34.79-.17,1.3-.5,1.84a4.3,4.3,0,0,0-.5,3.51,41.42,41.42,0,0,1,1,11.05c0,4.2.12,8.41.37,12.6.23,3.89.73,7.76,1,11.64a33.56,33.56,0,0,0,1.49,7.87,3.4,3.4,0,0,0,2.17,2.41,24.85,24.85,0,0,1,9.37,6.51c.26.28.56.54.94.9a23.66,23.66,0,0,1,8.53-10.22,6.82,6.82,0,0,0,1.66-2.11,29.09,29.09,0,0,0,1.29-2.83c-.06-.75-.15-1.83-.24-2.92a23.48,23.48,0,0,0-1.94-7.94,2.15,2.15,0,0,0-1.88-1.44c-2.12-.23-4.22-.55-6.33-.83-2.73-.38-5-2.42-5.21-4.63-.26-3.26,1.27-5.78,4.16-6.68a30.27,30.27,0,0,1,3.55-.76c3-.54,5.85.2,8.65.9s5.82,1.9,7.38,4.9c.83,1.61,1.77,3.17,2.66,4.74a33.16,33.16,0,0,0,12.86,12.37c2.9,1.66,5.79,3.32,8.66,5a28.33,28.33,0,0,1,7.35,5.62,2,2,0,0,0,2.14.59,8.88,8.88,0,0,1,2-.31.85.85,0,0,1,.65.5c.06.21-.14.55-.32.76a1,1,0,0,1-.65.3c-1.63,0-2.47,1.15-3.24,2.35s-1.33,2.18-2,3.27c-2,3.21-3.2,6.84-5.63,9.79-.05.06,0,.22.05.4.89,0,1.79,0,2.69,0a10.59,10.59,0,0,1,8.11,3.51C281,312.53,282.19,314,283.4,315.45Zm5.93-143.08c-.45-.91-.8-1.6-1.13-2.31a20.18,20.18,0,0,0-1.33-2.77,24.53,24.53,0,0,0-2.5-2.9,19.45,19.45,0,0,0-9.73-5.49,26.24,26.24,0,0,0-12.51.34c-7.19,1.81-14.36,3.73-21.54,5.59a2.77,2.77,0,0,0-2,1.94c-1,3-.53,4.58,1.83,6.82a7.08,7.08,0,0,0,.84.7,34,34,0,0,0,6.74,3.93,33.26,33.26,0,0,0,13.87,2.6c4.83-.13,9.3-1.76,13.82-3.18a26.93,26.93,0,0,0,8.41-4.68,3.4,3.4,0,0,1,3.23-.75A10,10,0,0,0,289.33,172.37Zm23.22,103.3a1.79,1.79,0,0,0,.33-1.94c-1-2.21-2-4.44-2.93-6.67-.81-1.84-1.67-3.65-2.38-5.53s-1-3.65-1.81-5.35c-2-4.32-4-8.6-6.16-12.82a36.88,36.88,0,0,1-4.11-11.63,13.48,13.48,0,0,0-.77-3.53,7.63,7.63,0,0,1-.44-4.63,20.68,20.68,0,0,0-.31-7.44,22.77,22.77,0,0,0-1-2.91A38.21,38.21,0,0,0,289.6,219c-.92,2.26-1.82,4.51-3.64,6.26a2.31,2.31,0,0,0-.56,2.84,3,3,0,0,1,.14,1.77c-.43,1.84-1,3.58-2.72,4.78a5.3,5.3,0,0,0-1.72,2.46c-.57,1.52-.8,3.18-1.32,4.72a2.34,2.34,0,0,0,.39,2.54c1.11,1.21,2.26,2.38,3.38,3.58a37.27,37.27,0,0,1,3,3.2c1.49,2,2.85,4.1,4.22,6.18,1.86,2.86,3.71,5.72,5.51,8.61,1.68,2.69,3.3,5.41,4.91,8.13a1.94,1.94,0,0,0,1.87,1.11C306.12,275.26,309.22,275.49,312.55,275.67ZM261,153.88c.92-.44,1.65-.88,2.44-1.16,3.11-1.1,6.26-2.15,9.61-1.18a53.6,53.6,0,0,1,5.51,1.92c1.39.58,2.67,1.41,4,2.08a3.85,3.85,0,0,0,1.71.51c1.45-.05,2.9-.26,4.35-.43,2.09-.24,4,0,5.54,1.66a4.34,4.34,0,0,0,.84.58c4.68-3.09,4.88-7.42,2.67-11.26a13.52,13.52,0,0,0-5.15-5.33c-1.22-.66-2.23-1.43-2-3a12.66,12.66,0,0,1-1.25-.66c-4.2-2.81-8.81-3.22-13.66-2.45-1.67.27-3.39.26-5.08.39a8.46,8.46,0,0,0-2.49.27,39,39,0,0,0-4.18,2.22,2.78,2.78,0,0,0-1.37,2.43,9.21,9.21,0,0,1-2.31,5.81,3.57,3.57,0,0,0-.74,4.06C260,151.52,260.5,152.68,261,153.88Zm-8.86,191.05h2.11a7.38,7.38,0,0,1,2,.08,70,70,0,0,1,7.4,2.52,13.93,13.93,0,0,1,4.54,3c2,2.1,4.32,3.73,6.45,5.62a2.51,2.51,0,0,0,.76.48,1.22,1.22,0,0,0,1.81-.87,4.9,4.9,0,0,0,0-1.79c-.2-1.14-.5-2.25-.76-3.38-.71-3.15-1.54-6.27-3.81-8.73a11.33,11.33,0,0,1-2.2-4.12c-.92-2.64-1.54-5.37-4-7.35A10.19,10.19,0,0,0,261.7,328c-2.56-.47-4.18.65-5.37,2.7-.7,1.21-1.25,2.51-2,3.69C252.34,337.55,252,341,252.17,344.93Zm21.29-55.41c-1.41-1.07-2.49-2-3.71-2.78-4.2-2.55-8.46-5-12.66-7.54a27.41,27.41,0,0,1-8.48-7.38c-.65-.92-1.38-1.78-2-2.62-.79.68-1.37,1.53-2.14,1.76a7.26,7.26,0,0,1-2.72-.28,30,30,0,0,0,1.16,9.08,13.63,13.63,0,0,1,1.54.15c2.69.58,3.72,2.87,2.32,5.19-.62,1-1.35,2-2.17,3.2C254.11,289.5,263.51,290.52,273.46,289.52Zm8.44,26.72a5.49,5.49,0,0,0-.58-1c-1-1.2-2-2.43-3.15-3.54a7.1,7.1,0,0,0-2.46-1.84,14.9,14.9,0,0,0-6.83-.78,1.81,1.81,0,0,0-1.67,1.42,16.43,16.43,0,0,1-1.22,3.22c-1.21,2.24-2.54,4.41-3.83,6.61a3.92,3.92,0,0,0-.32.65c-.59,1.7-1.17,3.41-1.79,5.24.74.13,1.56.32,2.4.4a7,7,0,0,1,4.87,2.55,16.59,16.59,0,0,0,1.75,1.56c.46-.38.79-.64,1.11-.92a14.11,14.11,0,0,1,1.07-1A35,35,0,0,0,281.9,316.24Zm-155-123.45.19.29a23.13,23.13,0,0,1,2.41-.75c.32-.07.71.2,1.07.32-.18.33-.29.8-.56.95-.76.39-1.59.61-2.37.94a13.43,13.43,0,0,1-4,1.32,14.59,14.59,0,0,0-3.21,1.07,12.45,12.45,0,0,0,3.54.09c1.16-.07,2.31-.19,3.46-.17.31,0,.61.45.91.69-.28.24-.55.68-.83.7-3.76.14-7.48,1-11.35.45l-.39,1.34a14.88,14.88,0,0,0,2.19.41c1.64.07,3.29.11,4.93,0a9.51,9.51,0,0,1,4.46.69c1.66.77,3.25,1.66,4.86,2.5,2,1,2.13,2.84.3,4.09-.4.28-.87.46-1.25.75-.71.54-1.49,1.05-1.61,2.09a1.87,1.87,0,0,0,.6.11c2.14-.44,4.28-.86,6.41-1.36a4.39,4.39,0,0,0,2.95-2.24c.88-1.57,1.73-3.23,3.42-3.84l-1.19-10.2a.69.69,0,0,0-.25-.17c-3-.61-6.07-1.26-9.12-1.8a4.44,4.44,0,0,0-2.14.16C129.23,191.67,128.1,192.27,126.94,192.79Zm111.54,96.56a26.46,26.46,0,0,1-.4,4.25,34,34,0,0,1-1.57,3.89q-3.28,8.7-6.54,17.41c-.32.84-.63,1.68-.83,2.23l5.93,8.36c1.2-4.76,2.47-9.39,3.52-14.07,1.22-5.52,2.23-11.08,3.39-16.61a11.19,11.19,0,0,1,1-2.14c-.16-.92-.39-2.27-.62-3.59ZM244,269.6c1-1.43,1.28-3.19.65-4.19s-1.37-2-2-3a7.07,7.07,0,0,0-3.33-2.7,25.66,25.66,0,0,0-6.49-1.69,15,15,0,0,0-7.54.49,4.54,4.54,0,0,0-3.19,4.74c0,1.69,1,2.81,3.17,3.49a4.26,4.26,0,0,0,.69.22c2.1.3,4.2.63,6.31.85C236.2,268.18,240.18,268.15,244,269.6Zm46.09-99.38a5.26,5.26,0,0,0,2.05-4.24,17.88,17.88,0,0,1,.86-6.1,1.81,1.81,0,0,0-1.67-2.59,19.92,19.92,0,0,0-4.15.13c-2.34.24-4.63.44-6.51-1.42a3.09,3.09,0,0,0-1.14-.54c-1.71-.63-3.47-1.15-5.14-1.88-3.74-1.65-7.27-.69-10.77.72-1.46.59-1.61,1.15-1.2,3,.75,0,1.53,0,2.3,0,2.31-.08,4.62-.27,6.92-.25,4.38,0,8.16,1.88,11.56,4.41,2.84,2.11,5.3,4.65,6.46,8.16A3.72,3.72,0,0,0,290.11,170.22ZM226.29,314.7c1.49-3.59,2.93-6.93,4.26-10.31,1.5-3.79,2.91-7.62,4.33-11.44.34-.91.78-1.63,2-1.52l-.12-1.74c-2.33.7-5.54,5.3-10,14.18a7.28,7.28,0,0,0-1.4,0,18.27,18.27,0,0,0-4,.94c-1.27.58-1.56.66-2.41-.57a10.23,10.23,0,0,0-3.73-3.59c.28,3.08.55,5.95.84,9.09C219.91,309.79,223,312,226.29,314.7ZM277,345.87c1.13-2.7,2.32-5.55,3.53-8.39.9-2.12,1.93-4.2,2.75-6.36,1.21-3.19,2.32-6.41,4.42-9.17.44-.58.69-1.3,1.12-1.89,1-1.34.86-2.8.64-4.61a17.82,17.82,0,0,0-3.3,2.19,25.84,25.84,0,0,0-3.12,4.27,81.85,81.85,0,0,0-6.63,14,39.78,39.78,0,0,0-1.37,5.65,2.31,2.31,0,0,0,.26,1.35C275.8,344,276.43,345,277,345.87Zm39-69.69a2.13,2.13,0,0,0,1.54,2.11l3.85,1.65c2.16.94,3.76,2.33,3.79,4.82.54.1,1.19,0,1.39.31s.17,1,.24,1.56a9.33,9.33,0,0,0,1.61-.2c1.84-.52,3.36-2.36,3.22-4a9.07,9.07,0,0,0-2.17-5.49c-.65-.72-1.31-1.43-2-2.16a7.12,7.12,0,0,0-3.8-2,1.67,1.67,0,0,0-1.9.68c-.41.51-.81,1.18-1.36,1.41C319,275.5,317.64,276.51,316,276.18ZM183.19,291.77a7.38,7.38,0,0,0,4.16.42c3.37-.46,6.71-1.15,10.08-1.58a41.77,41.77,0,0,1,10.36,0,32.73,32.73,0,0,1,9,2.87,20.35,20.35,0,0,1,3.53,2.2c1,.66,1.86,1.43,2.78,2.15a1.8,1.8,0,0,0-.55-1.18,27.3,27.3,0,0,0-14.85-8c-2.48-.53-5-.75-7.57-1.06C194.11,286.92,188.62,288.52,183.19,291.77ZM263,354.28a5.73,5.73,0,0,0-1.94,4c-.2,2.91-.45,5.82-.67,8.73q-.24,3.18-.46,6.36c.8-2.59,1.3-5.21,1.89-7.81.38-1.72.87-3.41,1.36-5.11.22-.76.54-1.49,1.46-1.59.46.36.85.93,1.28,1,2.52.16,5.06.47,7.48-.61a3.09,3.09,0,0,0-1.9-2.83,16.19,16.19,0,0,0-3.08-1.11C266.63,354.87,264.85,354.62,263,354.28Zm59.45-71.66.15-.4c-1-.47-2.09-.88-3.09-1.4-1.69-.88-3.75-1.17-4.82-3.06a1.13,1.13,0,0,0-.77-.39c-2.66-.25-5.31-.5-8-.69-1-.08-2,0-3.15,0,.57,1.58,1,2.89,1.48,4.13C307.29,281.51,320.54,282.8,322.41,282.62Zm-79.52-1.23c.15,2,.17,2.08-.49,2.49a4.29,4.29,0,0,1-4.65.33l-1-.58c-.41,2.46-2,3.75-3.79,5a19.33,19.33,0,0,0-6.68,8.49,2.08,2.08,0,0,0,.71,2.73,6.51,6.51,0,0,0,.43-.63,47.68,47.68,0,0,1,6.3-9.36c1.18-1.47,2.5-2.44,4.51-2.11a15.7,15.7,0,0,0,1.82,0c1.75.08,3.07-1,4.31-1.9.85-.61,1.21-1.89,1.79-2.87C245.27,281.87,244.43,281.1,242.89,281.39Zm-37.72,10.55c.38.3.51.43.66.52,5,2.88,10,5.83,13.88,10.24.22.24.64.55.9.5,1.45-.3,2.88-.7,4.39-1.09A27.56,27.56,0,0,0,205.17,291.94Zm68.13,48.53a87,87,0,0,1,10.78-23.38,3,3,0,0,0-1.38,1c-.92,1.35-1.76,2.76-2.65,4.14a9.75,9.75,0,0,1-1.24,1.78c-1.91,1.86-3.88,3.67-5.85,5.47-.94.86-1.92,1.66-3,2.57C271.23,334.72,271.72,337.6,273.3,340.47Zm-38.18-71.05a22.68,22.68,0,0,1,2.3,8.86,10.11,10.11,0,0,0,1.23,4.66c2.32.55,2.75.29,2.57-1.88s-.59-4.57-.85-6.86c-.15-1.31-.21-2.63-.33-4.11Zm9.28,22.13,11.89.65c2.66.15,5.34.26,8,.45,3.57.25,7.14.56,10.69.85l.94-1.45a2.26,2.26,0,0,0-2.16-.91c-2.13.08-4.26.24-6.39.21-4.14-.05-8.28-.09-12.4-.36-3.56-.24-7.09-.78-10.81-1.21C244.24,290.34,244.3,290.84,244.4,291.55Zm9.27,55.18c1,1.83,2.73,2.71,4.28,3.81,3,2.15,6.44,2.27,9.89,2.13C266.38,349.68,257,345.65,253.67,346.73Zm69.71-41.31a19.07,19.07,0,0,0,5.93-13.24c.1-1.4.37-2.89-.5-4.28l-1.42.37a3,3,0,0,0-.05.61c1.09,5.69.41,10.88-4.2,15C322.6,304.34,322.81,304.8,323.38,305.42Zm-29.9,28.41.15,0-1.56-20.19-.51-.08a5.19,5.19,0,0,0-.54,1.51,23.12,23.12,0,0,0,.17,3.82C291.91,323.89,292.71,328.86,293.48,333.83Zm-52.28-27.1.29.13a9.45,9.45,0,0,0,.45-1.15c.6-2.29,1.25-4.56,1.73-6.87a9.62,9.62,0,0,0-.17-2.6h-.38ZM115.37,196.47c1.61-.06,6.57-1.41,7.12-1.9.22-.2.29-.57.58-1.19A30.58,30.58,0,0,0,115.37,196.47Zm184,167.18-.35.06.55,2.22.31-.07ZM279.22,139.44c2.63-.58,4.86.32,7.13,1.54a34,34,0,0,1,6.39,4.18,5.18,5.18,0,0,1,1.25,1.51c.74,1.49.07,2.53-1.59,2.58a1.44,1.44,0,0,1-.72-.08c-2.54-1.28-5.39-1.95-7.67-3.78-1-.8-2.09-1.47-3.13-2.22-1.42-1-2.86-2-4.24-3.1a3.61,3.61,0,0,0-2.17-.75,5.08,5.08,0,0,1-2.05-.61,1.68,1.68,0,0,1-.84-1.22c0-.36.69-.86,1.12-.92a5.68,5.68,0,0,1,2.5.14A7.1,7.1,0,0,1,279.22,139.44Zm1.17,1.57c3.92,2.75,7.55,5.59,12.19,6.75C291.79,145.07,283.51,140.46,280.39,141Zm-3.17,2.57c2,1.09,3.93,2,5.7,3.11a14.65,14.65,0,0,1,2.48,2.38,4,4,0,0,1,.84,1.17c.15.35.28,1,.1,1.13a1.69,1.69,0,0,1-1.26.39,32.12,32.12,0,0,1-3.9-.68,8.87,8.87,0,0,1-2.47-1,20.44,20.44,0,0,1-2.77-2c-1.22-1-1.28-1.45-.34-2.75A15.86,15.86,0,0,1,277.22,143.58Zm6.14,6a8.08,8.08,0,0,0-5.46-3.72c-.69-.16-1,0-1.25.89C278.65,148,280.19,150.31,283.36,149.55Zm-9.39.38a2,2,0,0,1-1.92.72c-1.14-.09-2.28-.23-3.42-.39-1.49-.2-1.9-.95-1.11-2,1-1.32,1.84-2.71,2.89-4,.81-1,1.56-.77,2,.42.26.68.38,1.4.58,2.1C273.28,147.72,273.58,148.66,274,149.93Zm-2.65-3.77-.44-.09-2,2.71h2.79C271.55,147.88,271.43,147,271.32,146.16Zm-10.88,3.12a6.72,6.72,0,0,1,.56-1.68c1-1.43,2-2.85,3.18-4.18.75-.87,1.19-.71,1.74.34a2.72,2.72,0,0,1,.1,2.61,8.49,8.49,0,0,1-3.62,4,1.92,1.92,0,0,1-1.48.11C260.63,150.3,260.57,149.64,260.44,149.28Zm2-1.25c1.73-1.09,1.92-1.39,2-2.83Zm7.63-4.65a15.3,15.3,0,0,0,2.71,0,1.58,1.58,0,0,0,1-1.05,1.93,1.93,0,0,0-.64-1.34,1.72,1.72,0,0,0-1.19-.34c-1.27,0-2.54.15-3.81.29-.62.07-1.21.3-1.26,1.07a1.42,1.42,0,0,0,1.35,1.42c.6.05,1.21,0,1.82,0ZM263.68,140c-.18.38-.39,1-.23,1.24.33.56.81.18,1.24-.08,1.19-.69,2.39-1.38,3.63-2,.48-.23,1-.42.76-1-.11-.31-.6-.47-.79-.6C266.33,137.87,264.53,138.06,263.68,140Zm19.48-3.33c-.46.19-.47,1,0,1.19a21.32,21.32,0,0,0,3.12.8,1.12,1.12,0,0,0,.93-.6,1.13,1.13,0,0,0-.5-1,15.46,15.46,0,0,0-2.29-.64A5.55,5.55,0,0,0,283.16,136.62Z"/></svg>