<svg xmlns="http://www.w3.org/2000/svg" width="500" height="500" viewBox="0 0 500 500"><path d="M395.39,161.57l-2.15-.13c-1.58-.09-1.69-.24-1.48-1.92a5.56,5.56,0,0,0,0-.58,14.29,14.29,0,0,0-1.47,0,22.65,22.65,0,0,1-8.72-.26,6.16,6.16,0,0,0-1.82-.12q-9.44.26-18.86.54c-.49,0-1,0-1.47,0a47,47,0,0,0-12.88,1.33c-7.52,1.86-15.07,3.57-22.6,5.37a71.45,71.45,0,0,0-13.11,4.57c-11.94,5.45-24.14,10.22-36.53,14.57-6.49,2.29-12.8,5.1-19.19,7.69a10.74,10.74,0,0,0-1,.52c0,.43-.09.85-.09,1.27,0,7.88-.07,15.76,0,23.64.08,7.09.11,14.18.55,21.25.59,9.58.81,19.16.56,28.75-.1,3.59-.51,7.18-.78,10.77-.1,1.34-.16,2.68-.26,4-.21,2.7-.94,3.39-3.6,3.59-7.37.53-14.74.85-22.13.84-4.46,0-8.91.32-13.37.3-3,0-6.08-.31-9.12-.53a52.16,52.16,0,0,1-5.45-.58c-2-.35-2.59-1.08-2.83-3-.17-1.33-.27-2.67-.32-4-.28-7.87-.64-15.75-.75-23.62-.08-6.41.16-12.82.26-19.23.1-6,.2-12.08.3-18.55-1.91,1-3.5,1.74-5,2.68-5,3.19-10.44,5.28-15.85,7.5-2.26.93-4.51,1.87-6.78,2.77a3.9,3.9,0,0,0-2.73,3.34c-.24,2.06-.54,4.11-.81,6.16-.05.36,0,.74-.09,1.1-1.12,6.74-.74,13.5-.22,20.27.13,1.7.08,3.42,0,5.13-.17,7.14-.49,14.28-.54,21.43-.09,12.64,0,25.28,0,37.93,0,4.64,0,9.27.07,13.91.14,11.36.33,22.72.44,34.08.09,8.67.14,17.34.08,26,0,7.63-.26,15.26-.38,22.9a31,31,0,0,0,.25,3.46c.06.56,0,1.07-.63,1.07-.28,0-.7-.46-.8-.78a5.78,5.78,0,0,1-.25-1.81c0-6.1.11-12.21.17-18.32s.25-12.46.21-18.68c-.07-12.22-.28-24.43-.39-36.65-.05-6.41,0-12.82,0-19.23-.08-10-.34-19.91-.29-29.87.06-11.29.42-22.59.54-33.88.05-4.09-.22-8.17-.33-12.26-.14-4.94-.32-9.88.54-14.8.45-2.58.67-5.2,1-7.79a4.69,4.69,0,0,1,3-3.85c1.29-.55,2.56-1.15,3.86-1.67,5.6-2.26,11.29-4.33,16.58-7.28,2.66-1.48,5.28-3,8-4.63v-9.49c-.68.29-1.28.52-1.86.81a89,89,0,0,1-13.33,5c-1.74.54-3.43,1.28-5.19,1.75-3.41.9-6.84,1.71-10.28,2.48-2,.45-3.41-.75-3.73-3.18a15.58,15.58,0,0,1-.15-2.56q.19-10,.44-20,.17-6,.43-12.08c.32-7.63.74-15.25,1-22.88q.23-6.31,0-12.64a12.46,12.46,0,0,0-1.11-4.41c-.94-2.23-2.17-4.34-3.2-6.54a6,6,0,0,1-.67-2.4c0-5.31.11-10.62.12-15.94s.89-10.69,1.56-16a81.1,81.1,0,0,0,.14-9.49c0-.92-.11-1.83-.13-2.74,0-.49,0-1.06.69-1.06s.73.5.78,1a60.19,60.19,0,0,1-.52,16.41,66.83,66.83,0,0,0-1,10.2c-.18,5.67-.15,11.35-.17,17a4.67,4.67,0,0,0,.33,1.94c.92,2,1.93,3.92,2.93,5.86a14.8,14.8,0,0,1,1.76,7.22q-.35,12-.72,24c-.16,5.25-.39,10.5-.55,15.75q-.37,12.27-.71,24.54a35.11,35.11,0,0,0,.11,3.84,7.23,7.23,0,0,0,.55,1.9c.28.78.88.89,1.64.72,4.68-1.07,9.42-1.87,13.9-3.77,2.62-1.11,5.5-1.6,8.16-2.62,3-1.16,5.9-2.6,8.93-3.95,0-1.58.06-3,0-4.5-.13-2.49-.4-5-.49-7.49-.17-4.26-.4-8.54-.33-12.8.06-3.47.56-6.93.78-10.4a2.26,2.26,0,0,1,2-2.41,41.72,41.72,0,0,1,5.41-.78c7-.22,14-.33,21.06-.43,3.36,0,6.73-.05,10.08.09,2.68.11,5.35.51,8,.71,2.13.17,4.26.31,6.4.33a2.79,2.79,0,0,1,3,2,13.63,13.63,0,0,1,.73,3.37c.22,3.41.32,6.83.47,10.34a2.08,2.08,0,0,0,.66,0c4.35-1.57,8.73-3.09,13.05-4.77,2.21-.85,4.25-2.13,6.47-3,3.7-1.39,7.48-2.59,11.24-3.86,2-.66,3.93-1.31,5.9-1.93,1.69-.53,3.4-1,5.08-1.51,3.38-1,6.81-1.95,10.11-3.19,8.4-3.16,17-5.59,25.61-8.15,4.84-1.45,9.67-3,14.48-4.53a42,42,0,0,1,9.36-1.6,173.72,173.72,0,0,1,22.7-.34c2.68.12,5.36.39,8,.62a3.07,3.07,0,0,0,2.74-.59,2.2,2.2,0,0,1,1.34-.41c1.22-.06,2.44,0,3.66,0,2.5-.06,5-.23,7.5-.22a16.14,16.14,0,0,1,3.78.5,3.44,3.44,0,0,1,2.63,2.71c.59,2.05,0,4-.16,6,0,.36-.64.86-1.08,1-2,.65-4.09,1.2-6.14,1.79a.6.6,0,0,0-.43.39c4.7,0,9.4,0,14.1,0q2.94,0,5.86.19a5.21,5.21,0,0,1,4.84,4.76,165.56,165.56,0,0,1,1.44,29.94c-.42,8.47-.19,17-.23,25.47,0,2.38.08,4.76.11,7.14.11,11.73.2,23.45.35,35.18.06,4.27.27,8.54.4,12.81a12.25,12.25,0,0,1-.05,2,2.34,2.34,0,0,1-2.36,2.29c-2.52.38-5,.83-7.56,1.23a11.41,11.41,0,0,1-2.17.22c-4.76-.16-9.51-.42-14.27-.53-4.28-.1-8.55-.06-12.83,0-2.93,0-5.86.25-8.79.19a18,18,0,0,1-3.9-.83,1.89,1.89,0,0,1-1.43-1.88c-.38-3.89-.85-7.77-1.22-11.65-.52-5.47-1.14-10.94-1.39-16.42-.23-5-.21-10,0-15,.36-7.07,1-14.14.74-21.23-.24-5.8-.68-11.59-.83-17.38-.16-6.23-.09-12.46-.11-18.7,0-3.72-.06-7.45,0-11.17a9.93,9.93,0,0,1,.67-3.18,3.86,3.86,0,0,1,3.71-2.77c3.54-.09,7.07-.21,10.61-.35,3-.13,6-.3,8.94-.46Zm-142.76,45h-.11c0-4,0-8.06,0-12.09q0-4.94-.09-9.87c0-4-.1-8.05-.2-12.08a7.89,7.89,0,0,0-.38-2c-.42-1.43-.82-1.7-2.36-1.74-1.71-.06-3.42-.07-5.12-.19-3.83-.27-7.65-.83-11.48-.86-8.06-.07-16.12.09-24.18.25a76.82,76.82,0,0,0-8,.57c-2.11.27-2.12.5-2.21,2.59-.1,2.31-.21,4.64-.47,6.94a57.09,57.09,0,0,0-.13,12.6,134.07,134.07,0,0,1,.67,16.28c-.1,6.34,0,12.69,0,19,0,3.66-.22,7.32-.28,11-.11,6.47-.31,12.94-.23,19.41.1,7.63.45,15.26.71,22.88,0,1.22.13,2.44.28,3.64.23,1.71.35,1.92,2.12,2.21s3.39.34,5.09.47c2.61.2,5.22.54,7.83.54,4.76,0,9.52-.33,14.28-.31,7.33,0,14.64-.36,21.94-.85,1.84-.12,2.19-.45,2.32-2.32.08-1.16.08-2.32.17-3.47.3-4.26.79-8.52.88-12.78.13-5.92.08-11.85-.1-17.77-.2-7.07-.74-14.14-.9-21.22S252.63,213.51,252.63,206.55Zm123.12,73.71a8.6,8.6,0,0,0,4.49,1.09c6.29-.1,12.58-.27,18.86-.27,2.81,0,5.61.36,8.42.46a89.9,89.9,0,0,0,9.14,0c2.72-.19,5.39-.91,8.1-1.31a1.31,1.31,0,0,0,1.31-1.43c0-.42,0-.85,0-1.28-.13-4-.33-8.05-.38-12.08-.16-12.52-.25-25-.38-37.55,0-.73,0-1.47,0-2.2,0-9.77-.27-19.56.18-29.31a157.36,157.36,0,0,0-1.56-29.75,3.13,3.13,0,0,0-1.13-2c-1.44-1.36-3.2-1.37-5-1.35l-32.43.34c-2.75,0-5.5,0-8.25,0-2.28,0-3.23.88-3.95,3.07a7,7,0,0,0-.26,2.16q0,5.67,0,11.36c0,6,0,12,.14,17.95.16,5.8.61,11.59.84,17.38a197.13,197.13,0,0,1-.79,21.6,122.36,122.36,0,0,0,.22,18.66c.42,5.17.91,10.34,1.42,15.5C375,274.37,375.41,277.33,375.75,280.26Zm17.7-120.35c2.36.13,4.63.75,6.94.16,1.24-.32,2.5-.58,3.73-.91,3.32-.91,2.58-.28,3.13-3.75.43-2.74-.48-3.81-3.2-4.26a10,10,0,0,0-1.81-.16c-3.48,0-6.95.11-10.43.2-.47,0-1.1,0-1.38.27-1.26,1.21-2.73.82-4.17.72-2.61-.18-5.22-.56-7.83-.56-7.08,0-14.17.08-21.24.29a34.8,34.8,0,0,0-9.38,1.44c-4.36,1.36-8.72,2.74-13.09,4.07-6.12,1.87-12.27,3.61-18.37,5.55-4.53,1.43-9,3.14-13.49,4.62-2.95,1-6,1.7-8.93,2.62-3.49,1.09-7,2.22-10.42,3.42a115.84,115.84,0,0,0-11.14,4.11,93,93,0,0,1-13.2,5.34c-1.4.41-2.78.93-4.13,1.47-.39.16-.94.57-1,.89-.09,1.91,0,3.83,0,5.93l1.11-.42c6.22-2.49,12.36-5.22,18.68-7.43,12.33-4.3,24.45-9.09,36.34-14.49a83.47,83.47,0,0,1,13.27-4.65c7.25-1.91,14.52-3.67,21.87-5.15,3.41-.69,6.77-1.59,10.28-1.65,7-.14,13.91-.32,20.87-.46a22.91,22.91,0,0,1,5.11.1,28.77,28.77,0,0,0,10,.07c1.51-.21,1.75.05,1.82,1.66C393.41,159.24,393.43,159.53,393.45,159.91Z"/><path d="M156.46,106.76c-.34,6.89-.67,13.78-1,20.67a32.66,32.66,0,0,1-.35,3.27,6.1,6.1,0,0,1-2.05,4,15.8,15.8,0,0,0-2.38,3,6.18,6.18,0,0,0-1,3.81c.16,7.63.26,15.27.38,22.9.11,7.26.38,14.53.25,21.79-.1,5.85-.66,11.7-1.07,17.55-.64,8.9-.9,17.81-.67,26.73.15,5.92.63,11.83.66,17.75.06,9.59-.11,19.17-.23,28.76-.13,11.29-.42,22.59-.45,33.88,0,8.55.37,17.1.38,25.65,0,6.41-.34,12.81-.43,19.22-.14,9.16-.2,18.32-.28,27.47,0,2.69,0,5.38,0,8.06,0,.57.19,1.44-.65,1.48s-.82-.87-.83-1.51c-.1-6.72-.23-13.44-.26-20.15,0-4.15-.05-8.31.24-12.45.69-9.69.84-19.39.73-29.1-.08-7.27-.45-14.53-.39-21.8.1-12.33.39-24.66.7-37,.28-11.61-.06-23.2-.57-34.8a269.85,269.85,0,0,1,.79-35.51,232.73,232.73,0,0,0,.82-30.56c-.39-9.09-.49-18.18-.66-27.28a11,11,0,0,1,3.58-8.63,6.19,6.19,0,0,0,2.05-4.32c.36-6.16.85-12.31,1-18.47.15-7.08,0-14.16-.1-21.24,0-1.47-.1-2.93-.13-4.39a3.31,3.31,0,0,1,.15-1.26c.08-.21.45-.37.71-.41s.43.24.5.42a2.68,2.68,0,0,1,.12.9q.26,9,.48,17.94c0,1.22,0,2.44,0,3.66Z"/><path d="M210.87,259.2c-.22-4.56-.16-9.17-.71-13.69a142.83,142.83,0,0,1-.7-27.57c.85-11.87.18-23.66-.41-35.49a10,10,0,0,0-.07-1.09c-.33-2.13,1.06-3.29,2.74-3.66a27.92,27.92,0,0,1,6.32-.89c4.15,0,8.3-.16,12.45-.15,2.81,0,5.61.18,8.41.34a4.55,4.55,0,0,1,1.74.52c.25.13.57.65.5.85-.81,2.14-.08,4.25.22,6.32a84.62,84.62,0,0,1,.22,23.36,8.62,8.62,0,0,0,.18,2.31,46.43,46.43,0,0,1,.79,5,106.64,106.64,0,0,1-1.12,19.71,26.31,26.31,0,0,0,.39,9.63,50.63,50.63,0,0,1,.85,8.36c.13,3,.07,6,0,9-.07,3.72-.24,7.44-.35,11.16a1.05,1.05,0,0,1-1.1,1.17c-.91.06-1.82.18-2.73.2-2.5,0-5,0-7.5,0-3.24,0-6.48.22-9.71.05s-6.4-.71-9.6-1.06c-1-.1-1.32-.63-1.32-1.58,0-4.28,0-8.55,0-12.82ZM224.27,182a7.74,7.74,0,0,0-5.51,1.67,13.79,13.79,0,0,0-5.28,12.73,7.35,7.35,0,0,0,1.25,3.72,30.37,30.37,0,0,0,4.23,4c3,2.58,6.52,3.14,10.26,2.68a8,8,0,0,0,5.39-2.43,26.69,26.69,0,0,0,3.12-4.49,12.83,12.83,0,0,0-1.79-14.65,5.55,5.55,0,0,0-1.77-1.24A23,23,0,0,0,224.27,182Zm-12.65,28.31c-.28,3.09-.73,6-.77,8.91-.1,6.53,0,13.06,0,19.58a4.41,4.41,0,0,0,0,.73c.18,1.1.56,1.43,1.69,1.5a13.34,13.34,0,0,1,2,.12,48.69,48.69,0,0,0,12.75.59c3.89-.23,7.76-.82,11.67-.71a2.48,2.48,0,0,0,.63-.23c0-.69.07-1.4.11-2.12.1-1.58.07-3.18.32-4.74a101,101,0,0,0,1-18.79,10.74,10.74,0,0,0-1.13-5c-1.08.15-2.12.23-3.12.45a39.51,39.51,0,0,1-11.64.44c-4.25-.34-8.51-.54-12.77-.8A4.77,4.77,0,0,0,211.62,210.32Zm2.61,47.76c-.61,3-.12,5.65,2.31,7.54a42.15,42.15,0,0,0,5.44,3.67,6,6,0,0,0,5,.41c.74-.26,1.55-.33,2.32-.52,2.07-.51,4.28-.95,5.84-2.45,3.55-3.43,5.66-7.48,4.28-12.64-.71-2.65-1.85-5.05-4.35-6.51-1.42-.83-2.84-1.67-4.33-2.36a7.61,7.61,0,0,0-5-.69,15.29,15.29,0,0,0-10.39,8.75,11.51,11.51,0,0,0-.57,2.58l.28.13c3.62-3.22,7.23-6.45,10.91-9.74.46.2,1,.43,1.56.7,1.53.74,1.78,1.91.65,3.21a9.84,9.84,0,0,1-1.33,1.25c-2,1.6-4,3.17-6,4.76-.42.33-.82.69-1.36,1.15,1,.84,1.84,1.6,2.72,2.34,1.72,1.44,3.55,2.78,5.17,4.33,2,1.93,1.83,2.85-.58,4.34a1.64,1.64,0,0,1-.43.07C221.71,265.77,218.6,261.29,214.23,258.08Zm24.89-79.53c-2.62-.13-5.35-.36-8.08-.39-3.78,0-7.57.12-11.35.12a27.47,27.47,0,0,0-7.06.73c-1.88.5-2.22.93-2.13,2.93.3,6.71.56,13.41.82,20.12.08,2.18.11,4.36.16,6.66l12.35.77,4.75.3a44.44,44.44,0,0,0,10.16-1,1.51,1.51,0,0,0,1.42-1.58c.16-2,.44-4,.57-6,.09-1.3,0-2.6,0-3.9a1.16,1.16,0,0,0-.6.75,19.86,19.86,0,0,1-3.53,6.36,9.36,9.36,0,0,1-4.37,3.21,16,16,0,0,1-7.23.69,13.45,13.45,0,0,1-5-1.62,26.11,26.11,0,0,1-6.73-5.85,5.57,5.57,0,0,1-1-2.3A16,16,0,0,1,215,185.18a9.91,9.91,0,0,1,7.42-4.55,26.29,26.29,0,0,1,10.12,1.06c2.51.81,4.69,2.05,5.93,4.54.56,1.1,1.2,2.15,1.92,3.42C240,185.86,239.56,182.3,239.12,178.55Zm1.5,94.34c.21-4.15.41-8.18.61-12.21a24.15,24.15,0,0,0-2.18,3.6,11.07,11.07,0,0,1-6.88,5.62c-1.64.47-3.32.8-4.95,1.27a7.55,7.55,0,0,1-4.16.06,18.44,18.44,0,0,1-8-5,7.31,7.31,0,0,1-2.54-4.52c0-.19-.24-.36-.55-.8v11.09a10.29,10.29,0,0,0,1.65.45,91.11,91.11,0,0,0,13.31.78c4.08-.15,8.17-.14,12.25-.22A14.08,14.08,0,0,0,240.62,272.89ZM212.4,258.57c.88-3.07,1.3-6.18,3.28-8.91s4.63-4.35,7.58-6.17l-11.67-1C211.86,248,212.13,253.27,212.4,258.57Zm27.31-15.89c-3.21-.41-7.7-.12-9.4.59l4.49,2.43a10.48,10.48,0,0,1,5.4,6.13c.21.64.52,1.24.79,1.85C240.83,249.93,241,246.19,239.71,242.68ZM215.92,257.3c.5.54.77.86,1.07,1.15,1.55,1.46,3.07,2.95,4.66,4.37,1.31,1.18,2.69,2.3,4.06,3.41.43.35.95.67,1.37-.18a15.31,15.31,0,0,0-3.47-3.39c-1.68-1.31-3.36-2.63-5-4.05-1.29-1.15-1.2-1.65.13-2.79.19-.16.38-.3.58-.45,2-1.58,4-3.14,6-4.74.69-.56,1.3-1.22,2-1.89-.84-.72-1.35-.62-2,0-2.07,1.9-4.22,3.71-6.31,5.57C218.05,255.23,217.06,256.22,215.92,257.3Z"/><path d="M383.74,174.15c1.32-.54,2.77-.16,4.19-.14s3,.24,4.56.2c5.06-.13,10.12-.35,15.19-.53,1.71-.06,3.42-.11,5.13-.08a24.73,24.73,0,0,1,2.88.37c.23,2.89.62,5.67.64,8.46.06,6.59,0,13.18-.1,19.77-.05,3.72-.23,7.43-.31,11.15a23.54,23.54,0,0,0,.2,3.46,92.74,92.74,0,0,1,.37,13.54c-.05,4.51.05,9,.14,13.53.12,5.49.29,11,.45,16.47.08,2.75.2,5.49.28,8.24,0,.47-.05,1-.09,1.63-10.74.22-21.38,0-32.17.12-.11-1.9-.3-3.58-.3-5.26,0-3.18.16-6.35.14-9.53-.06-6.34-.32-12.69-.28-19,0-5.06.44-10.11.58-15.18a132.3,132.3,0,0,0-.16-14.63c-.32-3.94-.1-7.93-.16-11.89-.05-2.87-.17-5.74-.28-8.6s-.24-5.74-.42-8.6C384.16,176.55,383.93,175.5,383.74,174.15Zm30.41,13.24c-.19-4.21-1.6-6.42-5.18-7.63a18.22,18.22,0,0,0-3.53-.94c-4.31-.57-8.74.93-10.92,5a34.35,34.35,0,0,0-2.1,4.26c-.93,2.51-1.93,5-1.65,7.81a3.8,3.8,0,0,0,1.76,3c3.38,2.25,7,3.46,11.08,2.53,4.47-1,8.09-3.23,9.39-8C413.55,191.5,413.78,189.42,414.15,187.39Zm-12.47,46.06c2.38,0,4-.17,5.48-1,4.53-2.58,7.6-8.86,6.75-14a8.09,8.09,0,0,0-3.55-5.93c-4.74-2.89-10.32-2.9-14.37,1.79-2.53,2.93-3.8,6.5-4.85,10.13-1,3.43,0,5.62,3.11,7.29a10.5,10.5,0,0,0,2.73,1C398.76,233.11,400.58,233.3,401.68,233.45Zm3.25,9.3a11.28,11.28,0,0,0-9.54,4.7,22.8,22.8,0,0,0-3.81,8.05c-.73,2.9-.3,5.3,2.36,7,.36.22.62.6,1,.82,3.29,2,6.78,3.28,10.52,1.44a16.91,16.91,0,0,0,8.42-8.8c1.23-3,.16-8-2.83-10.24a17.29,17.29,0,0,1-1.56-1.27A5.51,5.51,0,0,0,404.93,242.75Zm10.56,14.38-.31-.08a6.28,6.28,0,0,0-.45.69,20,20,0,0,1-7.35,7.75,9.81,9.81,0,0,1-4.79,1.61c-5.23.33-11.19-3.22-13.2-8.13-1.89-4.6-2-9,.6-13.32a15.84,15.84,0,0,1,3.52-3.91,12,12,0,0,1,11-2.59c3.77.85,6.47,3.27,8.74,6.25.64.82,1.25,1.66,1.88,2.5l.27-.14c-.2-3.32-.4-6.63-.61-10.16-4.94.24-9.62.41-14.31.71s-9.46-.37-14.18.26c0,.51-.07.82-.05,1.12a211.85,211.85,0,0,1,0,22,32.18,32.18,0,0,0,.41,7.12h29.2C415.74,264.81,415.62,261,415.49,257.13Zm-.37-31.72-.34,0c-.71,1.28-1.32,2.61-2.13,3.81-2.82,4.19-6.63,6.39-11.83,5.65-1.08-.16-2.17-.29-3.25-.47-4.4-.73-7.7-3-8.86-7.39-1.21-4.62-1.25-9.31,1-13.76a9.76,9.76,0,0,1,6.86-5.57,20,20,0,0,1,13,1.6A12,12,0,0,1,414.2,213a19.25,19.25,0,0,0,.47-6,4.52,4.52,0,0,0-.68-.14c-6.54-.1-13.07-.25-19.6-.25-2.48,0-5,.35-7.58.56,0,.9,0,1.56,0,2.22,0,4.27,0,8.54-.14,12.81-.12,4.45-.38,8.9-.56,13.35a7.83,7.83,0,0,0,.14,1.28c9.6.22,19-.12,28.51-.73Zm0-32.22-.33-.05-.44,1.32a10.84,10.84,0,0,1-3.67,5.37c-5.27,3.93-11.53,4.59-17.34,1.33a9.89,9.89,0,0,1-3.71-3.17c-.43-.67-1.22-1.11-1.27-2.05-.16-2.49-.5-5-.47-7.48a16,16,0,0,1,2.11-8.23,12.13,12.13,0,0,1,4.77-4.68h-9c0,1,0,1.94,0,2.84.21,6.41.44,12.81.63,19.21.07,2.2,0,4.4.08,6.59a9.72,9.72,0,0,0,.25,1.48c2.25-.19,4.31-.52,6.36-.53,6.48,0,13,.08,19.42.12.7,0,1.4-.06,2.12-.09C414.79,201,414.94,197.11,415.08,193.19Zm-10.19,47.89c-4.63-1.72-8.56-.34-11.77,3-2.95,3.09-4.43,6.78-3.2,11.42.19-.49.33-.75.4-1a20.88,20.88,0,0,1,3.17-7,12.55,12.55,0,0,1,7.34-5.69C402.16,241.51,403.54,241.33,404.89,241.08Zm-15.54-49.7c1.41-3,2.62-5.92,4.13-8.68a10.1,10.1,0,0,1,7.57-5.18l2.31-.43a27.68,27.68,0,0,0-4.21-.47,11.46,11.46,0,0,0-2.17.25,7.23,7.23,0,0,0-5.1,3.18C389.5,183.52,389.17,187.37,389.35,191.38Zm13.19,17.45c-4.07-.39-7.78-.07-10.37,3.3-2.39,3.1-3.07,6.7-2.45,10.9,1.08-2.4,1.93-4.48,2.93-6.49a13.25,13.25,0,0,1,5.52-5.95A38.55,38.55,0,0,1,402.54,208.83Zm12.3-26.91c-.14-1.81-.27-3.62-.45-5.43-.13-1.31-.24-1.44-1.57-1.44-2.56,0-5.11.1-7.66.18-.12,0-.24.2-.49.42C409,176.27,412.6,177.9,414.84,181.92Z"/><path d="M228.09,238.87a20.75,20.75,0,0,1-10.15-2.48c-5.72-3.29-7.16-11-4.34-15.77.69-1.15,1.38-2.31,2.16-3.39,1.9-2.64,4.78-3.65,7.75-4.41a18.87,18.87,0,0,1,2.7-.38c4.43-.48,7.89,1.6,11,4.39a9,9,0,0,1,2.8,5.63,16.07,16.07,0,0,1-1,8.61,17.24,17.24,0,0,1-5.93,6.82C231.63,238.93,229.82,238.85,228.09,238.87Zm-1-1.45c3.6-.14,4.47-.25,5.4-1,3.16-2.49,5.6-5.45,6-9.64.45-4.5-.58-8.4-4.85-10.75-1.58-.88-3.29-2-5-2.1-5.41-.27-10.19,1.09-13.21,6.26-2.09,3.58-2.43,7.09-.56,10.76a10.39,10.39,0,0,0,1.76,2.49C219.81,236.61,223.84,237.16,227.14,237.42Z"/><path d="M223.3,259.29c0-.54-.05-1-.07-1.37-.1-2.51.26-3,2.79-3.09,3-.07,5.95.1,8.92.16.85,0,1.71,0,2.56.06a.84.84,0,0,1,.89.93c0,.79-.07,1.57-.18,2.35-.18,1.25-.61,1.68-2,1.65-2.8-.08-5.59-.27-8.38-.42Zm13.26-2.8c-4.05.07-7.91-.78-11.86.12l.22,1.28c3.93.12,7.72.71,11.64.55Z"/></svg>