<svg xmlns="http://www.w3.org/2000/svg" width="500" height="350" viewBox="0 0 500 350"><path d="M352.53,85.85l-2-.12c-1.5-.1-1.6-.23-1.4-1.82,0-.16,0-.32,0-.55a13,13,0,0,0-1.4,0,21.42,21.42,0,0,1-8.25-.25,5.8,5.8,0,0,0-1.72-.11q-8.93.24-17.84.51c-.46,0-.93,0-1.39,0a43.86,43.86,0,0,0-12.18,1.26c-7.11,1.76-14.25,3.38-21.37,5.08a68.07,68.07,0,0,0-12.41,4.32C261.25,99.34,249.71,103.86,238,108c-6.14,2.15-12.11,4.82-18.15,7.26-.32.13-.61.32-1,.5,0,.4-.08.8-.08,1.2,0,7.45-.07,14.91,0,22.36.07,6.7.09,13.42.51,20.1.56,9.06.77,18.12.53,27.19-.09,3.41-.48,6.8-.73,10.19-.09,1.27-.15,2.54-.25,3.81-.19,2.55-.89,3.21-3.41,3.39-7,.51-13.94.8-20.93.79-4.22,0-8.43.31-12.64.3-2.88,0-5.76-.3-8.64-.51-1.72-.13-3.45-.25-5.15-.55-1.86-.33-2.44-1-2.68-2.86-.16-1.26-.25-2.52-.3-3.79-.26-7.45-.61-14.89-.7-22.34-.08-6.06.15-12.13.24-18.19.09-5.71.19-11.43.28-17.55-1.81,1-3.31,1.65-4.69,2.53-4.69,3-9.87,5-15,7.1-2.14.88-4.27,1.77-6.41,2.62a3.7,3.7,0,0,0-2.59,3.16c-.22,1.95-.51,3.89-.76,5.83,0,.34,0,.69-.08,1-1.07,6.39-.71,12.78-.22,19.18a46.16,46.16,0,0,1,0,4.85c-.16,6.76-.46,13.51-.51,20.27-.08,12,0,23.92,0,35.88,0,4.39,0,8.78.07,13.17.13,10.74.31,21.48.42,32.23.08,8.2.12,16.41.07,24.61,0,7.22-.25,14.44-.36,21.66a30.15,30.15,0,0,0,.24,3.28c.05.52,0,1-.6,1-.27,0-.66-.43-.76-.74a5.2,5.2,0,0,1-.23-1.71q.06-8.65.16-17.33c.07-5.89.23-11.78.2-17.67-.07-11.56-.27-23.11-.37-34.67-.05-6.06,0-12.13,0-18.19-.07-9.42-.32-18.83-.28-28.25.06-10.69.4-21.37.52-32,0-3.87-.21-7.73-.32-11.6a69.76,69.76,0,0,1,.51-14c.43-2.44.64-4.91,1-7.37a4.42,4.42,0,0,1,2.85-3.64c1.22-.52,2.42-1.08,3.65-1.58,5.3-2.13,10.67-4.09,15.68-6.88,2.52-1.41,5-2.88,7.61-4.39v-9c-.65.27-1.22.49-1.76.76a84.59,84.59,0,0,1-12.61,4.71c-1.65.51-3.24,1.21-4.91,1.65-3.22.85-6.47,1.62-9.73,2.35-1.93.43-3.22-.71-3.53-3a17.67,17.67,0,0,1-.14-2.42q.19-9.43.42-18.88c.1-3.81.24-7.62.4-11.43.31-7.21.71-14.43,1-21.64.14-4,.16-8,0-12a12,12,0,0,0-1-4.17c-.9-2.11-2.06-4.1-3-6.18a5.64,5.64,0,0,1-.63-2.27c0-5,.11-10,.11-15.08s.85-10.11,1.47-15.15a74.8,74.8,0,0,0,.14-9c0-.86-.1-1.72-.13-2.59,0-.46,0-1,.66-1s.69.47.73,1a56.48,56.48,0,0,1-.48,15.52,63.42,63.42,0,0,0-.91,9.64c-.17,5.37-.14,10.75-.16,16.12a4.5,4.5,0,0,0,.31,1.83c.87,1.88,1.83,3.71,2.77,5.55a13.88,13.88,0,0,1,1.66,6.82q-.31,11.34-.67,22.69c-.16,5-.37,9.93-.52,14.9q-.36,11.6-.67,23.21a29.29,29.29,0,0,0,.1,3.63,7,7,0,0,0,.52,1.8c.27.74.83.84,1.55.68,4.43-1,8.91-1.77,13.15-3.57,2.48-1,5.2-1.51,7.72-2.48,2.84-1.09,5.58-2.45,8.44-3.73,0-1.5.06-2.88,0-4.25-.12-2.37-.37-4.73-.46-7.09-.16-4-.37-8.08-.31-12.11.06-3.29.53-6.56.74-9.84a2.13,2.13,0,0,1,1.9-2.28,40.59,40.59,0,0,1,5.11-.74c6.64-.2,13.29-.31,19.93-.4,3.18,0,6.36,0,9.54.08,2.53.11,5.05.48,7.58.68,2,.15,4,.28,6,.31a2.64,2.64,0,0,1,2.79,1.86,13.11,13.11,0,0,1,.7,3.19c.2,3.23.29,6.46.43,9.78a2.2,2.2,0,0,0,.63,0c4.12-1.49,8.26-2.93,12.34-4.51,2.09-.81,4-2,6.13-2.81,3.5-1.32,7.07-2.45,10.62-3.65,1.86-.63,3.72-1.25,5.59-1.83,1.6-.5,3.21-.93,4.81-1.42,3.19-1,6.43-1.85,9.56-3,7.94-3,16.1-5.28,24.22-7.71,4.58-1.37,9.14-2.82,13.7-4.28a39.9,39.9,0,0,1,8.85-1.51A163.82,163.82,0,0,1,336.86,75c2.53.11,5.06.37,7.59.58a2.93,2.93,0,0,0,2.59-.55,2.07,2.07,0,0,1,1.27-.4c1.15,0,2.31,0,3.46,0,2.37-.06,4.73-.22,7.09-.21a15.57,15.57,0,0,1,3.59.47,3.28,3.28,0,0,1,2.48,2.56c.56,2,0,3.78-.15,5.66,0,.35-.61.82-1,1-1.92.62-3.87,1.14-5.81,1.7a.57.57,0,0,0-.41.37c4.45,0,8.9,0,13.34,0,1.85,0,3.7.06,5.54.18a4.92,4.92,0,0,1,4.58,4.5,156.76,156.76,0,0,1,1.36,28.32c-.39,8-.18,16.06-.21,24.09,0,2.26.07,4.51.1,6.76.11,11.09.19,22.18.33,33.27.06,4,.26,8.08.38,12.13a12.06,12.06,0,0,1,0,1.9c-.17,1.38-.83,1.95-2.23,2.16-2.39.36-4.77.78-7.15,1.16a11,11,0,0,1-2.06.22c-4.5-.16-9-.41-13.49-.51-4.05-.09-8.09-.06-12.14,0-2.77,0-5.54.24-8.31.18a16.55,16.55,0,0,1-3.69-.79,1.77,1.77,0,0,1-1.36-1.77c-.35-3.68-.8-7.35-1.15-11-.49-5.17-1.08-10.34-1.31-15.52-.22-4.73-.21-9.48,0-14.2.35-6.69,1-13.37.7-20.08-.23-5.49-.64-11-.78-16.45-.16-5.89-.09-11.78-.11-17.68,0-3.52-.05-7,0-10.57a9.2,9.2,0,0,1,.63-3A3.65,3.65,0,0,1,334,86.78c3.34-.09,6.69-.2,10-.34,2.82-.12,5.64-.29,8.46-.43Zm-135,42.55h-.11c0-3.82,0-7.63,0-11.44,0-3.11,0-6.23-.09-9.34,0-3.81-.1-7.62-.19-11.42a7.11,7.11,0,0,0-.36-1.87c-.39-1.35-.78-1.6-2.23-1.65-1.62-.05-3.24-.06-4.85-.17-3.62-.26-7.23-.79-10.86-.82-7.62-.06-15.24.09-22.86.24a68.63,68.63,0,0,0-7.58.54c-2,.25-2,.47-2.09,2.45-.1,2.19-.2,4.38-.45,6.56a54.62,54.62,0,0,0-.12,11.92,125.67,125.67,0,0,1,.63,15.4c-.09,6,0,12,0,18,0,3.47-.2,6.93-.26,10.39-.1,6.12-.3,12.24-.22,18.36.09,7.21.42,14.43.67,21.64,0,1.15.12,2.31.27,3.45.21,1.61.33,1.81,2,2.09s3.21.32,4.81.44c2.47.19,4.95.51,7.42.51,4.5,0,9-.31,13.5-.29,6.94,0,13.85-.35,20.76-.8,1.74-.12,2.06-.43,2.19-2.2.08-1.1.08-2.19.16-3.29.28-4,.75-8.05.84-12.08.12-5.6.07-11.21-.1-16.81-.19-6.69-.7-13.38-.85-20.07S217.49,135,217.49,128.4ZM334,198.12a8.17,8.17,0,0,0,4.25,1c5.94-.09,11.89-.25,17.84-.26,2.65,0,5.3.35,8,.43a80.53,80.53,0,0,0,8.65,0c2.57-.19,5.1-.86,7.66-1.24a1.24,1.24,0,0,0,1.24-1.35c0-.41,0-.81,0-1.21-.12-3.81-.31-7.62-.36-11.43-.15-11.84-.24-23.68-.36-35.52,0-.7,0-1.39,0-2.08,0-9.25-.26-18.5.17-27.73a149.39,149.39,0,0,0-1.47-28.13,3,3,0,0,0-1.07-1.87c-1.36-1.29-3-1.3-4.71-1.28l-30.67.32c-2.6,0-5.2,0-7.8,0-2.16,0-3.05.83-3.74,2.9a7,7,0,0,0-.25,2q0,5.39,0,10.75c0,5.66,0,11.33.14,17,.15,5.48.57,11,.79,16.44a185.66,185.66,0,0,1-.75,20.42,115.69,115.69,0,0,0,.21,17.66c.4,4.89.86,9.77,1.34,14.66C333.26,192.54,333.63,195.34,334,198.12ZM350.69,84.27c2.23.13,4.38.72,6.57.15,1.17-.3,2.36-.54,3.53-.86,3.13-.86,2.43-.26,2.95-3.54.41-2.59-.45-3.6-3-4a9.79,9.79,0,0,0-1.71-.15c-3.29,0-6.58.11-9.87.19-.44,0-1,0-1.31.25-1.18,1.15-2.57.78-3.93.68-2.48-.17-4.95-.53-7.42-.53-6.69,0-13.39.08-20.09.28a33.06,33.06,0,0,0-8.87,1.36c-4.12,1.29-8.24,2.6-12.38,3.85-5.79,1.77-11.61,3.42-17.38,5.25-4.28,1.36-8.48,3-12.75,4.37-2.79.92-5.65,1.61-8.46,2.48-3.3,1-6.59,2.1-9.85,3.24a107,107,0,0,0-10.54,3.88,86.9,86.9,0,0,1-12.48,5,41.32,41.32,0,0,0-3.91,1.4c-.37.14-.89.53-.91.83-.08,1.81,0,3.63,0,5.62l1.05-.4c5.89-2.36,11.69-4.94,17.68-7,11.66-4.07,23.12-8.6,34.37-13.7a78.16,78.16,0,0,1,12.55-4.41c6.85-1.8,13.74-3.47,20.69-4.87a54.1,54.1,0,0,1,9.72-1.56c6.58-.13,13.16-.3,19.74-.43a21.69,21.69,0,0,1,4.84.09,27.33,27.33,0,0,0,9.46.07c1.43-.2,1.66,0,1.72,1.57C350.65,83.64,350.67,83.92,350.69,84.27Z"/><path d="M126.52,34c-.32,6.52-.63,13-1,19.55,0,1-.18,2.07-.33,3.1a5.79,5.79,0,0,1-1.94,3.74A14.87,14.87,0,0,0,121,63.22a5.89,5.89,0,0,0-1,3.61c.15,7.22.25,14.44.36,21.65.1,6.88.36,13.75.24,20.62-.1,5.54-.62,11.07-1,16.6-.6,8.42-.85,16.84-.63,25.28.14,5.6.59,11.2.63,16.79.05,9.07-.11,18.14-.22,27.2-.13,10.69-.4,21.37-.43,32.06,0,8.08.35,16.17.36,24.26,0,6.06-.32,12.12-.41,18.18-.13,8.66-.19,17.32-.26,26,0,2.54,0,5.08,0,7.62,0,.54.18,1.36-.61,1.4s-.78-.83-.79-1.43c-.09-6.36-.22-12.71-.25-19.06,0-3.93,0-7.87.23-11.78.65-9.17.8-18.34.69-27.53-.07-6.87-.43-13.74-.37-20.61.09-11.67.37-23.33.66-35,.27-11,0-21.94-.53-32.91a256.23,256.23,0,0,1,.74-33.59,221.49,221.49,0,0,0,.78-28.91c-.37-8.6-.47-17.2-.63-25.8A10.45,10.45,0,0,1,122,59.69a5.87,5.87,0,0,0,1.94-4.09c.34-5.82.8-11.64.92-17.47.14-6.69,0-13.39-.1-20.09,0-1.38-.1-2.77-.12-4.15a3.14,3.14,0,0,1,.14-1.19,1,1,0,0,1,.67-.39c.15,0,.41.22.48.4a2.65,2.65,0,0,1,.11.85q.24,8.49.45,17c0,1.15,0,2.31,0,3.46Z"/><path d="M178,178.2c-.21-4.32-.15-8.67-.67-13a135.32,135.32,0,0,1-.67-26.07c.81-11.23.17-22.39-.39-33.57a9.2,9.2,0,0,0-.06-1c-.32-2,1-3.1,2.6-3.45a26.54,26.54,0,0,1,6-.85c3.93,0,7.85-.15,11.78-.14,2.65,0,5.3.17,7.95.32a4.17,4.17,0,0,1,1.64.5c.25.12.55.6.48.8-.77,2-.07,4,.21,6a80.51,80.51,0,0,1,.21,22.09,7.75,7.75,0,0,0,.17,2.19,41.4,41.4,0,0,1,.74,4.77,99.6,99.6,0,0,1-1.06,18.65,25,25,0,0,0,.37,9.1,47.58,47.58,0,0,1,.81,7.92c.13,2.82.07,5.66,0,8.49-.06,3.51-.22,7-.32,10.54a1,1,0,0,1-1,1.12c-.86,0-1.72.17-2.58.18-2.36,0-4.73,0-7.09,0-3.06,0-6.13.21-9.18.05s-6.06-.67-9.09-1c-1-.1-1.25-.6-1.24-1.5,0-4,0-8.08,0-12.13Zm12.67-73a7.34,7.34,0,0,0-5.21,1.58,13.05,13.05,0,0,0-5,12,7,7,0,0,0,1.19,3.52,28.22,28.22,0,0,0,4,3.79c2.8,2.44,6.17,3,9.71,2.54a7.6,7.6,0,0,0,5.1-2.3,26.35,26.35,0,0,0,3-4.24,12.14,12.14,0,0,0-1.7-13.87,5.47,5.47,0,0,0-1.67-1.17A22,22,0,0,0,190.66,105.18Zm-12,26.78c-.26,2.92-.68,5.67-.72,8.43-.1,6.17,0,12.35,0,18.52a3.94,3.94,0,0,0,0,.69c.17,1,.53,1.36,1.59,1.42a12,12,0,0,1,1.9.11,46,46,0,0,0,12.06.56c3.68-.22,7.34-.77,11-.67a2.5,2.5,0,0,0,.59-.21c0-.66.07-1.34.11-2a44.53,44.53,0,0,1,.3-4.48,95.21,95.21,0,0,0,1-17.77,10.34,10.34,0,0,0-1.07-4.73c-1,.14-2,.22-2.95.42a37.36,37.36,0,0,1-11,.42c-4-.32-8-.51-12.08-.76A5.67,5.67,0,0,0,178.69,132Zm2.47,45.18c-.57,2.88-.11,5.34,2.2,7.13a39.14,39.14,0,0,0,5.13,3.47,5.66,5.66,0,0,0,4.7.39,19.85,19.85,0,0,1,2.19-.49c2-.49,4.05-.9,5.52-2.32,3.37-3.25,5.36-7.08,4.06-11.95-.68-2.51-1.76-4.78-4.12-6.16a43.82,43.82,0,0,0-4.09-2.23,7.15,7.15,0,0,0-4.71-.66,14.46,14.46,0,0,0-9.83,8.28,10.7,10.7,0,0,0-.54,2.44l.27.12L192.26,166c.43.19,1,.41,1.47.65,1.45.71,1.68,1.82.62,3.05a10.14,10.14,0,0,1-1.27,1.18c-1.89,1.51-3.8,3-5.71,4.5-.39.31-.77.65-1.29,1.08.93.8,1.74,1.52,2.58,2.22,1.63,1.37,3.36,2.63,4.89,4.1,1.91,1.83,1.73,2.69-.55,4.1a1.54,1.54,0,0,1-.41.07C188.24,184.41,185.3,180.17,181.16,177.14Zm23.55-75.23c-2.48-.13-5.06-.35-7.64-.37-3.58,0-7.16.12-10.74.11a25.9,25.9,0,0,0-6.68.7c-1.78.46-2.09.88-2,2.77q.42,9.51.77,19c.08,2.06.1,4.12.15,6.3l11.69.73,4.49.28a41.94,41.94,0,0,0,9.61-.93,1.41,1.41,0,0,0,1.34-1.49c.15-1.9.42-3.79.55-5.69.08-1.22,0-2.46,0-3.69a1.11,1.11,0,0,0-.57.71,18.89,18.89,0,0,1-3.33,6,8.88,8.88,0,0,1-4.13,3,15,15,0,0,1-6.84.66,12.84,12.84,0,0,1-4.72-1.53A24.75,24.75,0,0,1,180.3,123a5.2,5.2,0,0,1-1-2.17,15.19,15.19,0,0,1,2.59-12.66,9.36,9.36,0,0,1,7-4.3,24.88,24.88,0,0,1,9.58,1c2.37.76,4.43,1.94,5.61,4.29.52,1,1.13,2,1.81,3.24C205.52,108.82,205.13,105.46,204.71,101.91Zm1.41,89.24c.2-3.93.4-7.74.59-11.55a22.83,22.83,0,0,0-2.06,3.4,10.5,10.5,0,0,1-6.52,5.32c-1.55.44-3.13.75-4.68,1.2a7.19,7.19,0,0,1-3.93,0A17.35,17.35,0,0,1,182,184.9a6.92,6.92,0,0,1-2.41-4.29c0-.17-.22-.33-.51-.75v10.5a9.88,9.88,0,0,0,1.56.42,86.76,86.76,0,0,0,12.59.74c3.86-.15,7.72-.14,11.59-.21A12.35,12.35,0,0,0,206.12,191.15ZM179.43,177.6c.84-2.9,1.23-5.84,3.11-8.43s4.38-4.11,7.17-5.84l-11-1Zm25.84-15c-3-.38-7.28-.11-8.89.56l4.25,2.29a10,10,0,0,1,5.1,5.81c.2.6.5,1.16.75,1.75C206.33,169.42,206.46,165.89,205.27,162.57ZM182.76,176.4c.47.51.73.81,1,1.08,1.46,1.39,2.9,2.8,4.4,4.14,1.25,1.12,2.55,2.17,3.85,3.23.41.33.9.63,1.29-.17a14.29,14.29,0,0,0-3.28-3.21c-1.59-1.24-3.18-2.49-4.69-3.83-1.21-1.09-1.13-1.56.13-2.64l.54-.43c1.92-1.49,3.84-3,5.73-4.48.66-.53,1.23-1.16,1.89-1.79-.79-.68-1.27-.58-1.9,0-2,1.79-4,3.5-6,5.27C184.78,174.44,183.84,175.38,182.76,176.4Z"/><path d="M341.51,97.75c1.24-.51,2.62-.16,4-.13s2.87.22,4.3.19c4.79-.13,9.58-.34,14.37-.5,1.62-.06,3.24-.12,4.85-.09a26.43,26.43,0,0,1,2.73.36c.22,2.73.58,5.36.61,8,.06,6.23,0,12.46-.1,18.7,0,3.51-.22,7-.29,10.54a22.39,22.39,0,0,0,.19,3.28,88.26,88.26,0,0,1,.35,12.8c-.05,4.27.05,8.54.13,12.81.11,5.19.28,10.38.43,15.58.07,2.6.18,5.19.26,7.79,0,.45-.05.89-.08,1.54-10.16.21-20.23,0-30.43.11-.11-1.79-.28-3.38-.29-5,0-3,.16-6,.13-9-.06-6-.3-12-.26-18,0-4.79.42-9.57.55-14.36a127.84,127.84,0,0,0-.15-13.84c-.31-3.73-.09-7.5-.16-11.25,0-2.72-.15-5.43-.26-8.14s-.23-5.42-.39-8.13C341.91,100,341.69,99,341.51,97.75Zm28.76,12.52c-.17-4-1.51-6.07-4.89-7.22a18.72,18.72,0,0,0-3.34-.89c-4.08-.54-8.27.89-10.33,4.75a33.48,33.48,0,0,0-2,4c-.88,2.37-1.82,4.74-1.56,7.39a3.59,3.59,0,0,0,1.67,2.85c3.19,2.12,6.63,3.27,10.47,2.39,4.23-1,7.65-3,8.89-7.54C369.7,114.15,369.92,112.19,370.27,110.27Zm-11.79,43.57c2.25,0,3.77-.16,5.18-1,4.29-2.44,7.19-8.38,6.39-13.22a7.67,7.67,0,0,0-3.37-5.61c-4.47-2.73-9.75-2.75-13.58,1.7-2.4,2.77-3.6,6.14-4.6,9.58-.93,3.24,0,5.31,2.95,6.89a9.74,9.74,0,0,0,2.58,1C355.72,153.52,357.44,153.7,358.48,153.84Zm3.07,8.8a10.67,10.67,0,0,0-9,4.44,21.48,21.48,0,0,0-3.6,7.62c-.7,2.74-.29,5,2.23,6.64.34.22.58.57.92.78,3.12,1.92,6.41,3.11,10,1.37a16,16,0,0,0,8-8.33,9.11,9.11,0,0,0-2.68-9.68,16.86,16.86,0,0,1-1.47-1.21A5.2,5.2,0,0,0,361.55,162.64Zm10,13.59-.3-.07a6.64,6.64,0,0,0-.43.65,18.7,18.7,0,0,1-6.95,7.33,9.15,9.15,0,0,1-4.53,1.53c-4.95.31-10.58-3-12.49-7.69-1.78-4.35-1.88-8.48.57-12.6a15.08,15.08,0,0,1,3.33-3.7,11.33,11.33,0,0,1,10.37-2.45c3.57.81,6.12,3.1,8.27,5.91.6.78,1.18,1.58,1.77,2.36l.26-.12c-.19-3.14-.38-6.28-.58-9.61-4.67.22-9.1.38-13.53.67s-8.95-.36-13.41.24c0,.49-.07.78-.06,1.06a200.05,200.05,0,0,1,.05,20.78,30,30,0,0,0,.38,6.74h27.62C371.78,183.5,371.66,179.87,371.55,176.23Zm-.36-30h-.32c-.67,1.2-1.25,2.47-2,3.6-2.66,4-6.27,6-11.18,5.34-1-.15-2.06-.27-3.08-.44-4.16-.69-7.29-2.83-8.38-7-1.15-4.37-1.18-8.81.91-13a9.22,9.22,0,0,1,6.49-5.26A19,19,0,0,1,365.92,131a11.48,11.48,0,0,1,4.41,3.52,18.39,18.39,0,0,0,.43-5.68,3.55,3.55,0,0,0-.64-.13c-6.18-.1-12.36-.24-18.53-.24-2.35,0-4.7.34-7.17.53v2.1c0,4,0,8.08-.14,12.12-.11,4.21-.36,8.42-.53,12.63a7.24,7.24,0,0,0,.13,1.21c9.08.21,18-.11,27-.69Zm0-30.48-.32,0-.42,1.25A10.18,10.18,0,0,1,367,122c-5,3.73-10.9,4.35-16.4,1.27a9.33,9.33,0,0,1-3.5-3c-.42-.64-1.16-1-1.21-1.94-.15-2.36-.47-4.72-.44-7.08a15.2,15.2,0,0,1,2-7.79,11.5,11.5,0,0,1,4.52-4.42h-8.48c0,1,0,1.83,0,2.69.2,6.06.42,12.11.6,18.17.06,2.08,0,4.16.07,6.23a9.74,9.74,0,0,0,.23,1.4c2.14-.18,4.08-.49,6-.5,6.12,0,12.24.07,18.36.11.66,0,1.33,0,2-.08C370.88,123.17,371,119.46,371.16,115.75Zm-9.64,45.31c-4.39-1.63-8.1-.33-11.13,2.85-2.8,2.92-4.2,6.41-3,10.8a7.32,7.32,0,0,0,.38-1,19.8,19.8,0,0,1,3-6.57,11.82,11.82,0,0,1,6.95-5.38C358.94,161.46,360.24,161.3,361.52,161.06Zm-14.7-47c1.33-2.83,2.48-5.59,3.9-8.21a9.64,9.64,0,0,1,7.16-4.9l2.19-.4a25.92,25.92,0,0,0-4-.44,11,11,0,0,0-2.06.23,6.87,6.87,0,0,0-4.83,3C347,106.61,346.65,110.25,346.82,114Zm12.47,16.51c-3.85-.37-7.35-.06-9.81,3.12-2.26,2.94-2.9,6.34-2.31,10.32,1-2.27,1.82-4.24,2.76-6.15a12.66,12.66,0,0,1,5.23-5.63A35.13,35.13,0,0,1,359.29,130.55Zm11.64-25.45c-.14-1.71-.25-3.43-.43-5.14-.12-1.24-.23-1.36-1.49-1.36-2.41,0-4.83.09-7.24.17-.12,0-.23.19-.46.4C365.43,99.76,368.81,101.29,370.93,105.1Z"/><path d="M194.28,159a19.66,19.66,0,0,1-9.6-2.35,11.31,11.31,0,0,1-4.11-14.92c.65-1.09,1.3-2.18,2-3.21,1.8-2.49,4.52-3.44,7.34-4.16a19.83,19.83,0,0,1,2.55-.37c4.19-.45,7.46,1.52,10.37,4.16a8.48,8.48,0,0,1,2.66,5.32,15.36,15.36,0,0,1-.95,8.15A16.35,16.35,0,0,1,199,158C197.62,159,195.91,159,194.28,159Zm-.91-1.38c3.42-.13,4.23-.23,5.12-.93,3-2.34,5.29-5.15,5.7-9.11.43-4.26-.55-8-4.58-10.17-1.5-.83-3.12-1.91-4.73-2-5.12-.25-9.64,1-12.5,5.93-2,3.38-2.29,6.7-.52,10.17a9.76,9.76,0,0,0,1.66,2.36C186.44,156.83,190.25,157.35,193.37,157.59Z"/><path d="M189.75,178.28c0-.51-.05-.9-.07-1.29-.1-2.38.25-2.88,2.64-2.93,2.81-.06,5.63.09,8.44.15.8,0,1.61,0,2.41.06a.8.8,0,0,1,.85.88c0,.74-.07,1.49-.17,2.22-.17,1.18-.58,1.6-1.86,1.56-2.64-.07-5.28-.25-7.92-.39Zm12.54-2.65c-3.83.07-7.49-.73-11.22.12l.21,1.21c3.72.11,7.3.67,11,.52Z"/></svg>