<svg xmlns="http://www.w3.org/2000/svg" width="500" height="500" viewBox="0 0 500 500"><path d="M247.67,373.35c-.74,1.1-1.32,2-1.95,2.86a11.59,11.59,0,0,1-10.38,4.63c-2.87-.13-4.75-2.18-6.08-4.48a15.66,15.66,0,0,1-1.35-12.86,32.54,32.54,0,0,1,1.56-3.89,1.57,1.57,0,0,0,0-1.67q-5.06-8.67-10-17.39-4.54-7.91-9-15.85c-.78-1.37-1.5-2.78-2.28-4.16-.35-.62-.77-1.19-1.35-2.07-.16.56-.36.9-.27,1a4.86,4.86,0,0,1,.71,3.68,2.87,2.87,0,0,0,1.11,2.72,18.18,18.18,0,0,1,5.13,8.05c1.6,4.39,3.2,8.79,4.94,13.13a22.55,22.55,0,0,1,1.35,11.44c-.59,4.64-.92,9.32-1.35,14a21.16,21.16,0,0,1-2.13,7.13q-3.3,6.92-6.72,13.77a53.52,53.52,0,0,1-3.3,5.87,19.78,19.78,0,0,1-3.71,4.23,44.1,44.1,0,0,1-10.82,6.71,26.66,26.66,0,0,1-13.4,2c-7-.78-13.24-3.63-17.9-9.17-2.38-2.84-4.6-5.83-6.7-8.88-1.72-2.48-2.39-5.42-3.08-8.33a40.39,40.39,0,0,1-1.28-13,68.94,68.94,0,0,1,1.5-9.35c1.33-5.74,2.52-11.52,4.71-17A46.56,46.56,0,0,1,167,329.67a49.27,49.27,0,0,1,11.23-8.37c6-3.1,12.24-4.23,18.87-2.53a5,5,0,0,0,.71.05c.77-2.05,1.6-4.12,2.33-6.23,1.42-4.14,2.56-8.39,4.25-12.41a15.6,15.6,0,0,0,1.3-6.85c-.13-2.95-1.55-5.06-4.37-5.75a58.12,58.12,0,0,0-8.95-1.61c-4.05-.33-8.14-.31-12.21-.37-2.85-.05-4.23,2.32-2.9,4.85a8,8,0,0,0,3.15,3.47c2.33,1.29,4.66,2.67,7.45,2.69.88,0,1.16.51,1.18,1.29.06,2.33-1.6,3.69-4.16,3.28a16.65,16.65,0,0,1-6.74-2.63c-.76-.51-1.47-1.08-2.21-1.62a5.14,5.14,0,0,1-2.05-3.54c-.31-2-.44-4-.71-6a1.86,1.86,0,0,0-.65-1.16,21,21,0,0,0-2.45-1.15c.48,2.79-.48,5-1.27,7.19-.68,1.92-2.12,3.24-3.43,4.66a1.59,1.59,0,0,1-1.44.23c-.6-.28-.42-.93-.14-1.44s.62-1.05.93-1.57a11.4,11.4,0,0,0,1.61-7.87,6,6,0,0,1,.62-3.89,2.29,2.29,0,0,0-.31-3c-.84-.91-.71-1.44.24-2.31a15.71,15.71,0,0,1,1.55-1.28c1.71-1.21,2.84-1,4.13,1.13a12.84,12.84,0,0,1,.81,1.91c.26.05.4.13.48.09,3.41-1.79,7.14-2.69,10.75-3.94a10.9,10.9,0,0,0,5.1-3.63A56.65,56.65,0,0,0,196.35,261a55.36,55.36,0,0,1,9.85-13.53,19.93,19.93,0,0,0,4.59-8.18c1.41-4.71,2.61-9.49,4-14.2A29.69,29.69,0,0,1,220.56,215a17.82,17.82,0,0,1,3.14-2.47l7.55-5.77c-1-1.5-1.93-2.78-2.76-4.11a24.25,24.25,0,0,1-1.84-3.35,5.9,5.9,0,0,0-2.49-3c-3.29-1.79-4.35-4.9-3.11-9s3-7.69,6.72-10.13a12.28,12.28,0,0,1,4.94-2.22c2.58-.4,5.13-1,7.77-.36a8.45,8.45,0,0,1,4.65,2.67,11.79,11.79,0,0,0,2.38,2,7.6,7.6,0,0,1,3.4,6.33,3.32,3.32,0,0,1-2.11,3.66l-.87.41c.2,3.3.39,6.49.58,9.71,3.13-.64,6.08-1.29,9.05-1.84,1.49-.28,3-.35,4.52-.56a27.61,27.61,0,0,0,3.39-.59,33.94,33.94,0,0,1,14.61-.59c6.15,1,12.19.19,17.45-3.72a41.16,41.16,0,0,1,10.76-5.71c2.23-.8,4.42-1.7,6.62-2.58.45-.18.86-.45,1.3-.66a2.52,2.52,0,0,0,1.41-2.81,71.61,71.61,0,0,1,.25-7.46c.05-1.09.28-2.16.33-3.25.07-1.43,0-1.43,1.51-2l1.83-5.75c.35-1.08.86-2,2.15-2.22a1.25,1.25,0,0,0,.72-.48,2.19,2.19,0,0,1,2.55-.94c1.16.31,1,1.35,1.11,2.43a4.78,4.78,0,0,1,.64-.17c1.94-.2,2.49.43,2,2.28-.15.58-.29,1.16-.48,1.91.7-.14,1.26-.29,1.83-.35,1-.12,1.48.4,1.23,1.4a1.5,1.5,0,0,1-.28.67c-1.92,1.95-1.92,4.47-2.14,6.94s-.29,4.86-.75,7.24a12.68,12.68,0,0,1-1.8,4.12,4.19,4.19,0,0,1-2.13,1.58,3.45,3.45,0,0,0-2.07,1.63,14.06,14.06,0,0,1-3.93,4.27q-6.83,5.19-13.62,10.43a14.44,14.44,0,0,1-7.61,3.19,21.53,21.53,0,0,0-5.95,1.61,55.63,55.63,0,0,1-15.68,3.93c-.89.09-1.79,0-3,0,.13,1.31.16,2.45.37,3.55a66.61,66.61,0,0,0,4.12,13.78A233,233,0,0,1,287.61,253c.68,2.17.37,4.32.55,6.48.4,4.7-.71,9.19-2.32,13.56a15.49,15.49,0,0,1-6,7.61c-.51.34-1,.69-1.58,1.09a12.44,12.44,0,0,1-.17,6.82,3.73,3.73,0,0,1-1,1.62,27.73,27.73,0,0,1-9.24,5,13.31,13.31,0,0,1-3.59.31c-.78,0-1.57-.08-2.51-.14-.18,1.79-.32,3.47-.52,5.14-.13,1.13-.3,2.27-.52,3.39-.26,1.31-.62,2.59-.86,3.91a2,2,0,0,0,.24,1.19c1.57,2.81,3.17,5.61,4.76,8.4.12.21.27.39.47.67,3.87-2.1,8.06-2.95,12.31-3.69a15.56,15.56,0,0,1,11,2.25c9.11,5.47,14.59,13.38,16,24q.38,2.71.77,5.42c.69,4.84,0,9.56-.86,14.32-1.16,6.65-3.68,12.82-5.92,19.13a49,49,0,0,1-7.33,12.74,10,10,0,0,1-5.38,3.6c-3.62,1-7.3,1.86-11,2.63a16.21,16.21,0,0,1-13.16-2.85,84.61,84.61,0,0,1-7.12-5.7c-3.36-2.94-4.69-7-5.83-11.15-.36-1.29-.52-2.62-.78-3.94C248,374.38,247.84,374,247.67,373.35ZM225.09,182a47.83,47.83,0,0,0-2.23,4.55,12.92,12.92,0,0,0-.71,3.9,4.24,4.24,0,0,0,2.58,4.23l3.67-2.07a2.17,2.17,0,0,0-1.43-.35,14.15,14.15,0,0,1-1.45.11.77.77,0,0,1-.74-1.14,9.14,9.14,0,0,1,1.21-2,1,1,0,0,1,1-.17c1.35.73,3,1,3.82,2.53l4.31-1.7c.28-.11.64-.22.76-.44.68-1.19,1.3-2.41,1.93-3.63,2.1-.83,3.61-.61,4.78.84l-1.93,1.77c2.36-.15,4.52-.24,6.66-.45a2.25,2.25,0,0,0,2-1.36c.49-1.22-.36-4-1.5-4.88l0,.05a1.52,1.52,0,0,0-1.28-1.29c-.46.52-.89,1-1.34,1.52-.68.76-1.05.78-2,.16-.14-.1-.24-.26-.39-.34-1.47-.78-1.62-1.25-.72-2.55.41-.57.89-1.09,1.47-1.8L240.69,176c0,.44,0,.62,0,.8.08.65,0,1.35-.7,1.49a2.1,2.1,0,0,1-1.64-.41,11,11,0,0,1-1.35-2.18l-1.59.38c-.09,1.35-.11,2.56-.26,3.77a10.47,10.47,0,0,1-.61,2.45,1.33,1.33,0,0,1-.94.63c-.2,0-.59-.41-.68-.7a7.77,7.77,0,0,1-.3-2c0-1.25.1-2.51.16-4l-2.1.74c.1,2.07.22,4,.28,5.94,0,1-.62,1.39-1.55.9a2.89,2.89,0,0,1-1.52-2.71c0-.68,0-1.36,0-2l-.38-.14-2.49,3ZM193.58,365.56c.12.56.47,1.3.29,1.46a2.07,2.07,0,0,1-1.6.57,8.58,8.58,0,0,1-2.2-1.19,1.31,1.31,0,0,1-.48-1.61c.56-2.23,1.07-4.48,1.69-6.7,2-7.21,4.55-14.24,7.25-21.21.68-1.76,1.15-3.59,1.76-5.37a1.69,1.69,0,0,0-.77-2.19,17.24,17.24,0,0,0-6.15-2.56c-6.05-1-11.35.95-16.22,4.12a46.44,46.44,0,0,0-14.93,16.48,38.11,38.11,0,0,0-3.86,11.35c-1.79,8.84-1.94,17.55,1.2,26.23a32.68,32.68,0,0,0,8.8,13.42c3.35,3,7,5.7,11.62,6.48,2.09.35,4.24,1,6.29.06,2.87-1.31,5.74-2.66,8.48-4.22a27.72,27.72,0,0,0,10.94-11.46c1-1.93,2-3.88,2.91-5.88a90.43,90.43,0,0,0,5.21-16.48,34.14,34.14,0,0,0,.49-14.12c-1.33-7-4.5-13.18-8.32-19.1a7.11,7.11,0,0,0-.78-.83C201,343.69,198,354.87,193.58,365.56Zm53.69-104.88c1.29,0,2.73,0,4.17,0a10.07,10.07,0,0,0,3.91-.63c2.9-1.09,5.84-2.08,8.76-3.09a22.93,22.93,0,0,1,10.42-1.24c1.38.18,2.77.35,4.16.51a26,26,0,0,0,8.08-.37c-.21-.83-.34-1.61-.59-2.35-2.43-7.07-4.72-14.19-7.37-21.17-1.84-4.83-4-9.54-5-14.65a60,60,0,0,1-.9-5.94c-.14-1.61.38-2,2-2,.91,0,1.83,0,2.73,0a7.52,7.52,0,0,0,1.43-.39c-1.8-4.17-.89-8.07.53-12-.53-.14-1.06-.3-1.59-.4a25.17,25.17,0,0,0-11,.52c-1.35.34-2.71.67-4.09.88-2,.31-4.11.43-6.14.78-2.27.4-4.52.93-6.76,1.49-.54.13-1.3.53-1.41,1a11.34,11.34,0,0,0-.56,4.09,11.9,11.9,0,0,1-1.38,7.21,5.52,5.52,0,0,1-5.32,3.2,5.33,5.33,0,0,1-5.14-3.73c-.74-2.16-2.57-3.07-3.88-4.38l-9.87,7.28a4.35,4.35,0,0,0-.81.73,30.46,30.46,0,0,0-5.79,10.67c-.76,2.87-1.62,5.73-2.43,8.59-.18.63-.33,1.27-.53,2,1.84.6,3.55,1.2,5.29,1.7a32,32,0,0,0,3.21.65,1.74,1.74,0,0,0,2.08-1.05c.35-.7.78-1.37,1.19-2a52.55,52.55,0,0,1,4.21-5.27,20.61,20.61,0,0,0,2.41,1.07c4.14,1.25,7,4.14,9.29,7.55,1.88,2.76,3.4,5.76,5.23,8.55a9,9,0,0,1,1.42,5.17C247.27,255.83,247.27,258.13,247.27,260.68Zm5.71,108a36.39,36.39,0,0,0,1.07,4.4,42.14,42.14,0,0,0,8.48,13.08,17,17,0,0,0,5.7,4.16,12.65,12.65,0,0,0,12.54-.57c1.46-.88,2.92-1.76,4.33-2.71a19.36,19.36,0,0,0,5.78-6c5.61-9.36,9-19.41,8.85-30.42a65.93,65.93,0,0,0-.79-9.62,36.33,36.33,0,0,0-5.81-14.05,13.46,13.46,0,0,0-8.14-5.82,20.59,20.59,0,0,0-15,2.15,6.14,6.14,0,0,0-1.12,1c.32.74.58,1.42.9,2.06q6.43,12.88,12.87,25.78c.57,1.14,1.11,2.29,1.59,3.48s.07,1.85-1.21,2.24a18.35,18.35,0,0,0-3,1.17,97.37,97.37,0,0,1-19,7.37C258.44,367.07,255.89,367.83,253,368.67ZM228.7,300a31.42,31.42,0,0,0,1.09-3.33,83.1,83.1,0,0,1,8.55-23.38c2-3.68,4.33-7.19,6.49-10.79a3.13,3.13,0,0,0,.63-1.28c.14-3,.25-5.95.26-8.92a5.72,5.72,0,0,0-.63-2.25,19.87,19.87,0,0,0-1.5-2.71c-2.54-3.91-4.62-8.14-8.32-11.22a15.28,15.28,0,0,0-6.16-2.88c-1.08,1.41-2.23,2.75-3.19,4.21-1.34,2-2.59,4.11-3.78,6.23-2.28,4.09-4.58,8.17-6.69,12.33a31.25,31.25,0,0,1-7.21,9.78c-4,3.46-8,6.9-12.1,10.28a11.75,11.75,0,0,0-2.67,3.66c3.41.52,6.57,1,9.74,1.45a1.58,1.58,0,0,0,1-.36c1.84-1.24,3.75-.53,5.62-.16a1.35,1.35,0,0,1,.87.83c.51,2,2.09,2.36,3.77,2.6s3.13.35,4.68.6a2.07,2.07,0,0,1,1.38.65,3.17,3.17,0,0,1-1.71,4.3c-.23.09-.46.16-.7.23a3.06,3.06,0,0,0-2.21,2.64,9.91,9.91,0,0,0,0,2.72,4.59,4.59,0,0,0,4.33,3.93q1.36.09,2.73.24C224.81,299.55,226.67,299.75,228.7,300Zm57.64-42.4a38.21,38.21,0,0,1-3.89.26c-2.73-.13-5.45-.33-8.18-.6a17.79,17.79,0,0,0-7.4.51c-2.88,1-5.77,1.87-8.63,2.89-2.65.94-5.27,1.88-8.15,1.54-.6-.08-1.22.08-1.82,0A2.11,2.11,0,0,0,246,263.5c-.73,1.33-1.56,2.61-2.39,3.88A87.07,87.07,0,0,0,232,293.63c-.13.54-.24,1.1-.32,1.49l8-2.26c.06-.76.19-1.66.2-2.57a12.57,12.57,0,0,1,2.9-7.9,47.31,47.31,0,0,1,5-5.34c4.34-3.91,8.79-7.69,13.22-11.49q1.88-1.6,3.89-3a7.4,7.4,0,0,1,2.13-1c.29-.09.7.25,1.06.39-.2.32-.32.75-.61.95a28.68,28.68,0,0,0-2.63,1.59c-4.66,3.9-9.28,7.86-13.91,11.81-.77.66-1.51,1.35-2.45,2.2a19.4,19.4,0,0,1,8.59,3.64c1.08-.6,2.07-1.17,3.08-1.7.53-.28,1.11-.42,1.37.29s-.33.81-.75,1.05c-.88.5-1.73,1-2.46,1.47L261,290c1.39-.8,2.72-1.54,4-2.31,4.6-2.74,9.22-5.42,13.77-8.24a13.5,13.5,0,0,0,5.8-7.51,62.32,62.32,0,0,0,2-7.95A15.47,15.47,0,0,0,286.34,257.57ZM228.9,305.43a9.91,9.91,0,0,0-.6,7.16,112.7,112.7,0,0,0,6.52,16.8,103.77,103.77,0,0,1,7.09,16.17c.19.59.77,1.38-.14,1.72s-1-.64-1.25-1.2c-.05-.11-.08-.23-.13-.35-1.73-4.07-3.41-8.17-5.23-12.22-1.32-2.93-3-5.72-4.19-8.7-1.5-3.72-2.73-7.54-4-11.35a14.63,14.63,0,0,1-.65-3.94,15.46,15.46,0,0,1,.44-3c-1.49-.17-2.91-.29-4.33-.49-2.52-.36-5-.8-7.55-1.15-1.19-.17-2.39-.2-3.62-.29-.3.8-.49,1.51-.81,2.16a2.89,2.89,0,0,0,.34,3c1.42,2.34,2.72,4.75,4.05,7.14,2.56,4.56,4.94,9.22,7.71,13.65,3.63,5.84,7.36,11.6,10.41,17.78.36.74.82,1.44,1.16,2,2.13-.52,4-1,5.9-1.43a3.78,3.78,0,0,0,2.77-1.87,28.56,28.56,0,0,0,3-7.6,18.89,18.89,0,0,0,.31-3.6,63,63,0,0,0-.18-7.28c-.46-4.17-1.1-8.32-1.79-12.46-.5-3-1.2-5.92-1.82-8.94ZM201,328.34c.09-1.28.2-2.36.23-3.44.08-3.19.06-3.16-2.86-4.18-6.69-2.34-13.06-1.32-19.21,1.8a46.93,46.93,0,0,0-9.76,7,44.89,44.89,0,0,0-13.71,21.35c-1.53,5.24-2.82,10.57-4,15.91a36.52,36.52,0,0,0-.44,14.32c.72,3.89,1.26,7.86,3.28,11.33a82.58,82.58,0,0,0,5.08,7.33,26.92,26.92,0,0,0,11.59,9.14,26,26,0,0,0,19.2.21c3.49-1.21,6.44-3.4,9.48-5.41a16.14,16.14,0,0,0,5.36-5.63c1.47-2.66,2.82-5.38,4.19-8.09,1.87-3.69,3.74-7.37,5.52-11.11a19.74,19.74,0,0,0,2-6.78c.34-4,.53-8,1.15-12a25.31,25.31,0,0,0-1.74-14.25c-1.68-3.9-3-8-4.53-11.92a25.7,25.7,0,0,0-2-4.08,6.74,6.74,0,0,0-2.9-2.94c-.31,1-.56,2-.88,2.88a1.77,1.77,0,0,0,.32,1.85,56.06,56.06,0,0,1,6,10.41c2.76,5.94,4.42,12.13,3.82,18.72a65.21,65.21,0,0,1-1.42,8.44,77.36,77.36,0,0,1-6.79,19,36.76,36.76,0,0,1-5.86,8.55,40.47,40.47,0,0,1-13.7,8.85,11.7,11.7,0,0,1-3.63,1.1,18.82,18.82,0,0,1-9.24-1.67,33.14,33.14,0,0,1-17.76-20.7,36.24,36.24,0,0,1-2.18-11.42,64.18,64.18,0,0,1,.72-11.82c1.19-7.24,3.49-14,8-19.91a57,57,0,0,1,9.77-10,28.72,28.72,0,0,1,5.08-3.19,24.73,24.73,0,0,1,12.26-3,14,14,0,0,1,6.9,1.91C199.16,327.39,200,327.79,201,328.34Zm51.08-47.46c-1.41-.3-2.69-.63-4-.81a2.1,2.1,0,0,0-1.51.39c-3.52,3.15-5.68,7-5.23,11.86.31,3.44.82,6.88,1.47,10.27.83,4.35,2,8.65,2.82,13,.7,3.63,1.17,7.31,1.73,11a16.38,16.38,0,0,1,.19,2c.09,2.6.16,5.2.25,7.9l6.9.8c.73-5.16,1.54-10.13,2.12-15.12.41-3.5.65-7,.72-10.54A17.3,17.3,0,0,0,254,300.5c-1.39-1.82-1.71-3.2.45-5.45a18,18,0,0,1,3.59-2.78,2,2,0,0,0,1.1-2.41c-.5-1.61-1.13-3.19-1.76-4.76a.92.92,0,0,0-1.35-.53c-1.42.69-2.52.15-3.67-.7-.77-.56-1.08-1.09-.65-2C251.79,281.64,251.88,281.36,252.06,280.88Zm-2.92,88.75a31.12,31.12,0,0,0,1.43,9.64c1,3.34,2,6.73,4.72,9.11a81.5,81.5,0,0,0,8.45,6.62,12.67,12.67,0,0,0,9.58,2.09c4.11-.81,8.2-1.71,12.24-2.79a8.62,8.62,0,0,0,4.73-3.25,47.26,47.26,0,0,0,7-12.32c2.21-6.18,4.68-12.25,5.81-18.77.76-4.4,1.48-8.76.87-13.23-.33-2.47-.69-4.93-1.1-7.39-1.6-9.81-7-16.9-15.56-21.76a12.41,12.41,0,0,0-7.1-2,41.94,41.94,0,0,0-11.54,2.51,29.59,29.59,0,0,0-2.65,1.32l2.05,3.29a23.19,23.19,0,0,1,14-3.56A16.28,16.28,0,0,1,292.58,324a24.55,24.55,0,0,1,3.95,5.88,34.17,34.17,0,0,1,4.1,11.82,56,56,0,0,1-3.16,29.22,92.27,92.27,0,0,1-4.88,10.18c-3.2,5.77-8.57,9-14.42,11.47a12,12,0,0,1-5.38.56,16.39,16.39,0,0,1-10.46-5,44.55,44.55,0,0,1-8.92-12.59,37.61,37.61,0,0,1-1.68-5.37,12.86,12.86,0,0,1-.23-1.29Zm16.54-43a20.22,20.22,0,0,0-1.75,1.95c-2.27,3.31-4.49,6.66-6.76,10a3.23,3.23,0,0,0-.57,2.58c.17.83.29,1.68.51,2.5a1.35,1.35,0,0,0,.55.84,2.73,2.73,0,0,1,1.39,2.76c0,2.74,0,5.48-.08,8.21-.09,2.29-.87,3-3.16,3.16-1,.07-1.92.08-2.81.11-.56,1.84-.56,2-.06,3.54,9.65-1.5,18.92-4.55,28.43-6.69C280.38,352.32,268.57,330.52,265.68,326.64Zm-49.33-23.26c-1.48-1.82-2.94-3.52-4.29-5.3a8.18,8.18,0,0,1-1.69-5.82c.07-.82,0-1.66,0-2.49l-2.72-.71c.22.89.38,1.53.53,2.17.75,3.07-.13,6-.58,9-.06.36-.56.77-1,1a3.25,3.25,0,0,0-1.73,2.19c-.85,2.66-1.8,5.29-2.74,7.92s-1.94,5.35-2.95,8.13a4.86,4.86,0,0,0,1.39.19c1.64-.29,1.75-.29,1.9,1.24a30.53,30.53,0,0,1-.38,9.44c-.91,4.44-2.8,8.54-4.34,12.76a143.18,143.18,0,0,0-6.25,20.55,7,7,0,0,0-.06,1.12,1.8,1.8,0,0,0,1.08-1c.71-1.67,1.48-3.34,2.07-5.06,3.29-9.59,6.53-19.21,9.8-28.81a23.21,23.21,0,0,0,1.3-7.51,2.66,2.66,0,0,0-.27-1.58c-1.08-1.27-.49-2.39.13-3.52a1.17,1.17,0,0,1,2.15-.12,23.33,23.33,0,0,1,1.59,2.45q3.74,6.48,7.41,13c4.13,7.3,8.23,14.62,12.36,21.93.52.93,1.14,1.81,1.76,2.79L232.6,356c-1.16-2.1-1.12-2.47.33-4.52a157.14,157.14,0,0,0-9.49-16.81c-1.6-2.44-3.14-4.92-4.57-7.47-2.68-4.76-5.25-9.6-7.89-14.39-.76-1.38-1.67-2.69-2.42-4.07a2.08,2.08,0,0,1-.22-1.51c.37-1.06,1-2.05,1.43-3.09.55-1.22.83-1.38,2.07-1.24C213.33,303.1,214.82,303.23,216.35,303.38Zm64.75-94.19a40.77,40.77,0,0,0,10.68-3,26.68,26.68,0,0,1,7.89-2.08,9,9,0,0,0,4.53-1.74q2.26-1.68,4.52-3.39c3.81-2.92,7.62-5.83,11.42-8.77a8.5,8.5,0,0,0,2.81-3.49,16.77,16.77,0,0,1-2.88-1.06,13.49,13.49,0,0,1-2-1.75c-2.82,1.16-5.53,2.4-8.33,3.38A42.63,42.63,0,0,0,298,193.46a15.73,15.73,0,0,1-6.57,3c-2.8.53-5.64.84-8.45,1.26-1.92.29-2.5.83-2.82,2.74-.24,1.44-.42,2.89-.52,4.34A5.68,5.68,0,0,0,281.1,209.19Zm-87.56,66.93a3.45,3.45,0,0,0,.59-.3c4.75-4.07,9.59-8.05,14.21-12.26a27.82,27.82,0,0,0,4.2-5.46c1-1.52,1.56-3.29,2.44-4.88,2-3.61,4.08-7.19,6.12-10.78.22-.39.4-.81.54-1.1l-9-2.54c-.15.46-.25.8-.37,1.14a24.06,24.06,0,0,1-5.11,8.72,58.29,58.29,0,0,0-9.85,13.73c-1.47,2.84-3.33,5.5-5,8.21-.59.91-1.31,1.73-2.09,2.76C191.33,274.34,192.45,275.23,193.54,276.12Zm42.91,82.47-1.59-.74a1.87,1.87,0,0,0-2.61.44,7.06,7.06,0,0,0-1.21,1.58,17.38,17.38,0,0,0-2.35,9.62,12,12,0,0,0,1.73,5.9c2.69,4.11,5,4.74,8.9,3.49a9.79,9.79,0,0,0,5.59-4.12c1.54-2.43,3.06-4.85,3.08-7.87a13.73,13.73,0,0,0-1.65-6.43A2.43,2.43,0,0,1,244,362a36.64,36.64,0,0,1-4.68-.06c-2.36-.41-2.4-.22-2.81-2.54C236.45,359.18,236.47,358.94,236.45,358.59ZM226.21,195.71a20.26,20.26,0,0,1,1.48,2.29,30.83,30.83,0,0,0,8.48,11.24,5.62,5.62,0,0,0,6.85.34c1.26-.83,1.7-2.19,2.51-3.3A7.12,7.12,0,0,0,247,202c0-1.94-.17-3.89-.15-5.83a11.74,11.74,0,0,0-1.38-4.85,2.25,2.25,0,0,0-2.72-1.51c-.95.15-1.94.12-2.88.31-4.52.9-8.58,3-12.71,4.9A5.5,5.5,0,0,0,226.21,195.71ZM245.8,343.87l-.5,1.86c1.07,1,2,1.84,2.91,2.75.55.57,1.1,1.33.52,2.11s-1.39.41-2.13.05c-.34-.17-.72-.26-1.33-.48.21.54.33.8.41,1.07.18.64.49,1.44-.22,1.8-.42.22-1.14,0-1.68-.2a6.84,6.84,0,0,1-1.35-.75c-.16.66-.11,1.43-.47,1.78-.63.62-1.36,0-2-.33-1.14-.67-2.23-1.4-3.54-2.24a3.92,3.92,0,0,0-2.52,1.53c-.81.9-.8,1.25,0,2.2a6.74,6.74,0,0,0,5.62,2.49c5.34-.05,10.68-.23,16-.36a4.45,4.45,0,0,0,.72-.1,1.36,1.36,0,0,0,1.23-1.36c0-2.1,0-4.19,0-6.5-1.32,1-2.33.48-3.26-.29-1.12-.93-2.23-1.89-3.32-2.85A8,8,0,0,0,245.8,343.87Zm73.08-166.21c.17,1.68.25,3.38.57,5a2.66,2.66,0,0,0,1.31,1.64c3.28,1.45,6.35,1.29,7.63-2.93a24.6,24.6,0,0,0,1-9.19c0-.28-.08-.68-.27-.82-1.51-1.18-3-2.49-5.17-1.56a1.53,1.53,0,0,0-1.14,1.6,19.83,19.83,0,0,1-.41,3.42,3.05,3.05,0,0,1-1.92,2.27C320,177.31,319.54,177.43,318.88,177.66Zm-113,104.06A10.87,10.87,0,0,0,205,283c-.17.33-.43.94-.29,1.08,1.13,1.19,1.58,3.08,3.53,3.46a19.06,19.06,0,0,1,1.9.61c1.46.47,1.86,1,1.84,2.51,0,.61-.07,1.21-.13,1.82a5.8,5.8,0,0,0,.95,4,32.93,32.93,0,0,0,4.33,5.13,12.49,12.49,0,0,0,8,3.23c.49-1-.06-1.26-.73-1.58A77.51,77.51,0,0,1,217,299.5c-2.27-1.39-2.93-3.77-2.73-6.35a5.09,5.09,0,0,1,3.89-4.93c1.12-.34,1.09-.44.79-1.93-1.54-.25-3.09-.53-4.65-.74-2.23-.29-4.12-1-5-3.35,0-.09-.17-.15-.26-.23Zm70.89,1c-1.94,1.13-3.76,2.2-5.58,3.24-3.17,1.81-6.34,3.59-9.51,5.39a3.56,3.56,0,0,0-2.06,2.19c2.15.16,4.14.33,6.13.44a4.19,4.19,0,0,0,1.61-.22,28.94,28.94,0,0,0,8.44-4.58c.23-.19.55-.37.64-.62A9.78,9.78,0,0,0,276.79,282.75Zm-27.15,84.9c5.54-.67,25.3-6.73,28.55-9.78-.43.09-.72.13-1,.21-8.29,2.14-16.53,4.46-25,5.85-2.9.48-2.88.56-2.62,3.56C249.57,367.55,249.62,367.6,249.64,367.65Zm-65.89-83.56c.7.06,1,.11,1.29.1a52.4,52.4,0,0,1,18.68,2.59c.22.08.51-.07,1.08-.16-1.27-1.18-2.06-2.34-1.78-3.87-.44-.11-.73-.19-1-.24-3.11-.55-6.21-1.14-9.33-1.6a20.2,20.2,0,0,0-3.65-.1C186.78,280.86,185.54,282.54,183.75,284.09Zm-15.66,5,.26,0c.11-.7.26-1.39.32-2.09s0-1.35.06-2c.19-1.17,1.56-2.09,2.41-1.48,1.46,1,3.44,1.55,3.93,3.58a15.77,15.77,0,0,1,1.83-1.89,15.44,15.44,0,0,1,2.2-1.17l1.09-3.13a25.52,25.52,0,0,1-4.34.18c-1.6-.19-3.49-.16-4.13-2.27-.82-2.71-1.87-2.77-3.86-.4,1.36,1.47,1.27,3.09.38,4.8a4,4,0,0,0-.43,1.74C167.83,286.39,168,287.76,168.09,289.12Zm78.6,53.32a10.81,10.81,0,0,1,6.24,3.41,22.1,22.1,0,0,0,2,1.64,10.83,10.83,0,0,0,1.38.73l-1.52-9.37c-1.79-.24-3.59-.48-5.4-.69a15.71,15.71,0,0,0-1.69,0C247.35,339.53,247.05,340.83,246.69,342.44Zm-6.87-47.74a17.4,17.4,0,0,0-6.59,1.65,4.64,4.64,0,0,0-2.84,3.86,91.79,91.79,0,0,0,10.4,1,5.76,5.76,0,0,0,0-.78C240.48,298.62,240.17,296.77,239.82,294.7Zm16.6,41.51.32,0,8-11.27-1.94-2.88a28.82,28.82,0,0,0-3.55,3.69c-.63.95-1.83,1.5-1.95,2.85C257.1,331.17,256.73,333.69,256.42,336.21ZM241.24,303l-17.56-2a3.18,3.18,0,0,0,1.68,1,11.76,11.76,0,0,0,2.15,0c.11.61.21,1.13.33,1.73,4.61.45,9.17,1.41,14,1.59C241.57,304.37,241.39,303.62,241.24,303Zm-66.32-13.2a27.54,27.54,0,0,0,.54,3.75,4.43,4.43,0,0,0,1.33,2.09,17.24,17.24,0,0,0,3.75,2.55,23,23,0,0,0,4.83,1.51c1.28.27,1.72-.16,1.91-1.36C179.1,295.92,177.4,294.21,174.92,289.78Zm12.1-10.5c.95-.18,2-.42,3-.56s2.18,0,2.87-1.2l-3.58-2.93c-1.83.77-3.49,1.48-5.16,2.16s-3.5,1-5.3,2.07a3.88,3.88,0,0,0,3.63-.49,2,2,0,0,1,2.49-.22C185.63,278.48,186.31,278.88,187,279.28Zm72.16,38.82,1.71-1.3a33.7,33.7,0,0,1,2.39,2.89c1.62,2.5,3.15,5.05,4.73,7.58a10.22,10.22,0,0,0,.63.84c-.64-2.39-8.16-15.75-9.46-16.91ZM238,212.27c1.59,2.48,4.23,3,6.22,1.24,1.6-1.43,2.1-3.39,2.48-5.83C243.13,212.35,242.67,211.55,238,212.27Zm20.77,82.52c-.09.81-.11,1.47-.24,2.1-.26,1.32.08,2.75-1,3.95a2.71,2.71,0,0,0-.36,2,19.29,19.29,0,0,0,1.2,3c1.45-3.58,1.32-7.15,1.67-10.66Zm-7.76,67.72v-3.76l-3.68.26,1.78,4.1Zm-6.38-3.25c-2.28-.39-5.51-.32-6.48.14-.13.71.22.88.88,1a22.12,22.12,0,0,0,4.81.08C244.78,360.43,244.82,359.93,244.67,359.26Zm11-59.11a5.56,5.56,0,0,0,1.17-5.22C254.09,296.91,253.85,297.88,255.7,300.15Zm68.77-132.07c.85-.07.81-.73.9-1.32l.72-4.47c.13-.86.27-1.72.45-2.82C324.84,160.79,323.89,165.21,324.47,168.08ZM180.8,283.53c2.29-.31,3.32-1.86,4.6-3,0-.05,0-.21,0-.43l-1.35-.66A9.68,9.68,0,0,0,180.8,283.53ZM319.67,175.68c2-1.31,2.05-3.57,0-5.79C320,172,318.46,173.77,319.67,175.68Zm1.85-6.92c1,.33,1.13-.27,1.19-1,.13-1.79.26-3.58.41-5.49A12.85,12.85,0,0,0,321.52,168.76Zm7.61-6.29-.42-.08c-.38,1-.82,2-1.13,3s-1.09,1.8-.37,3.27A22.28,22.28,0,0,0,329.13,162.47Zm-70.7,159.44c-.1.76-.2,1.52-.35,2.58C259.34,323.26,259.34,323.26,258.43,321.91Zm-5.11-40.39c-.08,1.43.73,2,2.22,1.37Zm76.09-111.95.4.08.57-2.27A1.92,1.92,0,0,0,329.41,169.57Zm-85.63,11,.28.21,1.52-1.23-1.11-.48Zm.95,166.8-.31.39,1.46,1,.2-.29Zm16.9-26.4.48-.15-.48-.85-.25.1Zm-85.14-41.57,0,.36,1-.22-.1-.39Z"/><path d="M237.82,185.91c-.73.79-1.41,1.63-2.19,2.36-2.44,2.29-5,2.26-7.4-.06-.52-.5-1-1.06-1.52-1.56a5.18,5.18,0,0,1-1.62-4.62h0c1.1-.59,1.72,0,2.18.9a8.66,8.66,0,0,0,3.41,3.43,2,2,0,0,0,2.64-.21,32.58,32.58,0,0,0,2.43-2.69c.42-.53.74-1.12,1.55-1.05l0,0C238,183.47,237.75,184.71,237.82,185.91Z"/><path d="M247.8,181.79a.93.93,0,0,1-.26,1.41,10.57,10.57,0,0,1-1.31.91,1.09,1.09,0,0,1-.94.06,1.06,1.06,0,0,1-.19-.94c.33-1.07,1.29-1.52,2.73-1.39Z"/><path d="M238,206.52c-1-.26-2.1-.47-3.11-.83-.26-.09-.36-.63-.54-1,.36-.12.73-.38,1.07-.34.77.09,1.51.38,2.28.49a4.36,4.36,0,0,0,4.12-1.77c.2-.23.3-.57.53-.72s.78-.48,1-.38c.61.23.44.81.17,1.22C242.27,205.19,240.6,206.56,238,206.52Z"/><path d="M237.27,182.42c-1-1.19-1.14-2-.5-3.21.32-.61.75-.78,1.3-.35s1.24.83,1.1,1.71a1.66,1.66,0,0,1-1.32,1.53,3.19,3.19,0,0,0-.63.28Z"/></svg>