<svg xmlns="http://www.w3.org/2000/svg" width="500" height="350" viewBox="0 0 500 350"><path d="M256.35,263.14c-.75,1.1-1.32,2-2,2.86A11.58,11.58,0,0,1,244,270.63c-2.88-.13-4.76-2.18-6.08-4.48a15.58,15.58,0,0,1-1.35-12.86,34.24,34.24,0,0,1,1.55-3.89,1.55,1.55,0,0,0,0-1.67q-5-8.67-10-17.39-4.53-7.91-9-15.85c-.78-1.38-1.5-2.78-2.28-4.16-.35-.62-.78-1.19-1.36-2.07-.15.56-.36.9-.27,1a4.82,4.82,0,0,1,.72,3.68,2.86,2.86,0,0,0,1.1,2.71,18.27,18.27,0,0,1,5.13,8.06c1.61,4.39,3.2,8.79,4.95,13.13a22.44,22.44,0,0,1,1.34,11.44c-.58,4.64-.91,9.32-1.35,14a21.21,21.21,0,0,1-2.12,7.13q-3.3,6.91-6.72,13.76a51.27,51.27,0,0,1-3.31,5.88,19.73,19.73,0,0,1-3.7,4.23A44.65,44.65,0,0,1,200.41,300,26.62,26.62,0,0,1,187,302c-7.05-.78-13.25-3.63-17.9-9.17-2.38-2.84-4.6-5.83-6.71-8.88-1.71-2.48-2.39-5.43-3.08-8.33a41,41,0,0,1-1.28-13,70.57,70.57,0,0,1,1.51-9.35c1.33-5.74,2.52-11.52,4.7-17a46.72,46.72,0,0,1,11.41-16.76,49.55,49.55,0,0,1,11.24-8.37c6-3.1,12.24-4.23,18.87-2.53.17,0,.36,0,.7.05.78-2.05,1.61-4.13,2.33-6.23,1.42-4.14,2.57-8.39,4.26-12.41a15.47,15.47,0,0,0,1.29-6.85c-.12-3-1.54-5.06-4.36-5.76a58.1,58.1,0,0,0-8.95-1.6c-4.06-.33-8.14-.31-12.21-.37-2.85,0-4.23,2.32-2.91,4.85a8.11,8.11,0,0,0,3.16,3.47c2.33,1.29,4.65,2.67,7.45,2.69.88,0,1.16.51,1.18,1.29.06,2.33-1.61,3.69-4.16,3.28a16.7,16.7,0,0,1-6.75-2.63c-.75-.51-1.47-1.08-2.21-1.62a5.22,5.22,0,0,1-2-3.54c-.3-2-.43-4-.71-6a1.77,1.77,0,0,0-.65-1.16,19.5,19.5,0,0,0-2.45-1.15c.49,2.79-.47,5-1.26,7.19-.68,1.92-2.12,3.24-3.43,4.66a1.59,1.59,0,0,1-1.44.23c-.6-.28-.43-.93-.14-1.44s.61-1.05.93-1.57a11.46,11.46,0,0,0,1.61-7.87,6,6,0,0,1,.62-3.89,2.3,2.3,0,0,0-.31-3c-.84-.9-.72-1.43.24-2.31a15.87,15.87,0,0,1,1.55-1.27c1.71-1.21,2.84-1,4.13,1.13a15.36,15.36,0,0,1,.81,1.91c.25.05.4.13.48.08,3.4-1.78,7.14-2.68,10.74-3.93a10.8,10.8,0,0,0,5.1-3.63A56.13,56.13,0,0,0,205,150.77a55.4,55.4,0,0,1,9.86-13.53,19.91,19.91,0,0,0,4.58-8.18c1.41-4.72,2.61-9.49,4-14.2a29.52,29.52,0,0,1,5.75-10.08,17.46,17.46,0,0,1,3.14-2.47l7.55-5.77c-1-1.5-1.93-2.78-2.76-4.11a22.31,22.31,0,0,1-1.84-3.35,5.83,5.83,0,0,0-2.5-3c-3.28-1.79-4.34-4.9-3.1-9s3-7.69,6.71-10.13a12.34,12.34,0,0,1,4.94-2.22c2.58-.4,5.14-1,7.78-.36A8.45,8.45,0,0,1,253.81,67a11.52,11.52,0,0,0,2.38,2,7.6,7.6,0,0,1,3.4,6.33,3.32,3.32,0,0,1-2.11,3.66l-.87.41c.2,3.3.39,6.49.58,9.71,3.12-.64,6.07-1.29,9-1.84,1.49-.28,3-.35,4.52-.56a25.72,25.72,0,0,0,3.4-.6,34.06,34.06,0,0,1,14.6-.58c6.16,1,12.19.19,17.46-3.72A41,41,0,0,1,317,76c2.23-.8,4.42-1.7,6.62-2.58.45-.18.86-.45,1.29-.66A2.54,2.54,0,0,0,326.3,70a74.46,74.46,0,0,1,.24-7.46c.06-1.09.29-2.17.34-3.25.07-1.43,0-1.43,1.51-2,.61-1.94,1.22-3.84,1.83-5.75.35-1.08.86-2,2.14-2.22a1.24,1.24,0,0,0,.72-.48,2.18,2.18,0,0,1,2.55-.94c1.16.31,1,1.35,1.11,2.43a5.3,5.3,0,0,1,.65-.17c1.93-.2,2.49.43,2,2.28-.14.58-.29,1.16-.47,1.91.7-.14,1.26-.29,1.83-.35,1-.12,1.48.4,1.22,1.4a1.61,1.61,0,0,1-.27.67c-1.92,1.95-1.92,4.47-2.14,6.94s-.3,4.86-.75,7.24A12.9,12.9,0,0,1,337,74.4,4.12,4.12,0,0,1,334.9,76a3.45,3.45,0,0,0-2.07,1.64,14.19,14.19,0,0,1-3.93,4.27q-6.82,5.19-13.62,10.43a14.52,14.52,0,0,1-7.61,3.19,21.44,21.44,0,0,0-5.95,1.61A55.72,55.72,0,0,1,286,101c-.89.09-1.8,0-3,0,.13,1.31.15,2.45.37,3.55a67.19,67.19,0,0,0,4.11,13.78,233.1,233.1,0,0,1,8.74,24.36c.67,2.17.37,4.32.55,6.48a31.36,31.36,0,0,1-2.33,13.56,15.38,15.38,0,0,1-6,7.61l-1.57,1.09a12.54,12.54,0,0,1-.18,6.82,3.62,3.62,0,0,1-1,1.62,27.83,27.83,0,0,1-9.24,5,13.39,13.39,0,0,1-3.6.31c-.78,0-1.56-.08-2.51-.14-.17,1.79-.32,3.47-.51,5.14-.14,1.13-.3,2.27-.52,3.39-.26,1.31-.63,2.59-.87,3.91a2,2,0,0,0,.25,1.18c1.56,2.82,3.16,5.62,4.76,8.41.12.21.27.39.46.66,3.87-2.09,8.07-2.94,12.32-3.68a15.54,15.54,0,0,1,11,2.25c9.11,5.47,14.6,13.38,16,24,.24,1.81.5,3.62.76,5.42.7,4.84,0,9.56-.85,14.32-1.17,6.65-3.68,12.82-5.92,19.13A49.3,49.3,0,0,1,300,282a10,10,0,0,1-5.38,3.6c-3.62,1-7.3,1.85-11,2.63a16.27,16.27,0,0,1-13.16-2.85,84.61,84.61,0,0,1-7.12-5.7c-3.35-2.94-4.68-7-5.83-11.15-.35-1.29-.51-2.63-.77-3.94C256.64,264.17,256.52,263.78,256.35,263.14ZM233.77,71.82a44.51,44.51,0,0,0-2.23,4.55,13.25,13.25,0,0,0-.72,3.9,4.26,4.26,0,0,0,2.58,4.23l3.68-2.07a2.17,2.17,0,0,0-1.43-.35,14.36,14.36,0,0,1-1.45.11c-.68,0-1-.52-.74-1.14a9.51,9.51,0,0,1,1.2-2,1.07,1.07,0,0,1,1-.18c1.35.74,3,1,3.82,2.54l4.31-1.7c.27-.11.64-.22.76-.44.68-1.19,1.29-2.42,1.93-3.63,2.1-.84,3.6-.61,4.78.84l-1.94,1.77c2.36-.15,4.52-.24,6.67-.45a2.26,2.26,0,0,0,2-1.36c.49-1.22-.36-4-1.51-4.88l0,0a1.53,1.53,0,0,0-1.29-1.29c-.46.52-.88,1-1.33,1.52-.69.76-1.06.78-1.95.16-.14-.1-.24-.26-.39-.34-1.48-.78-1.63-1.26-.72-2.55.4-.58.88-1.09,1.47-1.81l-2.93-1.5c0,.44,0,.62,0,.79.07.66,0,1.36-.7,1.5a2.08,2.08,0,0,1-1.64-.41,11,11,0,0,1-1.35-2.18l-1.6.38c-.08,1.35-.11,2.56-.26,3.77a10.25,10.25,0,0,1-.6,2.44,1.33,1.33,0,0,1-.95.64c-.2,0-.59-.41-.67-.71a7.22,7.22,0,0,1-.3-2c0-1.25.1-2.51.16-4l-2.1.74c.1,2.07.21,4,.28,5.94,0,1-.63,1.39-1.55.9A2.85,2.85,0,0,1,236.61,71c0-.68,0-1.36,0-2l-.38-.14-2.49,3ZM202.25,255.35c.13.56.47,1.3.29,1.46a2.07,2.07,0,0,1-1.6.57,8.26,8.26,0,0,1-2.19-1.2,1.29,1.29,0,0,1-.49-1.6c.57-2.23,1.07-4.49,1.69-6.7,2-7.21,4.56-14.24,7.25-21.21.68-1.76,1.15-3.59,1.77-5.37a1.7,1.7,0,0,0-.78-2.19,17.27,17.27,0,0,0-6.14-2.56c-6.05-1-11.35.94-16.22,4.12a46.27,46.27,0,0,0-14.93,16.48A37.86,37.86,0,0,0,167,248.49c-1.79,8.85-1.94,17.56,1.2,26.24A32.66,32.66,0,0,0,177,288.15c3.36,3,7,5.69,11.63,6.48,2.09.35,4.24,1,6.29.06,2.87-1.31,5.73-2.67,8.47-4.22a27.8,27.8,0,0,0,11-11.46c1-1.93,2-3.88,2.91-5.88a91.22,91.22,0,0,0,5.21-16.48,34.14,34.14,0,0,0,.49-14.12c-1.33-7-4.51-13.18-8.32-19.1a7.11,7.11,0,0,0-.78-.83C209.63,233.48,206.69,244.66,202.25,255.35ZM256,150.46c1.29,0,2.73,0,4.17,0a10.1,10.1,0,0,0,3.91-.63c2.9-1.09,5.83-2.08,8.76-3.09a22.9,22.9,0,0,1,10.41-1.24l4.16.51a26,26,0,0,0,8.08-.37c-.2-.83-.33-1.61-.58-2.35-2.43-7.07-4.72-14.19-7.38-21.17-1.83-4.83-4-9.54-5-14.65-.37-2-.71-3.95-.89-5.94-.15-1.61.38-2,2-2,.91,0,1.82,0,2.73,0a7.64,7.64,0,0,0,1.42-.39c-1.8-4.17-.88-8.07.54-12-.54-.14-1.06-.3-1.59-.4a25.17,25.17,0,0,0-11,.52c-1.35.34-2.72.67-4.09.88-2,.31-4.11.43-6.14.78-2.27.4-4.53.93-6.76,1.48-.54.14-1.31.54-1.42,1a11.32,11.32,0,0,0-.55,4.09,11.84,11.84,0,0,1-1.39,7.21,5.52,5.52,0,0,1-5.32,3.2,5.34,5.34,0,0,1-5.14-3.73c-.74-2.16-2.57-3.07-3.87-4.38L231.19,105a4.12,4.12,0,0,0-.82.73,30.6,30.6,0,0,0-5.78,10.67c-.77,2.87-1.63,5.72-2.44,8.59-.18.63-.33,1.27-.52,2,1.84.6,3.55,1.2,5.29,1.7a31.45,31.45,0,0,0,3.21.65,1.74,1.74,0,0,0,2.08-1c.35-.71.78-1.37,1.18-2.05a51.52,51.52,0,0,1,4.22-5.27,20.61,20.61,0,0,0,2.41,1.07c4.14,1.24,7,4.14,9.29,7.55,1.87,2.76,3.4,5.75,5.23,8.55a9,9,0,0,1,1.41,5.17C255.94,145.62,256,147.92,256,150.46Zm5.71,108a36.11,36.11,0,0,0,1.07,4.41,42,42,0,0,0,8.48,13.08,17,17,0,0,0,5.7,4.16,12.65,12.65,0,0,0,12.54-.57c1.45-.88,2.92-1.76,4.32-2.72a19.11,19.11,0,0,0,5.78-6c5.62-9.36,9-19.41,8.85-30.42a64.56,64.56,0,0,0-.78-9.62,36.5,36.5,0,0,0-5.82-14.05,13.47,13.47,0,0,0-8.13-5.82,20.58,20.58,0,0,0-15,2.15,6.5,6.5,0,0,0-1.13,1c.33.75.59,1.42.91,2.07q6.42,12.89,12.86,25.77c.57,1.15,1.12,2.3,1.6,3.49s.06,1.85-1.21,2.24a17.69,17.69,0,0,0-3,1.17,97.46,97.46,0,0,1-19,7.37C267.12,256.86,264.56,257.61,261.66,258.45Zm-24.29-68.69a29.28,29.28,0,0,0,1.09-3.33A83.12,83.12,0,0,1,247,163.05c2-3.68,4.32-7.19,6.49-10.79a3.19,3.19,0,0,0,.63-1.28c.14-3,.25-5.95.26-8.92a5.69,5.69,0,0,0-.64-2.25,19.87,19.87,0,0,0-1.5-2.71c-2.54-3.91-4.61-8.14-8.32-11.22a15.17,15.17,0,0,0-6.15-2.88c-1.09,1.41-2.24,2.75-3.2,4.21-1.33,2-2.59,4.11-3.77,6.23-2.28,4.09-4.58,8.16-6.7,12.33a31.1,31.1,0,0,1-7.21,9.78c-4,3.46-8,6.9-12.09,10.28a11.93,11.93,0,0,0-2.68,3.66c3.41.52,6.58,1,9.75,1.45a1.61,1.61,0,0,0,1-.36c1.84-1.24,3.74-.53,5.62-.17a1.39,1.39,0,0,1,.87.84c.51,2,2.09,2.36,3.76,2.6s3.14.35,4.69.6a2.1,2.1,0,0,1,1.38.65,3.17,3.17,0,0,1-1.72,4.3c-.22.09-.46.15-.69.23a3,3,0,0,0-2.21,2.64,10.32,10.32,0,0,0,0,2.72,4.6,4.6,0,0,0,4.34,3.93q1.37.09,2.73.24C233.48,189.34,235.35,189.54,237.37,189.76ZM295,147.36a38.58,38.58,0,0,1-3.89.26c-2.73-.13-5.46-.34-8.18-.6a17.78,17.78,0,0,0-7.4.51c-2.88,1-5.78,1.87-8.64,2.89-2.64.94-5.26,1.88-8.14,1.53-.6-.07-1.23.08-1.83,0a2.09,2.09,0,0,0-2.3,1.33c-.74,1.33-1.56,2.61-2.39,3.88a86.88,86.88,0,0,0-11.59,26.24c-.14.55-.24,1.11-.33,1.5l8-2.26c.07-.76.2-1.66.21-2.57a12.51,12.51,0,0,1,2.9-7.9,46.32,46.32,0,0,1,4.95-5.34c4.34-3.91,8.79-7.69,13.23-11.49,1.24-1.07,2.55-2.08,3.89-3a7.21,7.21,0,0,1,2.12-1c.29-.09.71.25,1.07.39-.2.32-.33.75-.62.95a29.92,29.92,0,0,0-2.62,1.59c-4.67,3.9-9.28,7.86-13.91,11.81-.77.66-1.51,1.35-2.46,2.2a19.44,19.44,0,0,1,8.6,3.64c1.07-.6,2.07-1.17,3.08-1.7.52-.28,1.1-.42,1.37.29s-.33.8-.76,1.05c-.87.5-1.72,1-2.45,1.47,1,2.41,1.84,4.57,2.74,6.79,1.4-.8,2.72-1.54,4-2.31,4.6-2.74,9.22-5.43,13.77-8.24a13.44,13.44,0,0,0,5.79-7.51,62.36,62.36,0,0,0,2-7.95A15.47,15.47,0,0,0,295,147.36Zm-57.45,47.86a10,10,0,0,0-.6,7.16,115.36,115.36,0,0,0,6.52,16.8,104.77,104.77,0,0,1,7.1,16.17c.18.59.76,1.38-.15,1.72s-1-.64-1.24-1.2a3.62,3.62,0,0,1-.13-.35c-1.74-4.07-3.42-8.18-5.23-12.22-1.32-2.93-3-5.72-4.19-8.7-1.5-3.72-2.73-7.54-4-11.35a14.64,14.64,0,0,1-.66-3.94,16.46,16.46,0,0,1,.45-3.06c-1.49-.16-2.92-.28-4.33-.48-2.52-.36-5-.8-7.56-1.15-1.18-.17-2.39-.2-3.61-.29-.3.8-.49,1.51-.81,2.16a2.89,2.89,0,0,0,.34,3c1.42,2.34,2.71,4.75,4.05,7.14,2.56,4.56,4.94,9.22,7.7,13.65a205.33,205.33,0,0,1,10.41,17.78c.37.74.83,1.44,1.17,2,2.13-.52,4-1,5.9-1.43a3.78,3.78,0,0,0,2.77-1.87,28.9,28.9,0,0,0,3-7.6,19.77,19.77,0,0,0,.31-3.61,62.92,62.92,0,0,0-.18-7.27c-.46-4.17-1.11-8.32-1.8-12.46-.5-3-1.2-5.93-1.82-8.94Zm-27.91,22.91c.08-1.28.2-2.36.23-3.45.07-3.18.05-3.15-2.87-4.17-6.68-2.34-13.05-1.32-19.2,1.8a46.93,46.93,0,0,0-9.76,7,44.83,44.83,0,0,0-13.72,21.35c-1.53,5.24-2.82,10.57-4,15.91a36.52,36.52,0,0,0-.44,14.32c.71,3.89,1.26,7.86,3.27,11.33a84.86,84.86,0,0,0,5.09,7.33,26.92,26.92,0,0,0,11.59,9.14c6.41,2.65,12.79,2.45,19.2.21,3.48-1.21,6.43-3.4,9.48-5.41a16.17,16.17,0,0,0,5.36-5.64c1.47-2.65,2.82-5.37,4.19-8.08,1.86-3.69,3.74-7.38,5.52-11.11a20,20,0,0,0,2-6.78c.35-4,.54-8,1.16-12A25.23,25.23,0,0,0,225,235.65c-1.67-3.9-3-8-4.52-11.92a26.59,26.59,0,0,0-2-4.08,6.8,6.8,0,0,0-2.9-2.94c-.32,1-.57,2-.89,2.88a1.79,1.79,0,0,0,.32,1.85,56.11,56.11,0,0,1,6,10.41c2.76,5.94,4.42,12.13,3.81,18.72a65.47,65.47,0,0,1-1.41,8.44,77.12,77.12,0,0,1-6.8,19,36.16,36.16,0,0,1-5.86,8.55,40.34,40.34,0,0,1-13.69,8.85,11.7,11.7,0,0,1-3.63,1.1,18.8,18.8,0,0,1-9.24-1.67,33,33,0,0,1-17.76-20.7,36,36,0,0,1-2.18-11.42A64.12,64.12,0,0,1,165,250.9c1.19-7.24,3.5-14,8-19.91a57.7,57.7,0,0,1,9.77-10,29.09,29.09,0,0,1,5.08-3.19,24.65,24.65,0,0,1,12.26-3,14,14,0,0,1,6.91,1.91C207.83,217.18,208.65,217.58,209.66,218.13Zm51.07-47.46c-1.4-.3-2.69-.63-4-.81a2.09,2.09,0,0,0-1.51.39c-3.53,3.15-5.68,7-5.24,11.86.32,3.44.83,6.88,1.48,10.27.83,4.35,2,8.65,2.81,13,.71,3.63,1.17,7.31,1.73,11a19.16,19.16,0,0,1,.2,2c.09,2.6.16,5.19.24,7.9l6.9.8c.74-5.16,1.54-10.13,2.13-15.12.41-3.5.65-7,.72-10.54a17.29,17.29,0,0,0-3.57-11.08c-1.39-1.82-1.7-3.2.46-5.45a18,18,0,0,1,3.59-2.78,2,2,0,0,0,1.1-2.41c-.5-1.62-1.14-3.19-1.76-4.77a.92.92,0,0,0-1.35-.52c-1.42.69-2.52.15-3.67-.7-.78-.56-1.08-1.09-.66-2C260.47,171.43,260.55,171.15,260.73,170.67Zm-2.91,88.75a31.12,31.12,0,0,0,1.42,9.64c1,3.33,2,6.73,4.72,9.11a81.61,81.61,0,0,0,8.46,6.62,12.67,12.67,0,0,0,9.58,2.09c4.1-.81,8.2-1.71,12.24-2.79a8.66,8.66,0,0,0,4.73-3.25,47.54,47.54,0,0,0,7-12.32c2.21-6.18,4.67-12.25,5.8-18.78.76-4.39,1.48-8.75.88-13.22-.34-2.47-.7-4.93-1.1-7.39-1.61-9.81-7.06-16.9-15.56-21.76a12.44,12.44,0,0,0-7.11-2,41.94,41.94,0,0,0-11.54,2.51c-.87.33-1.67.83-2.65,1.32l2.06,3.29a23.17,23.17,0,0,1,14-3.56,16.32,16.32,0,0,1,10.52,4.81,24.85,24.85,0,0,1,3.95,5.88,34.15,34.15,0,0,1,4.09,11.82,55.81,55.81,0,0,1-3.16,29.22,92.27,92.27,0,0,1-4.88,10.18c-3.19,5.77-8.57,9-14.42,11.47a11.93,11.93,0,0,1-5.37.56,16.36,16.36,0,0,1-10.46-5,44.58,44.58,0,0,1-8.93-12.59,38.89,38.89,0,0,1-1.67-5.37,10.37,10.37,0,0,1-.24-1.29Zm16.54-43a20.22,20.22,0,0,0-1.75,1.95c-2.28,3.31-4.49,6.66-6.76,10a3.16,3.16,0,0,0-.57,2.58c.16.83.29,1.68.5,2.5a1.47,1.47,0,0,0,.55.84,2.72,2.72,0,0,1,1.4,2.76c0,2.74,0,5.48-.09,8.21-.09,2.29-.87,3-3.15,3.16-1,.07-1.92.08-2.82.11-.55,1.84-.55,2-.05,3.54,9.64-1.5,18.92-4.56,28.43-6.69C289.05,242.11,277.25,220.31,274.36,216.43ZM225,193.17c-1.48-1.83-2.93-3.52-4.28-5.3a8.25,8.25,0,0,1-1.7-5.82c.07-.82,0-1.66,0-2.49l-2.72-.71c.21.89.37,1.53.53,2.17.75,3.07-.13,6-.59,9-.05.36-.55.77-.95,1a3.27,3.27,0,0,0-1.72,2.19c-.86,2.66-1.8,5.29-2.74,7.92s-1.94,5.35-3,8.13a4.84,4.84,0,0,0,1.38.19c1.64-.29,1.75-.29,1.91,1.24a30.84,30.84,0,0,1-.38,9.44c-.91,4.44-2.81,8.54-4.34,12.76a143.22,143.22,0,0,0-6.26,20.55,8.41,8.41,0,0,0-.06,1.12,1.77,1.77,0,0,0,1.08-1c.72-1.67,1.48-3.34,2.07-5.06,3.29-9.6,6.53-19.21,9.81-28.81a23.48,23.48,0,0,0,1.3-7.51,2.66,2.66,0,0,0-.27-1.58c-1.08-1.27-.49-2.39.13-3.52a1.17,1.17,0,0,1,2.15-.12,24.28,24.28,0,0,1,1.59,2.44c2.48,4.33,5,8.65,7.41,13q6.18,10.95,12.35,21.93c.53.93,1.14,1.81,1.77,2.79l1.72-1.33c-1.16-2.1-1.13-2.47.33-4.52a158.9,158.9,0,0,0-9.49-16.81c-1.6-2.44-3.15-4.92-4.58-7.47-2.68-4.77-5.24-9.6-7.88-14.39-.77-1.38-1.67-2.69-2.43-4.08a2.1,2.1,0,0,1-.22-1.5c.38-1.07,1-2.05,1.44-3.09.55-1.22.82-1.38,2.07-1.24C222,192.88,223.49,193,225,193.17ZM289.77,99a40.74,40.74,0,0,0,10.69-3,26.7,26.7,0,0,1,7.88-2.08,9,9,0,0,0,4.54-1.74c1.51-1.12,3-2.25,4.51-3.39,3.82-2.92,7.63-5.83,11.43-8.77a8.58,8.58,0,0,0,2.81-3.49,16.89,16.89,0,0,1-2.89-1.06,12.89,12.89,0,0,1-2-1.75c-2.83,1.16-5.53,2.4-8.33,3.38a42.83,42.83,0,0,0-11.72,6.17,15.67,15.67,0,0,1-6.57,3c-2.79.53-5.63.84-8.45,1.26-1.91.29-2.49.83-2.82,2.74-.24,1.44-.41,2.89-.51,4.34A5.71,5.71,0,0,0,289.77,99Zm-87.55,66.93a3.69,3.69,0,0,0,.58-.3c4.76-4.07,9.59-8.05,14.21-12.26a26.86,26.86,0,0,0,4.2-5.47c1-1.51,1.57-3.28,2.45-4.87,2-3.62,4.07-7.19,6.11-10.78.23-.4.4-.82.54-1.1l-9.05-2.54c-.15.46-.24.8-.36,1.14a24.21,24.21,0,0,1-5.11,8.72,58.29,58.29,0,0,0-9.85,13.73c-1.47,2.84-3.33,5.5-5.06,8.21-.58.91-1.3,1.73-2.09,2.76C200,164.12,201.12,165,202.22,165.91Zm42.9,82.47c-.6-.29-1.09-.52-1.59-.74a1.87,1.87,0,0,0-2.61.43,7.77,7.77,0,0,0-1.21,1.59,17.46,17.46,0,0,0-2.35,9.62,12,12,0,0,0,1.73,5.9c2.7,4.11,5,4.74,8.9,3.49a9.78,9.78,0,0,0,5.6-4.12c1.54-2.43,3.06-4.85,3.08-7.87a13.73,13.73,0,0,0-1.65-6.43,2.44,2.44,0,0,1-2.36,1.55,36.64,36.64,0,0,1-4.68-.06c-2.37-.41-2.4-.23-2.81-2.54A8.16,8.16,0,0,1,245.12,248.38ZM234.89,85.49a20.46,20.46,0,0,1,1.47,2.29A30.81,30.81,0,0,0,244.85,99a5.63,5.63,0,0,0,6.85.34c1.26-.83,1.7-2.19,2.51-3.3a7.11,7.11,0,0,0,1.43-4.25c0-1.94-.16-3.89-.15-5.83a11.44,11.44,0,0,0-1.38-4.85,2.24,2.24,0,0,0-2.71-1.51c-1,.15-1.94.12-2.89.31-4.51.9-8.58,3-12.71,4.9A6,6,0,0,0,234.89,85.49Zm19.59,148.17-.5,1.86c1.07,1,2,1.84,2.91,2.75.55.57,1.1,1.33.52,2.11s-1.4.41-2.13.05c-.35-.17-.72-.26-1.34-.48.21.54.34.8.41,1.07.19.64.49,1.44-.21,1.8-.42.22-1.14,0-1.68-.2a7.39,7.39,0,0,1-1.35-.75c-.16.66-.11,1.43-.47,1.78-.64.62-1.37,0-2-.33-1.13-.67-2.23-1.41-3.54-2.24a3.93,3.93,0,0,0-2.51,1.53c-.82.9-.81,1.25-.05,2.2a6.79,6.79,0,0,0,5.63,2.49c5.34-.05,10.68-.23,16-.36a4.45,4.45,0,0,0,.72-.1,1.34,1.34,0,0,0,1.22-1.37c0-2.09,0-4.18,0-6.49-1.32,1-2.33.48-3.27-.29-1.12-.93-2.22-1.89-3.31-2.85A8,8,0,0,0,254.48,233.66ZM327.56,67.45c.17,1.68.24,3.38.57,5a2.62,2.62,0,0,0,1.31,1.64c3.28,1.45,6.35,1.29,7.63-2.93A24.81,24.81,0,0,0,338,62c0-.28-.08-.68-.27-.83-1.52-1.17-3-2.48-5.18-1.55a1.53,1.53,0,0,0-1.14,1.59,19.82,19.82,0,0,1-.4,3.43,3.09,3.09,0,0,1-1.92,2.27C328.68,67.09,328.22,67.22,327.56,67.45Zm-113,104.06a11.17,11.17,0,0,0-.88,1.28c-.18.33-.43.94-.29,1.08,1.13,1.19,1.58,3.08,3.52,3.46a16.15,16.15,0,0,1,1.9.61c1.47.47,1.86,1,1.85,2.51,0,.61-.08,1.21-.13,1.82a5.7,5.7,0,0,0,1,4,32.39,32.39,0,0,0,4.33,5.13,12.5,12.5,0,0,0,8,3.23c.49-1-.06-1.26-.73-1.58a78.86,78.86,0,0,1-7.46-3.76c-2.27-1.39-2.93-3.77-2.72-6.35A5.08,5.08,0,0,1,226.8,178c1.13-.34,1.1-.44.8-1.93-1.54-.25-3.09-.53-4.65-.74-2.23-.29-4.13-1-5-3.35,0-.1-.18-.15-.27-.23Zm70.9,1c-2,1.14-3.76,2.21-5.59,3.25l-9.51,5.39a3.52,3.52,0,0,0-2.05,2.19c2.15.16,4.14.33,6.13.44a4.11,4.11,0,0,0,1.6-.22A29.12,29.12,0,0,0,284.5,179c.23-.19.55-.37.63-.62A9.81,9.81,0,0,0,285.47,172.53Zm-27.15,84.91c5.54-.67,25.29-6.74,28.54-9.78-.42.09-.71.13-1,.21-8.29,2.14-16.53,4.46-25,5.85-2.9.48-2.89.56-2.62,3.56C258.24,257.33,258.29,257.39,258.32,257.44Zm-65.9-83.56c.7.06,1,.11,1.29.1a52.45,52.45,0,0,1,18.69,2.59c.21.08.51-.07,1.08-.16-1.28-1.18-2.06-2.34-1.78-3.87-.45-.11-.74-.19-1-.24-3.1-.55-6.21-1.14-9.33-1.61a22.08,22.08,0,0,0-3.64-.1C195.46,170.65,194.22,172.33,192.42,173.88Zm-15.65,5,.26,0c.11-.7.26-1.39.32-2.1s0-1.34.06-2c.19-1.18,1.56-2.09,2.41-1.48,1.46,1,3.44,1.55,3.93,3.58a15.85,15.85,0,0,1,1.82-1.9,16.38,16.38,0,0,1,2.2-1.16c.42-1.2.78-2.22,1.09-3.13a26.47,26.47,0,0,1-4.33.18c-1.61-.19-3.5-.16-4.13-2.27-.82-2.71-1.88-2.78-3.86-.4,1.36,1.47,1.27,3.09.38,4.8a3.81,3.81,0,0,0-.44,1.74C176.5,176.18,176.66,177.55,176.77,178.91Zm78.59,53.32a10.84,10.84,0,0,1,6.25,3.41,23.49,23.49,0,0,0,1.95,1.64,12.49,12.49,0,0,0,1.38.73c-.53-3.32-1-6.28-1.51-9.38-1.8-.23-3.6-.47-5.4-.68a15.76,15.76,0,0,0-1.69,0C256,229.32,255.73,230.61,255.36,232.23Zm-6.86-47.75a17.65,17.65,0,0,0-6.6,1.66,4.67,4.67,0,0,0-2.84,3.86,92.25,92.25,0,0,0,10.4,1,6.38,6.38,0,0,0,0-.78C249.16,188.41,248.85,186.56,248.5,184.48ZM265.1,226l.32,0,8-11.27-1.95-2.88a29.39,29.39,0,0,0-3.54,3.69c-.64.95-1.83,1.49-2,2.85C265.78,221,265.41,223.47,265.1,226Zm-15.19-33.22-17.56-2a3.24,3.24,0,0,0,1.69,1,12.62,12.62,0,0,0,2.14,0c.12.61.22,1.13.34,1.73,4.61.45,9.16,1.41,14,1.59C250.25,194.16,250.07,193.41,249.91,192.77Zm-66.32-13.2a27.55,27.55,0,0,0,.55,3.75,4.43,4.43,0,0,0,1.33,2.09,17.43,17.43,0,0,0,3.74,2.55,22.46,22.46,0,0,0,4.84,1.5c1.27.28,1.71-.15,1.9-1.35C187.78,185.71,186.08,184,183.59,179.57Zm12.1-10.5c1-.18,2-.42,3-.56s2.18.05,2.87-1.2L198,164.38c-1.83.77-3.48,1.48-5.15,2.16s-3.5,1-5.3,2.07a3.88,3.88,0,0,0,3.63-.49,2,2,0,0,1,2.48-.22C194.3,168.27,195,168.67,195.69,169.07Zm72.16,38.82,1.71-1.3a33.7,33.7,0,0,1,2.39,2.89c1.63,2.5,3.16,5.05,4.73,7.58.19.29.42.56.64.84-.64-2.39-8.17-15.75-9.47-16.91ZM246.72,102.06c1.59,2.48,4.22,3,6.21,1.24,1.6-1.43,2.1-3.39,2.48-5.83C251.81,102.14,251.34,101.34,246.72,102.06Zm20.76,82.52c-.08.81-.1,1.47-.23,2.1-.26,1.32.07,2.75-1,3.95a2.61,2.61,0,0,0-.36,2,18.91,18.91,0,0,0,1.19,3c1.45-3.58,1.33-7.15,1.68-10.66Zm-7.76,67.72v-3.76l-3.67.26c.62,1.45,1.17,2.7,1.77,4.1Zm-6.38-3.25c-2.28-.39-5.51-.32-6.47.14-.13.7.22.88.88,1a21.5,21.5,0,0,0,4.81.07C253.46,250.22,253.5,249.72,253.34,249.05Zm11-59.11a5.54,5.54,0,0,0,1.18-5.22C262.77,186.69,262.53,187.67,264.37,189.94ZM333.15,57.87c.85-.07.81-.73.9-1.32.23-1.49.47-3,.71-4.47l.46-2.82C333.52,50.58,332.57,55,333.15,57.87ZM189.47,173.31c2.3-.3,3.33-1.85,4.6-3,.06-.05,0-.21,0-.43l-1.35-.66A9.8,9.8,0,0,0,189.47,173.31ZM328.35,65.47c2-1.31,2-3.57,0-5.79C328.69,61.8,327.14,63.55,328.35,65.47Zm1.85-6.92c.94.33,1.12-.27,1.18-1,.14-1.79.27-3.58.41-5.49A12.93,12.93,0,0,0,330.2,58.55Zm7.6-6.29-.41-.08c-.38,1-.82,2-1.13,3s-1.1,1.8-.37,3.27A22.24,22.24,0,0,0,337.8,52.26ZM267.11,211.7c-.11.76-.21,1.52-.35,2.58C268,213.05,268,213.05,267.11,211.7ZM262,171.31c-.08,1.43.73,2,2.22,1.37ZM338.08,59.36l.41.08.57-2.27A1.94,1.94,0,0,0,338.08,59.36Zm-85.62,11,.28.21,1.52-1.23-1.11-.48Zm.94,166.8-.3.39,1.45,1,.2-.29Zm16.91-26.4.48-.15-.48-.85-.26.1ZM185.17,169.2l0,.36,1-.22-.1-.39Z"/><path d="M246.5,75.7c-.73.79-1.41,1.63-2.2,2.36-2.43,2.29-5,2.25-7.39-.06-.53-.5-1-1.06-1.52-1.56a5.18,5.18,0,0,1-1.62-4.62h0c1.1-.6,1.71,0,2.18.9a8.59,8.59,0,0,0,3.41,3.43,2,2,0,0,0,2.64-.22,34.22,34.22,0,0,0,2.42-2.68c.43-.53.75-1.12,1.56-1.05l0,0C246.63,73.26,246.43,74.5,246.5,75.7Z"/><path d="M256.47,71.58a.91.91,0,0,1-.25,1.4,9.18,9.18,0,0,1-1.32.92c-.27.14-.76.21-.93.06a1.06,1.06,0,0,1-.2-.94c.34-1.07,1.29-1.52,2.74-1.39Z"/><path d="M246.69,96.31c-1-.26-2.1-.47-3.11-.83-.26-.09-.37-.63-.55-1,.36-.12.73-.38,1.07-.34.77.09,1.52.37,2.29.49a4.37,4.37,0,0,0,4.12-1.77c.19-.23.3-.57.53-.72s.77-.48,1-.38c.62.23.44.81.17,1.21C251,95,249.28,96.35,246.69,96.31Z"/><path d="M246,72.21c-1-1.19-1.14-2-.5-3.21.31-.61.74-.78,1.3-.35s1.23.83,1.1,1.71a1.67,1.67,0,0,1-1.32,1.53,3,3,0,0,0-.63.28S246,72.21,246,72.21Z"/></svg>